<svg width="220" height="44" viewBox="0 0 220 44" fill="none" xmlns="http://www.w3.org/2000/svg">
<g clip-path="url(#clip0_538_65)">
<path d="M30.4099 39.3151C29.6514 39.8099 28.8607 40.2557 28.043 40.6498C26.7684 41.2693 25.4322 41.7587 24.0552 42.1104C22.3687 42.5446 20.6272 42.7397 18.8841 42.6896C15.934 42.6225 13.2927 42.102 10.9601 41.1283C8.71067 40.211 6.68523 38.8378 5.01714 37.099C3.39161 35.3926 2.12415 33.3905 1.28669 31.2061C0.422132 28.9522 -0.0138326 26.5624 0.000334496 24.1548C0.000334496 21.3343 0.437697 18.76 1.31242 16.432C2.13367 14.1836 3.42129 12.1258 5.09432 10.388C6.74227 8.68863 8.7303 7.33987 10.9344 6.42588C13.1812 5.48571 15.6768 5.01562 18.421 5.01562C20.8565 5.01562 23.0347 5.33461 24.9557 5.97259C26.8767 6.61056 28.4546 7.31569 29.6895 8.08797L27.0139 14.3334C25.9133 13.5795 24.7417 12.9301 23.515 12.3943C21.9789 11.7199 20.3101 11.3846 18.6268 11.4121C16.5933 11.4059 14.6012 11.9743 12.8897 13.0491C11.1136 14.1502 9.65277 15.6754 8.64467 17.4813C7.58128 19.3448 7.04958 21.4518 7.04958 23.8023C7.04958 26.2534 7.5384 28.4192 8.51603 30.2995C9.44548 32.1289 10.8921 33.6585 12.6838 34.7066C14.4847 35.7643 16.6029 36.2931 19.0385 36.2931C21.028 36.2931 22.7432 35.9825 24.1839 35.3613C25.6246 34.7401 26.7566 34.077 27.5799 33.3719L30.4099 39.3151Z" fill="#10454F"/>
<path d="M69.3103 5.41797V42.2861H62.5183V26.9747H44.8694V42.2861H38.1289V5.41797H44.8694V20.5782H62.5183V5.41797H69.3103Z" fill="#10454F"/>
<path d="M72.8516 42.2865L89.7286 5.36133H90.0888L106.966 42.2865H97.9116L85.1577 15.3624L93.3218 15.307L82.4204 42.2865H72.8516Z" fill="#E94F3C"/>
<path d="M121.002 5.41797C123.986 5.41797 126.55 5.90484 128.694 6.87859C130.838 7.85234 132.482 9.24581 133.627 11.059C134.776 12.8722 135.351 15.0379 135.351 17.5562C135.347 19.0593 135.112 20.5533 134.656 21.9885C134.196 23.4607 133.444 24.8298 132.443 26.0178C131.432 27.2266 130.077 28.2003 128.379 28.939C126.681 29.6777 124.6 30.0471 122.135 30.0471H116.733V42.2861H109.992V5.41797H121.002ZM122.082 23.6506C123.729 23.6506 125.007 23.3232 125.916 22.6684C126.769 22.0818 127.431 21.2653 127.819 20.318C128.157 19.5185 128.34 18.6646 128.36 17.7997C128.348 17.2056 128.271 16.6145 128.128 16.0369C127.958 15.3287 127.662 14.6553 127.253 14.0474C126.781 13.3563 126.13 12.8001 125.367 12.4357C124.543 12.016 123.48 11.8061 122.177 11.8061H116.722V23.6422L122.082 23.6506ZM128.823 27.7302L138.29 42.2861H130.418L120.744 27.8897L128.823 27.7302Z" fill="#10454F"/>
<path d="M139.32 5.61914H147.244L155.889 30.1475L154.808 29.6942L161.96 12.1164L165.048 21.1823L154.448 44.0067L139.32 5.61914ZM158.05 5.61914H164.739L174.515 29.5431L173.28 29.3417L180.947 5.61914H188.202L173.589 43.8975L158.05 5.61914Z" fill="#10454F"/>
<path d="M185.887 42.2873L202.764 3.9082H203.124L220.001 42.2873H212.182L200.911 14.2921L205.8 11.0686L192.576 42.2957L185.887 42.2873ZM197.001 28.7892H209.041L211.408 34.3798H194.943L197.001 28.7892Z" fill="#10454F"/>
<path d="M87.7232 1.90238L86.2803 2.61026C86.1406 2.67881 86.0841 2.84525 86.1541 2.98203L90.1519 10.7898C90.222 10.9265 90.392 10.9819 90.5317 10.9133L91.9746 10.2054C92.1143 10.1369 92.1708 9.97043 92.1008 9.83366L88.103 2.02591C88.033 1.88914 87.8629 1.83383 87.7232 1.90238Z" fill="#E94F3C"/>
<path d="M93.1651 0.524568L91.75 0.0154852C91.6033 -0.0372922 91.4407 0.0363322 91.3867 0.179932L87.6237 10.2021C87.5698 10.3457 87.645 10.5049 87.7917 10.5577L89.2068 11.0668C89.3535 11.1196 89.5161 11.0459 89.57 10.9023L93.3331 0.880142C93.387 0.736542 93.3118 0.577346 93.1651 0.524568Z" fill="#E94F3C"/>
</g>
<defs>
<clipPath id="clip0_538_65">
<rect width="220" height="44" fill="white"/>
</clipPath>
</defs>
</svg>
