<svg width="549" height="672" viewBox="0 0 549 672" fill="none" xmlns="http://www.w3.org/2000/svg">
<path d="M0 671.999L271.346 86.3086H277.137L548.483 671.999H402.91L197.857 244.941L329.118 244.062L153.846 671.999H0Z" fill="#E9653B"/>
<path d="M239.104 31.4419L215.905 42.6699C213.659 43.7573 212.751 46.3973 213.877 48.5668L278.152 172.41C279.278 174.579 282.012 175.456 284.258 174.369L307.457 163.141C309.703 162.054 310.611 159.414 309.485 157.244L245.21 33.4013C244.084 31.2319 241.35 30.3546 239.104 31.4419Z" fill="#E9653B"/>
<path d="M326.596 9.59063L303.845 1.51578C301.486 0.678651 298.871 1.84645 298.005 4.12416L237.503 163.092C236.636 165.369 237.846 167.894 240.204 168.732L262.955 176.806C265.314 177.643 267.929 176.476 268.796 174.198L329.297 15.2306C330.164 12.9529 328.955 10.4278 326.596 9.59063Z" fill="#E9653B"/>
</svg>
