<svg width="223" height="45" viewBox="0 0 223 45" fill="none" xmlns="http://www.w3.org/2000/svg">
<path d="M30.8245 40.0084C30.0557 40.5032 29.2543 40.9491 28.4254 41.3432C27.1335 41.9626 25.779 42.4521 24.3833 42.8038C22.6737 43.238 20.9085 43.433 19.1416 43.383C16.1513 43.3158 13.474 42.7954 11.1096 41.8216C8.82946 40.9044 6.77639 39.5311 5.08555 37.7923C3.43786 36.086 2.15312 34.0838 1.30424 31.8995C0.427888 29.6455 -0.0140212 27.2557 0.000339058 24.8482C0.000339058 22.0277 0.443665 19.4534 1.33032 17.1253C2.16277 14.8769 3.46794 12.8191 5.16378 11.0814C6.83421 9.38199 8.84935 8.03323 11.0835 7.11924C13.361 6.17907 15.8905 5.70898 18.6722 5.70898C21.1409 5.70898 23.3488 6.02797 25.296 6.66594C27.2432 7.30392 28.8426 8.00905 30.0944 8.78133L27.3822 15.0268C26.2667 14.2728 25.0791 13.6235 23.8356 13.0876C22.2786 12.4133 20.587 12.078 18.8808 12.1055C16.8196 12.0992 14.8003 12.6676 13.0654 13.7424C11.2651 14.8435 9.7844 16.3688 8.76255 18.1746C7.68466 20.0382 7.14571 22.1452 7.14571 24.4956C7.14571 26.9468 7.6412 29.1125 8.63216 30.9929C9.57428 32.8223 11.0406 34.3519 12.8568 35.3999C14.6823 36.4576 16.8293 36.9865 19.2981 36.9865C21.3148 36.9865 23.0533 36.6759 24.5137 36.0547C25.974 35.4335 27.1215 34.7703 27.956 34.0652L30.8245 40.0084Z" fill="#FBFAF1"/>
<path d="M70.255 6.11133V42.9795H63.3704V27.6681H45.4809V42.9795H38.6484V6.11133H45.4809V21.2716H63.3704V6.11133H70.255Z" fill="#FBFAF1"/>
<path d="M73.8438 42.9799L90.9509 6.05469H91.316L108.423 42.9799H99.2455L86.3177 16.0558L94.5932 16.0004L83.543 42.9799H73.8438Z" fill="#E9653B"/>
<path d="M122.652 6.11133C125.677 6.11133 128.276 6.5982 130.449 7.57195C132.622 8.5457 134.289 9.93917 135.449 11.7524C136.614 13.5655 137.196 15.7313 137.196 18.2496C137.192 19.7527 136.955 21.2467 136.492 22.6818C136.026 24.1541 135.264 25.5232 134.25 26.7111C133.224 27.9199 131.85 28.8937 130.129 29.6324C128.408 30.3711 126.299 30.7405 123.801 30.7405H118.325V42.9795H111.492V6.11133H122.652ZM123.747 24.3439C125.416 24.3439 126.711 24.0165 127.633 23.3618C128.498 22.7752 129.168 21.9587 129.563 21.0114C129.905 20.2119 130.091 19.358 130.11 18.493C130.099 17.8989 130.02 17.3078 129.875 16.7302C129.703 16.022 129.403 15.3487 128.989 14.7408C128.51 14.0497 127.85 13.4935 127.076 13.129C126.242 12.7093 125.164 12.4995 123.843 12.4995H118.314V24.3355L123.747 24.3439ZM130.58 28.4236L140.176 42.9795H132.196L122.391 28.5831L130.58 28.4236Z" fill="#FBFAF1"/>
<path d="M141.219 6.3125H149.251L158.013 30.8409L156.918 30.3876L164.167 12.8098L167.297 21.8757L156.553 44.7L141.219 6.3125ZM160.204 6.3125H166.984L176.893 30.2365L175.642 30.035L183.413 6.3125H190.767L175.955 44.5909L160.204 6.3125Z" fill="#FBFAF1"/>
<path d="M188.422 42.9807L205.529 4.60156H205.894L223.001 42.9807H215.075L203.651 14.9854L208.606 11.762L195.202 42.9891L188.422 42.9807ZM199.688 29.4825H211.892L214.291 35.0732H197.601L199.688 29.4825Z" fill="#FBFAF1"/>
<path d="M88.9182 2.59574L87.4557 3.30361C87.314 3.37217 87.2568 3.53861 87.3278 3.67538L91.38 11.4831C91.451 11.6199 91.6234 11.6752 91.765 11.6067L93.2276 10.8988C93.3692 10.8302 93.4265 10.6638 93.3555 10.527L89.3032 2.71927C89.2322 2.5825 89.0598 2.52719 88.9182 2.59574Z" fill="#E9653B"/>
<path d="M94.4341 1.21793L92.9997 0.708845C92.851 0.656067 92.6862 0.729692 92.6315 0.873291L88.8172 10.8955C88.7625 11.0391 88.8388 11.1983 88.9875 11.2511L90.4218 11.7601C90.5705 11.8129 90.7354 11.7393 90.79 11.5957L94.6044 1.5735C94.659 1.4299 94.5828 1.27071 94.4341 1.21793Z" fill="#E9653B"/>
</svg>
