<svg width="110" height="177" viewBox="0 0 110 177" fill="none" xmlns="http://www.w3.org/2000/svg">
<path d="M13.512 50.1208C12.9445 57.1801 12.7425 64.2641 12.9069 71.3443C12.8275 78.2063 13.4499 85.0584 14.7643 91.7937C15.906 97.7787 18.304 103.453 21.8 108.443C25.4146 113.242 30.1688 117.064 35.6321 119.562C47.3476 124.94 60.6027 125.938 72.9915 122.376C78.6201 120.744 84.6285 118.154 88.6388 113.679C92.6492 109.203 94.8302 102.659 96.3218 96.7899C99.9663 82.4345 99.1361 67.4458 98.1651 52.8089C97.9822 49.9941 93.592 49.9941 93.7608 52.8089C94.4785 64.8843 95.2524 77.1849 93.3105 89.1759C92.4808 95.1361 90.749 100.935 88.1745 106.374C85.6204 111.194 81.3295 114.862 76.1717 116.634C64.926 121.032 52.4673 121.202 41.1059 117.113C35.7428 115.292 30.9102 112.18 27.0345 108.049C23.4346 103.843 20.8193 98.8853 19.3797 93.5389C15.3272 79.5634 17.0439 64.5043 16.1574 50.163C16.0865 49.852 15.9122 49.5744 15.6629 49.3755C15.4137 49.1767 15.1043 49.0684 14.7855 49.0684C14.4666 49.0684 14.1572 49.1767 13.9079 49.3755C13.6587 49.5744 13.4843 49.852 13.4135 50.163L13.512 50.1208Z" fill="#1F454F"/>
<path d="M15.0027 75.6349C14.3554 72.8201 10.6969 71.3142 8.0515 71.4127C6.47203 71.4642 4.9442 71.9878 3.66507 72.916C2.38594 73.8441 1.41417 75.1343 0.875116 76.6201C-1.51701 82.6015 1.29725 89.7933 5.65935 94.0999C8.21479 96.6536 11.4636 98.4006 15.0027 99.1243C17.2541 99.5747 18.211 96.1125 15.9455 95.6762C12.964 95.0665 10.2264 93.5965 8.07082 91.448C5.91523 89.2996 4.43608 86.5666 3.81602 83.5867C3.28131 80.8986 3.4783 77.0142 6.09556 75.3957C7.11451 74.8136 8.3156 74.6377 9.45863 74.9031C10.7386 75.2705 11.8988 75.9696 12.8217 76.9297C13.0295 77.1189 13.2923 77.2369 13.5717 77.2667C13.8512 77.2964 14.1329 77.2364 14.3759 77.0952C14.6189 76.9541 14.8108 76.7392 14.9235 76.4817C15.0362 76.2241 15.0639 75.9375 15.0027 75.6631V75.6349Z" fill="#1F454F"/>
<path d="M98.1139 78.1419C100.014 77.0863 103.405 75.0738 105.332 77.1848C107.26 79.2959 106.627 83.4337 105.797 85.8825C104.785 88.5823 103.228 91.0448 101.224 93.1165C99.3662 95.1713 97.3118 97.2684 94.4554 97.7047C94.0207 97.8261 93.652 98.1152 93.4304 98.5084C93.2088 98.9016 93.1523 99.3668 93.2734 99.8017C93.4013 100.233 93.6909 100.598 94.0815 100.821C94.4721 101.044 94.9337 101.107 95.37 100.998C99.0848 100.407 101.941 97.4654 104.263 94.721C106.906 91.8331 108.728 88.2906 109.54 84.4611C110.131 81.013 109.878 76.0167 106.458 74.0323C103.039 72.0479 99.2255 73.7649 96.6083 76.1715C95.5388 77.1567 96.9178 78.8315 98.142 78.1419H98.1139Z" fill="#1F454F"/>
<path d="M53.1566 93.8608C54.3245 95.029 56.3086 94.4941 57.8002 94.3675C59.4774 94.2748 61.1464 94.0679 62.7955 93.7482C66.1164 93.0023 67.425 90.3001 66.6511 87.1194C66.1915 85.6608 65.8434 84.1694 65.6098 82.658C65.4691 80.8988 65.6098 79.1254 65.6098 77.3521C65.6098 73.5662 65.6942 69.7944 65.6098 66.0085C65.5707 65.5745 65.3707 65.1709 65.0492 64.8769C64.7276 64.5829 64.3076 64.4199 63.872 64.4199C63.4363 64.4199 63.0164 64.5829 62.6948 64.8769C62.3733 65.1709 62.1733 65.5745 62.1342 66.0085C62.1342 69.1752 62.1342 72.3418 62.2327 75.5084C62.1364 78.6075 62.2304 81.7096 62.5141 84.7972C62.697 86.078 63.2458 87.3446 63.3021 88.6394C63.3584 89.9342 62.4015 90.1453 61.2758 90.3283C59.7842 90.5534 58.2927 90.7083 56.8011 90.9757C55.3095 91.2431 53.7476 91.2149 52.9737 92.5238C52.8337 92.7414 52.774 93.001 52.8048 93.2579C52.8356 93.5148 52.9551 93.7529 53.1425 93.9312L53.1566 93.8608Z" fill="#1F454F"/>
<path d="M38.4335 80.5352C38.7949 80.5602 39.156 80.4821 39.4748 80.31C39.8101 80.2025 40.1111 80.0083 40.3472 79.747C40.8338 79.2192 41.118 78.5362 41.1493 77.8189L41.0508 77.1011C40.9219 76.6448 40.6799 76.2285 40.3472 75.8908L39.7984 75.4685C39.3714 75.2209 38.8849 75.0944 38.3913 75.1026C38.0258 75.0829 37.6616 75.1606 37.336 75.3278C37.0048 75.4439 36.7058 75.6369 36.4635 75.8908C36.2047 76.1346 36.0111 76.4394 35.9006 76.7774C35.7311 77.0976 35.6486 77.4568 35.6615 77.8189L35.76 78.5507C35.8875 79.0034 36.1299 79.4155 36.4635 79.747L37.0123 80.1692C37.4377 80.421 37.9253 80.5478 38.4194 80.5352H38.4335Z" fill="#1F454F"/>
<path d="M74.9621 80.6161C75.5776 80.5693 76.1527 80.2918 76.5723 79.839C76.992 79.3862 77.2251 78.7916 77.2251 78.1743C77.2251 77.5569 76.992 76.9623 76.5723 76.5095C76.1527 76.0567 75.5776 75.7792 74.9621 75.7324C74.3467 75.7792 73.7715 76.0567 73.3519 76.5095C72.9323 76.9623 72.6992 77.5569 72.6992 78.1743C72.6992 78.7916 72.9323 79.3862 73.3519 79.839C73.7715 80.2918 74.3467 80.5693 74.9621 80.6161Z" fill="#1F454F"/>
<path d="M54.6283 104.402C55.3344 104.967 56.2329 105.235 57.133 105.148C57.8788 105.148 58.6387 105.233 59.3985 105.219C60.1508 105.218 60.9024 105.176 61.6499 105.092C62.4501 104.966 63.2401 104.782 64.0139 104.543C64.278 104.468 64.506 104.299 64.6559 104.069C64.8059 103.839 64.8677 103.562 64.83 103.29C64.793 103.017 64.6591 102.765 64.4525 102.582C64.246 102.399 63.9805 102.295 63.7043 102.291C62.9023 102.291 62.2972 102.136 61.4529 102.136C60.6086 102.136 60.0458 102.136 59.2719 102.136H57.1049C56.2236 102.015 55.3291 102.231 54.6002 102.741C54.4008 102.944 54.2891 103.217 54.2891 103.501C54.2891 103.786 54.4008 104.059 54.6002 104.261L54.6283 104.402Z" fill="#1F454F"/>
<path d="M57.3053 109.455H57.3897L57.1224 109.187C57.1867 109.314 57.2779 109.425 57.3898 109.512C57.5016 109.6 57.6313 109.662 57.7697 109.694H58.2762C58.4965 109.708 58.7174 109.708 58.9376 109.694C59.139 109.708 59.3412 109.708 59.5427 109.694H59.7115C59.882 109.682 60.0489 109.639 60.204 109.567L60.6121 109.384L60.3729 109.483L60.8091 109.342C60.9969 109.268 61.1762 109.173 61.3438 109.061C61.4675 108.978 61.5654 108.863 61.6263 108.727C61.6872 108.592 61.7087 108.442 61.6881 108.295C61.6675 108.148 61.6057 108.009 61.5099 107.896C61.4142 107.782 61.2883 107.698 61.1468 107.653C60.958 107.577 60.7588 107.529 60.5558 107.512H60.1055H60.3729C60.0918 107.446 59.8025 107.423 59.5145 107.442C59.2206 107.467 58.929 107.514 58.6421 107.583C58.4411 107.624 58.2436 107.681 58.0511 107.752L57.6571 107.906C57.5093 107.97 57.3779 108.066 57.2731 108.188C57.1682 108.31 57.0926 108.455 57.052 108.61L57.2349 108.286L57.1646 108.357C57.0956 108.429 57.0437 108.515 57.0128 108.61C56.982 108.705 56.9731 108.806 56.9866 108.905C57.0001 109.003 57.0358 109.098 57.091 109.181C57.1462 109.264 57.2195 109.333 57.3053 109.384V109.455Z" fill="#1F454F"/>
<path d="M68.2348 120.292C67.7427 121.927 67.4868 123.623 67.475 125.331C67.3624 127.019 67.3906 128.722 67.3765 130.411C67.3624 132.1 67.3765 133.803 67.3765 135.492C67.27 137.236 67.3549 138.987 67.6298 140.713C68.066 142.529 71.0913 142.642 71.4431 140.713C71.612 138.977 71.612 137.228 71.4431 135.492C71.4431 133.803 71.3727 132.1 71.3446 130.411C71.3165 128.722 71.3446 127.019 71.2743 125.331C71.2901 123.63 71.0771 121.936 70.641 120.292C70.5601 120.027 70.3961 119.794 70.1732 119.629C69.9502 119.464 69.6802 119.375 69.4027 119.375C69.1253 119.375 68.8553 119.464 68.6324 119.629C68.4094 119.794 68.2454 120.027 68.1645 120.292H68.2348Z" fill="#1F454F"/>
<path d="M70.8261 136.462C74.4998 137.724 78.0097 139.42 81.2811 141.515C84.264 143.629 86.9848 146.09 89.3862 148.847C93.1981 153.06 96.2073 157.935 98.2652 163.231C99.2849 165.622 99.9258 168.158 100.165 170.746L100.531 170.535C100.19 170.585 99.8441 170.585 99.5035 170.535H98.0963C96.5203 170.535 94.9584 170.648 93.3965 170.732C87.9931 171.028 82.6179 171.394 77.2145 171.633C66.4499 172.126 55.6713 172.323 44.8504 171.83C32.8126 171.372 20.8497 169.722 9.13735 166.904L10.6852 169.62C13.4995 152.098 30.1599 142.641 45.3429 136.927C45.812 136.781 46.2239 136.492 46.5215 136.101C46.8191 135.71 46.9875 135.236 47.0033 134.745C47.0033 130.227 46.9189 125.71 46.9189 121.192C46.8749 120.645 46.6268 120.136 46.2239 119.764C45.8211 119.392 45.293 119.186 44.7449 119.186C44.1967 119.186 43.6686 119.392 43.2658 119.764C42.8629 120.136 42.6148 120.645 42.5709 121.192C42.5709 125.71 42.4864 130.227 42.4864 134.745L44.1468 132.564C27.613 138.827 9.53136 149.34 6.42159 168.438C6.2773 169.005 6.35781 169.606 6.64631 170.115C6.93481 170.624 7.40895 171.001 7.96945 171.168C30.9479 176.911 54.7848 177.192 78.3261 175.996C84.1657 175.7 90.0194 175.419 95.8449 174.884C97.252 174.743 98.6592 174.588 100.066 174.405C101.186 174.42 102.272 174.024 103.12 173.294C104.724 171.577 103.795 168.565 103.317 166.594C101.561 159.881 98.3523 153.635 93.9171 148.298C88.4293 141.402 80.3524 134.45 71.2904 133.38C69.3908 133.155 69.3345 135.899 70.8683 136.49L70.8261 136.462Z" fill="#1F454F"/>
<path d="M33.1413 138.403H33.071C32.8354 138.543 32.6518 138.757 32.5478 139.01C32.4437 139.264 32.4249 139.545 32.4941 139.81C33.268 143.864 37.5738 146.847 41.0213 148.607C45.4846 150.668 50.2864 151.899 55.1911 152.238C60.7522 152.76 66.3615 152.336 71.7812 150.985C74.1718 150.387 76.4925 149.538 78.7043 148.452C80.8484 147.225 82.9117 145.861 84.8816 144.37C87.4707 142.611 84.0373 139.121 82.2362 141.724C79.8441 145.215 74.5532 146.96 70.6414 147.945C65.8067 149.128 60.8151 149.536 55.8525 149.155C51.4373 148.934 47.0989 147.913 43.0476 146.144C41.3179 145.376 39.7143 144.351 38.2914 143.104C36.9404 141.702 35.7073 140.191 34.6048 138.586C34.4524 138.421 34.2564 138.304 34.0396 138.246C33.8229 138.189 33.5943 138.195 33.3806 138.262L33.1413 138.361V138.403Z" fill="#1F454F"/>
<path d="M14.9225 80.815C14.531 79.6324 13.776 78.6037 12.7652 77.8757C11.7544 77.1478 10.5395 76.7579 9.29393 76.7617C8.70032 76.7687 8.11442 76.8971 7.57233 77.1392C7.03024 77.3812 6.54345 77.7318 6.14196 78.1691C5.50348 78.9326 5.08941 79.8583 4.94588 80.8432C4.84009 81.8658 4.91153 82.8989 5.15699 83.8972C5.25549 84.4179 5.70575 85.1357 6.3249 85.1357C6.94404 85.1357 7.29581 84.3053 7.32395 83.7283C7.35209 83.1513 7.32395 82.8135 7.32395 82.3209C7.32395 82.3209 7.32395 82.2083 7.32395 82.1661C7.32395 82.1239 7.32395 82.3772 7.32395 82.1661C7.32395 81.955 7.32395 81.9691 7.32395 81.8565C7.32395 81.7439 7.32398 81.575 7.39433 81.4343C7.39433 81.0402 7.39433 81.3357 7.39433 81.4343C7.38775 81.3687 7.38775 81.3028 7.39433 81.2372C7.42628 81.0416 7.47329 80.8486 7.53501 80.6602L7.61948 80.3787C7.70391 80.1254 7.61948 80.3787 7.61948 80.3787C7.61948 80.3787 7.61948 80.238 7.70391 80.2098C7.74539 80.1225 7.79236 80.0379 7.84458 79.9565C7.8759 79.9245 7.89993 79.8861 7.91497 79.8439V79.9284C7.91497 79.9284 8.05569 79.7595 8.0979 79.7172C8.14012 79.675 8.39338 79.478 8.25267 79.5765C8.11195 79.675 8.25267 79.5765 8.25267 79.5765L8.44969 79.4639C8.44969 79.4639 8.63261 79.3513 8.44969 79.4639H8.56224L8.98441 79.3654C8.98441 79.3654 8.77334 79.3654 8.98441 79.3654H9.46283C9.46283 79.3654 9.74425 79.3654 9.58946 79.3654C9.43468 79.3654 9.58945 79.3654 9.6598 79.3654H9.89904L10.3212 79.4921L10.5463 79.6047C10.8078 79.7376 11.0574 79.893 11.2921 80.0691L11.4469 80.1817L11.5735 80.2661C11.461 80.1817 11.5735 80.2661 11.5735 80.2661L11.8127 80.4632C12.2929 80.9146 12.8108 81.3242 13.3606 81.6876C13.524 81.7828 13.712 81.8274 13.9007 81.8158C14.0895 81.8042 14.2705 81.737 14.4211 81.6225C14.5716 81.5081 14.6849 81.3516 14.7466 81.1728C14.8083 80.994 14.8157 80.8009 14.7677 80.618L14.9225 80.815Z" fill="#1F454F"/>
<path d="M97.9287 83.2927L98.1678 83.152H97.9568C98.2426 83.0897 98.5146 82.9752 98.7589 82.8142C99.0188 82.6927 99.2868 82.5893 99.5609 82.5046L100.363 82.2794C100.546 82.2794 100.433 82.2794 100.363 82.2794H100.673L101.264 82.1809C101.038 82.1809 101.362 82.1809 101.446 82.1809H101.714C101.855 82.1809 101.84 82.1809 101.714 82.1809C101.798 82.1809 101.981 82.2512 102.066 82.2794H102.15C102.263 82.2794 102.263 82.2794 102.15 82.2794C102.037 82.2794 102.066 82.2794 102.15 82.2794C102.234 82.2794 102.15 82.2794 102.15 82.2794C102.15 82.2794 102.15 82.3638 102.08 82.1809C102.098 82.2214 102.122 82.2593 102.15 82.2935C102.291 82.4905 102.066 82.0542 102.15 82.209C102.305 82.589 102.319 82.6313 102.15 82.3357C102.142 82.3775 102.142 82.4205 102.15 82.4624C102.15 82.4624 102.15 82.5468 102.15 82.589C102.15 82.6312 102.15 82.589 102.15 82.589C102.143 82.7203 102.143 82.8518 102.15 82.9831C102.209 83.1647 102.305 83.3323 102.431 83.4757C102.431 83.4757 102.249 83.2223 102.319 83.3349L102.46 83.5179C102.642 83.6703 102.868 83.7618 103.105 83.7794C103.342 83.7971 103.579 83.7401 103.782 83.6164C104.136 83.3821 104.384 83.0182 104.472 82.6031C104.573 82.1238 104.498 81.6243 104.261 81.1957C104.095 80.8755 103.865 80.5935 103.583 80.368C103.302 80.1426 102.977 79.9786 102.628 79.8869C101.878 79.7546 101.105 79.863 100.419 80.1965C99.7638 80.4935 99.1567 80.8873 98.6181 81.3646L97.9146 82.0261C97.7962 82.1281 97.6878 82.2412 97.5909 82.3638C97.4902 82.4853 97.3963 82.6122 97.3095 82.7439C97.0703 83.0394 97.3095 83.532 97.7457 83.3068L97.9287 83.2927Z" fill="#1F454F"/>
<path d="M35.7305 140.165C35.7305 144.007 40.6977 147.089 43.7934 148.539C47.9214 150.365 52.3803 151.323 56.8938 151.354C61.4296 151.486 65.9585 150.911 70.3178 149.651C74.7981 148.479 79.0308 146.511 82.8131 143.838C83.4404 143.445 83.8944 142.827 84.0826 142.111C84.2708 141.394 84.1791 140.633 83.8263 139.982C83.64 139.66 83.3919 139.378 83.0961 139.152C82.8002 138.927 82.4626 138.762 82.1028 138.668C81.743 138.574 81.368 138.552 80.9996 138.603C80.6312 138.655 80.2767 138.779 79.9566 138.969C76.637 141.06 73.0739 142.738 69.3469 143.965C65.5879 145.073 61.6847 145.613 57.7662 145.569C54.0931 145.549 50.4444 144.97 46.9453 143.852C45.2153 143.33 43.5635 142.578 42.0344 141.614C40.5429 140.643 39.4312 139.264 37.7145 138.687C37.4812 138.625 37.2367 138.617 36.9998 138.664C36.7628 138.711 36.5399 138.811 36.3482 138.958C36.1564 139.105 36.001 139.294 35.8939 139.511C35.7868 139.727 35.7309 139.966 35.7305 140.207V140.165Z" fill="#1F454F"/>
<path d="M27.9476 66.6568C29.1292 66.0463 30.2755 65.3697 31.381 64.6302C32.5172 64.0544 33.7233 63.6286 34.9692 63.3635C36.1689 63.1286 37.3956 63.0623 38.6137 63.1665C39.8519 63.265 41.0339 63.7576 42.2863 63.9687C42.6861 64.0602 43.1055 64.0079 43.4707 63.8209C43.8358 63.634 44.1234 63.3243 44.283 62.9463C44.4426 62.5683 44.4639 62.1462 44.3432 61.754C44.2225 61.3619 43.9675 61.0248 43.6231 60.8021C42.1459 60.0439 40.513 59.6392 38.8529 59.6198C37.2768 59.5157 35.694 59.6389 34.153 59.9857C32.6747 60.3101 31.2523 60.8507 29.9316 61.5902C28.3974 62.3038 27.1341 63.4933 26.3294 64.982C25.9354 65.925 27.0892 66.9805 28.0039 66.6568H27.9476Z" fill="#1F454F"/>
<path d="M71.2151 64.8109C72.2304 64.4264 73.2691 64.1068 74.3249 63.8539C75.3276 63.7411 76.3413 63.7695 77.3361 63.9383C78.5322 64.1353 79.7001 64.4591 80.8681 64.7405C82.1716 65.26 83.5798 65.4627 84.9769 65.3317C85.2682 65.2472 85.5327 65.0888 85.7447 64.8719C85.9568 64.655 86.1091 64.3869 86.187 64.0938C86.2649 63.8006 86.2657 63.4922 86.1892 63.1987C86.1128 62.9051 85.9618 62.6363 85.7508 62.4183C84.417 61.6023 82.9063 61.1196 81.3465 61.011C79.9601 60.6681 78.5484 60.4374 77.1251 60.3213C74.6485 60.1665 71.3699 60.9687 69.9346 63.1361C69.828 63.3265 69.7799 63.544 69.796 63.7616C69.8122 63.9792 69.892 64.1872 70.0255 64.3597C70.159 64.5323 70.3403 64.6617 70.5468 64.7319C70.7534 64.8021 70.976 64.81 71.187 64.7546L71.2151 64.8109Z" fill="#1F454F"/>
<path d="M69.4762 79.6484C69.7646 79.4905 69.9886 79.2365 70.1093 78.9306C70.1766 78.7267 70.2614 78.5289 70.3627 78.3395C70.5842 77.9033 70.8848 77.512 71.2492 77.1855C72.1848 76.5194 73.3277 76.2099 74.4715 76.3129C75.7061 76.2241 76.946 76.3869 78.1159 76.7914C79.0836 77.2442 79.836 78.0574 80.2126 79.0573C80.4207 79.4051 80.7568 79.6574 81.1488 79.76C81.5408 79.8626 81.9574 79.8074 82.3092 79.6062C82.6515 79.3932 82.8991 79.0571 83.0012 78.667C83.1032 78.2769 83.052 77.8626 82.858 77.5092C81.3805 74.0611 77.4968 72.9915 74.0353 73.287C72.2495 73.351 70.5464 74.0554 69.2369 75.2714C68.6408 75.8546 68.2255 76.5973 68.0409 77.4107C67.9012 77.804 67.8929 78.232 68.0172 78.6304C68.1416 79.0289 68.3918 79.3762 68.7304 79.6203C68.8446 79.6831 68.9729 79.7161 69.1033 79.7161C69.2336 79.7161 69.3619 79.6831 69.4762 79.6203V79.6484Z" fill="#1F454F"/>
<path d="M31.3159 78.9723C31.4144 77.8324 33.0748 76.9739 33.9331 76.5235C35.1363 75.8535 36.4826 75.4819 37.859 75.4398C38.9925 75.396 40.1096 75.7206 41.0431 76.3651C41.9766 77.0095 42.6762 77.9391 43.0373 79.0146C43.1268 79.343 43.3432 79.6225 43.6388 79.7914C43.9343 79.9603 44.2848 80.0049 44.6133 79.9153C44.9417 79.8257 45.2211 79.6093 45.39 79.3137C45.5588 79.0181 45.6034 78.6675 45.5138 78.339C45.049 76.582 43.9841 75.0431 42.5037 73.9891C41.0233 72.9352 39.2208 72.4327 37.4087 72.5687C35.3801 72.7156 33.4318 73.422 31.7802 74.6095C30.2887 75.665 28.3609 77.4242 29.6414 79.4368C29.7469 79.6062 29.904 79.7371 30.0897 79.8102C30.2754 79.8833 30.4797 79.8946 30.6723 79.8425C30.8649 79.7904 31.0355 79.6776 31.1591 79.5209C31.2826 79.3642 31.3524 79.1718 31.3581 78.9723H31.3159Z" fill="#1F454F"/>
<path d="M10.0952 75.0862C11.6571 73.904 11.3194 71.4551 11.2772 69.6959C11.2772 67.5848 11.1506 65.4737 11.0099 63.3767C10.8691 61.2797 10.6722 59.3093 10.447 57.2968C10.2219 55.2842 10.2359 52.7931 9.29316 50.9917C9.11376 50.7004 8.85398 50.4672 8.5451 50.3203C8.23622 50.1734 7.89143 50.119 7.55232 50.1636C7.21321 50.2082 6.89429 50.35 6.63392 50.5718C6.37355 50.7937 6.18286 51.0861 6.0849 51.4139C5.94326 53.4577 6.10451 55.5112 6.56336 57.5079C6.7885 59.5345 6.97139 61.5612 7.14025 63.6019C7.3091 65.6426 7.44983 67.6693 7.54833 69.6959C7.61869 71.4411 7.32319 73.9181 8.95546 75.0862C9.13681 75.1926 9.34327 75.2487 9.55351 75.2487C9.76376 75.2487 9.97018 75.1926 10.1515 75.0862H10.0952Z" fill="#1F454F"/>
<path d="M101.725 76.2414C102.736 74.4159 103.39 72.4146 103.653 70.3444C104.019 68.2896 104.342 66.2207 104.624 64.1519C104.905 62.083 105.159 60.0001 105.384 57.9312C105.496 56.8475 105.609 55.7638 105.707 54.6942C105.94 53.6372 105.94 52.5423 105.707 51.4853C105.613 51.194 105.438 50.9355 105.203 50.7397C104.968 50.5438 104.682 50.4187 104.378 50.379C104.075 50.3392 103.766 50.3863 103.488 50.5149C103.21 50.6435 102.975 50.8482 102.809 51.1053C102.399 52.0946 102.202 53.1593 102.232 54.2297C102.147 55.2994 102.049 56.383 101.95 57.4667C101.753 59.5497 101.528 61.6186 101.275 63.7015C101.022 65.7845 100.768 67.8533 100.473 69.9363C100.093 71.956 100.051 74.0247 100.346 76.0584C100.382 76.2079 100.463 76.3429 100.577 76.4456C100.692 76.5483 100.834 76.6139 100.987 76.6337C101.139 76.6536 101.294 76.6267 101.431 76.5566C101.568 76.4866 101.68 76.3767 101.753 76.2414H101.725Z" fill="#1F454F"/>
<path d="M6.18058 53.3578C12.2638 51.7382 18.4649 50.5994 24.7266 49.9518C31.1431 49.3889 37.5878 49.1074 44.0184 48.8259C57.0727 48.1032 70.161 48.2678 83.193 49.3185C90.6754 49.9989 98.0942 51.2552 105.383 53.0763C107.762 53.6674 108.775 49.98 106.397 49.403C93.2035 46.3303 79.7122 44.7209 66.1667 44.6038C52.7617 44.315 39.3508 44.7519 25.993 45.9126C18.9574 46.56 11.4714 47.4608 5.19561 51.0074C4.941 51.1726 4.75246 51.4219 4.663 51.712C4.57353 52.002 4.5888 52.3143 4.70611 52.5943C4.82343 52.8742 5.03536 53.104 5.30486 53.2436C5.57436 53.3831 5.88431 53.4235 6.18058 53.3578Z" fill="#1F454F"/>
<path d="M7.57595 51.1898C7.7448 45.5602 7.30858 39.804 7.25229 34.1181C7.25229 28.7841 7.15377 23.2953 9.95397 18.5524C15.2448 9.5732 25.9249 6.42063 35.5919 4.91472C46.8369 3.17985 58.2674 3.00463 69.5602 4.39399C79.4101 5.60435 90.8079 7.20877 97.4214 15.4279C105.048 24.8575 104.992 37.8759 105.02 49.3743C105.062 49.8699 105.288 50.3318 105.654 50.6684C106.021 51.0049 106.5 51.1917 106.997 51.1917C107.494 51.1917 107.973 51.0049 108.34 50.6684C108.706 50.3318 108.932 49.8699 108.974 49.3743C108.974 38.1151 108.664 26.1523 102.487 16.3005C99.8378 11.9159 96.0038 8.36915 91.427 6.06879C86.2032 3.79651 80.676 2.29829 75.0199 1.62143C62.9541 -0.343363 50.6651 -0.523566 38.5469 1.08661C27.9653 2.494 16.2579 5.18213 9.18006 13.8939C5.2823 18.7072 3.90333 24.3931 3.74854 30.5012C3.39793 37.5601 3.79412 44.6364 4.93053 51.6121C5.22603 53.1461 7.53373 52.7239 7.57595 51.2461V51.1898Z" fill="#1F454F"/>
<path d="M40.1904 45.8971C40.5703 42.7594 40.7395 39.5997 40.697 36.4394C40.5066 33.428 40.5631 30.4061 40.8658 27.404C41.8649 21.7744 49.5338 21.0707 54.0507 20.6344C58.8771 20.17 65.2233 20.9159 66.7148 26.4751C67.2271 29.2169 67.4581 32.004 67.4043 34.7928L67.8264 44.5038C67.939 47.0934 72.0478 47.0793 71.8649 44.5038C71.4568 38.9446 71.3443 33.2446 70.6267 27.7417C70.4075 25.5313 69.5612 23.4295 68.1875 21.6841C66.8139 19.9387 64.9701 18.6222 62.8734 17.89C58.0328 16.0604 52.151 16.9611 47.2401 18.087C42.7373 19.1144 38.2204 21.8307 37.3902 26.7284C37.0548 29.8512 37.0077 32.9983 37.2495 36.1298C37.2281 39.3951 37.4255 42.6582 37.8405 45.8971C37.9159 46.1579 38.074 46.3873 38.291 46.5504C38.508 46.7136 38.7721 46.8019 39.0436 46.8019C39.3151 46.8019 39.5792 46.7136 39.7962 46.5504C40.0132 46.3873 40.1713 46.1579 40.2467 45.8971H40.1904Z" fill="#1F454F"/>
<path d="M38.686 38.1263C41.1077 38.4026 43.5561 38.341 45.9609 37.9433C48.4938 37.7603 51.0406 37.6337 53.5876 37.5774C58.6863 37.4415 63.7887 37.6013 68.869 38.0559C71.3597 38.2952 71.4159 34.2278 68.869 34.1293C63.6626 33.9182 58.4844 33.8619 53.2921 34.1293C50.7452 34.27 48.1982 34.4811 45.6654 34.7626C43.1865 34.8232 40.7397 35.3384 38.4468 36.2826C38.2816 36.3854 38.1494 36.5335 38.0662 36.7094C37.9829 36.8853 37.9521 37.0815 37.9773 37.2744C38.0025 37.4674 38.0828 37.649 38.2085 37.7976C38.3341 37.9461 38.4999 38.0553 38.686 38.1122V38.1263Z" fill="#1F454F"/>
<path d="M45.8339 36.8203C45.6853 36.9916 45.5878 37.2013 45.5525 37.4254C45.5525 37.5802 45.5525 37.7351 45.5525 37.8758C45.5525 38.2417 45.454 38.5936 45.4118 38.9454C45.3415 39.6773 45.4118 40.3528 45.3133 41.141C45.2148 41.9291 45.3133 42.5483 45.3133 43.2661C45.2707 43.6654 45.3168 44.0692 45.4481 44.4487C45.5794 44.8282 45.7929 45.1741 46.0732 45.4616C46.1801 45.5234 46.3015 45.5559 46.425 45.5559C46.5485 45.5559 46.6698 45.5234 46.7767 45.4616C47.0495 45.1864 47.2588 44.8548 47.3901 44.4902C47.5213 44.1255 47.5714 43.7366 47.5366 43.3506C47.5366 42.6187 47.5366 41.9432 47.5366 41.141C47.5366 40.3388 47.5366 39.7336 47.4381 39.0158C47.4381 38.6639 47.3396 38.3121 47.2974 37.9603C47.2552 37.6084 47.2974 37.6084 47.2974 37.4254C47.2686 37.1994 47.1703 36.9879 47.016 36.8203C46.9624 36.7298 46.8862 36.6549 46.795 36.6029C46.7037 36.5508 46.6004 36.5234 46.4953 36.5234C46.3902 36.5234 46.287 36.5508 46.1957 36.6029C46.1044 36.6549 46.0282 36.7298 45.9747 36.8203H45.8339Z" fill="#1F454F"/>
<path d="M49.6612 37.1307V37.2433V36.9618C49.4957 37.5374 49.4432 38.1395 49.5064 38.7351C49.5064 39.298 49.5064 39.8469 49.5064 40.4099C49.4781 40.9678 49.4781 41.5268 49.5064 42.0847C49.493 42.7479 49.701 43.3966 50.0974 43.9284C50.2275 44.049 50.3984 44.1161 50.5758 44.1161C50.7533 44.1161 50.9242 44.049 51.0543 43.9284C51.4087 43.3834 51.5537 42.7284 51.4623 42.0847C51.4623 41.4936 51.3357 40.8884 51.2512 40.2973C51.1668 39.7062 51.0824 39.1995 50.9839 38.6647L50.8572 37.8062L50.7869 37.4544C50.7596 37.2913 50.7173 37.1311 50.6603 36.9758C50.6197 36.8535 50.5374 36.7493 50.4278 36.6816C50.3182 36.6138 50.1882 36.5868 50.0607 36.6053C49.9332 36.6237 49.8162 36.6865 49.7303 36.7826C49.6444 36.8786 49.595 37.0019 49.5908 37.1307H49.6612Z" fill="#1F454F"/>
<path d="M50.8691 29.317C54.7981 26.3756 59.4056 24.4732 64.265 23.786C68.4864 23.3497 75.0155 23.6452 77.5906 27.6L78.9977 25.2356C75.7853 25.3275 72.6503 26.2435 69.8935 27.8956C69.6459 28.0589 69.4494 28.2889 69.3266 28.5589C69.2038 28.829 69.1597 29.1283 69.1994 29.4223C69.2391 29.7164 69.3609 29.9932 69.5509 30.2211C69.741 30.4489 69.9914 30.6185 70.2735 30.7104C73.8195 31.6252 77.1121 33.0889 78.9977 36.3399C80.4866 39.4308 81.3884 42.7714 81.6572 46.1917L84.2322 44.2073C81.7838 42.7295 79.3917 41.1813 77.0699 39.5347C75.7472 38.5917 74.4104 40.1399 74.6074 41.4206C75.2266 45.2909 75.7332 53.1723 69.8654 53.1723L71.4695 54.3968C70.5749 49.4571 68.3757 44.8466 65.0999 41.0431C61.8242 37.2396 57.591 34.3815 52.8391 32.7651C50.4892 31.9629 49.3916 35.8192 51.8119 36.5088C56.0456 37.7934 59.8317 40.2453 62.7361 43.5834C65.6405 46.9215 67.5457 51.0106 68.2331 55.382C68.3317 55.7351 68.5434 56.0461 68.8357 56.2673C69.128 56.4884 69.4848 56.6076 69.8513 56.6064C71.4168 56.5908 72.9444 56.1228 74.2501 55.2588C75.5558 54.3949 76.584 53.1717 77.2106 51.7368C78.8992 48.2183 78.3223 44.3339 77.8157 40.6184L75.2688 42.5043C77.5624 44.2213 79.9123 45.8398 82.3045 47.3317C82.6068 47.4982 82.9512 47.5728 83.2953 47.5464C83.6395 47.52 83.9684 47.3937 84.2418 47.183C84.5153 46.9723 84.7212 46.6864 84.8345 46.3603C84.9478 46.0342 84.9634 45.6821 84.8795 45.3472C84.2744 41.4206 83.5568 37.2547 81.2491 33.9192C78.8007 30.3585 75.0436 28.6696 70.9489 27.7407L71.3148 30.5555C73.5778 29.1507 76.1798 28.3869 78.8429 28.3459C79.1215 28.3491 79.396 28.279 79.639 28.1427C79.882 28.0064 80.0849 27.8086 80.2274 27.5691C80.3699 27.3297 80.447 27.057 80.451 26.7784C80.455 26.4997 80.3857 26.2249 80.2501 25.9815C77.1403 21.1682 70.2735 20.0705 64.9686 20.5349C59.34 21.0134 53.3175 23.2652 49.659 27.783C49.0398 28.557 49.8419 29.9363 50.8128 29.2748L50.8691 29.317Z" fill="#1F454F"/>
<path d="M42.2748 31.7262C42.7814 30.4877 43.2599 29.2069 43.8368 27.9966C44.0224 27.6634 44.0832 27.2751 44.0084 26.9011C43.9336 26.5271 43.7281 26.192 43.4287 25.9559C43.1258 25.7195 42.747 25.6018 42.3635 25.6252C41.98 25.6485 41.6182 25.8112 41.3462 26.0826C39.3597 28.4706 38.3538 31.524 38.5319 34.6254C38.6163 36.0328 40.7692 36.9476 41.4306 35.4136C43.1895 31.3603 44.9203 27.2929 46.6933 23.2396L44.9062 23.9715C44.0901 23.7744 44.6952 23.3663 44.5122 23.8167C44.4652 24.0023 44.4276 24.1902 44.3996 24.3796C44.2167 25.2381 43.9493 26.0966 43.6961 26.941C43.2085 28.5707 42.6211 30.1688 41.9371 31.7262L44.8218 32.9366C46.0178 29.9529 47.2843 27.0114 48.5366 24.0559C48.7899 23.4789 49.015 22.8878 49.3105 22.3389C49.4235 22.0764 49.5915 21.8413 49.803 21.6493C49.803 21.6493 50.1126 21.5085 50.1408 21.4804C50.1689 21.4522 50.0563 21.4804 50.1408 21.3819C50.2252 21.2833 50.1408 21.03 50.1408 21.1567C50.1545 21.2074 50.1545 21.2608 50.1408 21.3115C49.6172 21.5736 49.0493 21.7359 48.4663 21.79L48.8884 24.9426C52.4203 24.0981 55.9241 23.2818 59.4982 22.4655C61.229 22.0715 60.9053 19.1019 59.0761 19.313C55.4968 19.6816 52.0742 20.9714 49.1417 23.0567C47.7345 24.0841 48.5085 26.6877 50.4222 26.0966C52.6635 25.3983 54.8544 24.5472 56.9794 23.5493L55.3049 20.7345C50.0845 23.4789 44.1885 26.744 41.9653 32.5847C41.8716 32.9313 41.8938 33.299 42.0284 33.6319C42.1631 33.9647 42.4028 34.2444 42.711 34.4284C43.0262 34.6009 43.3878 34.6694 43.7442 34.6238C44.1006 34.5783 44.4334 34.4213 44.6951 34.1751C47.8612 31.6558 51.2664 29.4181 54.5451 27.0537L52.6033 24.5485C49.789 27.4337 46.9747 30.3047 44.2589 33.204C43.9775 33.4903 43.8093 33.8688 43.7855 34.2696C43.7616 34.6704 43.8838 35.0662 44.1293 35.3839C44.3748 35.7015 44.727 35.9194 45.1208 35.9974C45.5145 36.0753 45.9232 36.0079 46.2711 35.8076C50.2111 33.4338 54.1652 31.0882 58.1333 28.7707L55.8256 27.8277V28.0811V27.1381C55.7552 27.5462 54.7561 27.9403 54.4184 28.1655C53.7149 28.6018 53.0113 29.0099 52.2796 29.4322C50.8725 30.2766 49.4653 31.2195 48.1426 32.1484C47.9631 32.2711 47.8316 32.4521 47.7702 32.6607C47.7089 32.8693 47.7215 33.0927 47.8059 33.2931C47.8903 33.4935 48.0414 33.6585 48.2336 33.7603C48.4257 33.862 48.6471 33.8941 48.8603 33.8513C51.0429 33.3458 53.142 32.5306 55.0939 31.4306C56.9091 30.3892 59.2308 29.3196 58.865 26.8848C58.8006 26.6528 58.684 26.4387 58.5241 26.2588C58.3642 26.0789 58.1652 25.9381 57.9424 25.8471C57.7196 25.756 57.4789 25.7172 57.2388 25.7337C56.9987 25.7501 56.7656 25.8213 56.5573 25.9418C52.5892 28.2593 48.607 30.5627 44.6107 32.8521L46.6229 35.4558C49.4372 32.5566 52.1248 29.6292 54.8828 26.7159C56.0648 25.4633 54.4747 23.113 52.941 24.2107C49.5498 26.6455 46.2289 29.2492 42.7251 31.5151L44.9766 33.7529C46.1234 31.4183 47.8004 29.3844 49.8734 27.8137C52.115 26.1748 54.4977 24.7382 56.9935 23.5211C57.3719 23.2952 57.6469 22.9303 57.76 22.5043C57.873 22.0783 57.8151 21.625 57.5986 21.2411C57.3656 20.8705 56.9998 20.6029 56.5761 20.493C56.1524 20.3831 55.7027 20.4393 55.319 20.65C53.4479 21.5043 51.5259 22.2422 49.5638 22.8596L50.8443 25.8996C53.2542 24.0761 56.0949 22.9076 59.0901 22.5078L58.6539 19.3411C55.122 20.1856 51.6182 21.0019 48.0441 21.8182C46.3133 22.2122 46.637 25.1396 48.4803 24.9707C50.6332 24.7877 53.335 23.9011 53.349 21.2692C53.3255 20.7333 53.1632 20.2127 52.878 19.7584C52.5928 19.3041 52.1944 18.9316 51.722 18.6776C51.2496 18.4236 50.7193 18.2968 50.1831 18.3095C49.6469 18.3221 49.1231 18.474 48.6633 18.75C46.6651 19.7915 46.0038 22.4515 45.2017 24.3796C44.1604 26.8285 43.1332 29.2773 42.0497 31.698C41.8517 32.0625 41.8011 32.4892 41.9084 32.8899C42.0158 33.2906 42.2729 33.6348 42.6266 33.8513C42.9869 34.0616 43.4158 34.1204 43.8194 34.0149C44.2229 33.9093 44.5682 33.6481 44.7795 33.2884C45.8777 30.9664 46.7495 28.5438 47.3828 26.0544C47.833 24.2811 48.2974 21.4381 45.8631 20.8893C45.5262 20.7982 45.1687 20.8205 44.8457 20.9528C44.5228 21.085 44.2523 21.3199 44.076 21.6211C42.3593 25.6885 40.6004 29.7418 38.8555 33.8091L41.7683 34.5973C41.6144 32.33 42.3007 30.0855 43.6961 28.2922L40.9944 27.1662C40.924 28.5736 40.727 29.981 40.5863 31.3884C40.4737 32.5002 41.9934 32.4862 42.3874 31.6277L42.2748 31.7262Z" fill="#1F454F"/>
<path d="M47.2846 33.538C54.5134 30.3024 62.0586 27.8261 69.7987 26.1492L68.9545 23.0952C64.6099 24.3919 60.1062 25.0787 55.5726 25.1359L56.3325 27.9507C58.925 26.7071 61.6355 25.7265 64.4235 25.0233C65.1411 24.8403 70.6149 23.3907 70.8541 24.1789L71.9517 22.2366C68.6575 22.7185 65.4749 23.7811 62.552 25.3752C62.3401 25.5006 62.1597 25.6728 62.0244 25.8786C61.8891 26.0844 61.8025 26.3184 61.7713 26.5627C61.7401 26.807 61.765 27.0552 61.8442 27.2885C61.9234 27.5217 62.0548 27.7337 62.2284 27.9084L66.8438 31.4973L67.9695 28.7529C63.5122 28.7838 59.0657 28.3117 54.7143 27.3455C54.3465 27.2619 53.961 27.3106 53.6256 27.4831C53.2901 27.6555 53.0261 27.9406 52.88 28.2884C52.7339 28.6361 52.7149 29.0243 52.8265 29.3846C52.9381 29.745 53.173 30.0545 53.49 30.2588L64.9863 37.7743L66.6749 34.9595C62.6884 32.9797 58.5412 31.3412 54.278 30.0618C52.4488 29.5551 51.1824 32.2854 52.9554 33.2003C56.9938 35.2832 61.0323 37.4224 65.0708 39.435C66.8015 40.3216 68.7293 38.112 67.2096 36.6202C62.6364 32.2291 55.5586 29.0062 49.2124 30.8499C48.9549 30.9324 48.7345 31.1026 48.5897 31.3309C48.4449 31.5592 48.3849 31.8311 48.4201 32.0992C48.4552 32.3673 48.5834 32.6145 48.7822 32.7978C48.981 32.981 49.2379 33.0885 49.5079 33.1017C55.1364 33.8476 60.4835 35.058 64.719 39.1254L66.8578 36.3106C62.8053 34.2417 58.7527 32.2151 54.6861 30.1603L53.3634 33.2988C57.3551 34.454 61.243 35.9416 64.9863 37.7461C65.3535 37.8959 65.762 37.9094 66.1382 37.784C66.5143 37.6587 66.8332 37.4029 67.0372 37.0629C67.2412 36.7228 67.3168 36.321 67.2504 35.93C67.1839 35.5391 66.9798 35.1849 66.6749 34.9314L55.1083 27.5144L53.87 30.4277C58.4916 31.4458 63.209 31.9648 67.9413 31.9758C69.1937 31.9758 70.249 30.1462 69.0811 29.2314L64.4798 25.6426L64.1561 28.1758C66.8505 26.7658 69.7609 25.8146 72.7678 25.3611C73.1706 25.2429 73.5117 24.9728 73.7191 24.6078C73.9265 24.2427 73.984 23.8114 73.8794 23.4048C72.7819 19.9708 68.4198 21.0685 65.8306 21.6174C62.0123 22.45 58.3083 23.74 54.7987 25.4596C54.5098 25.624 54.2835 25.8793 54.1549 26.1859C54.0263 26.4924 54.0028 26.8329 54.0879 27.1542C54.173 27.4756 54.3621 27.7597 54.6255 27.9623C54.889 28.1649 55.2121 28.2746 55.5445 28.2744C60.352 28.2521 65.1355 27.5943 69.7706 26.3181C70.1433 26.1791 70.4503 25.9055 70.6312 25.5512C70.8121 25.1968 70.8536 24.7876 70.7476 24.4041C70.6416 24.0207 70.3958 23.6909 70.0586 23.4799C69.7214 23.2688 69.3174 23.1918 68.9263 23.2641C60.8896 24.7079 53.2614 27.8769 46.567 32.5529C46.44 32.6541 46.3537 32.7978 46.3239 32.9575C46.2942 33.1172 46.323 33.2822 46.405 33.4224C46.4871 33.5626 46.6169 33.6686 46.7707 33.7208C46.9245 33.7731 47.0919 33.7681 47.2424 33.7069L47.2846 33.538Z" fill="#1F454F"/>
<path d="M42.9092 34.5383C44.1487 34.8165 45.411 34.9814 46.6803 35.0309L50.17 35.3827C51.338 35.4953 52.4918 35.5939 53.6597 35.6783C54.8277 35.7628 56.474 36.185 57.5153 35.4954C57.6763 35.398 57.8134 35.2657 57.9162 35.1081C58.0191 34.9506 58.0852 34.7718 58.1095 34.5852C58.1338 34.3986 58.1158 34.209 58.0568 34.0303C57.9978 33.8516 57.8992 33.6885 57.7685 33.5531C56.606 32.885 55.2576 32.6133 53.9271 32.7791C52.7169 32.7087 51.5209 32.6524 50.3108 32.6102C49.1006 32.568 47.8905 32.5258 46.6803 32.5117C45.4261 32.3919 44.1634 32.3919 42.9092 32.5117C41.8398 32.6947 41.9946 34.2428 42.9092 34.5102V34.5383Z" fill="#1F454F"/>
<path d="M59.7926 31.7822V31.6978C59.737 31.4716 59.6213 31.2646 59.4579 31.0987C59.2944 30.9327 59.0892 30.8139 58.8639 30.7549C58.5992 30.6849 58.3208 30.6858 58.0565 30.7575C57.7923 30.8291 57.5515 30.9689 57.3583 31.163C57.1845 31.3273 57.0596 31.5367 56.9975 31.7677C56.9354 31.9988 56.9385 32.2425 57.0065 32.4719C57.1591 32.8217 57.3812 33.1369 57.6594 33.3982C57.9376 33.6595 58.2661 33.8615 58.6247 33.9918C59.5957 34.5126 60.5384 35.0333 61.5093 35.5259L67.1379 38.3407C67.5111 38.5553 67.9542 38.6129 68.3698 38.5007C68.7855 38.3885 69.1395 38.1158 69.3541 37.7426C69.5687 37.3693 69.6262 36.9261 69.5141 36.5104C69.4019 36.0947 69.1292 35.7405 68.7561 35.5259C66.0386 33.9811 63.6487 31.9206 61.7204 29.46L59.7926 32.0919C62.1304 32.8848 64.4027 33.8589 66.5891 35.0052C68.7294 36.2375 70.7218 37.7107 72.5272 39.3962L74.8912 36.3281C71.8613 34.7439 69.067 32.7449 66.5891 30.3889L64.6332 33.7667C69.0799 35.1369 73.2351 37.3174 76.8893 40.1984L79.3517 36.9896C77.0341 35.2622 75.0787 33.096 73.5966 30.6141L70.7823 33.4289C73.9603 35.8978 76.799 38.7748 79.2251 41.9858C79.5133 42.4427 79.9647 42.7727 80.4875 42.9087C81.0103 43.0446 81.5652 42.9763 82.0394 42.7177C82.2724 42.5811 82.4762 42.3999 82.6391 42.1844C82.802 41.969 82.9208 41.7235 82.9888 41.462C83.0567 41.2006 83.0725 40.9283 83.0352 40.6608C82.9978 40.3933 82.908 40.1357 82.7711 39.9029C80.7167 36.7081 78.0009 33.4993 74.3987 32.0637C72.7242 31.3882 71.6829 33.7807 72.7383 34.8785C74.9615 37.2429 77.4381 39.1007 79.2392 41.9155L82.7711 39.8466C79.9545 36.0816 76.6411 32.7155 72.9212 29.8401C71.2467 28.5453 69.136 30.9941 70.1069 32.6548C71.9706 35.7205 74.43 38.3813 77.3396 40.4799C79.1829 41.8873 81.561 38.7207 79.802 37.2851C75.6145 33.9511 70.8427 31.4264 65.7307 29.8401C65.3052 29.7345 64.8569 29.7699 64.4532 29.9409C64.0494 30.1119 63.712 30.4092 63.4916 30.7883C63.2712 31.1673 63.1797 31.6077 63.2307 32.0432C63.2818 32.4787 63.4727 32.8859 63.7748 33.2037C66.4571 35.8468 69.5569 38.0294 72.9493 39.6636C73.361 39.8917 73.8404 39.966 74.3017 39.8731C74.7631 39.7803 75.1766 39.5265 75.4681 39.157C75.7553 38.7831 75.8977 38.318 75.8693 37.8473C75.8408 37.3767 75.6434 36.9321 75.3133 36.5955C73.2413 34.7155 70.9555 33.0858 68.5028 31.74C66.0878 30.3384 63.4734 29.3133 60.7495 28.7C60.3822 28.6069 59.9945 28.6358 59.6451 28.7825C59.2957 28.9293 59.0036 29.1858 58.8129 29.5133C58.6221 29.8407 58.5432 30.2214 58.5879 30.5978C58.6327 30.9741 58.7987 31.3257 59.0609 31.5993C61.4141 34.237 64.1512 36.5049 67.1801 38.3266L68.7983 35.5119L63.8593 33.1756C63.0713 32.8097 62.2833 32.4297 61.4812 32.0778L60.2711 31.5571L59.666 31.2897C59.197 31.0363 59.1407 31.0363 59.4971 31.2897L59.2861 32.9222L59.3564 32.8378L58.4136 33.2318H58.5262L57.2316 32.2467V32.3311C57.6538 34.02 60.0459 33.2882 59.8067 31.6274L59.7926 31.7822Z" fill="#1F454F"/>
<path d="M65.3245 36.1027C68.3321 39.5521 70.9424 43.3289 73.1059 47.3619L75.1604 44.7019C72.9371 44.2375 71.6706 42.2249 70.7701 40.2968C69.833 37.8094 68.5949 35.4461 67.0834 33.2598C66.8679 33.0482 66.6012 32.8961 66.3094 32.8184C66.0175 32.7408 65.7105 32.7402 65.4184 32.8168C65.1262 32.8934 64.859 33.0445 64.6427 33.2554C64.4265 33.4662 64.2687 33.7297 64.1847 34.0198C63.8226 36.1138 64.2433 38.2679 65.3667 40.0716C66.4711 41.6078 67.4141 43.2537 68.181 44.9834L71.4877 43.576C69.5951 40.0529 66.9475 36.9916 63.7344 34.6109C63.4227 34.4327 63.0651 34.351 62.707 34.376C62.3488 34.4011 62.0061 34.5318 61.7222 34.7517C61.4426 34.9753 61.2329 35.2746 61.1182 35.6138C61.0035 35.9531 60.9885 36.3182 61.075 36.6657C61.6487 39.9736 63.2954 43.0005 65.7607 45.279C66.0763 45.58 66.4885 45.7594 66.924 45.7851C67.3594 45.8109 67.7898 45.6814 68.1387 45.4197C68.4872 45.1535 68.7266 44.7694 68.8121 44.3393C68.8976 43.9092 68.8233 43.4626 68.6031 43.0834L66.4643 40.156L64.9024 42.8723C67.8088 43.2223 70.627 44.0999 73.2185 45.4619C73.5947 45.6571 74.0274 45.7144 74.4414 45.624C74.8555 45.5336 75.2248 45.3011 75.4855 44.9669C75.7461 44.6326 75.8817 44.2177 75.8685 43.794C75.8554 43.3703 75.6945 42.9646 75.4136 42.6471C74.536 41.4783 74.1383 40.0182 74.302 38.5657H70.8264C71.9239 42.1968 73.1763 46.419 70.6575 49.7545L73.7251 51.5559L75.0619 49.5996C76.1876 47.9671 73.6547 45.9967 72.2476 47.4745C71.2011 48.6356 70.3888 49.988 69.8555 51.4574L73.1904 52.3863L73.9502 48.4174L70.559 47.953C70.7271 49.3629 70.6509 50.7912 70.3339 52.1752L73.1481 51.4152C71.2823 49.4046 69.977 46.9392 69.3629 44.2657C68.8986 42.2953 66.1125 42.8582 65.9858 44.716C65.8772 46.1191 66.1415 47.526 66.7519 48.7939C67.3623 50.0619 68.2971 51.1459 69.4615 51.9359C69.7981 52.1151 70.1872 52.1695 70.5601 52.0897C70.933 52.0099 71.2657 51.801 71.4996 51.4997C71.7335 51.1985 71.8535 50.8243 71.8384 50.4432C71.8234 50.0621 71.6743 49.6985 71.4174 49.4167C70.7679 48.8046 70.2696 48.0499 69.9619 47.2121C69.6542 46.3743 69.5455 45.4764 69.6444 44.5893L66.2673 45.0538C67.0356 48.3041 68.647 51.2944 70.939 53.7233C71.1539 53.9186 71.4144 54.0566 71.6966 54.1248C71.9788 54.1929 72.2737 54.189 72.5539 54.1133C72.8342 54.0376 73.091 53.8926 73.3005 53.6916C73.5101 53.4907 73.6658 53.2402 73.7532 52.9633C74.1583 51.2925 74.2772 49.5651 74.105 47.8545C74.0961 47.4421 73.9413 47.0462 73.6683 46.737C73.3953 46.4278 73.0215 46.2254 72.6134 46.1656C72.2 46.1027 71.7778 46.1942 71.4275 46.4226C71.0771 46.651 70.8231 47.0004 70.7138 47.4041L69.954 51.3589C69.8308 51.8012 69.8884 52.2743 70.114 52.6742C70.3396 53.0741 70.7148 53.3679 71.1571 53.4911C71.5993 53.6143 72.0723 53.5567 72.4721 53.331C72.8719 53.1054 73.1657 52.7301 73.2889 52.2878C73.6418 51.3833 74.1675 50.5563 74.8367 49.853L72.0224 47.7278C71.5581 48.3752 71.1078 49.0226 70.6153 49.6559C69.4615 51.2885 72.1632 53.3996 73.4296 51.8093C76.7786 47.5871 75.7091 42.3094 74.2739 37.5101C74.1633 37.1343 73.936 36.8035 73.6248 36.5656C73.3136 36.3277 72.9347 36.1952 72.5431 36.1872C72.1479 36.1877 71.7637 36.3171 71.4488 36.5559C71.1339 36.7947 70.9055 37.1297 70.7983 37.5101C70.5891 38.8482 70.6613 40.2152 71.0102 41.5238C71.3591 42.8324 71.977 44.0538 72.8245 45.1101L75.0197 42.2953C71.8537 40.6586 68.4154 39.6141 64.8742 39.2131C64.5558 39.2112 64.2426 39.2939 63.9665 39.4526C63.6904 39.6113 63.4613 39.8403 63.3026 40.1164C63.1438 40.3925 63.0611 40.7057 63.0628 41.0242C63.0645 41.3427 63.1506 41.655 63.3123 41.9294C64.0159 42.9145 64.7194 43.8856 65.4511 44.8567L68.2654 42.6753C66.2575 40.8189 64.9339 38.3398 64.5084 35.6383L61.8489 37.6931C64.5088 39.7701 66.7082 42.3773 68.3076 45.3493C69.2785 47.1086 72.3179 45.9264 71.6144 43.9419C70.933 42.282 70.0492 40.7126 68.983 39.2694C68.1528 38.0168 67.1397 36.4546 67.4493 34.8783L64.5506 35.6524C66.2813 37.7775 66.8301 40.6486 68.1106 43.0412C68.6808 44.2788 69.5116 45.3786 70.5462 46.2652C71.5808 47.1519 72.7948 47.8044 74.105 48.1782C74.452 48.2627 74.8161 48.2446 75.153 48.126C75.4899 48.0074 75.7851 47.7934 76.0027 47.5102C76.2203 47.2269 76.351 46.8866 76.3788 46.5304C76.4066 46.1743 76.3304 45.8177 76.1594 45.5041C73.831 41.2435 70.7181 37.4616 66.9849 34.3576C66.7477 34.1577 66.4441 34.054 66.1342 34.0672C65.8243 34.0805 65.5307 34.2095 65.3113 34.4289C65.092 34.6483 64.963 34.942 64.9498 35.2519C64.9366 35.5619 65.0402 35.8655 65.2401 36.1027H65.3245Z" fill="#1F454F"/>
<path d="M68.1224 29.0079C68.8127 28.2349 69.6198 27.5748 70.5145 27.0517C70.7537 26.925 70.9929 26.7843 71.2462 26.6717L71.612 26.4887L71.7809 26.4183C72.2872 26.2292 72.804 26.0694 73.3287 25.9398L72.1186 23.0406C71.5839 23.3361 71.0492 23.6317 70.5004 23.9132L69.7546 24.2791L69.4591 24.4058L69.1636 24.5184C68.0541 24.9548 66.904 25.28 65.7302 25.4894C65.3473 25.6039 65.018 25.8515 64.8017 26.1876C64.5854 26.5237 64.4964 26.926 64.5507 27.322C64.6051 27.718 64.7993 28.0815 65.0982 28.3468C65.397 28.6121 65.781 28.7617 66.1805 28.7687C68.9948 28.9235 71.9216 29.1628 74.7781 29.2191C75.1489 29.2082 75.5063 29.0785 75.7978 28.8491C76.0894 28.6197 76.2995 28.3027 76.3972 27.9448C76.4949 27.5869 76.4751 27.2071 76.3407 26.8613C76.2062 26.5155 75.9643 26.2221 75.6505 26.0242C75.0526 25.5466 74.3389 25.2359 73.582 25.1235C73.3456 25.1243 73.1126 25.1793 72.9007 25.2842C72.6888 25.3891 72.5038 25.5411 72.3598 25.7286C72.2158 25.9161 72.1167 26.1341 72.07 26.3659C72.0233 26.5977 72.0303 26.8371 72.0905 27.0657C72.2431 27.4954 72.5168 27.8718 72.8785 28.1494L73.568 28.7124L74.7781 25.785C71.9638 25.5739 69.037 25.5458 66.1805 25.4332L66.6308 28.7124C67.8498 28.4742 69.0424 28.1159 70.1909 27.6427C71.4372 27.1685 72.619 26.5397 73.7087 25.7709C74.0302 25.5703 74.271 25.2631 74.3893 24.9031C74.5076 24.543 74.4958 24.1528 74.356 23.8006C74.2031 23.4455 73.9251 23.159 73.5749 22.9955C73.2247 22.8321 72.8266 22.803 72.4563 22.9139C70.0043 23.8783 67.897 25.5547 66.4057 27.7272C65.7162 28.7405 67.2781 29.9227 68.0942 29.0361L68.1224 29.0079Z" fill="#1F454F"/>
<path d="M55.5702 21.3937C56.7723 21.2154 57.9924 21.1917 59.2005 21.3233C60.3403 21.3233 61.4801 21.3233 62.6058 21.4078C64.9565 21.5268 67.2805 21.9624 69.5149 22.7026C73.9032 24.1063 77.8798 26.5662 81.0956 29.8662L82.8685 26.8262C81.1605 26.1538 79.3804 25.6815 77.5637 25.4188C75.8644 24.99 74.0691 25.1641 72.4839 25.9114C72.3033 26.0204 72.1538 26.1741 72.0501 26.3579C71.9464 26.5416 71.8919 26.749 71.8919 26.9599C71.8919 27.1709 71.9464 27.3783 72.0501 27.562C72.1538 27.7457 72.3033 27.8995 72.4839 28.0084C73.9591 28.5776 75.5191 28.8963 77.0993 28.9514C78.7424 29.2562 80.3502 29.7278 81.8976 30.3588C83.6847 31.0766 84.8104 28.5433 83.6706 27.3329C80.1183 23.4698 75.5007 20.7466 70.4014 19.5078C67.9171 18.923 65.3683 18.6581 62.8169 18.7196C61.5701 18.7515 60.33 18.9118 59.1161 19.1981C57.7934 19.55 56.6396 20.2537 55.3591 20.6055C55.2583 20.6335 55.1728 20.7004 55.1214 20.7915C55.0699 20.8826 55.0567 20.9903 55.0847 21.0911C55.1127 21.1919 55.1795 21.2774 55.2706 21.3289C55.3616 21.3804 55.4694 21.3935 55.5702 21.3655V21.3937Z" fill="#1F454F"/>
<path d="M70.0954 31.0916C70.6728 31.0022 71.2559 30.9552 71.8402 30.9508L73.4021 30.8101C74.5014 30.7093 75.6063 30.6858 76.7088 30.7397C78.8711 30.8479 81.0119 31.2214 83.0831 31.8516C83.4418 31.9523 83.8238 31.9305 84.1686 31.7896C84.5135 31.6488 84.8016 31.3969 84.9872 31.0739C85.1729 30.751 85.2456 30.3752 85.1938 30.0063C85.1421 29.6373 84.9688 29.2962 84.7014 29.0368C82.6833 26.8329 80.1637 25.148 77.3562 24.125C75.9923 23.5581 74.5398 23.2342 73.0644 23.168C72.7231 23.2072 72.3847 23.2684 72.0512 23.3509L71.0241 23.4495C70.2731 23.5461 69.5419 23.7597 68.8571 24.0828C68.252 24.3361 68.4631 25.265 69.0259 25.4198C69.5888 25.5746 70.2079 25.7154 70.813 25.828C71.1067 25.874 71.3979 25.9351 71.6854 26.0109C72.0231 26.0954 72.2905 26.3065 72.6282 26.405C73.8524 26.7568 75.1047 26.982 76.3289 27.4324C78.5975 28.3019 80.6518 29.6509 82.3514 31.3871L83.9696 28.5724C81.5926 28.0125 79.1457 27.8085 76.7088 27.9672C75.5419 28.0509 74.3812 28.206 73.2332 28.4316C72.6288 28.5564 72.0321 28.7162 71.4462 28.9102C70.8552 29.0931 70.3205 29.4872 69.7295 29.6561C69.5429 29.7046 69.3832 29.8253 69.2856 29.9916C69.188 30.1578 69.1603 30.3561 69.2089 30.5427C69.2574 30.7294 69.378 30.8891 69.5443 30.9867C69.7105 31.0844 69.9088 31.112 70.0954 31.0635V31.0916Z" fill="#1F454F"/>
<path d="M74.8371 40.8021C75.794 42.2095 76.6242 43.5324 77.5248 44.8976C78.5072 46.2959 79.5591 47.644 80.6767 48.9368C81.507 49.9501 82.4216 51.6109 83.9272 51.6249C84.5759 51.5817 85.1867 51.3035 85.6451 50.8424C86.1035 50.3812 86.3783 49.7688 86.4179 49.1198C86.8115 46.1084 86.2296 43.0502 84.7574 40.394C83.4588 37.7145 81.8786 35.181 80.0436 32.8362C78.0595 30.317 75.0763 27.9385 71.6992 28.22C71.2749 28.2262 70.8669 28.3845 70.5494 28.6659C70.2318 28.9474 70.0257 29.3335 69.9685 29.754C69.9052 30.1767 69.9991 30.6079 70.2326 30.9659C70.466 31.3239 70.8226 31.5838 71.2349 31.6963C72.931 31.9972 74.5125 32.7564 75.8081 33.8918C77.208 35.3145 78.423 36.9081 79.4244 38.6347C80.5559 40.2658 81.5401 41.9943 82.3653 43.7998C82.7305 44.7097 83.0085 45.6522 83.1955 46.6146C83.2894 47.0163 83.3412 47.4266 83.3503 47.8391C83.3297 48.092 83.3297 48.3461 83.3503 48.5991C83.4347 48.9228 83.0689 48.5991 83.5614 48.5991H84.3775C84.082 48.5287 83.0548 47.1917 82.6608 46.6991C81.9572 45.9109 81.2537 45.1509 80.5079 44.3769C79.1008 42.8287 77.3559 41.5621 75.8362 40.0562C75.3578 39.6058 74.4291 40.211 74.8794 40.8021H74.8371Z" fill="#1F454F"/>
<path d="M72.5969 31.0938C74.2151 31.5582 75.8333 32.1071 77.4515 32.5856C79.1009 33.0455 80.718 33.6144 82.292 34.2886C83.7695 34.936 85.5706 36.287 87.217 35.3863C87.8249 35.0387 88.2815 34.477 88.4975 33.8107C88.7135 33.1445 88.6733 32.4216 88.3849 31.7834C87.757 30.4282 86.8395 29.2272 85.6973 28.2649C84.5784 27.1626 83.3739 26.1508 82.0951 25.239C79.5122 23.4098 76.6651 21.9859 73.6523 21.0168C72.0322 20.5048 70.37 20.1375 68.6851 19.9191C66.9543 19.6798 64.717 19.4406 63.2817 20.5665C63.1433 20.6979 63.0331 20.8562 62.9578 21.0316C62.8826 21.207 62.8438 21.3959 62.8438 21.5868C62.8438 21.7777 62.8826 21.9666 62.9578 22.1421C63.0331 22.3175 63.1433 22.4757 63.2817 22.6072C64.22 23.199 65.2972 23.5339 66.4056 23.5783C67.5031 23.7472 68.6147 23.902 69.6982 24.1272C71.827 24.5749 73.8989 25.2594 75.8755 26.1679C77.8174 27.0828 79.6569 28.2009 81.3633 29.5034C82.2232 30.1753 83.0453 30.8941 83.8258 31.6567C84.1944 31.9731 84.5292 32.3269 84.8249 32.7123C84.8249 32.7967 84.9375 32.9234 85.0078 33.0079C85.4159 33.3879 85.0078 33.2893 85.0078 33.1908L85.4581 32.4308C85.6973 32.1353 85.6833 32.3323 85.3596 32.1071C85.0577 31.9516 84.7421 31.8244 84.4168 31.7271C83.868 31.5019 83.3192 31.3049 82.7423 31.1219C81.6144 30.7731 80.4682 30.4865 79.3089 30.2634C78.2273 30.0536 77.1313 29.9266 76.0303 29.8834C74.8668 29.8665 73.7051 29.9846 72.5688 30.2353C72.1044 30.3057 72.1607 30.9953 72.5688 31.1079L72.5969 31.0938Z" fill="#1F454F"/>
<path d="M41.0653 36.3261C42.4725 36.2276 43.8796 36.115 45.3712 35.9462C46.2449 35.9038 47.1099 35.7525 47.9462 35.4958H48.1854L48.7201 35.355C49.1873 35.2593 49.6142 35.0237 49.9443 34.6795C50.0647 34.5553 50.1557 34.4057 50.2105 34.2416C50.2653 34.0776 50.2825 33.9033 50.2609 33.7317C50.2393 33.5601 50.1794 33.3955 50.0856 33.2502C49.9919 33.1049 49.8666 32.9825 49.7192 32.8921C49.2909 32.6525 48.8014 32.5448 48.3121 32.5825H47.5241C47.6648 32.5825 47.6648 32.5825 47.5241 32.5825C46.6394 32.541 45.7533 32.6263 44.8927 32.8358C43.4856 33.061 42.0785 33.3284 40.6713 33.6239C40.4865 33.6489 40.3085 33.71 40.1473 33.8038C39.9861 33.8976 39.845 34.0222 39.732 34.1705C39.5037 34.4701 39.4038 34.8481 39.4542 35.2213C39.5046 35.5946 39.7011 35.9326 40.0006 36.1609C40.3001 36.3892 40.6781 36.4891 41.0512 36.4387L41.0653 36.3261Z" fill="#1F454F"/>
<path d="M6.72978 54.7064C6.72978 55.8605 6.72978 57.0286 6.72978 58.1827C6.74212 58.4815 6.84926 58.7686 7.0357 59.0023C7.22215 59.2361 7.4782 59.4044 7.76671 59.4828C8.05522 59.5612 8.3612 59.5457 8.64029 59.4384C8.91938 59.3312 9.15708 59.1378 9.31891 58.8864L11.711 54.5798L8.89674 53.8339C8.89674 55.5368 8.89674 57.2398 8.89674 58.9286C8.9071 59.3057 9.05113 59.6668 9.3031 59.9475C9.55508 60.2282 9.89864 60.4101 10.2724 60.4609C10.6461 60.5116 11.0256 60.4278 11.3433 60.2245C11.661 60.0211 11.8961 59.7115 12.0065 59.3509C12.5975 57.4931 13.1744 55.6354 13.7936 53.8057H10.6979C11.0307 55.0219 11.0307 56.3051 10.6979 57.5212L13.9062 57.9575C13.8175 56.8363 14.0211 55.7113 14.4972 54.6924L11.4718 53.4257C10.6838 57.099 9.99433 60.8145 9.36112 64.516L12.7945 64.9804C12.7945 63.3338 12.7945 61.6871 12.7945 60.0405H9.41742C9.41742 62.9679 9.41742 65.9093 9.41742 68.8367C9.41742 69.2809 9.59383 69.7069 9.90786 70.021C10.2219 70.335 10.6478 70.5115 11.0919 70.5115C11.536 70.5115 11.9619 70.335 12.2759 70.021C12.5899 69.7069 12.7664 69.2809 12.7664 68.8367C12.8062 68.4105 12.9106 67.9929 13.0759 67.5982L9.79733 67.1478C9.79733 68.1893 9.79733 69.2308 9.79733 70.2863C9.70826 71.3485 9.89738 72.4156 10.3461 73.3825C10.4855 73.6227 10.6927 73.8163 10.9419 73.939C11.191 74.0616 11.4708 74.1077 11.7461 74.0716C12.0214 74.0355 12.2799 73.9187 12.489 73.736C12.6981 73.5533 12.8484 73.3128 12.9212 73.0448C13.1888 72.0885 13.2606 71.088 13.1322 70.1033C13.1322 69.1651 13.1322 68.1799 13.1322 67.1478C13.1307 66.7511 12.9884 66.3679 12.7307 66.0663C12.473 65.7648 12.1166 65.5645 11.7251 65.5012C11.3265 65.4535 10.9238 65.5471 10.587 65.7657C10.2502 65.9842 10.0007 66.3139 9.88175 66.6974C9.63302 67.3855 9.48606 68.1062 9.44554 68.8367H12.7945C12.7945 65.9093 12.7945 62.9679 12.7945 60.0405C12.7945 59.5926 12.6166 59.163 12.3 58.8462C11.9833 58.5295 11.5538 58.3516 11.106 58.3516C10.6581 58.3516 10.2287 58.5295 9.91198 58.8462C9.59532 59.163 9.41742 59.5926 9.41742 60.0405C9.41742 61.6871 9.29077 63.3338 9.23448 64.9804C9.16413 66.9226 12.288 67.4011 12.6679 65.4449C13.3855 61.7434 14.075 58.0279 14.6098 54.2983C14.6889 53.8873 14.61 53.4616 14.3889 53.1063C14.1677 52.7509 13.8205 52.4923 13.4168 52.382C13.0131 52.2717 12.5827 52.318 12.2116 52.5115C11.8405 52.705 11.5562 53.0315 11.4155 53.4257C10.8255 54.8618 10.5427 56.4055 10.5853 57.9575C10.6037 58.3419 10.756 58.7076 11.0159 58.9913C11.2758 59.275 11.6268 59.4587 12.008 59.5106C12.3892 59.5624 12.7765 59.4791 13.1027 59.2751C13.4289 59.0711 13.6733 58.7593 13.7936 58.3938C14.3421 56.6197 14.3421 54.7213 13.7936 52.9472C13.6925 52.6155 13.4874 52.325 13.2088 52.1186C12.9301 51.9122 12.5925 51.8008 12.2457 51.8008C11.899 51.8008 11.5614 51.9122 11.2827 52.1186C11.004 52.325 10.799 52.6155 10.6979 52.9472C10.1491 54.805 9.54404 56.6627 8.95304 58.5768L12.0628 58.999C12.0628 57.2961 11.9362 55.6072 11.8658 53.9042C11.8658 52.4968 9.79733 51.765 9.05155 53.1583C8.30577 54.5516 7.64439 56.0857 6.82825 57.5494L9.43146 58.2531C9.29075 56.9864 9.02342 55.7338 8.79827 54.4813C8.57313 53.2287 6.61719 53.5383 6.61719 54.7768L6.72978 54.7064Z" fill="#1F454F"/>
<path d="M100.249 53.3259C100.348 52.383 99.1657 52.1437 98.5184 52.4956C98.1635 52.7344 97.8829 53.0682 97.7087 53.459C97.5346 53.8497 97.4738 54.2816 97.5335 54.7052C97.5335 56.2956 97.5335 57.8859 97.6601 59.4763C97.6638 59.8783 97.8251 60.2627 98.1093 60.547C98.3935 60.8313 98.7779 60.9926 99.1798 60.9963C99.5806 60.989 99.9629 60.8266 100.246 60.5431C100.53 60.2596 100.692 59.8772 100.699 59.4763C100.732 57.8702 100.624 56.2642 100.376 54.6771C100.249 53.9311 100.108 53.1993 99.9115 52.4815C99.7525 51.6336 99.4828 50.8103 99.1094 50.0326C98.9197 49.7035 98.6155 49.4556 98.2548 49.3362C97.8941 49.2168 97.5021 49.2343 97.1535 49.3853C96.8062 49.537 96.5238 49.8068 96.3564 50.1468C96.189 50.4869 96.1474 50.8752 96.2389 51.243C96.3796 51.9608 96.7314 52.6504 96.9143 53.3822C97.0993 54.0543 97.2496 54.7355 97.3646 55.423L97.449 55.9015V56.2111C97.449 56.0985 97.449 56.0845 97.449 56.2111C97.449 56.563 97.449 56.9007 97.5475 57.2526C97.5475 57.9985 97.632 58.7444 97.6179 59.4903H100.657C100.559 58.2378 100.418 56.9852 100.277 55.7326L100.179 54.8037C100.179 54.5785 100.179 54.3393 100.094 54.1141C100.01 53.8889 99.9959 53.6637 100.024 53.8608C100.052 54.0578 100.024 53.7341 100.024 53.706C100.024 53.6778 100.024 53.5652 100.024 53.706C100.009 53.7919 99.9744 53.8733 99.9232 53.944C99.872 54.0147 99.8055 54.0729 99.7286 54.1141C100.01 54.1141 100.165 53.6215 100.193 53.3963L100.249 53.3259Z" fill="#1F454F"/>
<path d="M97.3196 51.6963C98.0265 52.7439 98.4306 53.9662 98.4875 55.2288C98.5005 55.5734 98.612 55.9071 98.809 56.1902C99.0059 56.4732 99.2799 56.6938 99.5985 56.8257C99.9171 56.9576 100.267 56.9953 100.606 56.9342C100.945 56.8732 101.26 56.7161 101.513 56.4814C102.731 55.209 103.738 53.7504 104.496 52.1607L101.231 51.274C101.208 52.748 101.058 54.2172 100.781 55.6651C100.689 56.0972 100.752 56.5479 100.958 56.9385C101.165 57.3291 101.502 57.6349 101.91 57.8024C102.319 57.9699 102.774 57.9887 103.195 57.8553C103.616 57.7219 103.977 57.4448 104.215 57.0725C104.876 55.9184 105.537 54.7503 106.227 53.6103L102.807 52.2029C102.076 54.8629 101.4 57.551 100.781 60.2251C99.9987 62.8614 99.596 65.5958 99.5851 68.3457C99.6977 70.8931 103.595 70.9213 103.567 68.3457C103.567 64.5317 103.469 60.7318 103.413 56.9318C103.373 56.4833 103.167 56.0659 102.834 55.762C102.502 55.458 102.069 55.2894 101.618 55.2894C101.168 55.2894 100.734 55.458 100.402 55.762C100.07 56.0659 99.8641 56.4833 99.8243 56.9318C99.7399 61.3932 99.5429 65.8546 99.3881 70.3302H102.906C102.604 66.731 102.505 63.1176 102.61 59.5073C102.61 57.6073 99.5007 57.0866 99.2192 59.0429C98.5004 63.8534 98.2553 68.7228 98.4875 73.5812H101.907C101.541 70.7664 101.288 67.8532 101.175 64.9821C101.175 63.5747 101.105 62.1673 101.105 60.7599C101.22 59.302 101.145 57.8353 100.88 56.397C100.794 56.1046 100.617 55.8478 100.373 55.6651C100.13 55.4824 99.8333 55.3837 99.5288 55.3837C99.2243 55.3837 98.9281 55.4824 98.6846 55.6651C98.441 55.8478 98.2632 56.1046 98.178 56.397C97.7764 57.8143 97.6194 59.2898 97.7136 60.7599C97.7136 62.1673 97.7136 63.5747 97.7136 64.9821C97.8262 67.8532 98.0654 70.7195 98.4312 73.5812C98.4488 74.0297 98.6358 74.4548 98.9544 74.7708C99.2729 75.0868 99.6995 75.2703 100.148 75.2842C100.6 75.2842 101.033 75.1048 101.352 74.7854C101.671 74.466 101.851 74.0329 101.851 73.5812C101.603 69.0209 101.816 64.4473 102.484 59.9295L99.1911 59.5073C99.0596 63.1165 99.1395 66.7303 99.4303 70.3302C99.4303 70.7967 99.6156 71.2442 99.9455 71.5741C100.275 71.904 100.723 72.0894 101.189 72.0894C101.656 72.0894 102.103 71.904 102.433 71.5741C102.763 71.2442 102.948 70.7967 102.948 70.3302C103.103 65.8546 103.216 61.3932 103.455 56.9318H99.8665C99.7821 60.7318 99.7117 64.5317 99.6273 68.3457H103.61C103.655 65.8032 104.029 63.2772 104.721 60.8303C105.312 58.2969 105.931 55.7495 106.466 53.2022C106.874 51.1896 104.116 49.8103 103.033 51.7948C102.385 52.9629 101.625 54.117 101.006 55.271L104.44 56.6784C104.878 54.7586 104.973 52.7766 104.721 50.8237C104.468 48.9659 101.822 49.3459 101.33 50.8237C100.839 52.0451 100.057 53.1276 99.0504 53.9763L102.076 55.2429C102.025 53.3504 101.407 51.5168 100.303 49.9793C99.0363 48.2341 96.0814 49.8526 97.3618 51.7103L97.3196 51.6963Z" fill="#1F454F"/>
<path d="M58.892 46.0237L58.7654 45.4326V46.0237C58.9155 45.4838 58.968 44.9213 58.9202 44.363C58.9202 44.1378 58.9201 43.9126 58.8498 43.6733C58.8487 43.3067 58.7966 42.942 58.695 42.5897V42.9837C58.695 42.6178 58.6669 42.2519 58.6106 41.886V41.3934C58.5806 41.0311 58.449 40.6847 58.2307 40.3941C58.1376 40.24 58.0109 40.1089 57.8601 40.0106C57.7093 39.9122 57.5382 39.8492 57.3597 39.8262C57.1811 39.8032 56.9997 39.8208 56.8289 39.8777C56.6581 39.9346 56.5023 40.0294 56.3732 40.1549C56.1169 40.3896 55.9235 40.6847 55.8104 41.0134C55.7607 41.2875 55.7324 41.5652 55.7259 41.8438C55.7259 42.2237 55.7259 42.6037 55.7259 42.9837V42.5897C55.6487 42.9468 55.6487 43.3162 55.7259 43.6733C55.7514 44.0443 55.8127 44.4119 55.9089 44.7711C55.9893 45.1135 56.1122 45.4444 56.2747 45.7563C56.2747 45.8689 56.7109 46.46 56.4999 46.0659C56.5895 46.2357 56.7086 46.3882 56.8517 46.5163L56.5562 46.0237L56.7672 46.5867C56.7927 46.7355 56.8489 46.8773 56.9323 47.0031C57.0157 47.1289 57.1245 47.2359 57.2517 47.3172C57.3788 47.3985 57.5216 47.4523 57.6707 47.4752C57.8199 47.4981 57.9723 47.4896 58.118 47.4503C58.2636 47.4109 58.3995 47.3415 58.5168 47.2465C58.6341 47.1515 58.7303 47.0331 58.7992 46.8988C58.8681 46.7645 58.9082 46.6173 58.9169 46.4666C58.9256 46.3159 58.9028 46.1651 58.8498 46.0237H58.892Z" fill="#1F454F"/>
<path d="M34.3712 44.1504V42.743C34.3451 42.4167 34.2981 42.0923 34.2305 41.7719C34.1369 41.4114 33.9041 41.1026 33.5833 40.9134C33.4054 40.8023 33.2018 40.7392 32.9923 40.7305C32.7832 40.7417 32.5801 40.8045 32.4013 40.9134C32.0804 41.1026 31.8477 41.4114 31.754 41.7719C31.6855 42.0921 31.6385 42.4166 31.6133 42.743V44.1504C31.6111 44.5177 31.7525 44.8712 32.0073 45.1356C32.2694 45.3956 32.6232 45.5422 32.9923 45.5437C33.3655 45.5437 33.7234 45.3955 33.9873 45.1315C34.2511 44.8676 34.3994 44.5096 34.3994 44.1363L34.3712 44.1504Z" fill="#1F454F"/>
<path d="M33.3102 39.6197L33.4088 39.4227L32.874 39.8308L33.057 39.8027C33.1646 39.7464 33.2564 39.6641 33.3243 39.5634C33.4496 39.3959 33.523 39.1953 33.5354 38.9864C33.5354 38.522 33.6621 38.0575 33.6902 37.579V37.2553C33.704 37.129 33.704 37.0016 33.6902 36.8753C33.6567 36.5753 33.5809 36.2815 33.4651 36.0027C33.4145 35.8021 33.2985 35.6241 33.1353 35.497C32.9722 35.3698 32.7713 35.3008 32.5645 35.3008C32.3577 35.3008 32.1567 35.3698 31.9936 35.497C31.8305 35.6241 31.7145 35.8021 31.664 36.0027C31.5481 36.2815 31.4723 36.5753 31.4388 36.8753C31.4321 36.9925 31.4321 37.11 31.4388 37.2272C31.4319 37.3444 31.4319 37.4619 31.4388 37.579C31.4388 38.0435 31.5373 38.5079 31.5936 38.9864C31.6083 39.1948 31.6815 39.3947 31.8046 39.5634C31.924 39.7304 32.0983 39.8501 32.2971 39.9012L31.7765 39.4931L31.8609 39.6901C31.9227 39.8249 32.0218 39.939 32.1465 40.0191C32.2712 40.0991 32.4163 40.1417 32.5645 40.1417C32.7127 40.1417 32.8578 40.0991 32.9825 40.0191C33.1072 39.939 33.2063 39.8249 33.268 39.6901L33.3102 39.6197Z" fill="#1F454F"/>
<path d="M32.9186 32.471L33.0031 32.2458C33.0314 32.0923 33.0314 31.9349 33.0031 31.7814C32.9958 31.5448 32.9676 31.3093 32.9186 31.0777L32.792 30.6696C32.748 30.4078 32.631 30.1639 32.4543 29.9659C32.379 29.8894 32.2892 29.8288 32.1901 29.7877C32.091 29.7466 31.9847 29.7258 31.8774 29.7266C31.661 29.7267 31.4535 29.8128 31.3005 29.9659C31.1275 30.1663 31.0109 30.4092 30.9628 30.6696L30.8502 31.0777C30.7899 31.3075 30.7568 31.5437 30.7517 31.7814C30.7234 31.9349 30.7234 32.0923 30.7517 32.2458L30.8362 32.471L30.9346 32.7102C30.9964 32.8304 31.0886 32.9323 31.202 33.0058C31.3777 33.1457 31.5965 33.2203 31.8211 33.2169C32.0043 33.2186 32.1844 33.1699 32.3417 33.0762C32.5665 32.9394 32.7322 32.7236 32.8061 32.471H32.9186Z" fill="#1F454F"/>
<path d="M33.6765 25.9271V26.2086C33.6484 26.0126 33.6484 25.8136 33.6765 25.6175V25.9131C33.7028 25.6951 33.7596 25.4818 33.8454 25.2797L33.7328 25.5471L33.8595 25.2797C33.9487 25.1224 34.024 24.9576 34.0846 24.7871L33.972 25.0405L34.1409 24.7309C34.2489 24.5418 34.2923 24.3226 34.2643 24.1067C34.2364 23.8908 34.1387 23.6899 33.9861 23.5346C33.862 23.4146 33.7131 23.3234 33.5499 23.2672C33.2934 23.2007 33.0211 23.2361 32.79 23.3657C32.4843 23.5476 32.2205 23.7922 32.0161 24.0834C31.9655 24.1684 31.9231 24.2579 31.8895 24.3508C31.8191 24.5197 31.7347 24.6886 31.6784 24.8716C31.5447 25.4219 31.5447 25.9961 31.6784 26.5464C31.7475 26.8162 31.9191 27.0485 32.1568 27.1938C32.4111 27.3306 32.7078 27.3658 32.9871 27.2923C33.251 27.2186 33.4773 27.0476 33.6202 26.8138L33.7328 26.5464C33.7751 26.3611 33.7751 26.1687 33.7328 25.9834L33.6765 25.9271Z" fill="#1F454F"/>
<path d="M35.8721 21.14V21.0133L35.7877 21.2104V21.14L35.2952 21.52C35.341 21.5341 35.3901 21.5341 35.4359 21.52C35.5499 21.4813 35.6518 21.4133 35.7314 21.323C35.7864 21.26 35.8381 21.1943 35.8862 21.126L35.7455 21.3089L35.9003 21.1541L35.7033 21.3089L35.9143 21.1822L35.6611 21.2948C35.7646 21.2722 35.8642 21.2342 35.9566 21.1822C36.0002 21.1572 36.0385 21.1237 36.0692 21.0837C36.1193 21.0626 36.163 21.0286 36.1958 20.9852L36.3083 20.8867L36.0832 21.0556C36.1488 21.0097 36.2196 20.9719 36.2943 20.943L36.0269 21.0415L36.435 20.8867L36.1817 20.9852H36.252L36.4913 20.8867C36.6006 20.8212 36.6962 20.7352 36.7727 20.6334C36.8332 20.5701 36.8767 20.4927 36.8994 20.4082C36.9687 20.2892 36.9983 20.1511 36.9838 20.0141V19.7467L36.8853 19.5074C36.8188 19.3944 36.7274 19.2982 36.6179 19.226C36.521 19.1427 36.405 19.0846 36.2802 19.0571C36.141 19.0032 35.9933 18.9746 35.844 18.9727H35.6189H35.3937H35.2249L34.8871 19.1134L34.6479 19.2963L34.465 19.5356C34.397 19.6616 34.3405 19.7935 34.2961 19.9297V20.0986C34.2815 20.2342 34.2815 20.3711 34.2961 20.5067C34.2896 20.5345 34.2896 20.5634 34.2961 20.5911C34.2837 20.7083 34.3083 20.8265 34.3665 20.9289C34.4017 21.0372 34.4648 21.1343 34.5494 21.2104L34.7464 21.3652L34.3806 20.8726C34.4014 21.0054 34.4442 21.1339 34.5072 21.2526L34.6198 21.4074L34.7746 21.52L34.9575 21.5904C35.0528 21.626 35.1577 21.626 35.253 21.5904C35.3178 21.6049 35.3851 21.6049 35.45 21.5904L35.6189 21.4919C35.6719 21.4559 35.7153 21.4077 35.7455 21.3512C35.8137 21.2804 35.8622 21.1931 35.8862 21.0978L35.8721 21.14Z" fill="#1F454F"/>
<path d="M39.8952 17.8881L40.3736 17.7474C40.6124 17.6596 40.8431 17.5514 41.0631 17.4237C41.2794 17.2942 41.4821 17.1433 41.6681 16.9733C41.8933 16.7763 42.1747 16.5933 42.231 16.2696C42.2911 16.0312 42.2558 15.7787 42.1325 15.5659C42.0142 15.3634 41.8238 15.2131 41.5993 15.1452C41.3748 15.0773 41.133 15.0969 40.9224 15.2L40.6972 15.2985C40.4532 15.3666 40.2208 15.471 40.0077 15.6081C39.8248 15.7207 39.656 15.8474 39.4871 15.9741C39.3233 16.1098 39.1725 16.2606 39.0368 16.4244C38.9062 16.5637 38.8223 16.7403 38.7971 16.9296C38.7719 17.1189 38.8065 17.3114 38.8961 17.48C38.9994 17.6436 39.1512 17.7709 39.3303 17.8441C39.5094 17.9173 39.7069 17.9326 39.8952 17.8881Z" fill="#1F454F"/>
<path d="M46.5717 15.6958H46.8672H47.2612H47.5145H47.7678C47.6271 15.6958 47.5989 15.6958 47.7678 15.6958H48.1899H48.809C48.5276 15.6958 48.809 15.6958 48.809 15.6958H49.0342L49.6252 15.6114H49.8081C49.9965 15.5544 50.1602 15.4354 50.2725 15.2736L50.0191 15.4284C50.1245 15.3937 50.2183 15.3307 50.2902 15.2463C50.3622 15.1619 50.4096 15.0594 50.4272 14.9499C50.4398 14.8389 50.42 14.7266 50.37 14.6266C50.3201 14.5267 50.2422 14.4434 50.1458 14.3869L50.3569 14.598C50.2891 14.4617 50.1922 14.3419 50.073 14.247C49.9539 14.1522 49.8154 14.0847 49.6674 14.0492C49.4658 13.9886 49.2582 13.9508 49.0482 13.9366C48.7303 13.9014 48.4094 13.9014 48.0914 13.9366C47.7218 13.9626 47.3573 14.0383 47.0079 14.1618C46.6702 14.3025 46.3325 14.4292 46.0089 14.598C45.8471 14.6902 45.7247 14.8386 45.6651 15.015C45.6054 15.1914 45.6126 15.3836 45.6852 15.5551C45.7621 15.7237 45.8959 15.86 46.0631 15.9398C46.2304 16.0196 46.4205 16.0378 46.5999 15.9913L46.5717 15.6958Z" fill="#1F454F"/>
<path d="M53.52 15.0758L54.1813 15.301C54.4911 15.3717 54.8066 15.4141 55.1241 15.4277C55.3628 15.4488 55.603 15.4488 55.8417 15.4277C56.1188 15.4179 56.3893 15.3406 56.6297 15.2025L56.9252 15.0477C57.0681 14.963 57.1866 14.8425 57.2688 14.6982C57.3511 14.5538 57.3943 14.3906 57.3943 14.2244C57.3943 14.0582 57.3511 13.8949 57.2688 13.7506C57.1866 13.6062 57.0681 13.4857 56.9252 13.401L56.6297 13.2463C56.3893 13.1081 56.1188 13.0308 55.8417 13.0211C55.6033 12.993 55.3625 12.993 55.1241 13.0211C54.8066 13.0347 54.4911 13.077 54.1813 13.1477L53.52 13.3729C53.3424 13.4257 53.1858 13.5329 53.0722 13.6793C52.9586 13.8257 52.8937 14.004 52.8867 14.1892C52.8969 14.3751 52.9627 14.5537 53.0756 14.7018C53.1885 14.8499 53.3433 14.9606 53.52 15.0196V15.0758Z" fill="#1F454F"/>
<path d="M60.6215 15.4699C61.1478 15.9241 61.7474 16.2857 62.3945 16.5395C62.7268 16.648 63.0725 16.7095 63.4217 16.7225C63.6789 16.7506 63.9385 16.7506 64.1957 16.7225C64.4854 16.7169 64.7621 16.6011 64.9696 16.3987C65.1361 16.2323 65.2405 16.0137 65.2651 15.7795C65.3056 15.5198 65.249 15.2543 65.1063 15.0337C64.9635 14.813 64.7446 14.6527 64.4912 14.5832C64.0425 14.511 63.6035 14.3883 63.1825 14.2173L63.478 14.3299L62.5493 13.978L62.8308 14.1047C62.5518 13.9817 62.2835 13.8358 62.0287 13.6684C61.789 13.5189 61.5015 13.4663 61.2245 13.5212C60.9475 13.5761 60.7017 13.7344 60.5371 13.964C60.3654 14.1822 60.2792 14.4556 60.2948 14.7329C60.3103 15.0101 60.4265 15.2722 60.6215 15.4699Z" fill="#1F454F"/>
<path d="M67.2201 17.9736C67.2201 18.0862 67.3327 18.1989 67.4031 18.3114L67.6 18.5789C67.7861 18.8614 67.993 19.1295 68.2192 19.381L68.7258 19.8877L68.979 20.141C69.1439 20.3054 69.347 20.4263 69.5701 20.4929C69.7187 20.5327 69.8739 20.5421 70.0262 20.5203C70.1786 20.4985 70.325 20.4461 70.4565 20.3662L69.6967 20.4648L70.0063 20.5492C70.1389 20.5886 70.2797 20.5911 70.4136 20.5564C70.5475 20.5217 70.6694 20.4511 70.7661 20.3521C70.8625 20.2537 70.9314 20.1318 70.966 19.9984C71.0005 19.8651 70.9996 19.725 70.9631 19.5922C70.9699 19.4797 70.9699 19.3669 70.9631 19.2544L70.7098 20.2114C70.8861 20.0261 70.9967 19.7881 71.0247 19.5339C71.0527 19.2796 70.9964 19.0232 70.8646 18.804L70.6254 18.4944C70.4425 18.227 70.2314 17.9737 70.0203 17.7203C69.8698 17.5298 69.7001 17.3553 69.5138 17.1996C69.2685 16.9734 69.0101 16.7619 68.7398 16.5663L68.4865 16.4678C68.348 16.4326 68.2029 16.4326 68.0644 16.4678C67.832 16.4985 67.6153 16.602 67.4453 16.7633C67.2861 16.9348 67.1842 17.1517 67.154 17.3837C67.1237 17.6158 67.1665 17.8515 67.2764 18.0581L67.2201 17.9736Z" fill="#1F454F"/>
<path d="M13.6849 156.885C16.7255 162.606 20.2965 168.03 24.351 173.084C24.4749 173.28 24.6405 173.446 24.8358 173.57C25.0312 173.695 25.2516 173.774 25.4813 173.804C25.7111 173.833 25.9446 173.812 26.1651 173.741C26.3856 173.67 26.5877 173.551 26.7572 173.393C32.5123 168.791 38.155 164.048 43.8257 159.32L41.3069 158.996C44.8998 163.753 48.4786 168.515 52.0434 173.281C52.1764 173.498 52.3564 173.682 52.5701 173.821C52.7838 173.959 53.0257 174.047 53.2782 174.08C53.5306 174.112 53.7871 174.088 54.0288 174.008C54.2705 173.928 54.4912 173.795 54.6747 173.619C59.4167 168.636 64.3136 163.767 69.4215 159.249H67.0012C71.2425 164.275 75.9909 168.85 81.171 172.901C81.5093 173.227 81.9607 173.409 82.4304 173.409C82.9001 173.409 83.3515 173.227 83.6898 172.901C88.0801 168.163 92.4515 163.406 96.8043 158.63C98.3662 156.913 95.8193 154.408 94.2433 156.068C89.8812 160.835 85.5238 165.606 81.171 170.382L83.338 170.1C78.2354 166.19 73.5695 161.74 69.4215 156.828C69.0963 156.515 68.6626 156.341 68.2113 156.341C67.7601 156.341 67.3263 156.515 67.0012 156.828C61.9214 161.431 56.9965 166.23 52.3107 171.254L54.942 171.592C51.3257 166.849 47.6812 162.12 44.079 157.377C43.9496 157.172 43.7765 156.998 43.572 156.867C43.3674 156.737 43.1366 156.653 42.8959 156.622C42.6552 156.591 42.4106 156.614 42.1797 156.688C41.9488 156.763 41.7373 156.888 41.5602 157.054C35.8754 161.782 30.2469 166.469 24.6183 171.226H26.7853C22.7469 166.188 19.2149 160.783 15.1483 155.745C14.4588 154.9 13.2909 155.984 13.7412 156.857L13.6849 156.885Z" fill="#1F454F"/>
<path d="M16.6775 152.887C22.4326 155.702 29.3417 156.898 35.6175 157.94C42.0612 158.983 48.5789 159.501 55.1063 159.488C68.325 159.503 81.475 157.588 94.1402 153.802C96.5605 153.07 95.5473 149.284 93.0989 150.002C80.7707 153.681 67.9715 155.54 55.1063 155.519C48.759 155.485 42.4197 155.062 36.1241 154.253C29.7638 153.464 23.5724 151.621 17.2263 150.903C16.1568 150.776 15.8191 152.451 16.6775 152.901V152.887Z" fill="#1F454F"/>
</svg>
