<svg width="110" height="168" viewBox="0 0 110 168" fill="none" xmlns="http://www.w3.org/2000/svg">
<path d="M13.5647 65.6899C12.758 75.7094 14.7043 85.7589 19.1932 94.7525C23.5975 103.127 30.9709 108.756 39.7373 111.993C48.9515 115.325 58.8968 116.093 68.5132 114.217C77.3219 112.528 86.8059 108.77 91.4354 100.65C97.0639 90.9103 98.5696 78.849 98.9354 67.815C99.0339 65.0003 94.714 65.0003 94.5311 67.815C94.1652 77.1179 92.8285 86.5897 89.1277 95.2029C87.6673 98.9822 85.0967 102.23 81.7543 104.52C78.1562 106.76 74.2086 108.382 70.0751 109.319C53.9775 113.33 33.1379 109.319 23.8227 94.4007C18.3067 85.5341 17.6876 75.3868 16.2945 65.3239C16.0694 63.7054 13.7054 64.2403 13.5928 65.6899H13.5647Z" fill="#1F454F"/>
<path d="M15.0007 66.3361C14.3535 63.5213 10.6949 62.0154 8.06357 62.1139C6.48166 62.1626 4.95077 62.6849 3.66887 63.6133C2.38697 64.5416 1.41305 65.8333 0.873111 67.3213C-1.51902 73.3027 1.30934 80.4945 5.65738 84.8011C8.21481 87.3521 11.4628 89.0987 15.0007 89.8255C17.2522 90.2759 18.2231 86.8137 15.9435 86.3774C12.9593 85.7771 10.2183 84.31 8.06335 82.1597C5.90842 80.0094 4.43525 77.2712 3.8281 74.2879C3.27932 71.5997 3.49039 67.7154 6.09359 66.0969C7.11254 65.5148 8.31361 65.3389 9.45664 65.6043C10.7395 65.9743 11.9036 66.6729 12.8337 67.6309C13.0395 67.8243 13.3022 67.946 13.5827 67.9778C13.8633 68.0096 14.1466 67.9498 14.3904 67.8073C14.6341 67.6648 14.8253 67.4473 14.9353 67.1872C15.0453 66.9271 15.0683 66.6385 15.0007 66.3643V66.3361Z" fill="#1F454F"/>
<path d="M98.1097 68.8411C100.023 67.7855 103.401 65.773 105.328 67.8841C107.256 69.9952 106.623 74.1329 105.793 76.5817C104.781 79.2815 103.224 81.744 101.219 83.8158C99.3621 85.8706 97.3077 87.9676 94.4653 88.4039C94.0301 88.5256 93.6604 88.814 93.4365 89.2066C93.2126 89.5992 93.1525 90.0643 93.2692 90.5009C93.3972 90.9321 93.6867 91.2972 94.0773 91.5201C94.468 91.743 94.9296 91.8065 95.3658 91.6972C99.0807 91.1061 101.937 88.1646 104.259 85.4202C106.901 82.5323 108.723 78.9899 109.536 75.1603C110.127 71.7122 109.873 66.7159 106.454 64.7315C103.035 62.7471 99.2214 64.4641 96.6041 66.8707C95.5206 67.8559 96.8996 69.5307 98.1238 68.8411H98.1097Z" fill="#1F454F"/>
<path d="M53.1449 84.5604C54.3128 85.7285 56.2968 85.1937 57.7884 85.067C59.4702 84.9734 61.1438 84.7665 62.7978 84.4477C66.1046 83.7018 67.4132 80.9996 66.6393 77.8189C66.1777 76.3618 65.8342 74.8698 65.6121 73.3575C65.4573 71.5983 65.6121 69.8249 65.6121 68.0516C65.6121 64.2657 65.6965 60.4939 65.6824 56.708C65.6824 56.2452 65.4986 55.8013 65.1714 55.474C64.8441 55.1468 64.4003 54.9629 63.9376 54.9629C63.4748 54.9629 63.031 55.1468 62.7038 55.474C62.3766 55.8013 62.1927 56.2452 62.1927 56.708C62.1927 59.8747 62.1927 63.0413 62.2912 66.2079C62.1949 69.3071 62.2889 72.4092 62.5727 75.4967C62.7556 76.7775 63.3043 78.0441 63.3747 79.3389C63.4451 80.6337 62.4601 80.8448 61.3344 81.0278C59.8428 81.253 58.3513 81.4078 56.8597 81.6752C55.3681 81.9426 53.8062 81.9144 53.0323 83.2233C52.8923 83.4409 52.8326 83.7005 52.8634 83.9574C52.8942 84.2143 53.0137 84.4524 53.2011 84.6307L53.1449 84.5604Z" fill="#1F454F"/>
<path d="M38.4285 71.2324C38.79 71.259 39.1515 71.1808 39.4698 71.0072C39.8077 70.8967 40.1125 70.7032 40.3562 70.4443C40.6101 70.2019 40.803 69.9029 40.9191 69.5717C41.0862 69.246 41.1639 68.8817 41.1442 68.5162L41.0457 67.7984C40.9209 67.3435 40.6838 66.9273 40.3562 66.588L39.7934 66.1658C39.3663 65.9182 38.8798 65.7917 38.3863 65.7999C38.0207 65.7802 37.6566 65.8579 37.3309 66.025C36.9997 66.1412 36.7008 66.3342 36.4585 66.588C36.1997 66.8318 36.0061 67.1367 35.8956 67.4747C35.7303 67.796 35.6527 68.1552 35.6705 68.5162L35.7549 69.248C35.8859 69.6992 36.1278 70.1105 36.4585 70.4443L37.0073 70.8665C37.4326 71.1182 37.9203 71.245 38.4144 71.2324H38.4285Z" fill="#1F454F"/>
<path d="M76.4187 70.768C77.0643 70.768 77.6835 70.5115 78.14 70.0549C78.5966 69.5983 78.853 68.979 78.853 68.3332C78.853 67.6875 78.5966 67.0682 78.14 66.6116C77.6835 66.155 77.0643 65.8984 76.4187 65.8984C75.7731 65.8984 75.1539 66.155 74.6974 66.6116C74.2408 67.0682 73.9844 67.6875 73.9844 68.3332C73.9844 68.979 74.2408 69.5983 74.6974 70.0549C75.1539 70.5115 75.7731 70.768 76.4187 70.768Z" fill="#1F454F"/>
<path d="M69.8391 90.8518C68.8915 90.7087 67.9522 90.5161 67.0248 90.2748C66.1101 90.1904 65.1814 90.2045 64.2105 90.2045C62.4235 90.2045 60.6505 90.2045 58.8775 90.2045C55.2471 90.2045 51.6307 90.1341 48.0003 90.0215C47.6059 90.0252 47.2286 90.1835 46.9497 90.4625C46.6708 90.7415 46.5124 91.1188 46.5088 91.5133C46.3118 95.2711 49.4637 98.2406 52.7002 99.451C58.2583 101.52 66.6589 100.858 69.7687 95.0177C70.2543 94.1913 70.5745 93.2783 70.7115 92.3296C70.7326 92.072 70.7326 91.8131 70.7115 91.5555C70.7045 91.4948 70.7045 91.4334 70.7115 91.3726C70.7115 91.2881 70.5285 90.4718 70.627 91.1052C70.627 91.457 70.627 91.3867 70.627 91.3022C70.627 90.0637 68.7555 90.0637 68.6993 91.3022C68.6993 91.0067 68.8681 90.7392 68.6993 91.2037L68.5304 91.7103C68.5304 91.7103 68.5304 91.7103 68.4038 92.02C68.3598 92.1446 68.3222 92.2715 68.2912 92.4C67.9551 93.365 67.4099 94.2439 66.6948 94.9738C65.9796 95.7037 65.1121 96.2665 64.1542 96.6222C61.0782 97.6292 57.7794 97.7414 54.642 96.9458C53.699 96.7517 52.8045 96.3702 52.0117 95.8238C51.2189 95.2774 50.5438 94.5774 50.0266 93.7652C49.7356 93.2209 49.5404 92.6305 49.4497 92.02C49.5341 92.4563 49.5482 91.8792 49.4497 91.7666C49.3512 91.654 49.4497 91.5696 49.4497 91.5133L47.944 93.0192C51.5744 93.1178 55.1908 93.1318 58.8212 93.0192C60.5942 93.0192 62.3672 92.9348 64.1542 92.8222C64.9704 92.8222 65.8006 92.7378 66.6026 92.6252C67.0683 92.6118 67.5309 92.5457 67.9816 92.4281C68.5495 92.0997 69.1675 91.8667 69.8109 91.7385C70.416 91.7104 70.4441 90.8518 69.8391 90.8518Z" fill="#1F454F"/>
<path d="M57.7065 103.408H57.805L57.5377 103.14C57.6003 103.268 57.6911 103.38 57.8032 103.468C57.9153 103.556 58.0458 103.617 58.185 103.647H58.6915C58.9071 103.661 59.1233 103.661 59.3388 103.647C59.545 103.661 59.7518 103.661 59.958 103.647H60.1268C60.2982 103.641 60.4661 103.597 60.6193 103.52L61.0274 103.337L60.7882 103.436L61.2103 103.295C61.4035 103.233 61.5844 103.138 61.745 103.014C61.878 102.937 61.9851 102.822 62.0527 102.685C62.1204 102.547 62.1455 102.392 62.125 102.24C62.102 102.09 62.037 101.949 61.9373 101.834C61.8377 101.72 61.7076 101.636 61.5621 101.592C61.3713 101.522 61.1729 101.475 60.9711 101.452H60.5067H60.7882C60.507 101.386 60.2178 101.363 59.9298 101.381C59.6343 101.381 59.3388 101.452 59.0433 101.522C58.8408 101.563 58.6429 101.625 58.4523 101.705L58.0724 101.846C57.9215 101.904 57.7874 101.999 57.6818 102.122C57.5763 102.244 57.5026 102.391 57.4673 102.549L57.6503 102.226V102.296C57.5806 102.367 57.5278 102.453 57.4959 102.547C57.464 102.641 57.4537 102.741 57.4659 102.84C57.4781 102.939 57.5124 103.034 57.5662 103.117C57.62 103.201 57.6921 103.271 57.7769 103.323L57.7065 103.408Z" fill="#1F454F"/>
<path d="M68.2208 110.993C67.7286 112.628 67.4728 114.325 67.461 116.032C67.3484 117.721 67.3766 119.424 67.3766 121.112C67.3766 122.801 67.3766 124.504 67.3766 126.193C67.2682 127.938 67.3578 129.69 67.6439 131.415C67.7669 131.823 68.0181 132.18 68.3602 132.435C68.7024 132.689 69.1173 132.826 69.5435 132.826C69.9698 132.826 70.3847 132.689 70.7268 132.435C71.069 132.18 71.3202 131.823 71.4432 131.415C71.6121 129.678 71.6121 127.93 71.4432 126.193C71.4432 124.504 71.3587 122.801 71.3447 121.112C71.3306 119.424 71.3447 117.721 71.2602 116.032C71.2761 114.331 71.0631 112.637 70.627 110.993C70.5461 110.728 70.3821 110.496 70.1592 110.33C69.9362 110.165 69.6662 110.076 69.3888 110.076C69.1113 110.076 68.8413 110.165 68.6183 110.33C68.3954 110.496 68.2314 110.728 68.1505 110.993H68.2208Z" fill="#1F454F"/>
<path d="M70.7887 127.165C74.4636 128.423 77.9738 130.12 81.2436 132.217C84.2295 134.327 86.9508 136.789 89.3487 139.55C93.1607 143.762 96.1699 148.637 98.2278 153.933C99.2454 156.326 99.8908 158.86 100.141 161.449L100.493 161.238C100.153 161.287 99.8067 161.287 99.466 161.238H98.0589C96.497 161.238 94.921 161.35 93.3591 161.435C87.9697 161.73 82.5804 162.096 77.1911 162.335C66.4265 162.828 55.6338 163.025 44.8271 162.532C32.7451 162.071 20.7393 160.407 8.98737 157.564L10.5211 160.28C13.3354 142.758 29.9959 133.301 45.1788 127.587C45.649 127.443 46.0621 127.155 46.36 126.763C46.6579 126.372 46.8255 125.897 46.8392 125.405C46.8392 120.888 46.7548 116.37 46.7548 111.852C46.7108 111.306 46.4627 110.796 46.0599 110.424C45.657 110.052 45.1289 109.846 44.5808 109.846C44.0326 109.846 43.5046 110.052 43.1017 110.424C42.6989 110.796 42.4508 111.306 42.4068 111.852C42.4068 116.37 42.3224 120.888 42.3224 125.405L43.9828 123.224C27.4489 129.487 9.36729 140 6.25752 159.098C6.11323 159.665 6.19376 160.266 6.48226 160.775C6.77076 161.284 7.24488 161.661 7.80538 161.829C30.7839 167.571 54.6207 167.852 78.162 166.656C84.0016 166.36 89.8553 166.079 95.6808 165.544C97.088 165.403 98.4951 165.249 99.9022 165.066C101.026 165.078 102.115 164.683 102.97 163.954C104.56 162.237 103.631 159.225 103.153 157.255C101.397 150.541 98.1883 144.295 93.7531 138.958C88.2653 132.062 80.1883 125.11 71.1264 124.04C69.2267 123.815 69.1705 126.559 70.7042 127.15L70.7887 127.165Z" fill="#1F454F"/>
<path d="M15.1106 72.3859C14.0571 71.1494 12.7524 70.1515 11.2832 69.4585C10.4564 69.0177 9.53257 68.7903 8.59561 68.797C7.69303 68.865 6.85139 69.2784 6.2457 69.9511C5.9338 70.2447 5.68354 70.5975 5.50958 70.989C5.33563 71.3805 5.24146 71.8028 5.23256 72.2311C5.20962 72.4155 5.22664 72.6027 5.28248 72.78C5.33833 72.9573 5.43168 73.1205 5.5562 73.2585C5.7329 73.3937 5.95224 73.4609 6.17433 73.448C6.39642 73.4351 6.60649 73.3428 6.76633 73.1881L6.99148 73.0192C7.11715 72.9526 7.23512 72.8724 7.34326 72.78C7.68097 72.4422 7.58246 72.4844 7.48396 72.597L7.90611 72.0481C7.76539 72.2451 8.07497 71.8651 8.13125 71.8229C8.18427 71.7678 8.24066 71.7162 8.3001 71.6681C8.42674 71.5414 8.13125 71.7526 8.3001 71.6681L8.4971 71.5555C8.65188 71.457 8.3001 71.5555 8.4971 71.5555C8.6941 71.5555 8.91925 71.4851 8.75039 71.4851H9.04588C8.86295 71.4851 9.27102 71.4851 9.28509 71.4851C9.50461 71.5378 9.72077 71.6036 9.93238 71.6822L10.1153 71.7526C10.0168 71.7526 10.3123 71.8511 10.3404 71.8652C10.7204 72.0481 11.1003 72.2592 11.4661 72.4703C12.2074 72.8657 12.9054 73.3374 13.5487 73.8777C13.7577 74.0868 14.0412 74.2042 14.3367 74.2042C14.6323 74.2042 14.9157 74.0868 15.1247 73.8777C15.3337 73.6687 15.4511 73.3852 15.4511 73.0896C15.4511 72.794 15.3337 72.5105 15.1247 72.3015L15.1106 72.3859Z" fill="#1F454F"/>
<path d="M98.6135 75.2731L98.7542 75.1184L98.8808 75.0057C98.8808 75.0057 98.9934 74.865 98.8808 75.0057H98.9512H98.7261H98.8668H99.3171L99.7955 74.8932H99.9643C99.711 74.9776 99.7814 74.8932 99.9643 74.8932H100.344C100.4 74.9069 100.458 74.9069 100.513 74.8932H100.302C100.395 74.9068 100.49 74.9068 100.583 74.8932H100.893C101.076 74.8932 100.583 74.8228 100.752 74.8932L101.118 74.9776L101.315 75.048C101.315 75.048 101.554 75.1324 101.315 75.048C101.076 74.9635 101.315 75.048 101.315 75.048L101.498 75.1465L101.639 75.2309C101.639 75.2309 101.892 75.4139 101.639 75.2309C101.386 75.048 101.723 75.3154 101.78 75.3576L102.047 75.6109C102.145 75.7094 102.582 76.0191 102.328 75.8221C102.075 75.625 102.539 75.9909 102.596 76.005C102.81 76.1285 103.052 76.1936 103.299 76.1936C103.546 76.1936 103.789 76.1285 104.003 76.005C104.2 75.8821 104.363 75.7124 104.478 75.511C104.594 75.3097 104.658 75.0829 104.664 74.8509C104.591 74.3635 104.398 73.9017 104.104 73.5065C103.809 73.1112 103.422 72.7947 102.976 72.585C102.247 72.1489 101.403 71.943 100.555 71.9939C99.7415 72.0812 98.9722 72.4095 98.3461 72.9369C98.2015 73.0743 98.0824 73.2363 97.9943 73.4154C97.9245 73.5338 97.8723 73.6619 97.8396 73.7954C97.9662 73.5984 97.9943 73.5421 97.8396 73.6265L97.7551 73.725C97.5219 73.9844 97.3232 74.273 97.1641 74.5835C97.0845 74.7554 97.072 74.9509 97.1289 75.1315C97.1859 75.3122 97.3083 75.4651 97.4721 75.5602C97.6359 75.6554 97.8293 75.6858 98.0144 75.6457C98.1995 75.6057 98.363 75.4979 98.4728 75.3435L98.6135 75.2731Z" fill="#1F454F"/>
<path d="M29.7595 70.0082C30.3789 69.5108 30.9534 68.9597 31.4762 68.3615C32.0435 67.8519 32.6666 67.4081 33.3336 67.0385C34.6646 66.2844 36.166 65.8823 37.6957 65.8704C39.1763 65.8895 40.6281 66.2816 41.9171 67.0104C42.5976 67.3989 43.2264 67.8718 43.7886 68.4178C44.3936 68.9948 44.8158 69.6985 45.3927 70.3037C46.1807 71.12 47.8693 70.3037 47.4049 69.1356C46.5178 67.3326 45.085 65.8552 43.3102 64.9134C41.6325 63.9402 39.7358 63.4078 37.7968 63.366C35.8579 63.3241 33.94 63.7742 32.2219 64.6741C30.7022 65.4482 28.5212 66.9963 28.085 68.7556C28.0348 68.969 28.0472 69.1924 28.1207 69.399C28.1942 69.6055 28.3258 69.7865 28.4995 69.9202C28.6733 70.0539 28.8819 70.1346 29.1004 70.1527C29.3189 70.1708 29.5379 70.1255 29.7313 70.0222L29.7595 70.0082Z" fill="#1F454F"/>
<path d="M68.7831 70.5007C70.0073 69.5436 71.0064 68.3332 72.3009 67.4747C73.4434 66.6611 74.7862 66.1745 76.1846 66.0673C77.5056 65.9774 78.816 66.3562 79.8854 67.137C80.4468 67.572 80.9237 68.1062 81.2925 68.7132C81.7428 69.4169 81.9398 70.2332 82.3619 70.951C82.5365 71.2314 82.8041 71.4415 83.118 71.5444C83.4319 71.6474 83.7719 71.6366 84.0786 71.514C84.3783 71.3788 84.6212 71.1428 84.7652 70.8472C84.9091 70.5515 84.945 70.2148 84.8666 69.8954C84.6288 68.8796 84.1885 67.9223 83.5721 67.0807C83.07 66.3069 82.4532 65.614 81.7428 65.0259C80.2012 63.8038 78.2775 63.1658 76.3112 63.2244C74.3313 63.3196 72.4166 63.9619 70.7796 65.0799C69.1426 66.1979 67.8476 67.7479 67.0383 69.5577C66.9805 69.78 66.9959 70.015 67.082 70.2279C67.1682 70.4408 67.3206 70.6203 67.5167 70.7399C67.7184 70.8496 67.9498 70.8924 68.1774 70.862C68.405 70.8316 68.6171 70.7298 68.7831 70.571V70.5007Z" fill="#1F454F"/>
<path d="M67.5968 56.3852L67.9486 56.3148L65.7957 54.6682C65.7957 55.4986 65.8942 56.3149 66.0208 57.1311C66.26 58.5385 68.2441 58.5385 68.9195 57.5111C69.5949 56.4837 70.6503 55.1608 71.4101 53.9223L68.5959 52.7119C68.1811 53.7419 67.957 54.8387 67.9345 55.9489C67.9272 56.2785 68.0206 56.6024 68.2023 56.8774C68.384 57.1525 68.6453 57.3654 68.9513 57.4878C69.2573 57.6103 69.5934 57.6363 69.9147 57.5625C70.2359 57.4887 70.5269 57.3186 70.7488 57.0748C71.6071 56.16 72.4796 55.2874 73.4083 54.4289L71.0443 52.5993C70.4085 53.7414 70.0112 55.0006 69.8764 56.3007C69.7497 57.7081 71.6212 58.2289 72.5499 57.4126C73.9595 56.1828 75.5493 55.1766 77.2638 54.4289L75.0828 52.2475C74.6888 53.106 74.2948 53.9504 73.943 54.823C73.4083 56.1178 74.8998 57.0467 75.9833 56.8637C76.9035 56.6494 77.7925 56.3183 78.6288 55.8785C79.6119 55.5712 80.6552 55.5084 81.6681 55.6956L85.2141 55.963C86.4164 56.2458 87.6759 56.1625 88.8305 55.7238C89.0194 55.6165 89.1809 55.4668 89.3023 55.2867C89.4238 55.1065 89.5019 54.9007 89.5305 54.6853C89.5591 54.4699 89.5375 54.2508 89.4673 54.0452C89.3971 53.8396 89.2803 53.653 89.126 53.5C88.0778 52.8525 86.8502 52.5566 85.6222 52.6556L81.6681 52.4023C80.5435 52.2376 79.398 52.2854 78.291 52.543C77.3905 52.8245 76.4758 53.5986 75.4768 53.5986L77.0668 55.7097C77.3764 54.9778 77.6438 54.2178 77.9252 53.4719C78.4458 52.0645 76.715 51.0653 75.5753 51.6705C73.8023 52.6416 72.17 53.7956 70.4814 54.8934L72.7751 56.6667C72.8815 55.7691 73.1185 54.892 73.4786 54.063C73.656 53.7472 73.7136 53.3781 73.6409 53.0233C73.5682 52.6684 73.3701 52.3517 73.0829 52.1311C72.7956 51.9106 72.4386 51.8009 72.0771 51.8222C71.7156 51.8436 71.3739 51.9946 71.1146 52.2475C70.2 53.1201 69.2854 53.9504 68.3004 54.7526L71.0302 55.8926C71.1006 55.0764 71.2562 54.2698 71.4946 53.486C72.0434 51.783 69.5387 50.8119 68.6803 52.2897C68.0411 53.4567 67.2717 54.5473 66.3867 55.5408L69.0884 56.6526C69.1236 55.9728 69.1236 55.2917 69.0884 54.6119C69.0811 54.1662 68.9009 53.7409 68.5858 53.4257C68.2707 53.1105 67.8454 52.9303 67.3998 52.923C66.9551 52.9369 66.5321 53.1189 66.2161 53.4323C65.9002 53.7457 65.7148 54.1672 65.6972 54.6119C65.6544 54.9999 65.7544 55.3902 65.9786 55.7097C66.1353 55.9589 66.3663 56.1527 66.6389 56.2638C66.9115 56.3749 67.2121 56.3977 67.4983 56.3289L67.5968 56.3852Z" fill="#1F454F"/>
<path d="M48.5895 53.9501C48.3714 55.2517 48.4289 56.5846 48.7583 57.8626L52.0933 56.9478C51.5976 55.1926 50.7288 53.5651 49.5463 52.1767C49.2992 51.9242 48.9812 51.7527 48.6345 51.6848C48.2877 51.617 47.9286 51.656 47.6045 51.7967C47.2891 51.9415 47.0197 52.1705 46.826 52.4585C46.6323 52.7466 46.5219 53.0825 46.5069 53.4293C46.3371 54.9478 46.4516 56.4846 46.8446 57.9611L48.8428 55.9767C48.1814 55.8078 47.8719 55.0478 47.5623 54.5693C47.1361 53.6467 46.4824 52.8476 45.6626 52.2471C45.1792 51.9332 44.5934 51.818 44.0272 51.9255C43.4609 52.033 42.958 52.3549 42.6232 52.8241C42.073 53.9203 41.9142 55.1718 42.173 56.3708L44.8606 55.2589C43.8499 54.3319 42.7465 53.5113 41.5679 52.8101C41.0135 52.4449 40.3731 52.2314 39.7105 52.1908C38.9225 52.1908 38.4159 52.7538 37.6842 52.8382C37.0513 52.8355 36.4233 52.7261 35.8268 52.5145C35.1496 52.3336 34.4572 52.2159 33.7583 52.1627C32.2653 51.9855 30.76 52.372 29.5369 53.2464C28.4675 54.0767 29.3681 55.9626 30.6345 55.8923C31.7073 55.684 32.7935 55.5523 33.885 55.4982C34.9966 55.4982 36.066 55.9626 37.1776 56.033C37.746 56.0746 38.3173 56.0174 38.8662 55.8641C39.1003 55.7935 39.3267 55.6992 39.5416 55.5826C39.8371 55.5826 39.8793 55.5826 39.6964 55.4982C39.5135 55.4138 39.5557 55.4982 39.6964 55.4982C40.7384 55.9681 41.6907 56.6157 42.5107 57.4122C42.734 57.6205 43.0126 57.7601 43.3132 57.8142C43.6137 57.8683 43.9235 57.8348 44.2055 57.7175C44.4874 57.6003 44.7297 57.4042 44.9033 57.1529C45.0768 56.9016 45.1744 56.6056 45.1842 56.3004C45.1842 55.8078 45.0435 54.7663 45.3531 54.3723L44.7621 54.9493L44.9731 54.8508L44.1429 55.0619C43.8334 55.0619 43.8897 54.7663 44.1429 55.2167C44.2555 55.4419 44.4244 55.6671 44.5651 55.8923C44.7058 56.1174 45.0435 56.7085 45.3249 57.1026C45.9393 58.02 46.8322 58.7157 47.8719 59.087C49.1664 59.5374 50.0388 58.2004 49.87 57.0886C49.7011 56.0303 49.7011 54.952 49.87 53.8937L46.8868 54.6819C47.6367 55.6333 48.2217 56.7036 48.6176 57.8485C48.7547 58.2726 49.0499 58.6274 49.442 58.8392C49.834 59.0511 50.2926 59.1035 50.7223 58.9856C51.152 58.8677 51.5197 58.5887 51.7489 58.2065C51.978 57.8243 52.051 57.3684 51.9525 56.9337C51.7545 55.6612 51.2736 54.4492 50.5454 53.3871C50.3906 53.2347 50.1987 53.1252 49.9888 53.0694C49.7788 53.0136 49.558 53.0133 49.3479 53.0687C49.1379 53.1241 48.9458 53.2331 48.7906 53.3852C48.6355 53.5372 48.5225 53.727 48.4629 53.936L48.5895 53.9501Z" fill="#1F454F"/>
<path d="M68.6716 125.938C69.6425 133.678 63.24 138.52 57.4989 142.263C57.1969 142.452 56.9635 142.733 56.8334 143.065C56.7033 143.397 56.6833 143.761 56.7764 144.105C56.8695 144.449 57.0707 144.754 57.3503 144.975C57.6299 145.196 57.973 145.321 58.3291 145.331C64.8518 145.69 71.1336 147.918 76.4248 151.749C76.7117 151.907 77.0344 151.988 77.3617 151.984C77.689 151.98 78.0097 151.892 78.2928 151.728C78.576 151.563 78.8119 151.329 78.9777 151.047C79.1435 150.764 79.2335 150.444 79.2391 150.117C79.4541 141.844 77.5145 133.657 73.6106 126.36C72.4004 124.094 68.967 126.107 70.1772 128.372C73.744 135.066 75.5775 142.546 75.5102 150.131L78.3245 148.512C72.4586 144.39 65.4836 142.138 58.3151 142.052L59.1453 145.12C65.1678 140.814 73.6246 134.227 70.7682 125.67C70.4023 124.587 68.4886 124.685 68.6575 125.952L68.6716 125.938Z" fill="#1F454F"/>
<path d="M57.0702 143.347C48.8806 139.899 39.1574 144.544 34.753 151.792L37.9754 152.664C37.4696 148.031 38.2282 143.348 40.1705 139.111C42.0701 135.1 45.4613 131.849 46.5448 127.458L43.4772 127.05C43.7655 130.91 45.0555 134.627 47.2197 137.836C49.3839 141.045 52.3475 143.633 55.8178 145.346C57.8441 146.303 59.603 143.249 57.5767 142.334C54.5603 140.987 51.9551 138.864 50.0269 136.182C48.0987 133.499 46.9166 130.353 46.6011 127.064C46.5823 126.697 46.4363 126.349 46.1882 126.079C45.9401 125.808 45.6055 125.633 45.242 125.583C44.8786 125.533 44.5091 125.611 44.1972 125.805C43.8853 125.998 43.6506 126.294 43.5335 126.642C42.8377 128.799 41.7553 130.811 40.3393 132.581C38.951 134.48 37.7627 136.517 36.7934 138.661C34.8747 143.089 34.0911 147.927 34.5138 152.735C34.5255 153.109 34.6569 153.469 34.8889 153.762C35.1208 154.056 35.4408 154.267 35.8018 154.365C36.1628 154.463 36.5457 154.442 36.894 154.305C37.2422 154.169 37.5375 153.924 37.7361 153.607C41.7605 147.162 49.5561 144.67 56.8169 145.346C58.0129 145.459 57.9848 143.812 57.0702 143.432V143.347Z" fill="#1F454F"/>
<path d="M57.6372 142.42C57.4728 142.461 57.3223 142.546 57.2011 142.664C57.0799 142.783 56.9925 142.932 56.9478 143.095C56.5907 144.917 56.4163 146.77 56.4271 148.627C56.4271 149.471 56.2723 150.358 56.1598 151.132C55.9161 152.096 55.7607 153.081 55.6954 154.073C55.6909 154.485 55.837 154.884 56.1062 155.196C56.3753 155.507 56.749 155.71 57.157 155.765C57.565 155.82 57.9791 155.725 58.3214 155.496C58.6638 155.267 58.9109 154.922 59.0163 154.524C59.1956 153.978 59.2905 153.409 59.2977 152.835C59.2977 152.342 59.4103 151.849 59.4525 151.427C59.5275 150.489 59.5697 149.574 59.5791 148.683C59.7335 146.725 59.4449 144.758 58.7348 142.927C58.6513 142.776 58.5289 142.651 58.3803 142.564C58.2317 142.478 58.0625 142.433 57.8905 142.434H57.6795L57.6372 142.42Z" fill="#1F454F"/>
<path d="M19.5463 24.3807C18.3687 22.8159 17.6457 20.9565 17.457 19.0072C17.2683 17.0579 17.6212 15.0942 18.4768 13.3326C19.4932 11.5601 20.8862 10.0323 22.5575 8.85711C23.0219 8.51934 24.4853 7.23861 25.1044 7.44972C26.1316 7.82971 25.1044 10.1238 24.8652 10.6445C24.6747 10.9775 24.6109 11.3681 24.6856 11.7444C24.7604 12.1207 24.9686 12.4573 25.2719 12.6922C25.5753 12.927 25.9533 13.0443 26.3362 13.0223C26.7192 13.0003 27.0813 12.8406 27.3558 12.5726C31.127 9.40601 35.1091 6.11271 39.7668 4.33939C41.9268 3.44839 44.258 3.04934 46.5914 3.17123C48.2658 3.32604 50.8128 4.14234 50.8128 6.16899C50.8167 6.45542 50.8953 6.73587 51.0407 6.98263C51.1862 7.2294 51.3935 7.43395 51.6421 7.57608C51.8908 7.7182 52.1722 7.79301 52.4586 7.79306C52.7451 7.79311 53.0265 7.71841 53.2752 7.57638C57.2036 5.19851 61.7649 4.07884 66.3475 4.36752C68.705 4.43832 71.0553 4.66401 73.3832 5.04309C74.4385 5.1979 75.4798 5.38086 76.5211 5.56382C77.028 5.62777 77.5276 5.74088 78.0126 5.90158C78.2459 5.95606 78.466 6.05657 78.6599 6.19716C78.9976 6.6053 79.1102 6.549 79.0258 6.01419C78.8674 6.29095 78.7859 6.60505 78.7898 6.92392C78.7937 7.24279 78.8828 7.55482 79.0479 7.82764C79.213 8.10045 79.4481 8.32409 79.7287 8.47541C80.0094 8.62674 80.3254 8.70023 80.644 8.68823C85.7084 8.45824 90.7714 9.17416 95.5737 10.7993C97.5852 11.3003 99.3874 12.4232 100.724 14.0082C101.484 15.1622 101.244 18.2304 99.2322 17.7096C98.813 17.5949 98.3664 17.6357 97.9748 17.8245C97.5833 18.0132 97.2733 18.3372 97.1018 18.7367C96.9304 19.1362 96.9092 19.5842 97.0421 19.9981C97.175 20.412 97.4531 20.7639 97.8251 20.9888C100.822 22.551 106.577 25.8725 104.636 30.1088C102.3 35.1894 95.0952 33.1768 91.099 32.0228C89.0446 31.4317 87.5811 34.5983 89.6074 35.5554C90.0155 35.7383 90.0858 36.2309 89.6074 36.7798C88.9179 37.5398 87.2997 37.4131 86.3851 37.3709C83.9648 37.216 81.5682 36.8008 79.2368 36.1324C74.4183 34.737 69.8835 32.5025 65.8409 29.5317C63.8709 28.1243 62.0557 31.3473 63.9554 32.7547C64.87 33.4161 65.7706 34.0917 66.643 34.7813C67.5154 35.4709 67.7969 35.3161 66.643 35.5694C64.6589 35.9451 62.6371 36.0822 60.6205 35.9776C56.4825 35.8372 52.413 34.8807 48.6458 33.1628C47.1683 32.5013 44.9169 34.0213 46.127 35.682C46.8587 36.6953 47.6045 37.6805 48.3362 38.6939C48.5191 38.9331 49.2227 39.6368 49.2227 39.9886C49.2227 39.5383 49.3775 39.9886 48.9131 39.9042C46.6677 39.5279 44.4879 38.8311 42.4403 37.8353L26.7508 31.5443C24.429 30.6154 23.3737 34.3591 25.7095 35.3161L36.3193 39.4116L41.793 41.5086C43.345 42.2172 44.9492 42.8054 46.5914 43.2679C48.6036 43.7183 51.3615 43.5916 52.445 41.5368C53.8522 38.8205 50.7565 35.9072 49.3071 33.8242L46.7884 36.3435C52.539 38.9563 58.8869 39.9723 65.1655 39.2849C67.3044 39.0316 70.4845 38.6798 71.1036 36.1183C71.8072 33.2332 67.9516 31.291 66.1505 29.771L63.5192 32.4169C69.2665 37.0538 76.1892 40.0018 83.5145 40.9316C86.5539 41.3398 90.4658 41.776 92.6609 39.1161C94.3776 37.0613 94.1806 33.4021 91.5633 32.1776L90.0718 35.7242C96.0943 37.4413 104.903 38.6657 108.027 31.5021C110.841 25.1829 104.467 20.4681 99.584 17.8504L98.1769 21.1155C99.4763 21.4374 100.85 21.2435 102.01 20.5744C103.169 19.9052 104.025 18.813 104.396 17.5267C105.452 14.543 103.932 11.6719 101.582 9.85635C98.7471 7.92622 95.5247 6.63894 92.1403 6.08455C88.3623 5.29412 84.4993 4.98673 80.644 5.16975L82.1637 7.80157C84.978 1.7357 72.9329 1.46829 69.6261 1.20089C63.4347 0.694228 56.9619 1.27126 51.7133 4.76159L54.1758 6.16899C54.0351 -0.0798398 46.1833 -0.628704 41.6382 0.426841C35.2921 1.83423 30.0435 6.2253 25.1889 10.2786L27.6795 12.2067C28.8193 9.60304 29.762 5.85938 26.5116 4.29717C23.5144 2.88978 19.7855 6.36603 17.8999 8.3786C13.2845 13.2904 12.5387 21.0452 17.4074 26.0273C18.4909 27.1532 20.5453 25.6614 19.6166 24.3103L19.5463 24.3807Z" fill="#1F454F"/>
<path d="M88.9869 38.5106C87.5798 40.1994 88.2974 43.155 88.8462 45.1113C89.7374 47.6113 90.8291 50.0352 92.1108 52.3593C93.1416 54.6389 93.811 57.0653 94.0948 59.5511C94.1582 62.2193 94.3555 64.8826 94.6858 67.531C95.1642 69.7406 98.6399 68.8118 98.0911 66.5881C97.486 64.0829 97.7674 61.4089 97.4016 58.8474C97.0629 56.5018 96.4294 54.2084 95.516 52.0216C94.531 49.7134 93.0817 47.6164 92.1811 45.266C91.7684 44.1363 91.453 42.9733 91.2383 41.7898C91.2121 40.6217 90.856 39.4848 90.2111 38.5106C90.1313 38.4293 90.036 38.3648 89.9309 38.3207C89.8258 38.2766 89.713 38.2539 89.599 38.2539C89.4851 38.2539 89.3723 38.2766 89.2672 38.3207C89.1621 38.3648 89.0668 38.4293 88.9869 38.5106Z" fill="#1F454F"/>
<path d="M101.752 34.4298C101.602 35.4361 101.636 36.4612 101.851 37.4557C101.851 38.6379 101.851 39.8342 101.949 41.0164C101.949 43.5778 101.949 46.1393 101.949 48.7148C101.949 51.2903 101.949 53.8377 101.949 56.3992C101.949 58.9606 101.71 61.9443 101.949 64.6887C101.991 65.188 102.219 65.6533 102.588 65.9924C102.957 66.3315 103.439 66.5197 103.94 66.5197C104.441 66.5197 104.924 66.3315 105.293 65.9924C105.661 65.6533 105.889 65.188 105.931 64.6887C106.213 61.7754 106.03 58.7355 106.016 55.8081C106.002 52.8807 105.931 50.2911 105.819 47.5185C105.706 44.746 105.622 42.1282 105.397 39.4401C105.242 37.6105 104.834 34.5283 102.821 33.8105C102.601 33.7541 102.368 33.7858 102.171 33.8988C101.974 34.0118 101.829 34.1972 101.766 34.4157L101.752 34.4298Z" fill="#1F454F"/>
<path d="M14.9704 65.3079C16.4619 63.1969 18.6993 61.7332 20.4863 59.8895C22.2958 58.0266 23.6156 55.7443 24.3278 53.2466C24.9411 50.6588 25.2621 48.0104 25.2847 45.3511C25.3422 42.2638 25.7338 39.1919 26.4526 36.189C26.5151 35.8433 26.446 35.4868 26.2591 35.1895C26.0722 34.8921 25.7808 34.6754 25.4423 34.582C25.1038 34.4885 24.7426 34.5251 24.4296 34.6844C24.1167 34.8437 23.8746 35.1143 23.7509 35.4431C21.5839 40.6926 22.794 46.7022 21.3588 52.1769C20.6767 54.6845 19.3071 56.9513 17.4047 58.7213C15.5912 60.3393 14.1508 62.3322 13.1833 64.562C12.7752 65.6598 14.3653 66.1383 14.9563 65.3079H14.9704Z" fill="#1F454F"/>
<path d="M18.2801 28.0553C18.3953 28.175 18.5175 28.2878 18.646 28.3931L19.0119 28.6886C18.9134 28.6042 19.0119 28.6886 19.0119 28.6886L19.3918 29.0687L19.5888 29.2938C19.5888 29.3783 19.6873 29.4346 19.5888 29.2938C20.0813 29.9694 20.5316 30.7012 20.9959 31.3486L24.3449 35.9508C24.4577 36.1417 24.6098 36.3065 24.7911 36.4341C24.9725 36.5617 25.1789 36.6492 25.3967 36.6909C25.6145 36.7325 25.8387 36.7272 26.0543 36.6754C26.2699 36.6237 26.4721 36.5266 26.6472 36.3906C26.8224 36.2547 26.9667 36.083 27.0704 35.887C27.1741 35.6909 27.2349 35.4751 27.2487 35.2537C27.2625 35.0324 27.229 34.8106 27.1505 34.6032C27.072 34.3958 26.9502 34.2075 26.7933 34.0508L23.1066 29.322C22.6077 28.6518 22.0419 28.034 21.4181 27.4783C20.7579 26.7761 19.8482 26.3616 18.8852 26.3242C18.6924 26.3269 18.5047 26.3862 18.3452 26.4946C18.1858 26.603 18.0617 26.7559 17.9883 26.9342C17.9149 27.1125 17.8954 27.3085 17.9322 27.4977C17.9691 27.687 18.0607 27.8613 18.1957 27.999L18.2801 28.0553Z" fill="#1F454F"/>
<path d="M16.3478 23.9718C9.53727 25.0274 8.34121 33.5843 7.75022 39.0732C6.92001 46.7716 7.04664 54.4138 6.8215 62.1403C6.73708 64.8003 11.1696 64.6736 10.86 62.1403C10.2127 55.4803 10.2127 48.7732 10.86 42.1131C11.2821 36.2302 11.3806 29.3059 17.375 26.294C18.7821 25.6044 17.6986 23.7607 16.39 23.9718H16.3478Z" fill="#1F454F"/>
<path d="M16.1668 31.082C16.0616 30.9813 15.9267 30.9173 15.7821 30.8996C15.6376 30.8818 15.4912 30.9112 15.3648 30.9835H15.2241C15.2241 30.9835 15.0411 31.0539 15.2241 30.9835H15.6462C15.0552 30.8146 14.5627 31.3635 14.2391 31.7716C13.9361 32.0953 13.6803 32.4602 13.4792 32.8554C13.2346 33.2888 13.0814 33.7678 13.0289 34.2627C12.9463 34.7195 13.0207 35.1907 13.24 35.5997C13.2895 35.6792 13.3561 35.7468 13.4348 35.7974C13.5136 35.8481 13.6026 35.8807 13.6955 35.8928C13.7884 35.9049 13.8828 35.8963 13.9719 35.8675C14.061 35.8387 14.1427 35.7905 14.2109 35.7264C14.3223 35.6334 14.4133 35.5184 14.4783 35.3886C14.4783 35.3886 14.5627 35.1634 14.4783 35.2901C14.3938 35.4168 14.4783 35.2901 14.4783 35.2901C14.4783 35.2901 14.6331 34.9945 14.7175 34.8397C14.7822 34.7025 14.8386 34.5615 14.8864 34.4175V34.305C14.8864 34.1783 14.8019 34.4739 14.8864 34.305L14.9989 34.0516C15.0035 34.0189 15.0035 33.9858 14.9989 33.9531L15.1115 33.7138C15.0552 33.8452 15.0552 33.8733 15.1115 33.7983C15.2562 33.4787 15.4207 33.1685 15.604 32.8694C15.6895 32.7188 15.7835 32.5731 15.8854 32.4331L15.9558 32.3346C15.9558 32.2501 15.9558 32.3346 15.9558 32.3346C16.063 32.2225 16.1389 32.0842 16.1759 31.9335C16.2129 31.7829 16.2098 31.6252 16.1668 31.4761V31.8983C16.1668 31.9968 16.1668 31.9827 16.1668 31.8983L16.2513 31.7716C16.3106 31.6689 16.3418 31.5525 16.3418 31.4339C16.3418 31.3153 16.3106 31.1988 16.2513 31.0961L16.1528 30.9694L16.1668 31.082Z" fill="#1F454F"/>
<path d="M16.7184 32.8243C16.5636 33.0213 16.3948 33.2043 16.254 33.4154L16.0993 33.6265C16.0205 33.7774 15.95 33.9324 15.8882 34.0909L15.6912 34.5835C15.6965 34.6256 15.6965 34.6681 15.6912 34.7102C15.6707 34.8266 15.6707 34.9457 15.6912 35.0621V35.3717C15.6912 35.4561 15.6912 35.5265 15.6912 35.5969C15.7444 35.7583 15.8307 35.9069 15.9445 36.0332C16.0344 36.1246 16.1456 36.1924 16.2681 36.2302C16.4016 36.296 16.5484 36.3302 16.6973 36.3302C16.8461 36.3302 16.993 36.296 17.1265 36.2302L17.3235 36.1317C17.5134 36.0212 17.6692 35.8605 17.7738 35.6673C17.8398 35.542 17.8917 35.4099 17.9285 35.2732L18.0974 34.7946C18.2187 34.3791 18.271 33.9465 18.2522 33.514C18.2513 33.3353 18.1973 33.161 18.097 33.0131C17.9968 32.8653 17.8549 32.7505 17.6893 32.6836C17.5385 32.6341 17.3758 32.6341 17.225 32.6836C17.0282 32.6978 16.8432 32.7828 16.7043 32.9228L16.7184 32.8243Z" fill="#1F454F"/>
<path d="M19.4314 35.7242C19.202 35.9746 18.9992 36.2482 18.8264 36.5405C18.6573 36.8444 18.534 37.1717 18.4605 37.5116C18.3621 37.9329 18.3621 38.3711 18.4605 38.7924C18.5209 38.9855 18.5962 39.1738 18.6857 39.3553C18.7578 39.4925 18.8576 39.6134 18.9787 39.7102C19.0997 39.8071 19.2395 39.8779 19.3892 39.9183C19.5317 39.9591 19.6826 39.9611 19.8261 39.924C19.9696 39.8869 20.1006 39.812 20.2054 39.7072C20.282 39.6266 20.3482 39.5368 20.4024 39.4397C20.4583 39.3629 20.5011 39.2773 20.529 39.1864C20.5367 39.074 20.5367 38.9611 20.529 38.8486V39.116C20.529 39.0034 20.529 38.8909 20.5994 38.7783C20.6413 38.574 20.6695 38.3671 20.6838 38.159V38.4546C20.7287 38.1507 20.809 37.8531 20.923 37.5679L20.8104 37.8353C20.9134 37.6182 21.0358 37.411 21.1763 37.216L21.0074 37.4412L21.1059 37.3146C21.3092 37.102 21.4247 36.8205 21.4296 36.5264C21.4312 36.2269 21.315 35.9387 21.1059 35.7242C21.0006 35.6194 20.8754 35.5367 20.7377 35.4812C20.5999 35.4256 20.4524 35.3982 20.3038 35.4005C20.0104 35.4081 19.7299 35.5232 19.5159 35.7242H19.4314Z" fill="#1F454F"/>
<path d="M12.356 40.0022C12.2185 40.27 12.1009 40.5475 12.0042 40.8326C11.9198 41.1281 11.8494 41.4237 11.7791 41.7052C11.707 42.0015 11.6553 42.3025 11.6243 42.6059C11.5662 42.8415 11.5286 43.0816 11.5117 43.3237C11.5319 43.7042 11.6983 44.0622 11.9761 44.3229C12.1061 44.458 12.2702 44.5554 12.451 44.6049C12.6318 44.6545 12.8226 44.6543 13.0033 44.6044C13.1299 44.6044 13.2847 44.5059 13.3832 44.4496C13.5839 44.3266 13.7527 44.1578 13.8757 43.957C13.9759 43.741 14.0514 43.5144 14.1009 43.2814C14.1009 42.9859 14.2697 42.6903 14.3119 42.3807C14.3541 42.0711 14.4104 41.7755 14.4526 41.48C14.4809 41.0817 14.4809 40.682 14.4526 40.2837C14.4515 40.0215 14.3553 39.7686 14.1819 39.572C14.0086 39.3753 13.7698 39.2481 13.5098 39.2141C13.2677 39.1694 13.0176 39.2144 12.8063 39.3408L12.5812 39.5096C12.4404 39.6421 12.3424 39.8137 12.2997 40.0022H12.356Z" fill="#1F454F"/>
<path d="M15.1437 41.7621C15.0452 41.9732 14.9326 42.1702 14.8482 42.3814C14.7638 42.5925 14.7638 42.7332 14.7215 42.9021C14.623 43.3525 14.5668 43.7888 14.5105 44.2391L14.3698 45.3369C14.3559 45.5196 14.3559 45.7031 14.3698 45.8858C14.3617 46.1134 14.4204 46.3385 14.5386 46.5332C14.6516 46.704 14.8005 46.8481 14.9748 46.9554C15.1155 47.0383 15.2759 47.0821 15.4392 47.0821C15.6025 47.0821 15.7628 47.0383 15.9035 46.9554C16.5508 46.6598 16.579 45.9843 16.6352 45.365L16.7197 44.2813C16.7197 43.9154 16.79 43.5495 16.79 43.1836C16.8044 42.9398 16.8044 42.6954 16.79 42.4517L16.6634 41.9592C16.6183 41.8176 16.5342 41.6917 16.4207 41.5959C16.3071 41.5001 16.1689 41.4384 16.0218 41.4178C15.8747 41.3972 15.7248 41.4186 15.5894 41.4795C15.4539 41.5404 15.3385 41.6384 15.2563 41.7621H15.1437Z" fill="#1F454F"/>
<path d="M17.9724 44.9435C17.6769 45.619 17.3814 46.3509 17.1281 46.9842L16.9593 47.4346C16.8669 47.6639 16.8099 47.9059 16.7904 48.1523C16.7626 48.3012 16.7626 48.4538 16.7904 48.6027C16.7853 48.8648 16.8536 49.1232 16.9874 49.3486C17.0729 49.4885 17.2013 49.5969 17.3535 49.6577C17.5056 49.7186 17.6734 49.7287 17.8317 49.6864C18.0596 49.6234 18.2646 49.4964 18.4227 49.3205C18.5828 49.1649 18.7288 48.9953 18.8589 48.8138C19.06 48.4526 19.207 48.0637 19.2951 47.6597C19.4921 47.0264 19.6469 46.379 19.8016 45.7316C19.8784 45.491 19.8626 45.2303 19.7573 45.0008C19.6519 44.7712 19.4647 44.5893 19.2322 44.4906C18.9997 44.392 18.7388 44.3837 18.5005 44.4675C18.2623 44.5513 18.0639 44.721 17.9443 44.9435H17.9724Z" fill="#1F454F"/>
<path d="M11.6946 51.3485C11.4771 52.2988 11.3872 53.2738 11.4272 54.2477C11.4145 54.5419 11.4674 54.8351 11.582 55.1063C11.6486 55.232 11.7288 55.35 11.8212 55.4581C11.8899 55.5656 11.9846 55.6541 12.0965 55.7154C12.2084 55.7767 12.3339 55.8088 12.4615 55.8088C12.589 55.8088 12.7145 55.7767 12.8264 55.7154C12.9383 55.6541 13.033 55.5656 13.1017 55.4581C13.1897 55.3497 13.2653 55.2317 13.3268 55.1063C13.4528 54.8383 13.5108 54.5434 13.4957 54.2477C13.4957 53.9522 13.4957 53.6567 13.4957 53.347C13.5197 52.6706 13.4294 51.9949 13.2283 51.3485C13.1801 51.1836 13.0803 51.0386 12.9435 50.9347C12.8067 50.8309 12.6402 50.7736 12.4685 50.7715C12.2979 50.7779 12.1334 50.8367 11.9974 50.9399C11.8614 51.0432 11.7606 51.1859 11.7086 51.3485H11.6946Z" fill="#1F454F"/>
<path d="M14.0733 52.5993C13.7727 53.0858 13.5407 53.6115 13.3838 54.1615C13.2991 54.4748 13.2426 54.7951 13.2149 55.1185C13.2076 55.2356 13.2076 55.3532 13.2149 55.4703C13.194 55.6903 13.194 55.9118 13.2149 56.1318C13.2727 56.3287 13.3789 56.508 13.524 56.653C13.6691 56.7981 13.8483 56.9044 14.0451 56.9622C14.2503 57.0329 14.4732 57.0329 14.6783 56.9622C14.8797 56.9136 15.0638 56.8103 15.2103 56.6638C15.3567 56.5173 15.46 56.3332 15.5085 56.1318C15.5085 55.8503 15.5085 55.5548 15.607 55.2733V55.597C15.6828 55.0517 15.8246 54.5177 16.0292 54.0067L15.9025 54.2881C15.9729 54.1192 16.0573 53.9644 16.1418 53.7955C16.3032 53.5193 16.3487 53.1904 16.2684 52.8807C16.178 52.5867 15.9827 52.3363 15.7196 52.177C15.4482 52.022 15.1269 51.9794 14.8245 52.0583C14.522 52.1372 14.2625 52.3314 14.1014 52.5993H14.0733Z" fill="#1F454F"/>
<path d="M93.8281 42.6497C93.8351 42.7763 93.8351 42.9031 93.8281 43.0297C93.8346 43.2478 93.8629 43.4646 93.9126 43.6771C93.9728 44.022 94.0768 44.3578 94.2221 44.6764C94.3347 44.9156 94.4614 45.1408 94.588 45.366L94.8694 45.8023C95.064 46.014 95.3118 46.1695 95.5871 46.2526C95.7122 46.2908 95.8449 46.2966 95.9728 46.2695C96.1008 46.2424 96.2198 46.1833 96.3188 46.0978C96.421 46.0199 96.5044 45.92 96.5629 45.8055C96.6213 45.691 96.6533 45.5648 96.6565 45.4363C96.6495 45.3849 96.6495 45.3329 96.6565 45.2815C96.66 45.0758 96.6116 44.8725 96.5158 44.6904L96.3469 44.3245L96.4454 44.5637C96.3188 44.2119 96.2344 43.846 96.1077 43.4801C95.9811 43.1141 95.9951 43.1141 95.9529 42.9452C95.9107 42.7764 95.8122 42.5793 95.7559 42.3823C95.6782 42.1763 95.5329 42.0028 95.3437 41.8903C95.1545 41.7778 94.9327 41.7329 94.7146 41.763C94.4807 41.7933 94.2654 41.9066 94.1079 42.0822C93.9503 42.2578 93.8611 42.4842 93.8563 42.7201L93.8281 42.6497Z" fill="#1F454F"/>
<path d="M96.7111 41.0859C96.7111 41.1704 96.7814 41.2548 96.8236 41.3252L96.6829 40.7904C96.7104 41.1638 96.8366 41.5233 97.0488 41.8318L97.2036 42.1696C97.2113 42.2209 97.2113 42.2731 97.2036 42.3244C97.2036 42.1837 97.2036 42.1696 97.2036 42.3244C97.3674 42.7481 97.5083 43.1804 97.6257 43.6192C97.6257 43.8444 97.7242 44.0837 97.7805 44.3229C97.7739 44.412 97.7739 44.5013 97.7805 44.5903C97.7805 44.6607 97.8649 44.8859 97.7805 44.9562C97.7805 44.7451 97.7805 44.717 97.7805 44.8718C97.7776 45.1096 97.8409 45.3435 97.9634 45.5474C98.039 45.6619 98.1237 45.7702 98.2167 45.8711C98.0385 45.5052 97.9822 45.4207 98.0478 45.6177C98.1137 45.8981 98.228 46.1648 98.3856 46.4059C98.4672 46.5398 98.5819 46.6505 98.7187 46.7273C98.8554 46.8041 99.0097 46.8445 99.1665 46.8445C99.3234 46.8445 99.4776 46.8041 99.6144 46.7273C99.7511 46.6505 99.8658 46.5398 99.9475 46.4059C100.108 46.1541 100.214 45.8711 100.257 45.5755C100.257 45.5755 100.257 45.3644 100.257 45.5755C100.257 45.7866 100.356 45.3503 100.257 45.4207C100.365 45.1428 100.389 44.8396 100.327 44.5481C100.269 43.9916 100.146 43.4437 99.9615 42.9155C99.7609 42.3711 99.5162 41.8439 99.2298 41.3393C99.1071 41.1289 98.9707 40.9267 98.8218 40.7341C98.7092 40.5652 98.5826 40.4104 98.4559 40.2415C98.2838 40.0431 98.0596 39.8968 97.8086 39.8193L98.287 40.1008L98.0901 39.9178C97.9157 39.7434 97.6837 39.6387 97.4376 39.6231C97.1915 39.6076 96.9482 39.6823 96.7533 39.8334C96.5565 39.9844 96.4211 40.2016 96.3719 40.4447C96.3228 40.6879 96.3633 40.9407 96.4859 41.1563L96.7111 41.0859Z" fill="#1F454F"/>
<path d="M97.3047 51.3341C97.3047 51.9956 97.4313 52.6571 97.5439 53.3186C97.6565 53.98 97.7409 55.0215 98.4585 55.4719C98.6811 55.5956 98.939 55.6403 99.1902 55.5985C99.4399 55.575 99.6736 55.4655 99.8516 55.2889C100.036 55.0887 100.158 54.8394 100.203 54.5712C100.203 54.4586 100.203 54.346 100.203 54.2193C100.224 53.9993 100.224 53.7778 100.203 53.5578C100.203 53.2764 100.119 52.9808 100.063 52.6993C99.9642 52.1363 99.8235 51.5734 99.7109 51.0105C99.6214 50.7083 99.4201 50.4516 99.148 50.2927C98.9126 50.1619 98.6405 50.1124 98.3741 50.1519C98.112 50.1702 97.8661 50.2857 97.6846 50.4756C97.5684 50.5855 97.4769 50.7189 97.4162 50.867C97.3555 51.015 97.3271 51.1742 97.3328 51.3341H97.3047Z" fill="#1F454F"/>
<path d="M17.0009 25.1124C17.2422 25.6565 17.5293 26.1791 17.8592 26.6746C18.0703 26.9701 18.3095 27.2516 18.5487 27.5331C18.6589 27.634 18.7624 27.7421 18.8583 27.8568C18.9824 27.9913 19.1358 28.0955 19.3066 28.1614C19.4773 28.2273 19.6609 28.2531 19.8432 28.2368C19.962 28.2387 20.08 28.2167 20.1901 28.1721C20.3002 28.1275 20.4003 28.0612 20.4843 27.9772C20.5683 27.8932 20.6345 27.7931 20.6791 27.683C20.7237 27.5729 20.7457 27.4549 20.7438 27.336C20.777 27.0923 20.7275 26.8445 20.6031 26.6323C20.5007 26.4758 20.3776 26.3338 20.2373 26.2101C20.0965 26.0413 19.9558 25.8723 19.8292 25.6894L19.998 25.9146L19.4774 25.2531L19.6462 25.4642C19.3105 25.0217 19.0139 24.5508 18.7598 24.0568C18.6601 23.8828 18.5111 23.7422 18.3315 23.6528C18.152 23.5635 17.95 23.5296 17.7511 23.5552C17.5522 23.5808 17.3653 23.6649 17.2143 23.7968C17.0632 23.9287 16.9546 24.1024 16.9023 24.2961V24.5635C16.9075 24.7457 16.9557 24.9242 17.0431 25.0842L17.0009 25.1124Z" fill="#1F454F"/>
<path d="M18.6188 24.5633C19.2661 21.7485 19.843 18.9337 20.7577 16.1893C21.2454 14.747 21.8235 13.3368 22.4884 11.9671C22.887 11.3337 23.2262 10.6647 23.5016 9.96867L23.7408 9.53238L23.0513 8.88499C22.9178 9.23092 22.8188 9.58918 22.7558 9.95458C21.2361 14.9227 17.5353 19.3278 17.9997 24.7604C18.0982 25.9848 19.8993 26.787 20.5466 25.45C22.7417 20.8478 24.8665 15.6686 28.4406 11.939L25.8796 10.4472C23.9659 15.2605 22.0381 20.0737 20.1807 24.9152C19.6742 26.1959 21.4049 27.4344 22.5025 26.7025C25.6685 24.6055 26.8365 20.7634 28.722 17.653C30.6971 14.2032 33.5649 11.3494 37.0241 9.39163L34.9416 8.19534C35.0541 11.362 31.2549 13.3746 29.51 15.6405L31.9444 17.0478C33.6336 14.763 35.6052 12.7012 37.8121 10.9116C38.4735 10.3768 44.8478 5.77462 44.9885 7.97015C45.087 9.26495 47.1133 9.75755 47.4228 8.29386C47.5185 7.87225 47.5245 7.43523 47.4403 7.01116C47.3562 6.58709 47.1837 6.18545 46.9342 5.83239C46.6848 5.47932 46.3638 5.18269 45.9922 4.96179C45.6206 4.74089 45.2067 4.60066 44.7774 4.5502C42.6948 4.1702 40.6404 5.61981 39.0082 6.7035C35.3636 9.12322 32.1526 12.1397 29.51 15.6264C28.4125 17.0338 30.9171 18.4412 31.9444 17.0338C34.1676 14.1345 37.8684 12.3331 37.7136 8.1672C37.7071 7.92616 37.6387 7.69082 37.5152 7.48378C37.3916 7.27674 37.2169 7.10496 37.0078 6.98487C36.7987 6.86478 36.5623 6.80039 36.3212 6.79795C36.0802 6.79551 35.8425 6.85508 35.631 6.97091C32.3034 8.85489 29.4758 11.5093 27.3852 14.7116C25.3168 17.7515 24.2051 21.9174 20.9687 23.9441L23.2905 25.7314C25.1667 20.9088 27.0429 16.0767 28.919 11.2353C29.4678 9.82792 27.343 8.64571 26.358 9.74348C22.6713 13.8531 20.7295 19.173 18.267 24.0567L20.8139 24.7322C20.5747 21.1715 22.2211 18.0752 23.6282 14.8805C24.4303 13.1071 27.2445 8.20941 24.6835 6.83016C21.7286 5.22574 19.7586 11.559 19.055 13.3886C17.6081 16.8501 16.8896 20.5726 16.9443 24.324C16.9398 24.5415 17.0153 24.753 17.1566 24.9183C17.2978 25.0837 17.4948 25.1913 17.7102 25.2208C17.9256 25.2504 18.1443 25.1997 18.3248 25.0785C18.5053 24.9573 18.635 24.7739 18.6892 24.5633H18.6188Z" fill="#1F454F"/>
<path d="M40.9383 11.9829C38.2764 13.2837 35.7091 14.7698 33.2553 16.4302C30.7263 18.0647 28.3691 19.9508 26.2197 22.0598C25.6791 22.4847 25.3274 23.1051 25.2405 23.7872C25.1537 24.4692 25.3386 25.1581 25.7553 25.7049C26.2203 26.1336 26.8162 26.3932 27.4467 26.4417C28.0773 26.4902 28.7058 26.3249 29.2309 25.9724C30.5536 25.0995 31.831 24.1601 33.0583 23.1576C34.4654 22.1302 35.8726 21.1028 37.2797 20.0895C37.5153 19.8703 37.6686 19.5771 37.7143 19.2586C37.7599 18.9401 37.6951 18.6156 37.5305 18.3391C37.366 18.0626 37.1117 17.8508 36.81 17.7391C36.5083 17.6274 36.1775 17.6224 35.8726 17.7251C33.3116 19.0339 30.7647 20.3569 28.2318 21.722C26.9936 22.3835 25.7694 23.045 24.5452 23.7346C23.2178 24.3364 21.9738 25.1075 20.8444 26.0287L23.1099 27.3516C23.2322 26.9877 23.229 26.5932 23.1008 26.2313C22.9726 25.8695 22.7269 25.561 22.4029 25.3552C22.0788 25.1494 21.6952 25.0581 21.3132 25.096C20.9312 25.1339 20.5729 25.2987 20.2956 25.5642C20.1288 25.7391 20.0234 25.9637 19.9957 26.2039C19.9679 26.444 20.0191 26.6867 20.1416 26.8951C20.2641 27.1035 20.4511 27.2663 20.6744 27.3589C20.8978 27.4514 21.1451 27.4686 21.3791 27.4079C22.4345 27.1686 23.4757 26.8731 24.517 26.5775L26.0789 26.1272C26.3041 26.0568 27.4861 25.8879 27.5564 25.719C27.6268 25.5501 27.7112 25.6064 27.4157 25.3672C27.1202 25.1279 27.2046 24.9168 27.1061 25.1561C27.0217 25.1561 26.8106 25.5361 26.7543 25.6064C26.4911 25.9498 26.2691 26.323 26.093 26.7183C25.7159 27.5609 25.5702 28.4888 25.6708 29.4064L27.866 28.1398C26.3684 27.3555 24.9252 26.4716 23.5461 25.4938C22.2937 24.579 20.7318 26.6479 21.8716 27.6612C23.4114 28.9274 24.7083 30.463 25.699 32.1931C26.6558 33.8819 29.3857 32.193 28.2881 30.6871C27.021 28.8418 25.5166 27.1715 23.8134 25.719L22.153 27.8723C23.4902 28.9115 24.901 29.8523 26.3744 30.6871C26.6224 30.8382 26.9095 30.9129 27.1997 30.9018C27.4899 30.8906 27.7704 30.7942 28.0062 30.6245C28.2419 30.4548 28.4224 30.2194 28.5251 29.9477C28.6278 29.6759 28.6481 29.38 28.5836 29.0968C28.4007 27.8864 29.2872 27.2249 29.7093 26.282C29.8451 26.0228 29.9255 25.7382 29.9455 25.4463C29.9654 25.1543 29.9245 24.8614 29.8253 24.5862C29.726 24.3109 29.5707 24.0593 29.369 23.8473C29.1674 23.6353 28.9239 23.4675 28.654 23.3546C27.496 23.1235 26.2938 23.2974 25.2487 23.8472C23.7572 24.3538 22.2797 24.8324 20.8303 25.4094L22.0827 27.0279L21.6324 27.2812L20.9288 26.5775L21.154 25.9301C20.9165 26.1223 20.748 26.3866 20.674 26.6831C20.6 26.9795 20.6244 27.2919 20.7435 27.5732C20.8627 27.8546 21.0702 28.0895 21.3346 28.2424C21.599 28.3954 21.9061 28.4582 22.2093 28.4212C23.5688 27.8996 24.8666 27.2294 26.0789 26.4227L29.7516 24.3539C32.2563 22.9652 34.7703 21.586 37.2938 20.2161L35.8867 17.8517C33.8182 19.428 31.6653 20.9761 29.639 22.5242C29.1887 22.862 28.7384 23.2139 28.2318 23.5235C28.2318 23.5235 27.7393 23.7909 27.7253 23.819L27.9926 24.5087L28.1193 24.3116C28.5725 23.957 28.9875 23.5561 29.3576 23.1154C29.7938 22.7072 30.2441 22.3131 30.6803 21.9331C34.1854 18.9021 38.0977 16.3771 42.3032 14.4317C43.9073 13.6999 42.5002 11.251 40.8961 12.0392L40.9383 11.9829Z" fill="#1F454F"/>
<path d="M26.3434 32.6859C32.1619 33.0065 37.8458 34.5608 43.0179 37.2459L44.1155 34.6422L34.5048 31.8274L33.7309 34.6422C38.6029 35.8381 43.3886 37.3615 48.0555 39.2021C49.6455 39.8355 50.3772 37.471 49.153 36.5985C42.7877 32.0832 35.875 28.3945 28.5807 25.6208C27.1736 25.086 26.259 27.0282 27.1736 28.0274C28.3972 29.1762 29.999 29.8371 31.6764 29.8852C33.9101 30.1244 36.1565 30.2231 38.4025 30.1807C42.8757 30.1153 47.3271 29.5441 51.6718 28.4778C51.9827 28.407 52.2603 28.2326 52.4591 27.9833C52.658 27.734 52.7663 27.4245 52.7663 27.1056C52.7663 26.7867 52.658 26.4773 52.4591 26.228C52.2603 25.9787 51.9827 25.8042 51.6718 25.7334C42.9898 24.143 34.2796 25.5645 25.7665 27.4926C24.0357 27.9008 24.5986 30.3074 26.1605 30.4059C28.9032 30.5004 31.6378 30.0557 34.2093 29.0971C36.7327 28.3465 39.275 27.6568 41.8359 27.0282C44.3969 26.409 46.972 25.8601 49.5611 25.3534C52.3638 24.9551 55.124 24.3003 57.8069 23.3971C58.0188 23.3228 58.1984 23.1772 58.315 22.9853C58.4317 22.7933 58.4782 22.5669 58.4467 22.3445C58.4152 22.1221 58.3075 21.9175 58.1421 21.7656C57.9767 21.6136 57.7638 21.5237 57.5395 21.5112C52.3613 21.0468 46.9157 22.6653 41.9063 23.8757C39.3594 24.509 36.8125 25.1845 34.2796 25.9445C31.6895 26.9335 28.9323 27.4114 26.1605 27.3519L26.5545 30.2511C34.5188 28.4075 42.7647 26.8875 50.926 28.3793V25.6349C47.2097 26.551 43.4094 27.0839 39.5845 27.2253C37.8115 27.2253 36.0385 27.2252 34.2656 27.1549C32.4926 27.0845 30.3959 27.1549 29.214 25.8882L27.8068 28.2948C34.8527 31.0295 41.5466 34.5968 47.7459 38.9207L48.8435 36.317C44.178 34.4706 39.3978 32.9287 34.5329 31.7008C34.1597 31.5981 33.7611 31.6479 33.4246 31.8393C33.0881 32.0306 32.8415 32.3479 32.7388 32.7211C32.6362 33.0944 32.686 33.4931 32.8773 33.8296C33.0687 34.1661 33.3858 34.4129 33.759 34.5155L43.3838 37.3303C44.8894 37.7666 45.9448 35.4444 44.4814 34.7266C38.8528 31.9647 32.6389 30.6077 26.3715 30.7719C26.1252 30.7719 25.889 30.8697 25.7148 31.0439C25.5407 31.2181 25.4428 31.4544 25.4428 31.7008C25.4428 31.9471 25.5407 32.1834 25.7148 32.3576C25.889 32.5318 26.1252 32.6296 26.3715 32.6296L26.3434 32.6859Z" fill="#1F454F"/>
<path d="M33.1636 25.9432C40.9028 23.6773 48.6421 21.3129 56.2687 18.8218C56.6391 18.6841 56.9443 18.4122 57.1238 18.0601C57.3032 17.7079 57.3438 17.3012 57.2376 16.9205C57.1314 16.5399 56.8861 16.213 56.5503 16.0047C56.2145 15.7964 55.8126 15.7218 55.4245 15.7958C48.3888 17.6255 41.3531 19.6662 34.2471 21.5943L35.5135 24.6061L50.7106 17.4144C55.1993 15.2892 59.7725 13.2907 63.5999 10.0537C63.837 9.82785 64.0008 9.53591 64.0698 9.21578C64.1389 8.89565 64.1101 8.56214 63.9872 8.2586C63.8643 7.95505 63.6529 7.69547 63.3806 7.51362C63.1083 7.33178 62.7876 7.23608 62.4601 7.23891C56.7292 7.97413 51.1216 9.46975 45.7856 11.6863L46.9535 14.5011C54.3128 11.0248 62.7275 9.94109 70.6356 8.36481C71.0253 8.24942 71.3609 7.99843 71.5817 7.65716C71.8025 7.3159 71.894 6.90692 71.8396 6.50408C71.7852 6.10124 71.5886 5.73112 71.2852 5.46065C70.9818 5.19018 70.5917 5.03718 70.1853 5.0293C63.5727 5.50436 56.9944 6.3738 50.4854 7.63298L51.3156 10.6589C55.9417 9.59359 60.6484 8.91569 65.387 8.63222C69.4857 8.16986 73.6349 8.7358 77.4602 10.2789C78.7829 10.87 80.2745 9.27961 79.1206 8.13962C75.7153 4.98706 70.7622 5.04336 66.4564 5.32484C61.0838 5.70513 55.746 6.47657 50.4854 7.63298C48.4873 8.06927 49.3597 11.0107 51.3156 10.6589C57.6055 9.5611 63.8673 8.94187 70.2275 8.43521L69.7772 5.0856C61.5174 6.85892 53.1871 8.36481 45.462 11.8833C43.9282 12.587 45.0398 15.3033 46.6299 14.6981C51.7118 12.6149 57.0503 11.2233 62.5024 10.5603L61.3626 7.74555C57.5492 10.884 52.9198 12.7841 48.4732 14.867L33.9094 21.735C32.1927 22.5513 33.4028 25.2395 35.1758 24.7469C42.2115 22.7625 49.2472 20.8906 56.2828 18.7936L55.4385 15.7677C47.8213 18.4981 40.2509 21.341 32.7274 24.2965C31.7424 24.6765 32.1083 26.2246 33.1777 25.915L33.1636 25.9432Z" fill="#1F454F"/>
<path d="M75.3214 9.64696C75.5055 9.687 75.6745 9.77827 75.809 9.91025C75.9434 10.0422 76.0378 10.2095 76.0813 10.3929L76.827 8.5492C74.7867 9.23882 72.8449 10.1677 70.7623 10.801C68.6798 11.4344 66.5409 11.9551 64.4302 12.4758C60.2167 13.3534 56.1541 14.8422 52.3711 16.895C52.1496 17.0274 51.9661 17.215 51.8388 17.4395C51.7114 17.664 51.6445 17.9177 51.6445 18.1758C51.6445 18.4339 51.7114 18.6876 51.8388 18.9121C51.9661 19.1365 52.1496 19.3241 52.3711 19.4565C58.1263 21.9898 64.3458 19.7802 70.2135 21.5394V18.5839C63.4874 20.3478 56.7473 22.0555 49.993 23.7068C49.663 23.8047 49.3723 24.0043 49.1625 24.2773C48.9528 24.5503 48.8347 24.8826 48.8251 25.2268C48.8251 27.4223 50.6966 28.5201 52.5963 28.9705C55.1948 29.4576 57.7138 30.3006 60.0822 31.4756V28.6609C57.9279 29.528 55.5767 29.7861 53.2857 29.4068C50.9929 29.1577 48.6765 29.2335 46.4049 29.632C44.4489 30.0683 45.1244 32.686 46.8411 32.8689L63.0794 34.7267V31.363L58.9987 31.5882C58.5471 31.5882 58.1141 31.7676 57.7948 32.087C57.4755 32.4064 57.2961 32.8395 57.2961 33.2912C57.2961 33.7428 57.4755 34.176 57.7948 34.4953C58.1141 34.8147 58.5471 34.9941 58.9987 34.9941C61.3345 35.3037 63.6704 35.6274 66.0343 35.9089L64.3036 34.1778C65.1479 33.5304 65.2464 33.249 64.6131 33.3334C64.3805 33.3015 64.1502 33.2544 63.9236 33.1927C63.2588 33.0541 62.5872 32.9507 61.9115 32.883C60.5352 32.7342 59.1434 32.8343 57.8026 33.1786C56.0859 33.6008 56.3955 36.4437 58.2248 36.303C59.3608 36.1881 60.5043 36.1646 61.6441 36.2326C62.6432 36.3171 63.6 36.7252 64.6131 36.7534C66.2173 36.7534 67.8073 35.9652 67.7651 34.1778C67.7613 33.8014 67.636 33.4363 67.4077 33.137C67.1795 32.8377 66.8606 32.6203 66.4987 32.5171C64.0081 32.1793 61.5175 31.8978 59.0268 31.5882V34.9941L63.1075 34.7267C63.5269 34.6883 63.9169 34.4945 64.2008 34.1833C64.4847 33.8722 64.6421 33.4661 64.6421 33.0449C64.6421 32.6236 64.4847 32.2176 64.2008 31.9064C63.9169 31.5953 63.5269 31.4014 63.1075 31.363L46.8692 29.6038L47.3054 32.8408C52.16 31.7571 57.1554 33.9104 61.7426 31.4334C61.9877 31.2893 62.191 31.0836 62.3322 30.8368C62.4734 30.5899 62.5476 30.3104 62.5476 30.026C62.5476 29.7416 62.4734 29.4622 62.3322 29.2153C62.191 28.9684 61.9877 28.7628 61.7426 28.6186C60.0223 27.6808 58.1998 26.9441 56.3111 26.4231C55.7201 26.2683 52.0053 25.8461 52.0193 25.1565L50.8655 26.6905C57.6103 25.0016 64.3411 23.2611 71.0578 21.4691C71.3727 21.3707 71.648 21.1743 71.8434 20.9085C72.0389 20.6426 72.1443 20.3213 72.1443 19.9913C72.1443 19.6613 72.0389 19.34 71.8434 19.0741C71.648 18.8083 71.3727 18.6119 71.0578 18.5136C65.4293 16.8669 59.266 19.1469 53.9049 16.8247V19.3861C57.6902 17.3512 61.753 15.8813 65.964 15.0232C69.8336 14.0521 74.5756 13.2218 77.8261 10.801C77.9877 10.7007 78.125 10.5657 78.2279 10.4057C78.3308 10.2457 78.3968 10.0648 78.4211 9.8761C78.4453 9.68741 78.4272 9.49566 78.3681 9.31483C78.309 9.134 78.2104 8.96862 78.0794 8.83069C77.5224 8.16997 76.7675 7.70611 75.9265 7.50774C75.7888 7.46985 75.645 7.45943 75.5034 7.47712C75.3617 7.49481 75.2249 7.54025 75.1007 7.61082C74.85 7.75335 74.6662 7.98966 74.5897 8.26775C74.5132 8.54583 74.5503 8.84289 74.6928 9.09363C74.8353 9.34438 75.0715 9.52822 75.3496 9.60474L75.3214 9.64696Z" fill="#1F454F"/>
<path d="M78.6838 34.7251C78.5713 34.2861 78.3328 33.8896 77.9978 33.5845C77.6627 33.2794 77.2458 33.079 76.7982 33.0081C76.6014 32.9545 76.396 32.9402 76.1937 32.966C75.9914 32.9918 75.7961 33.0572 75.619 33.1585C75.442 33.2598 75.2866 33.395 75.1618 33.5563C75.037 33.7176 74.9451 33.902 74.8916 34.0988C74.838 34.2956 74.8237 34.5011 74.8495 34.7035C74.8753 34.9058 74.9407 35.1011 75.0419 35.2782C75.1432 35.4553 75.2784 35.6107 75.4397 35.7355C75.601 35.8604 75.7853 35.9522 75.9821 36.0058C78.7008 36.8997 81.4738 37.6189 84.2842 38.1591C84.7404 38.2812 85.2263 38.2177 85.6359 37.9825C86.0454 37.7473 86.3452 37.3595 86.4697 36.9039C86.5943 36.4483 86.5335 35.962 86.3006 35.5511C86.0678 35.1402 85.6818 34.8381 85.227 34.711C83.9465 34.2888 82.6519 33.9088 81.3573 33.5288L80.4146 36.9347C83.9563 37.9276 87.6893 38.0243 91.2776 37.2162C91.5744 37.1342 91.8444 36.9758 92.0607 36.7568C92.2771 36.5378 92.4322 36.2659 92.5105 35.9681C92.5888 35.6704 92.5877 35.3573 92.5072 35.0601C92.4266 34.763 92.2695 34.4921 92.0516 34.2747C88.9377 31.7958 85.2241 30.1838 81.287 29.6022C81.0606 29.5393 80.8241 29.5217 80.5909 29.5503C80.3577 29.5789 80.1325 29.6531 79.928 29.7688C79.7235 29.8844 79.5438 30.0393 79.3991 30.2244C79.2545 30.4095 79.1477 30.6213 79.0848 30.8477C79.022 31.0741 79.0044 31.3107 79.033 31.5439C79.0615 31.7771 79.1358 32.0024 79.2514 32.207C79.367 32.4115 79.5218 32.5912 79.7069 32.7359C79.892 32.8806 80.1038 32.9875 80.3301 33.0503L84.3827 34.4577L85.3395 31.0096C79.9816 29.2892 74.5144 27.9304 68.9746 26.9422C66.7795 26.5622 65.8085 29.757 68.0318 30.334C72.0038 31.4312 76.0775 32.1197 80.1894 32.3888C82.0609 32.4733 82.5393 29.3489 80.6397 29.0533C72.1969 27.7726 63.7541 25.7178 55.1706 25.4785C53.271 25.4785 53.3554 28.1948 55.1706 28.3777C58.9567 28.778 62.7157 29.403 66.4277 30.2496C68.1866 30.6437 69.9314 31.094 71.6622 31.5866C72.8864 31.9384 75.4192 32.2903 75.8836 33.7118L78.1913 31.9244C76.5201 30.6804 74.5387 29.9207 72.4643 29.7289C70.7335 29.5741 70.5506 32.1496 72.0703 32.6421C73.6622 33.1115 75.1856 33.7882 76.6012 34.6547C78.0084 35.5696 79.3451 33.8103 78.7682 32.4873C77.2626 29.1096 72.225 28.7296 69.1153 28.0118C64.6125 26.9845 60.0534 26.1963 55.4942 25.5207L55.1002 28.3355C63.4116 28.7231 71.653 30.045 79.6688 32.2762L80.6397 29.0955C76.7138 28.6179 72.8189 27.913 68.9746 26.9844L68.0318 30.3763C73.5682 31.3835 79.0307 32.7612 84.3827 34.4999C86.5778 35.2177 87.5065 31.7837 85.3395 31.0518L81.287 29.6444L80.8086 33.1629C84.1404 33.6468 87.2856 35.0012 89.9268 37.0895L90.3489 33.8666C87.3783 34.5652 84.2756 34.4632 81.3573 33.571C79.1622 32.9096 78.2616 36.2732 80.4146 36.9769C81.6951 37.3992 82.9755 37.8214 84.2842 38.2014L85.227 34.7532C82.4127 34.3029 79.5984 33.6977 76.7842 33.0503V36.0481C77.1266 35.9373 77.4808 35.8664 77.8395 35.837C77.97 35.8367 78.0988 35.8066 78.216 35.7491C78.3332 35.6915 78.4357 35.608 78.5157 35.5049C78.5958 35.4018 78.6513 35.2817 78.678 35.1539C78.7046 35.0261 78.7018 34.8939 78.6697 34.7673L78.6838 34.7251Z" fill="#1F454F"/>
<path d="M62.9379 25.0699C69.3693 25.1493 75.7835 25.7517 82.1172 26.8714C85.2223 27.3968 88.3133 28.0254 91.3902 28.7573C93.7401 29.3343 97.4268 29.6861 99.1294 31.5721L100.354 28.6024C94.317 28.4335 88.8433 25.2106 82.7504 25.464C82.3681 25.4689 81.9978 25.5982 81.6956 25.8324C81.3934 26.0667 81.1757 26.393 81.0755 26.762C80.9753 27.131 80.9981 27.5227 81.1403 27.8776C81.2826 28.2325 81.5366 28.5315 81.8639 28.7291C86.1963 30.993 90.9577 32.3167 95.8367 32.6135C96.145 32.6111 96.4473 32.5278 96.7132 32.3717C96.9791 32.2157 97.1994 31.9925 97.3519 31.7245C97.5044 31.4565 97.5838 31.1531 97.5821 30.8448C97.5804 30.5364 97.4977 30.2339 97.3424 29.9676C96.8217 29.0809 95.5131 28.5602 95.1472 27.5891C94.7814 26.618 95.5272 25.3091 96.1041 24.4647C96.2589 24.2536 96.4137 24.0284 96.5825 23.8173C96.0056 23.5499 96.0759 23.6062 96.7936 24.0003C97.5112 24.3943 97.9756 24.6899 98.5666 25.0276L102.704 27.4484C104.674 28.6024 106.151 25.7736 104.448 24.4647C101.936 22.5374 99.2723 20.8148 96.484 19.3136C96.094 19.0859 95.6296 19.0225 95.1928 19.1374C94.7561 19.2522 94.3828 19.5358 94.1552 19.9258C93.9275 20.3159 93.8641 20.7804 93.9789 21.2173C94.0937 21.6541 94.3773 22.0274 94.7673 22.2551L102.141 26.7728L103.914 23.7329C97.5675 20.4255 89.5187 17.7092 82.3001 19.1307C82.0359 19.2066 81.8036 19.3664 81.6382 19.5861C81.4729 19.8057 81.3834 20.0731 81.3834 20.3481C81.3834 20.623 81.4729 20.8905 81.6382 21.1101C81.8036 21.3297 82.0359 21.4895 82.3001 21.5655C85.635 22.2129 89.0262 22.438 92.347 23.2262C95.7551 24.0279 99.06 25.2179 102.197 26.7728C102.6 27.008 103.08 27.0734 103.531 26.9546C103.982 26.8358 104.368 26.5426 104.603 26.1395C104.838 25.7364 104.904 25.2564 104.785 24.805C104.666 24.3537 104.373 23.968 103.97 23.7329L96.5403 19.3136L94.711 22.2832C97.4891 23.8025 100.143 25.539 102.647 27.4765L104.392 24.4929C102.239 23.2262 100.171 21.8188 97.9052 20.6788C95.6397 19.5388 94.5844 20.6788 93.3461 22.2973C92.1526 23.7246 91.5088 25.5316 91.5309 27.3921C91.5741 28.2461 91.8357 29.0748 92.2908 29.7987C92.7973 30.6009 93.7964 30.9809 94.2607 31.7691L95.8367 29.095C91.5779 28.829 87.422 27.6736 83.6369 25.7032L82.7504 28.9684C88.8151 28.7291 94.2889 32.2757 100.354 32.0787C100.693 32.0687 101.022 31.9607 101.302 31.7677C101.581 31.5746 101.799 31.3048 101.928 30.9908C102.058 30.6768 102.093 30.332 102.031 29.9981C101.969 29.6642 101.812 29.3555 101.578 29.1091C99.3264 27.1669 96.3714 26.6462 93.5431 26.0128C90.2363 25.2528 86.9014 24.6758 83.5384 24.2255C76.7046 23.3978 69.8118 23.167 62.9379 23.5358C62.756 23.5607 62.5892 23.6508 62.4685 23.7892C62.3478 23.9276 62.2812 24.1051 62.2812 24.2888C62.2812 24.4725 62.3478 24.6499 62.4685 24.7884C62.5892 24.9268 62.756 25.0168 62.9379 25.0417V25.0699Z" fill="#1F454F"/>
<path d="M70.4545 20.0467C79.3335 19.9482 88.2407 18.9771 97.0916 18.2312C97.5357 18.2312 97.9616 18.0547 98.2756 17.7406C98.5897 17.4266 98.7661 17.0006 98.7661 16.5564C98.7661 16.1122 98.5897 15.6862 98.2756 15.3721C97.9616 15.058 97.5357 14.8816 97.0916 14.8816C90.7032 14.4594 84.3148 14.1075 77.9546 13.3757V16.7534C84.3529 16.0829 90.8162 16.3962 97.1197 17.6823C97.5443 17.8111 98.0014 17.7787 98.4036 17.5912C98.8057 17.4037 99.1245 17.0744 99.2988 16.6663C99.4732 16.2583 99.4908 15.8002 99.3483 15.38C99.2059 14.9597 98.9134 14.6068 98.5269 14.389C93.5621 11.3053 88.0236 9.26092 82.2463 8.37943L81.7679 11.926C84.5079 11.5908 87.2735 11.5154 90.0278 11.7009C91.2379 11.7853 95.403 11.7009 95.9518 13.2209L97.8092 10.8001C85.4124 11.8557 73.1844 13.1364 61.3926 17.3586C60.9849 17.4768 60.6331 17.7375 60.4012 18.0931C60.1693 18.4487 60.0727 18.8758 60.1289 19.2966C60.1851 19.7175 60.3904 20.1042 60.7075 20.3865C61.0247 20.6687 61.4325 20.8278 61.8569 20.8349C65.9884 21.0807 70.1318 20.6287 74.1131 19.4978C76.1112 19.0334 78.1234 18.5126 80.1638 18.2171C81.388 18.0341 83.4283 17.809 84.1319 19.1319C84.6947 20.2016 86.6366 19.7652 86.5099 18.4845C86.0596 14.0512 80.8814 14.7408 77.6872 15.3179C72.4245 16.2749 67.2744 17.9215 61.8569 17.2882L62.3213 20.7786C73.5784 16.8519 85.7641 13.8542 97.8092 14.6283C98.1036 14.6279 98.3939 14.5597 98.6576 14.4289C98.9212 14.2981 99.1512 14.1081 99.3295 13.8739C99.5079 13.6397 99.6298 13.3675 99.6858 13.0785C99.7419 12.7895 99.7305 12.4914 99.6525 12.2075C98.5972 9.39275 96.0503 8.64682 93.3204 8.32312C89.4808 7.90792 85.6076 7.90792 81.7679 8.32312C79.9105 8.50608 79.1225 11.5038 81.2895 11.8838C86.7495 12.7988 91.9956 14.7068 96.7679 17.5134L98.1751 14.2201C91.5414 12.9875 84.7657 12.7079 78.0531 13.3897C77.6052 13.3897 77.1757 13.5677 76.8591 13.8844C76.5424 14.2011 76.3645 14.6307 76.3645 15.0786C76.3645 15.5266 76.5424 15.9561 76.8591 16.2728C77.1757 16.5895 77.6052 16.7675 78.0531 16.7675C84.4133 17.5275 90.8017 17.9356 97.1901 18.1749V14.8816C88.2126 15.7119 79.1506 16.289 70.2435 17.8371C68.977 18.0482 69.3007 20.0608 70.553 20.0467H70.4545Z" fill="#1F454F"/>
<path d="M74.4787 20.9605C74.0565 20.8198 73.6344 20.665 73.2123 20.5383L72.565 22.8605C79.1785 24.099 85.8905 24.8731 92.5463 25.7738C94.6007 26.0553 95.5435 22.959 93.4328 22.5931C86.7406 21.2933 79.9446 20.6009 73.1278 20.5242C71.2563 20.5242 70.6653 23.6345 72.6635 23.9301C77.6823 24.6432 82.6823 25.5158 87.6635 26.5479C92.346 27.2594 96.892 28.6833 101.144 30.77C101.465 30.9446 101.83 31.0218 102.195 30.9924C102.559 30.9631 102.908 30.8283 103.197 30.6046C103.486 30.3809 103.704 30.0778 103.824 29.7324C103.945 29.3869 103.962 29.014 103.874 28.659C103.7 27.9636 103.382 27.3124 102.941 26.7475C102.5 26.1827 101.945 25.7167 101.313 25.3797C99.7227 24.3805 98.02 23.5079 96.3737 22.5649C94.7273 21.622 93.0951 20.7213 91.4346 19.8205C89.8624 18.7403 88.0858 17.9931 86.2142 17.625C86.0258 17.6274 85.8414 17.6788 85.679 17.7742C85.5165 17.8696 85.3818 18.0058 85.2881 18.1692C85.1943 18.3326 85.1448 18.5176 85.1443 18.706C85.1438 18.8944 85.1925 19.0796 85.2855 19.2435C86.2506 20.4152 87.4485 21.3737 88.8033 22.0583C90.2104 22.959 91.6176 23.8597 93.1232 24.7464L97.2461 27.2234C98.1185 27.7582 100.06 28.4901 100.286 29.616L103.015 27.5049C98.6433 25.3622 93.9768 23.8823 89.1692 23.1138C84.005 22.0864 78.7986 21.2139 73.5922 20.4961L73.1278 23.902C79.6388 23.9626 86.1336 24.5604 92.5463 25.6893L92.9966 22.4523C86.3127 21.6924 79.6007 20.8057 72.8886 20.4116C71.4815 20.3272 71.2282 22.5368 72.565 22.7761L74.1832 22.9872C75.4637 23.1561 75.5903 21.2561 74.4787 20.8761V20.9605Z" fill="#1F454F"/>
<path d="M87.0882 18.512C89.2808 18.5704 91.4668 18.7773 93.6314 19.1313C94.6868 19.3142 95.7281 19.5112 96.7693 19.7505C97.252 19.82 97.7244 19.9476 98.1765 20.1305C98.078 20.1305 98.0498 19.9898 98.1765 20.1305C97.9654 19.849 98.0076 19.3283 97.9513 19.8912L100.132 18.2305C99.5132 18.0757 98.8941 17.9209 98.275 17.7379L97.3603 17.4424L96.896 17.2875C96.6427 17.189 96.6005 17.189 96.7834 17.2875C96.1924 16.9357 96.2346 17.4283 96.896 18.7935L97.2337 18.4276C97.4956 18.1511 97.7355 17.8547 97.9513 17.5409C98.1342 17.2876 98.2609 17.0061 98.4438 16.7387C98.5794 16.4613 98.7548 16.2053 98.9645 15.9787H97.9372C97.6136 15.7816 98.275 16.2039 98.3735 16.2461C98.4977 16.3177 98.6381 16.3564 98.7815 16.3587C99.26 16.4291 99.077 16.3587 98.2327 16.0913L97.7684 15.2891V15.4157L100.85 13.6143C100.36 13.2034 99.7774 12.9171 99.1526 12.7799C98.5278 12.6426 97.8791 12.6585 97.2618 12.8261C96.672 12.8949 96.1255 13.1699 95.7187 13.6025C95.3119 14.0351 95.071 14.5976 95.0385 15.1905C95.0391 15.4372 95.1207 15.6768 95.2707 15.8726C95.4207 16.0684 95.6308 16.2095 95.8688 16.2743C96.139 16.321 96.4113 16.3538 96.6849 16.3727C97.0199 16.3483 97.3534 16.306 97.684 16.2461C97.804 16.2157 97.9297 16.2157 98.0498 16.2461L98.3875 16.3727C98.9504 16.5839 98.0639 16.232 98.6127 16.4713C99.0406 16.7001 99.5391 16.7591 100.009 16.6365C100.478 16.5138 100.884 16.2186 101.146 15.8098C101.385 15.3841 101.449 14.8822 101.326 14.4097C101.203 13.9372 100.901 13.531 100.484 13.2765C100.135 13.0488 99.7264 12.9275 99.3092 12.9275C98.892 12.9275 98.4838 13.0488 98.1342 13.2765C97.8887 13.4199 97.6853 13.6255 97.5445 13.8726C97.4037 14.1197 97.3305 14.3995 97.3322 14.6839L97.4166 15.2891L97.684 14.2898C97.3331 14.6185 96.9223 14.8765 96.4738 15.0498C96.032 15.2493 95.6122 15.4946 95.2215 15.7817C94.1802 16.5557 93.2515 17.555 93.8143 18.9483C94.064 19.4109 94.4154 19.8108 94.8419 20.1179C95.2684 20.4251 95.759 20.6315 96.2768 20.7216C97.2337 21.0171 98.2046 21.2705 99.1755 21.4957C99.4308 21.5589 99.697 21.564 99.9546 21.5108C100.212 21.4575 100.454 21.3471 100.664 21.1878C100.873 21.0284 101.044 20.8242 101.164 20.5901C101.284 20.356 101.35 20.0979 101.357 19.835C101.367 19.4956 101.304 19.158 101.173 18.8449C101.042 18.5317 100.846 18.2503 100.597 18.0194C100.33 17.7863 100.026 17.6006 99.6962 17.4705C99.4678 17.3619 99.2328 17.2679 98.9926 17.1891C97.7311 16.8554 96.4396 16.648 95.1371 16.5698C92.4423 16.2604 89.7297 16.1334 87.0179 16.1898C86.7231 16.1898 86.4403 16.3069 86.2318 16.5154C86.0234 16.7239 85.9062 17.0068 85.9062 17.3016C85.9062 17.5965 86.0234 17.8793 86.2318 18.0878C86.4403 18.2963 86.7231 18.4135 87.0179 18.4135L87.0882 18.512Z" fill="#1F454F"/>
<path d="M82.4881 28.124C82.2349 26.4492 80.4619 25.633 78.9844 25.2389C76.8539 24.7309 74.6913 24.3688 72.5116 24.1552C70.1898 23.8596 67.8539 23.6485 65.4759 23.5781C64.308 23.5781 63.14 23.5781 61.9721 23.5781C60.8443 23.6242 59.7254 23.799 58.6372 24.0989C57.7085 24.3241 57.6382 25.9003 58.6372 26.0552C59.5907 26.2725 60.56 26.4137 61.5359 26.4774C62.5631 26.4774 63.5763 26.4774 64.6035 26.4774C66.7142 26.5618 68.8249 26.6463 70.9356 26.8292C74.3831 27.1389 78.2527 27.167 81.2499 28.9966C81.3894 29.0768 81.5495 29.1139 81.71 29.1034C81.8706 29.0928 82.0244 29.035 82.1522 28.9373C82.2801 28.8395 82.3761 28.7062 82.4284 28.554C82.4806 28.4017 82.4867 28.2375 82.4459 28.0818L82.4881 28.124Z" fill="#1F454F"/>
<path d="M32.294 10.9278C33.7011 11.2937 34.7987 10.1537 35.9384 9.52037C36.2892 9.37293 36.5671 9.09215 36.7109 8.73979C36.8548 8.38744 36.8527 7.99238 36.7053 7.64151C36.5579 7.29064 36.2772 7.01273 35.9249 6.86888C35.5726 6.72503 35.1776 6.72702 34.8268 6.87446C30.1692 7.93001 26.6232 12.2226 24.4984 16.2618C23.9074 17.3877 23.4009 18.5558 22.9084 19.7381C22.3507 20.6976 22.0411 21.7812 22.0078 22.8906C22.2752 25.3958 25.3286 25.4661 26.7076 23.8476C27.4462 22.8088 28.0558 21.6841 28.5228 20.4981C29.1279 19.2736 29.747 18.0492 30.4225 16.8529C31.5802 14.7001 33.0396 12.7239 34.7564 10.9841C36.4999 9.2316 38.7059 8.01129 41.1167 7.46559C43.9774 7.0033 46.8619 6.70256 49.7565 6.56484L48.9685 3.63748C48.3353 3.93303 46.9985 2.38489 46.4638 2.04712C45.6829 1.53012 44.7523 1.28753 43.8184 1.35751C41.9469 1.51232 40.793 3.04637 39.1467 3.72192L40.2865 6.39596C42.7417 5.19168 45.4638 4.63458 48.1946 4.77746C48.8274 4.68474 49.4721 4.7134 50.0942 4.8619C50.6148 5.17153 50.4741 5.31227 50.0942 5.87523C49.2372 6.80032 48.4955 7.82582 47.885 8.92929C47.5191 9.70335 48.3634 10.9278 49.2921 10.2663C51.2199 8.85889 55.4976 4.18636 51.3606 2.66637C49.522 2.18605 47.5998 2.11874 45.7321 2.46932C43.537 2.6945 41.5107 3.34192 39.2874 3.72192C37.4581 4.03154 38.218 7.07151 40.0754 6.5367C41.0386 6.2092 41.9452 5.73444 42.763 5.12931C43.551 4.62265 44.1702 4.18636 45.0285 4.73524C45.8022 5.37241 46.6257 5.94659 47.491 6.45226C47.9983 6.67981 48.5507 6.78918 49.1065 6.77211C49.6622 6.75505 50.2068 6.61199 50.6993 6.35373C50.9905 6.1731 51.2155 5.90322 51.3409 5.58428C51.4663 5.26535 51.4854 4.91444 51.3952 4.5838C51.3051 4.25316 51.1105 3.9605 50.8406 3.74941C50.5707 3.53831 50.2398 3.42005 49.8972 3.41229C45.4788 3.80636 40.582 3.6797 36.5716 5.83301C33.0389 7.9333 30.1484 10.9607 28.2133 14.587C27.0313 16.5714 26.0463 18.6684 24.9909 20.7373C24.8784 20.9625 23.7949 22.9469 25.399 22.4121C25.5679 22.3417 25.8352 21.2862 25.9337 21.0047C26.3699 19.9351 26.8483 18.8654 27.3408 17.824C28.2458 15.9803 29.4274 14.2859 30.8446 12.7996C32.3452 11.3717 34.1086 10.2484 36.0369 9.49224L34.2077 7.18409C33.2086 8.08482 31.7874 8.98556 31.9703 10.4915C31.9726 10.5908 32.0066 10.6867 32.0674 10.7652C32.1282 10.8438 32.2125 10.9007 32.308 10.9278H32.294Z" fill="#1F454F"/>
<path d="M47.4358 5.32422C44.0868 6.43606 40.8363 7.82938 37.5858 9.15233C35.3766 10.0531 32.3795 10.9397 31.6477 13.5575C31.4453 14.0972 31.4631 14.6948 31.6974 15.2215C31.9317 15.7481 32.3637 16.1614 32.9001 16.3723C34.0962 16.7945 35.3766 15.8656 36.3757 15.3308C37.9376 14.5004 39.5277 13.7123 41.1037 12.9242C42.6656 11.9681 44.3146 11.1622 46.0286 10.5175C46.2748 10.3527 46.4628 10.1144 46.5656 9.83657C46.6685 9.55871 46.681 9.25547 46.6015 8.97005C46.522 8.68463 46.3544 8.43162 46.1227 8.24702C45.891 8.06243 45.6069 7.95567 45.311 7.94199C43.7034 8.35667 42.2075 9.12184 40.9303 10.1827C39.6531 11.2436 38.6263 12.5738 37.9236 14.0782C37.3889 15.2182 38.2894 16.893 39.6965 16.3863C43.0033 15.2464 45.9583 13.5716 49.1384 12.1642C50.6593 11.4467 52.2831 10.9719 53.9508 10.7568C55.6253 10.5597 57.2998 10.8694 58.9883 10.8271C59.1154 10.8233 59.2387 10.783 59.3434 10.711C59.4481 10.639 59.5299 10.5382 59.5788 10.4209C59.6278 10.3036 59.642 10.1747 59.6196 10.0496C59.5973 9.92442 59.5393 9.80838 59.4527 9.71532C57.145 6.90053 52.417 8.01237 49.6028 9.13828C46.0568 10.5457 42.75 12.9383 38.9226 13.459L40.6956 15.7671C42.0023 13.451 43.9996 11.6009 46.4086 10.4753L45.0718 8.18127C43.9406 8.92184 42.7443 9.55776 41.4977 10.0812L38.3457 11.6716C37.1356 12.2908 35.9254 12.882 34.7153 13.459L33.8288 13.8953C34.1806 14.9227 34.4057 15.1197 34.4761 14.4582C34.6636 14.1779 34.8806 13.9183 35.1234 13.6841C35.8821 13.1664 36.7052 12.75 37.5718 12.4457L41.2866 10.8693C43.7069 9.85603 46.1271 8.88494 48.4911 7.75902C49.7716 7.15384 48.8711 5.02869 47.5343 5.47905L47.4358 5.32422Z" fill="#1F454F"/>
<path d="M53.3015 8.3369C57.9029 7.74579 62.5323 7.19692 67.1477 6.63397C71.0736 6.14138 76.1674 5.98657 78.7988 9.5895L79.7134 7.32357C77.418 7.67789 75.1798 8.33576 73.0577 9.27987C71.4676 9.96949 68.8363 10.9265 67.9216 12.5309C67.7395 12.8679 67.6462 13.2458 67.6508 13.6289C67.6554 14.012 67.7576 14.3876 67.9478 14.7201C68.138 15.0527 68.4099 15.3312 68.7377 15.5293C69.0655 15.7274 69.4385 15.8386 69.8213 15.8524C72.2858 16.0917 74.7656 16.1341 77.2369 15.979C77.6101 15.979 77.968 15.8308 78.2319 15.5668C78.4957 15.3029 78.644 14.9449 78.644 14.5716C78.644 14.1984 78.4957 13.8404 78.2319 13.5765C77.968 13.3125 77.6101 13.1642 77.2369 13.1642C68.1609 12.8828 58.5783 12.3057 50.0229 15.979C49.7575 16.1348 49.5505 16.3734 49.4336 16.6581C49.3167 16.9428 49.2963 17.2579 49.3756 17.5553C50.051 19.6805 52.1899 18.9627 53.597 18.1183C55.7456 17.108 57.9435 16.2061 60.1824 15.4161C64.6149 13.5161 68.7237 11.1939 73.6487 10.8561C75.6187 10.7154 75.6609 7.66135 73.6487 7.75986C70.4685 7.9006 67.2744 8.37913 64.1083 8.70284C61.2859 8.87351 58.5056 9.47139 55.8625 10.4761C54.2443 11.1657 55.1449 13.699 56.7349 13.685C62.5464 13.6146 68.3579 13.488 74.1412 12.8406C75.886 12.6576 75.9845 10.0258 74.1412 10.0258C68.3438 10.0258 62.5323 10.2369 56.7349 10.2087L57.5933 13.4176C60.1498 12.5402 62.8162 12.0239 65.5154 11.8835C68.3297 11.5176 71.2425 11.2784 74.0708 10.7717L73.2406 7.788C69.5204 8.77719 65.975 10.3343 62.7293 12.4043C61.0548 13.3472 59.4085 14.3606 57.6918 15.2191C56.7986 15.7235 55.8555 16.1339 54.8775 16.4435C54.3474 16.5997 53.7979 16.6803 53.2452 16.6827H52.3587C51.824 16.5279 51.7396 16.6828 52.1055 17.1472L51.0783 18.5546C59.6618 16.0354 68.3297 15.7398 77.2087 16.0917V13.2769H72.4526C71.7147 13.1788 70.9672 13.1788 70.2293 13.2769L70.4826 14.1494L70.9048 13.882C71.2917 13.7126 71.6557 13.4951 71.9883 13.2346C74.6182 11.8359 77.4778 10.9207 80.4311 10.5324C81.7116 10.3354 81.7397 8.74506 81.1065 7.95692C78.1656 4.22733 73.1984 3.59397 68.7659 4.14285C63.447 4.8184 58.2687 6.23988 53.0342 7.32357C52.3306 7.46431 52.4854 8.73099 53.203 8.57617L53.3015 8.3369Z" fill="#1F454F"/>
<path d="M77.8994 10.6439C73.8609 11.1788 69.9772 12.6002 65.9388 13.2617C61.5907 13.9794 57.1864 14.3313 52.8102 14.7394C44.3674 15.5557 36.0372 16.555 28.1854 19.9609L29.8036 22.7757C32.6178 20.9883 35.2633 19.0742 38.1479 17.4276C41.0032 15.7721 43.954 14.287 46.9847 12.9802L45.3665 10.7987C42.7723 13.9613 39.6722 16.6721 36.192 18.8209C36.0018 18.9359 35.8399 19.0924 35.7186 19.2786C35.5972 19.4649 35.5195 19.6761 35.4911 19.8966C35.4627 20.1171 35.4844 20.3412 35.5545 20.5521C35.6247 20.7631 35.7416 20.9554 35.8965 21.1149C37.979 23.3245 41.1732 21.7201 43.5231 20.9038L48.6592 19.1024C50.4114 18.6959 52.0599 17.929 53.4997 16.8505C53.6407 16.7061 53.7361 16.5233 53.7738 16.325C53.8116 16.1267 53.7901 15.9216 53.712 15.7354C53.634 15.5493 53.5028 15.3902 53.3349 15.2781C53.167 15.1661 52.9698 15.106 52.768 15.1054C50.2352 14.9224 47.3646 16.5127 45.0006 17.3009L41.1451 18.6379C40.3852 18.9053 38.6685 19.792 37.9649 19.046L37.6695 21.3401C41.3224 19.0076 44.561 16.0824 47.252 12.6846C47.408 12.4404 47.4848 12.154 47.472 11.8645C47.4591 11.5749 47.3572 11.2964 47.1802 11.067C47.0031 10.8376 46.7596 10.6684 46.4828 10.5826C46.2061 10.4968 45.9096 10.4986 45.6338 10.5876C39.6121 13.3024 33.7824 16.4246 28.1854 19.9327C26.7079 20.8334 27.6929 23.5779 29.4237 22.8601C37.2895 19.5527 45.9153 18.7927 54.3299 17.9905C58.3965 17.5964 62.4772 17.1601 66.5016 16.4142C70.526 15.6683 75.0992 14.8661 78.3638 12.3469C78.9829 11.8684 78.9407 10.4891 77.8994 10.6158V10.6439Z" fill="#1F454F"/>
<path d="M22.4739 30.5048C25.4993 32.4752 28.9889 34.544 32.746 33.8403C33.1981 33.6813 33.6739 33.6004 34.1531 33.6011C34.5618 33.747 34.9497 33.9457 35.307 34.1922L37.7694 35.501L40.5837 37.021C41.4443 37.5947 42.3958 38.0182 43.398 38.2736C43.6607 38.343 43.9388 38.3241 44.1897 38.2197C44.4405 38.1153 44.6501 37.9314 44.7861 37.6961C44.9221 37.4609 44.9769 37.1875 44.9422 36.918C44.9075 36.6485 44.7852 36.3978 44.594 36.2047C43.8223 35.5028 42.9374 34.9365 41.9768 34.5299L39.1625 33.0522L36.6719 31.7574C35.9229 31.2677 35.079 30.9416 34.1953 30.8003C33.2479 30.8988 32.3078 31.0586 31.3811 31.2789C30.5659 31.328 29.7482 31.2425 28.9608 31.0255C27.0881 30.4501 25.3066 29.6114 23.67 28.5345C22.4035 27.7885 21.306 29.7026 22.5161 30.5048H22.4739Z" fill="#1F454F"/>
<path d="M43.8734 39.3981C44.0093 39.5467 44.1783 39.6611 44.3667 39.7321C44.5551 39.8031 44.7576 39.8287 44.9577 39.8068C45.1579 39.7848 45.35 39.716 45.5186 39.6059C45.6871 39.4957 45.8273 39.3474 45.9278 39.1729C46.5892 38.1033 45.5057 36.7381 44.9006 35.9218C43.0509 33.4963 40.6865 31.5111 37.9775 30.1093L36.8659 32.7411C41.1279 33.9378 45.5261 34.5811 49.9522 34.6552C51.7393 34.6552 51.7534 32.3893 50.3462 31.8404C46.8865 30.4012 43.2286 29.4949 39.4972 29.1523V32.2485C43.3244 32.2446 47.1258 31.622 50.7543 30.4049C51.0204 30.3278 51.2619 30.1832 51.4555 29.985C51.6491 29.7868 51.7881 29.5419 51.8589 29.2741C51.9298 29.0062 51.9301 28.7246 51.8598 28.4566C51.7895 28.1886 51.651 27.9435 51.4579 27.7449C47.8697 24.3109 42.607 25.7182 38.6952 23.1005L37.8509 26.1827C44.8865 26.056 52.1614 25.859 58.9579 23.6635C59.2173 23.5902 59.4566 23.4586 59.6575 23.2789C59.8585 23.0992 60.0158 22.876 60.1176 22.6263C60.2193 22.3766 60.2628 22.1071 60.2447 21.838C60.2266 21.569 60.1475 21.3076 60.0132 21.0738C58.78 19.117 57.0258 17.5428 54.9476 16.528V19.3428C58.8031 17.6257 63.32 18.6531 67.3866 18.7235C68.5545 18.7235 68.5967 17.2176 67.6399 16.8235C63.2235 14.8552 58.2177 14.6687 53.6671 16.3028C53.3596 16.3994 53.0863 16.582 52.8793 16.8291C52.6723 17.0761 52.5402 17.3772 52.4988 17.6968C52.4574 18.0165 52.5083 18.3413 52.6455 18.633C52.7827 18.9246 53.0004 19.1709 53.2731 19.3428C54.7792 20.1657 56.0524 21.3568 56.9738 22.8049L58.0292 20.2153C51.5001 22.3687 44.6473 22.6079 37.8368 22.819C37.4765 22.8251 37.128 22.9482 36.8438 23.1698C36.5596 23.3915 36.3553 23.6995 36.2615 24.0475C36.1678 24.3955 36.1898 24.7646 36.3242 25.099C36.4586 25.4334 36.6981 25.7149 37.0066 25.9012C38.9149 26.9957 41.0359 27.6676 43.2261 27.8716C45.2946 28.2093 47.5882 28.4345 49.1924 29.9404L49.8959 27.2804C46.5505 28.4434 43.0388 29.0565 39.4972 29.096C39.0867 29.096 38.693 29.2591 38.4027 29.5494C38.1125 29.8397 37.9494 30.2335 37.9494 30.6441C37.9494 31.0547 38.1125 31.4485 38.4027 31.7388C38.693 32.0291 39.0867 32.1923 39.4972 32.1923C42.951 32.5143 46.3424 33.3197 49.5723 34.5848L49.9522 31.77C45.7879 31.7115 41.6489 31.1107 37.6398 29.9827C36.106 29.5604 35.0366 31.8545 36.5282 32.6145C38.0488 33.3702 39.4673 34.316 40.7496 35.4293C41.3406 35.9641 41.9175 36.527 42.4663 37.1041C42.7477 37.3996 43.001 37.7092 43.2684 38.0048L43.5638 38.3707C43.9156 38.9618 44.2533 38.8211 44.5911 37.9907C44.4086 37.9229 44.2079 37.9226 44.0252 37.9898C43.8425 38.057 43.6899 38.1872 43.5948 38.3571C43.4997 38.5269 43.4684 38.7252 43.5066 38.9161C43.5448 39.107 43.6499 39.2779 43.8031 39.3981H43.8734Z" fill="#1F454F"/>
<path d="M67.9788 23.1155C70.8411 24.8502 73.8966 26.2436 77.083 27.2673C78.9123 27.8444 80.2068 24.931 78.4057 24.1147C72.4957 21.4548 66.628 19.0059 60.113 18.4852C58.0445 18.3163 57.7349 21.4689 59.6345 22.0177C66.662 23.9773 73.8999 25.083 81.1918 25.311C82.599 25.311 84.2735 25.114 84.6112 23.411C84.9489 21.7081 83.7387 20.5963 82.6412 19.6533C80.2925 17.9821 77.4589 17.1314 74.5783 17.2326V21.1311H85.3992C85.174 21.0044 85.1881 21.0185 85.3992 21.1311L84.7519 18.6822C84.5239 19.0918 84.358 19.5329 84.2594 19.9911C84.215 20.1669 84.2108 20.3504 84.2468 20.5281C84.2829 20.7058 84.3585 20.8731 84.4679 21.0176C84.5773 21.1622 84.7178 21.2803 84.879 21.3633C85.0402 21.4463 85.218 21.492 85.3992 21.497C85.8749 21.5094 86.3496 21.4477 86.8063 21.314C87.2614 21.1857 87.6478 20.8836 87.8821 20.4728C88.1164 20.0621 88.1798 19.5756 88.0586 19.1185C87.2706 16.6415 84.3579 17.1482 82.3175 17.1482H74.5501C74.0619 17.1897 73.607 17.413 73.2754 17.774C72.9439 18.135 72.76 18.6072 72.76 19.0974C72.76 19.5875 72.9439 20.0598 73.2754 20.4208C73.607 20.7817 74.0619 21.0051 74.5501 21.0466C75.8174 21.0523 77.0775 21.2372 78.2931 21.5955C79.0389 21.8348 80.629 22.4681 80.8541 23.3266V22.2992C82.0924 21.6378 82.3597 21.3281 81.6702 21.3704H80.9104H79.6581C78.7434 21.3704 77.8147 21.2718 76.8438 21.2015C75.0145 21.0607 73.1852 20.8778 71.3559 20.6244C67.7115 20.1178 64.0811 19.3859 60.507 18.5415L60.0285 22.06C65.84 22.2711 71.3841 24.7622 76.6186 27.0703L77.9413 23.9318C74.9543 23.199 72.0639 22.1173 69.3297 20.7089C69.0189 20.59 68.676 20.5852 68.362 20.6953C68.048 20.8053 67.7831 21.0231 67.6144 21.3099C67.4457 21.5968 67.3841 21.9341 67.4405 22.2621C67.4969 22.5901 67.6677 22.8875 67.9226 23.1014L67.9788 23.1155Z" fill="#1F454F"/>
<path d="M7.47266 79.2976C7.66188 79.8844 8.02505 80.3998 8.51394 80.7753C8.89814 81.1539 9.33398 81.4761 9.8085 81.7323C10.0644 81.8666 10.3331 81.9751 10.6106 82.0561L10.892 82.1264C11.089 82.1264 10.892 82.1264 11.0045 82.1264C11.3959 82.3149 11.8003 82.4748 12.2147 82.6049C12.9435 82.8495 13.713 82.9499 14.4802 82.9005C15.4652 82.7738 16.5768 82.1264 16.422 80.9864C16.3744 80.8328 16.2792 80.6983 16.1503 80.6022C16.0213 80.5061 15.8652 80.4533 15.7044 80.4516C15.3266 80.4736 14.9575 80.5743 14.6209 80.7472L14.4661 80.8316C14.6631 80.7472 14.4661 80.8316 14.4661 80.8316L14.0299 80.9442C13.8751 80.9442 14.2691 80.9442 14.0299 80.9442H13.3685C13.0871 80.9442 13.4389 80.9442 13.2841 80.9442H13.0449L12.8057 80.8598H12.7213L12.3132 80.6628L12.1021 80.5501C11.9473 80.4516 12.1021 80.5501 12.1021 80.5501L12.0318 80.4657C11.9333 80.339 11.8488 80.2124 11.7363 80.0857C11.6218 79.9431 11.4997 79.8069 11.3704 79.6776C11.0749 79.4102 10.7654 79.1568 10.4699 78.8613C10.1099 78.4528 9.66259 78.1305 9.16121 77.9183C8.21843 77.5524 7.41637 78.608 7.62744 79.4524L7.47266 79.2976Z" fill="#1F454F"/>
<path d="M96.7591 84.1401H96.8998C96.9983 84.1401 96.7873 84.1401 96.8998 84.1401L97.322 84.2809C97.5641 84.3229 97.8084 84.3511 98.0537 84.3653C98.5265 84.4058 99.0028 84.363 99.4608 84.2387C100.415 84.0111 101.24 83.4137 101.754 82.5779C101.858 82.3926 101.899 82.1787 101.871 81.9682C101.843 81.7577 101.748 81.5618 101.6 81.4098L101.839 81.8039V82.2261C101.923 81.8461 101.98 81.438 101.628 81.1706C101.276 80.9031 100.924 81.0861 100.587 81.255L101.009 81.1424L101.459 81.2691C101.276 81.1615 101.062 81.117 100.851 81.1424C100.64 81.1678 100.444 81.2618 100.291 81.4098C100.253 81.425 100.219 81.4491 100.193 81.4802L99.8126 81.7617C99.8126 81.7617 99.5734 81.9587 99.7141 81.8602C99.8548 81.7616 99.6297 81.8602 99.6015 81.9306L99.1653 82.2261L98.9543 82.3387H98.8558C98.8558 82.3387 98.6447 82.4231 98.8558 82.3387C99.0668 82.2542 98.7713 82.3387 98.7291 82.3387L98.504 82.4231C98.346 82.4894 98.1806 82.5366 98.0115 82.5639H97.7723H97.7019C97.4768 82.5639 97.2516 82.5639 97.0265 82.5639H97.4205H97.1813C97.0811 82.5022 96.968 82.4647 96.8508 82.4543C96.7337 82.4438 96.6157 82.4607 96.5062 82.5036C96.3967 82.5465 96.2986 82.6142 96.2197 82.7015C96.1409 82.7887 96.0833 82.8931 96.0516 83.0064C96.0199 83.1196 96.0149 83.2387 96.037 83.3543C96.0591 83.4698 96.1078 83.5786 96.1791 83.6721C96.2504 83.7657 96.3424 83.8414 96.448 83.8933C96.5535 83.9452 96.6697 83.9719 96.7873 83.9712L96.7591 84.1401Z" fill="#1F454F"/>
</svg>
