<svg width="110" height="168" fill="none" xmlns="http://www.w3.org/2000/svg"><path d="M13.565 65.69a55.164 55.164 0 005.628 29.063c4.404 8.374 11.778 14.003 20.544 17.24a54.136 54.136 0 0028.776 2.224c8.809-1.689 18.293-5.447 22.922-13.567 5.629-9.74 7.135-21.801 7.5-32.835.099-2.815-4.221-2.815-4.404 0-.366 9.303-1.703 18.775-5.403 27.388a20.058 20.058 0 01-7.374 9.317 37.99 37.99 0 01-11.679 4.799c-16.098 4.011-36.937 0-46.252-14.918-5.516-8.867-6.135-19.014-7.529-29.077-.225-1.619-2.589-1.084-2.701.366h-.028z" fill="#1F454F"/><path d="M15 66.336c-.646-2.815-4.305-4.32-6.936-4.222a7.907 7.907 0 00-7.19 5.207c-2.393 5.982.435 13.174 4.783 17.48a18.502 18.502 0 009.344 5.025c2.251.45 3.222-3.012.943-3.449a15.478 15.478 0 01-12.116-12.09c-.549-2.687-.338-6.572 2.266-8.19a4.657 4.657 0 013.363-.493 7.67 7.67 0 013.377 2.027A1.31 1.31 0 0015 66.364v-.028zm83.11 2.505c1.913-1.055 5.291-3.068 7.218-.957 1.928 2.111 1.295 6.249.465 8.698a21.003 21.003 0 01-4.574 7.234c-1.857 2.055-3.911 4.152-6.754 4.588A1.716 1.716 0 0093.27 90.5a1.745 1.745 0 002.097 1.196c3.715-.59 6.571-3.532 8.893-6.277a21.954 21.954 0 005.277-10.26c.591-3.448.337-8.444-3.082-10.428-3.419-1.985-7.233-.268-9.85 2.139-1.083.985.296 2.66 1.52 1.97h-.014zM53.145 84.56c1.168 1.168 3.152.634 4.643.507a37.47 37.47 0 005.01-.62c3.307-.745 4.615-3.447 3.841-6.628a28.472 28.472 0 01-1.027-4.462c-.155-1.759 0-3.532 0-5.305 0-3.786.085-7.558.07-11.344a1.745 1.745 0 10-3.49 0c0 3.167 0 6.333.1 9.5a75.77 75.77 0 00.28 9.289c.184 1.28.732 2.547.803 3.842.07 1.295-.915 1.506-2.04 1.689-1.492.225-2.984.38-4.475.647-1.492.268-3.054.24-3.828 1.548a1.112 1.112 0 00.17 1.408l-.057-.07zM38.428 71.232a1.88 1.88 0 001.042-.225c.338-.11.642-.304.886-.563.254-.242.447-.541.563-.872.167-.326.245-.69.225-1.056l-.098-.718a2.815 2.815 0 00-.69-1.21l-.563-.422a2.716 2.716 0 00-1.407-.366c-.365-.02-.73.058-1.055.225a2.24 2.24 0 00-.873.563 2.126 2.126 0 00-.562.887c-.166.321-.243.68-.226 1.041l.085.732c.13.451.373.862.703 1.196l.55.422a2.62 2.62 0 001.406.366h.014zm37.991-.464a2.434 2.434 0 100-4.868 2.434 2.434 0 000 4.868zM69.84 90.852a27.46 27.46 0 01-2.815-.577c-.915-.085-1.844-.07-2.815-.07h-5.332c-3.63 0-7.247-.07-10.878-.183a1.505 1.505 0 00-1.491 1.491c-.197 3.758 2.955 6.728 6.191 7.938 5.558 2.069 13.959 1.407 17.069-4.433.485-.827.805-1.74.942-2.688a4.741 4.741 0 000-.775.8.8 0 010-.182c0-.085-.183-.901-.084-.268v.197c0-1.238-1.871-1.238-1.928 0 0-.295.17-.563 0-.098l-.169.506-.126.31a3.86 3.86 0 00-.113.38 6.94 6.94 0 01-4.137 4.222 17.08 17.08 0 01-9.512.324 7.19 7.19 0 01-4.615-3.18 5.378 5.378 0 01-.577-1.746c.084.436.098-.14 0-.253-.099-.113 0-.197 0-.254l-1.506 1.506c3.63.099 7.247.113 10.877 0 1.773 0 3.546-.084 5.333-.197.816 0 1.647-.084 2.449-.197.465-.013.928-.08 1.379-.197a5.994 5.994 0 011.829-.69c.605-.028.633-.886.028-.886zm-12.134 12.556h.099l-.267-.268a.945.945 0 00.647.507h.506c.216.014.432.014.648 0 .206.014.413.014.619 0h.169c.171-.006.34-.05.492-.127l.408-.183-.239.099.422-.141a1.75 1.75 0 00.535-.281.779.779 0 00.38-.774.807.807 0 00-.563-.648 2.56 2.56 0 00-.59-.14h-.465.281a2.95 2.95 0 00-.858-.071c-.296 0-.591.071-.887.141-.202.041-.4.103-.59.183l-.38.141a.977.977 0 00-.606.703l.183-.323v.07a.663.663 0 00.127 1.027l-.07.085zm10.514 7.585a17.91 17.91 0 00-.759 5.039c-.113 1.689-.084 3.392-.084 5.08v5.081a23.146 23.146 0 00.267 5.222 1.988 1.988 0 001.9 1.411 1.985 1.985 0 001.9-1.411 26.972 26.972 0 000-5.222c0-1.689-.085-3.392-.1-5.081-.013-1.688 0-3.391-.084-5.08a18.957 18.957 0 00-.633-5.039 1.295 1.295 0 00-2.477 0h.07z" fill="#1F454F"/><path d="M70.789 127.165a48.413 48.413 0 0110.455 5.052 45.56 45.56 0 018.105 7.333 46.573 46.573 0 018.879 14.383 25.463 25.463 0 011.913 7.516l.352-.211c-.34.049-.686.049-1.027 0h-1.407c-1.562 0-3.138.112-4.7.197-5.39.295-10.779.661-16.168.9-10.764.493-21.557.69-32.364.197a181.92 181.92 0 01-35.84-4.968l1.534 2.716c2.814-17.522 19.475-26.979 34.658-32.693a2.346 2.346 0 001.66-2.182c0-4.517-.084-9.035-.084-13.553a2.183 2.183 0 00-2.174-2.006 2.18 2.18 0 00-2.174 2.006c0 4.518-.085 9.036-.085 13.553l1.66-2.181C27.45 129.487 9.368 140 6.259 159.098a2.267 2.267 0 001.547 2.731c22.979 5.742 46.816 6.023 70.357 4.827 5.84-.296 11.693-.577 17.519-1.112a144.14 144.14 0 004.221-.478 4.65 4.65 0 003.068-1.112c1.59-1.717.661-4.729.183-6.699a47.387 47.387 0 00-9.4-18.297c-5.488-6.896-13.565-13.848-22.627-14.918-1.9-.225-1.956 2.519-.422 3.11l.085.015zM15.11 72.386a11.44 11.44 0 00-3.827-2.927 5.627 5.627 0 00-2.687-.662 3.518 3.518 0 00-2.35 1.154 3.222 3.222 0 00-1.013 2.28 1.295 1.295 0 00.323 1.028.929.929 0 001.21-.07l.225-.17a1.94 1.94 0 00.352-.239c.338-.338.24-.296.141-.183l.422-.549c-.14.197.169-.183.225-.225.053-.055.11-.107.17-.155.126-.127-.17.085 0 0l.196-.113c.155-.098-.197 0 0 0s.422-.07.253-.07h.536c.219.053.435.119.646.197l.183.07c-.098 0 .197.1.225.113.38.183.76.394 1.126.605.741.396 1.44.867 2.083 1.408a1.114 1.114 0 101.576-1.576l-.014.084zm83.504 2.887l.14-.155.127-.112s.112-.141 0 0h.07-.225.591l.479-.113h.168c-.253.085-.183 0 0 0h.38a.353.353 0 00.169 0h-.211a.973.973 0 00.281 0h.31c.183 0-.31-.07-.141 0l.366.085.197.07s.239.084 0 0c-.239-.085 0 0 0 0l.183.099.141.084s.253.183 0 0 .084.084.141.127l.267.253c.098.098.535.408.281.211-.253-.197.211.169.268.183a1.405 1.405 0 001.407 0 1.4 1.4 0 00.661-1.154 2.997 2.997 0 00-1.688-2.266 4.223 4.223 0 00-2.421-.591 4.11 4.11 0 00-2.209.943c-.145.137-.264.3-.352.478-.07.119-.122.247-.154.38.126-.197.154-.253 0-.169l-.085.099a4.04 4.04 0 00-.59.859.76.76 0 001.308.76l.14-.07zM29.76 70.008a13.536 13.536 0 001.716-1.646c.568-.51 1.19-.954 1.858-1.323a8.991 8.991 0 014.362-1.169c1.48.02 2.932.412 4.221 1.14a9.35 9.35 0 011.872 1.408c.605.577 1.027 1.28 1.604 1.886.788.816 2.476 0 2.012-1.168a9.555 9.555 0 00-4.095-4.223 11.48 11.48 0 00-11.088-.239c-1.52.774-3.7 2.322-4.137 4.082a1.14 1.14 0 001.646 1.266l.028-.014zm39.023.492c1.224-.956 2.223-2.167 3.518-3.025a7.711 7.711 0 013.884-1.408 5.628 5.628 0 013.7 1.07c.562.435 1.039.97 1.407 1.576.45.704.648 1.52 1.07 2.238a1.407 1.407 0 001.717.563 1.408 1.408 0 00.788-1.619 7.755 7.755 0 00-1.295-2.814 9.093 9.093 0 00-1.83-2.055 8.343 8.343 0 00-5.43-1.802 10.721 10.721 0 00-9.274 6.334 1.07 1.07 0 00.479 1.182 1.083 1.083 0 001.266-.169v-.07zm-1.186-14.115l.352-.07-2.153-1.647c0 .83.098 1.647.225 2.463.239 1.407 2.223 1.407 2.898.38.676-1.027 1.731-2.35 2.491-3.589l-2.814-1.21a9.162 9.162 0 00-.662 3.237 1.62 1.62 0 002.815 1.126 52.395 52.395 0 012.66-2.646l-2.365-1.83a9.657 9.657 0 00-1.168 3.702c-.126 1.407 1.745 1.928 2.674 1.112 1.41-1.23 3-2.236 4.714-2.984l-2.181-2.181c-.394.858-.788 1.702-1.14 2.575-.535 1.295.957 2.224 2.04 2.04.92-.214 1.81-.545 2.646-.984a6.33 6.33 0 013.04-.183l3.545.267c1.202.283 2.462.2 3.617-.24a1.407 1.407 0 00.295-2.223 5.783 5.783 0 00-3.504-.844l-3.954-.254a9.09 9.09 0 00-3.377.141c-.9.282-1.815 1.056-2.814 1.056l1.59 2.11c.31-.731.577-1.491.858-2.237.52-1.407-1.21-2.407-2.35-1.802-1.773.972-3.405 2.126-5.094 3.223l2.294 1.774a9.275 9.275 0 01.704-2.604 1.506 1.506 0 00-2.364-1.816 47.625 47.625 0 01-2.815 2.506l2.73 1.14c.07-.817.226-1.623.465-2.407.548-1.703-1.956-2.674-2.815-1.196a17.595 17.595 0 01-2.293 3.25l2.701 1.113a19.3 19.3 0 000-2.041 1.717 1.717 0 00-1.688-1.689 1.76 1.76 0 00-1.703 1.689c-.043.388.057.778.282 1.098a1.408 1.408 0 001.52.619l.098.056zM48.59 53.95a9.431 9.431 0 00.168 3.913l3.335-.915a12.669 12.669 0 00-2.547-4.771 1.745 1.745 0 00-1.941-.38 1.887 1.887 0 00-1.098 1.632 12.303 12.303 0 00.338 4.532l1.998-1.984c-.662-.17-.971-.93-1.28-1.408a5.995 5.995 0 00-1.9-2.322 2.237 2.237 0 00-3.04.577 5.377 5.377 0 00-.45 3.547l2.688-1.112a20 20 0 00-3.293-2.449 3.799 3.799 0 00-1.857-.62c-.788 0-1.295.564-2.027.648a5.628 5.628 0 01-1.857-.324c-.677-.18-1.37-.298-2.069-.351a6.035 6.035 0 00-4.221 1.083c-1.07.83-.169 2.717 1.098 2.646a23.036 23.036 0 013.25-.394c1.112 0 2.181.465 3.293.535a4.938 4.938 0 001.688-.169c.234-.07.46-.165.676-.281.295 0 .337 0 .154-.085-.182-.084-.14 0 0 0a9.852 9.852 0 012.815 1.914 1.59 1.59 0 002.673-1.112c0-.492-.14-1.534.17-1.928l-.592.577.211-.098-.83.21c-.31 0-.253-.295 0 .156.112.225.281.45.422.675.14.225.479.816.76 1.21a5.15 5.15 0 002.547 1.985c1.294.45 2.167-.887 1.998-1.998a10.136 10.136 0 010-3.195l-2.983.788c.75.951 1.335 2.022 1.73 3.166a1.731 1.731 0 003.336-.914 8.614 8.614 0 00-1.408-3.547 1.252 1.252 0 00-2.082.549l.127.014z" fill="#1F454F"/><path d="M68.672 125.938c.97 7.74-5.432 12.582-11.173 16.325a1.661 1.661 0 00.83 3.068 34.047 34.047 0 0118.096 6.418 1.894 1.894 0 001.868-.021 1.907 1.907 0 00.946-1.611 47.733 47.733 0 00-5.628-23.757c-1.21-2.266-4.644-.253-3.434 2.012a45.413 45.413 0 015.333 21.759l2.814-1.619a35.544 35.544 0 00-20.009-6.46l.83 3.068c6.023-4.306 14.48-10.893 11.623-19.45-.366-1.083-2.28-.985-2.11.282l.014-.014z" fill="#1F454F"/><path d="M57.07 143.347c-8.19-3.448-17.913 1.197-22.317 8.445l3.222.872a25.802 25.802 0 012.195-13.553c1.9-4.011 5.291-7.262 6.375-11.653l-3.068-.408a22.253 22.253 0 0012.34 18.296c2.027.957 3.786-2.097 1.76-3.012a18.68 18.68 0 01-10.976-15.27 1.574 1.574 0 00-2.404-1.259 1.575 1.575 0 00-.664.837 18.693 18.693 0 01-3.194 5.939 34.113 34.113 0 00-3.546 6.08 29.01 29.01 0 00-2.28 14.074 1.742 1.742 0 001.289 1.63 1.742 1.742 0 001.934-.758c4.025-6.445 11.82-8.937 19.08-8.261 1.197.113 1.169-1.534.254-1.914v-.085z" fill="#1F454F"/><path d="M57.637 142.42a.96.96 0 00-.69.675 27.917 27.917 0 00-.52 5.532c0 .844-.155 1.731-.267 2.505-.244.964-.4 1.949-.465 2.941a1.69 1.69 0 002.626 1.423 1.69 1.69 0 00.695-.972 5.61 5.61 0 00.282-1.689c0-.493.112-.986.154-1.408.076-.938.118-1.853.127-2.744a13.075 13.075 0 00-.844-5.756.957.957 0 00-.844-.493h-.212l-.042-.014zM19.546 24.38a10.642 10.642 0 01-1.07-11.047 13.96 13.96 0 014.082-4.476c.464-.338 1.927-1.618 2.546-1.407 1.028.38 0 2.674-.239 3.195a1.591 1.591 0 002.49 1.928c3.772-3.167 7.754-6.46 12.412-8.234a15.743 15.743 0 016.824-1.168c1.675.155 4.222.971 4.222 2.998a1.647 1.647 0 002.462 1.407 22.511 22.511 0 0113.072-3.208c2.358.07 4.708.296 7.036.675 1.056.155 2.097.338 3.138.52a7.877 7.877 0 011.492.339 1.8 1.8 0 01.647.295c.338.408.45.352.366-.183a1.787 1.787 0 001.618 2.674 40.8 40.8 0 0114.93 2.111 9.852 9.852 0 015.15 3.21c.76 1.153.52 4.221-1.492 3.7a1.8 1.8 0 00-1.407 3.28c2.997 1.562 8.752 4.883 6.811 9.12-2.336 5.08-9.54 3.068-13.537 1.914-2.054-.591-3.518 2.575-1.492 3.532.409.183.479.676 0 1.225-.69.76-2.307.633-3.222.59a33.763 33.763 0 01-7.148-1.238 42.661 42.661 0 01-13.396-6.6c-1.97-1.408-3.785 1.815-1.886 3.223a78.816 78.816 0 012.688 2.026c.872.69 1.154.535 0 .788a25.32 25.32 0 01-6.023.409 31.43 31.43 0 01-11.974-2.815c-1.478-.662-3.73.858-2.519 2.519.732 1.013 1.477 1.998 2.21 3.012.182.24.886.943.886 1.295 0-.45.154 0-.31-.085a23.791 23.791 0 01-6.473-2.069l-15.69-6.29c-2.321-.93-3.376 2.814-1.04 3.771l10.61 4.096 5.473 2.097a33.267 33.267 0 004.798 1.759c2.013.45 4.77.324 5.854-1.731 1.407-2.716-1.688-5.63-3.138-7.713l-2.519 2.52a35.172 35.172 0 0018.377 2.94c2.14-.252 5.32-.604 5.939-3.166.703-2.885-3.152-4.827-4.954-6.347l-2.63 2.646a39.832 39.832 0 0019.994 8.515c3.04.408 6.952.844 9.147-1.816 1.717-2.055 1.52-5.714-1.098-6.938l-1.491 3.546c6.022 1.717 14.831 2.942 17.955-4.222 2.814-6.32-3.56-11.034-8.443-13.652l-1.407 3.265a5.179 5.179 0 006.219-3.588c1.056-2.984-.464-5.855-2.814-7.67a23.537 23.537 0 00-9.442-3.772 45.583 45.583 0 00-11.496-.915l1.52 2.632c2.814-6.066-9.231-6.334-12.538-6.601-6.191-.507-12.664.07-17.913 3.56l2.463 1.408C54.036-.08 46.183-.629 41.638.427c-6.346 1.407-11.594 5.798-16.45 9.852l2.492 1.928c1.14-2.604 2.082-6.348-1.168-7.91C23.514 2.89 19.785 6.366 17.9 8.38c-4.615 4.911-5.361 12.666-.493 17.648 1.084 1.126 3.138-.366 2.21-1.717l-.07.07z" fill="#1F454F"/><path d="M88.987 38.51c-1.407 1.69-.69 4.645-.14 6.601a49.261 49.261 0 003.264 7.248c1.03 2.28 1.7 4.706 1.984 7.192.063 2.668.26 5.332.59 7.98.48 2.21 3.955 1.28 3.406-.943-.605-2.505-.324-5.18-.69-7.74a28.147 28.147 0 00-1.885-6.826c-.985-2.309-2.434-4.406-3.335-6.756a21.114 21.114 0 01-.943-3.476 6.192 6.192 0 00-1.027-3.28.857.857 0 00-1.224 0zm12.765-4.08a8.435 8.435 0 00.099 3.026c0 1.182 0 2.378.098 3.56V56.4c0 2.562-.239 5.545 0 8.29a1.998 1.998 0 003.982 0c.282-2.914.099-5.953.085-8.88a225.443 225.443 0 00-.197-8.29c-.113-2.773-.197-5.39-.422-8.079-.155-1.83-.563-4.912-2.576-5.63a.871.871 0 00-1.055.606l-.014.014zM14.97 65.308c1.492-2.111 3.73-3.575 5.516-5.419a15.721 15.721 0 003.842-6.642c.613-2.588.934-5.237.957-7.896a42.78 42.78 0 011.168-9.162 1.408 1.408 0 00-2.702-.746c-2.167 5.25-.957 11.26-2.392 16.734a13.935 13.935 0 01-3.954 6.544 16.777 16.777 0 00-4.222 5.841c-.408 1.098 1.182 1.576 1.773.746h.014z" fill="#1F454F"/><path d="M18.28 28.055c.115.12.237.233.366.338l.366.296c-.099-.085 0 0 0 0l.38.38.197.225c0 .084.098.14 0 0 .492.675.943 1.407 1.407 2.055l3.349 4.602a1.564 1.564 0 002.302.44 1.562 1.562 0 00.146-2.34l-3.686-4.729a12.328 12.328 0 00-1.689-1.844 3.672 3.672 0 00-2.533-1.154.985.985 0 00-.69 1.675l.085.056z" fill="#1F454F"/><path d="M16.348 23.972c-6.81 1.055-8.007 9.612-8.598 15.101-.83 7.699-.703 15.34-.928 23.067-.085 2.66 4.348 2.534 4.038 0a103.515 103.515 0 010-20.027c.422-5.883.52-12.807 6.515-15.819 1.407-.69.324-2.533-.985-2.322h-.042z" fill="#1F454F"/><path d="M16.167 31.082a.675.675 0 00-.802-.099h-.14s-.184.07 0 0h.421c-.59-.168-1.083.38-1.407.789a4.715 4.715 0 00-.76 1.083 3.646 3.646 0 00-.45 1.408c-.083.456-.008.928.211 1.337a.633.633 0 00.97.126c.112-.093.203-.208.268-.337 0 0 .085-.226 0-.099-.084.127 0 0 0 0s.155-.295.24-.45c.064-.138.12-.279.168-.423v-.112c0-.127-.084.169 0 0l.113-.253a.353.353 0 000-.099l.112-.24c-.056.132-.056.16 0 .085.145-.32.31-.63.493-.929.086-.15.18-.296.281-.436l.07-.098c0-.085 0 0 0 0a.886.886 0 00.212-.859v.422c0 .099 0 .085 0 0l.084-.126a.675.675 0 000-.676l-.098-.127.014.113zm.551 1.742c-.154.197-.323.38-.464.591l-.155.212c-.079.15-.149.305-.21.464l-.198.492a.507.507 0 010 .127 1.04 1.04 0 000 .352v.535c.053.161.14.31.253.436.09.092.202.16.324.197a.97.97 0 00.858 0l.197-.098c.19-.11.346-.271.45-.465.067-.125.119-.257.155-.394l.17-.478c.12-.416.173-.849.154-1.281a.9.9 0 00-.563-.83.744.744 0 00-.464 0 .816.816 0 00-.52.239l.013-.099zm2.713 2.9a4.9 4.9 0 00-.605.817c-.169.303-.292.63-.366.97-.098.422-.098.86 0 1.281.06.194.136.382.226.563a1.124 1.124 0 00.703.563.831.831 0 00.816-.21c.077-.081.143-.171.197-.268a.859.859 0 00.127-.254 2.473 2.473 0 000-.337v.267c0-.113 0-.225.07-.338a4.68 4.68 0 00.085-.619v.296a3.94 3.94 0 01.239-.887l-.113.267a3.97 3.97 0 01.366-.619l-.169.225.099-.126c.203-.213.319-.494.324-.789a1.14 1.14 0 00-.324-.802 1.11 1.11 0 00-.802-.323 1.196 1.196 0 00-.788.323h-.085zm-7.075 4.278a6.126 6.126 0 00-.352.83c-.084.296-.155.592-.225.873a6.683 6.683 0 00-.155.9 4.227 4.227 0 00-.112.719c.02.38.186.738.464.999a1.04 1.04 0 001.027.281c.127 0 .282-.098.38-.154.2-.123.37-.292.493-.493.1-.216.175-.443.225-.676 0-.295.169-.59.21-.9.043-.31.1-.605.142-.901a8.439 8.439 0 000-1.196 1.083 1.083 0 00-.943-1.07 1.01 1.01 0 00-.704.127l-.225.169a.971.971 0 00-.281.492h.056zm2.788 1.76c-.099.211-.211.408-.296.62-.084.21-.084.351-.127.52-.098.45-.154.887-.21 1.337l-.141 1.098a3.618 3.618 0 000 .549c-.008.227.05.453.169.647.113.171.261.315.436.422a.915.915 0 00.928 0c.648-.295.676-.97.732-1.59l.085-1.084c0-.366.07-.731.07-1.097a6.205 6.205 0 000-.732l-.127-.493a.788.788 0 00-1.407-.197h-.112zm2.828 3.182a71.094 71.094 0 00-.844 2.04l-.169.45c-.092.23-.15.472-.169.718a1.227 1.227 0 000 .45 1.42 1.42 0 00.197.747.759.759 0 00.845.337c.228-.063.433-.19.59-.365.16-.156.307-.326.437-.507.201-.361.348-.75.436-1.154.197-.634.352-1.281.507-1.928a1.014 1.014 0 00-1.858-.788h.028zm-6.277 6.405c-.218.95-.308 1.925-.268 2.899-.012.294.04.587.155.858.067.126.147.244.24.352a.76.76 0 001.28 0c.088-.108.163-.226.225-.352.126-.268.184-.563.169-.858v-.901a6.01 6.01 0 00-.268-1.998.802.802 0 00-.76-.577.83.83 0 00-.76.577h-.013z" fill="#1F454F"/><path d="M14.073 52.6a6.216 6.216 0 00-.69 1.561 5.449 5.449 0 00-.168.957 2.828 2.828 0 000 .352c-.021.22-.021.442 0 .662a1.224 1.224 0 00.83.83.98.98 0 00.633 0 1.126 1.126 0 00.83-.83c0-.282 0-.577.099-.859v.324c.076-.545.218-1.08.422-1.59l-.127.281c.07-.169.155-.324.24-.492a1.21 1.21 0 00.126-.915 1.253 1.253 0 00-.548-.704 1.196 1.196 0 00-1.619.422h-.028zm79.755-9.95a3.44 3.44 0 010 .38c.007.218.035.435.085.647.06.345.164.68.31 1 .112.239.238.464.365.689l.281.436c.195.212.443.367.718.45a.772.772 0 00.732-.154.859.859 0 00.337-.662.573.573 0 010-.154 1.225 1.225 0 00-.14-.592l-.17-.365.1.239c-.127-.352-.212-.718-.338-1.084-.127-.366-.113-.366-.155-.535-.042-.169-.14-.366-.197-.563a.971.971 0 00-1.041-.619.985.985 0 00-.859.957l-.028-.07zm2.883-1.564c0 .084.07.169.113.24l-.141-.536c.027.374.154.733.366 1.042l.155.338a.522.522 0 010 .154c0-.14 0-.154 0 0 .163.424.304.856.422 1.295 0 .225.098.465.154.704a1.982 1.982 0 000 .267c0 .07.085.296 0 .366v-.084c-.002.238.06.471.183.675.076.115.16.223.254.324-.178-.366-.235-.45-.17-.253.067.28.181.547.339.788a.914.914 0 001.562 0 2.12 2.12 0 00.309-.83s0-.212 0 0c0 .21.099-.226 0-.155a1.53 1.53 0 00.07-.873 7.222 7.222 0 00-.365-1.633 10.66 10.66 0 00-.732-1.576 5.612 5.612 0 00-.408-.605c-.113-.169-.24-.324-.366-.492a1.406 1.406 0 00-.647-.423l.478.282-.197-.183a1.013 1.013 0 00-1.337-.085 1.027 1.027 0 00-.267 1.323l.225-.07zm.594 10.248c0 .662.126 1.323.239 1.985.112.661.197 1.703.915 2.153.222.124.48.168.731.127.25-.024.484-.133.662-.31.184-.2.306-.45.351-.718v-.352a3.48 3.48 0 000-.661c0-.282-.084-.577-.14-.859-.099-.563-.24-1.126-.352-1.688a1.238 1.238 0 00-.563-.718 1.224 1.224 0 00-.774-.141 1.056 1.056 0 00-.69.324 1.127 1.127 0 00-.351.858h-.028zM17 25.112c.242.545.53 1.067.86 1.563.21.295.45.577.689.858.11.101.213.21.31.324a1.195 1.195 0 00.984.38.886.886 0 00.9-.901 1.098 1.098 0 00-.14-.704 2.085 2.085 0 00-.366-.422 7.344 7.344 0 01-.408-.52l.169.225-.52-.662.168.211a9.575 9.575 0 01-.886-1.407 1.015 1.015 0 00-1.546-.26c-.15.132-.26.305-.312.5v.267c.005.182.054.36.141.52l-.042.028z" fill="#1F454F"/><path d="M18.619 24.563c.647-2.814 1.224-5.63 2.139-8.374a36.28 36.28 0 011.73-4.222c.399-.633.738-1.302 1.014-1.998l.239-.437-.69-.647a5.626 5.626 0 00-.295 1.07c-1.52 4.968-5.22 9.373-4.756 14.805.098 1.225 1.9 2.027 2.547.69 2.195-4.602 4.32-9.781 7.894-13.511l-2.561-1.492c-1.914 4.814-3.842 9.627-5.7 14.468-.506 1.28 1.225 2.52 2.323 1.788 3.166-2.098 4.334-5.94 6.219-9.05a22.122 22.122 0 018.302-8.261l-2.082-1.197c.112 3.167-3.687 5.18-5.432 7.445l2.434 1.408a33.673 33.673 0 015.868-6.136c.662-.535 7.036-5.137 7.177-2.942.098 1.295 2.124 1.788 2.434.324a3.083 3.083 0 00-2.646-3.744c-2.082-.38-4.137 1.07-5.769 2.154a38.951 38.951 0 00-9.498 8.922c-1.098 1.408 1.407 2.815 2.434 1.408 2.224-2.9 5.924-4.7 5.77-8.867a1.408 1.408 0 00-2.083-1.196 23.924 23.924 0 00-8.246 7.74c-2.068 3.04-3.18 7.206-6.416 9.233l2.322 1.787c1.876-4.822 3.752-9.654 5.628-14.496.549-1.407-1.576-2.59-2.561-1.492-3.687 4.11-5.628 9.43-8.091 14.314l2.547.675c-.24-3.56 1.407-6.657 2.814-9.851.802-1.774 3.616-6.672 1.055-8.05-2.954-1.605-4.924 4.728-5.628 6.558a27.322 27.322 0 00-2.11 10.935.886.886 0 001.744.24h-.07z" fill="#1F454F"/><path d="M40.938 11.983a63.305 63.305 0 00-7.683 4.447 44.652 44.652 0 00-7.035 5.63 2.618 2.618 0 00-.465 3.645 2.814 2.814 0 003.476.267 46.785 46.785 0 003.827-2.814 795.899 795.899 0 014.222-3.069 1.408 1.408 0 00-1.407-2.364 393.988 393.988 0 00-7.641 3.997 187.449 187.449 0 00-3.687 2.013 16.887 16.887 0 00-3.7 2.294l2.265 1.323a1.717 1.717 0 00-2.814-1.788 1.112 1.112 0 001.083 1.844c1.055-.24 2.097-.535 3.138-.83l1.562-.45c.225-.071 1.407-.24 1.477-.409.07-.169.155-.113-.14-.352-.296-.24-.211-.45-.31-.21-.084 0-.295.38-.352.45a5.521 5.521 0 00-.661 1.111 5.195 5.195 0 00-.422 2.688l2.195-1.266a37.743 37.743 0 01-4.32-2.646c-1.252-.915-2.814 1.154-1.674 2.167a16.452 16.452 0 013.827 4.532c.957 1.689 3.687 0 2.59-1.506a25.5 25.5 0 00-4.476-4.968l-1.66 2.153a34.982 34.982 0 004.221 2.815 1.478 1.478 0 002.21-1.59c-.183-1.21.703-1.872 1.125-2.815a2.112 2.112 0 00-1.055-2.927 5.15 5.15 0 00-3.405.492c-1.492.507-2.97.985-4.419 1.562l1.253 1.619-.45.253-.704-.703.225-.648a1.407 1.407 0 001.055 2.491 19.765 19.765 0 003.87-1.998l3.673-2.07a966.456 966.456 0 017.542-4.137l-1.407-2.364c-2.069 1.576-4.222 3.124-6.248 4.672-.45.338-.9.69-1.407 1 0 0-.493.267-.507.295l.268.69.126-.197a8.28 8.28 0 001.239-1.197 49.9 49.9 0 011.322-1.182 49.616 49.616 0 0111.623-7.501c1.604-.732.197-3.181-1.407-2.393l.042-.056z" fill="#1F454F"/><path d="M26.343 32.686a41.096 41.096 0 0116.675 4.56l1.097-2.604-9.61-2.815-.774 2.815a111.472 111.472 0 0114.325 4.56c1.59.634 2.321-1.731 1.097-2.603A92.19 92.19 0 0028.581 25.62c-1.407-.535-2.322 1.407-1.407 2.406a6.866 6.866 0 004.502 1.858c2.234.24 4.48.338 6.727.296a59.308 59.308 0 0013.269-1.703 1.406 1.406 0 000-2.745c-8.682-1.59-17.392-.169-25.905 1.76-1.731.408-1.168 2.814.393 2.913 2.743.094 5.478-.35 8.05-1.309a163.2 163.2 0 017.626-2.069c2.56-.619 5.136-1.168 7.725-1.675a46.232 46.232 0 008.246-1.956.97.97 0 00-.268-1.886c-5.178-.464-10.623 1.154-15.633 2.365a165.296 165.296 0 00-7.626 2.069 21.47 21.47 0 01-8.12 1.407l.395 2.9c7.964-1.845 16.21-3.364 24.371-1.873v-2.744a56.035 56.035 0 01-11.342 1.59c-1.773 0-3.546 0-5.318-.07-1.773-.07-3.87 0-5.052-1.267l-1.407 2.407A94.837 94.837 0 0147.746 38.92l1.097-2.604a116.099 116.099 0 00-14.31-4.616 1.459 1.459 0 10-.774 2.815l9.625 2.814c1.505.437 2.56-1.886 1.097-2.603a38.804 38.804 0 00-18.11-3.955.929.929 0 100 1.858l-.028.056z" fill="#1F454F"/><path d="M33.164 25.943c7.739-2.266 15.478-4.63 23.105-7.121a1.577 1.577 0 00-.844-3.026c-7.036 1.83-14.072 3.87-21.178 5.798l1.267 3.012 15.197-7.192c4.488-2.125 9.062-4.123 12.889-7.36a1.632 1.632 0 00-1.14-2.815 65.042 65.042 0 00-16.674 4.447l1.167 2.815c7.36-3.476 15.774-4.56 23.683-6.136a1.703 1.703 0 00-.45-3.336 166.561 166.561 0 00-19.7 2.604l.83 3.026a85.439 85.439 0 0114.071-2.027A24.832 24.832 0 0177.46 10.28c1.323.591 2.815-1 1.66-2.14-3.405-3.152-8.358-3.096-12.664-2.814-5.372.38-10.71 1.152-15.97 2.308-1.999.436-1.126 3.378.83 3.026 6.29-1.098 12.551-1.717 18.912-2.224l-.45-3.35c-8.26 1.774-16.59 3.28-24.316 6.798-1.534.704-.422 3.42 1.168 2.815a61.383 61.383 0 0115.872-4.138l-1.14-2.814c-3.813 3.138-8.442 5.038-12.889 7.121L33.91 21.735c-1.716.816-.506 3.505 1.267 3.012 7.035-1.985 14.071-3.856 21.107-5.953l-.845-3.026a805.137 805.137 0 00-22.71 8.529c-.986.38-.62 1.928.45 1.618l-.014.028z" fill="#1F454F"/><path d="M75.321 9.647a1 1 0 01.76.746l.746-1.844c-2.04.69-3.982 1.619-6.065 2.252-2.082.633-4.221 1.154-6.332 1.675a44.167 44.167 0 00-12.059 4.419 1.492 1.492 0 000 2.561c5.755 2.534 11.975.324 17.842 2.083v-2.955a1249.515 1249.515 0 01-20.22 5.123 1.633 1.633 0 00-1.168 1.52c0 2.195 1.872 3.293 3.771 3.744a28.772 28.772 0 017.486 2.505V28.66a12.663 12.663 0 01-6.796.746 24.504 24.504 0 00-6.881.225c-1.956.436-1.28 3.054.436 3.237l16.238 1.858v-3.364l-4.08.225a1.702 1.702 0 100 3.406c2.335.31 4.671.633 7.035.915l-1.73-1.731c.844-.648.942-.929.31-.845a5.436 5.436 0 01-.69-.14 19.272 19.272 0 00-2.013-.31 11.535 11.535 0 00-4.108.296c-1.717.422-1.407 3.265.422 3.124a21.347 21.347 0 013.42-.07c.998.084 1.955.492 2.968.52 1.604 0 3.194-.788 3.152-2.575a1.745 1.745 0 00-1.266-1.66c-2.49-.339-4.981-.62-7.472-.93v3.406l4.08-.267a1.688 1.688 0 000-3.364l-16.238-1.76.436 3.238c4.855-1.084 9.85 1.07 14.438-1.408a1.633 1.633 0 000-2.814 25.534 25.534 0 00-5.432-2.196c-.59-.155-4.306-.577-4.292-1.266l-1.154 1.534a1371.11 1371.11 0 0020.193-5.222 1.548 1.548 0 000-2.955c-5.629-1.647-11.792.633-17.153-1.69v2.562a44.04 44.04 0 0112.059-4.363c3.87-.97 8.612-1.801 11.862-4.222a1.28 1.28 0 00.253-1.97 4.024 4.024 0 00-2.152-1.323 1.087 1.087 0 10-.577 2.097l-.029.042z" fill="#1F454F"/><path d="M78.684 34.725a2.323 2.323 0 00-1.886-1.717 1.553 1.553 0 10-.816 2.998 67.176 67.176 0 008.302 2.153 1.787 1.787 0 00.943-3.448c-1.28-.422-2.575-.802-3.87-1.182l-.942 3.406a22.186 22.186 0 0010.863.281 1.759 1.759 0 00.774-2.941 22.583 22.583 0 00-10.765-4.673 1.787 1.787 0 00-2.254 1.942 1.79 1.79 0 001.297 1.506l4.053 1.408.957-3.448a125.774 125.774 0 00-16.365-4.068c-2.195-.38-3.166 2.815-.943 3.392a60.499 60.499 0 0012.157 2.055c1.872.084 2.35-3.04.45-3.336-8.442-1.28-16.885-3.335-25.468-3.575-1.9 0-1.816 2.717 0 2.9 3.786.4 7.545 1.025 11.257 1.872a95.04 95.04 0 015.234 1.337c1.224.351 3.757.703 4.222 2.125l2.307-1.788a11.34 11.34 0 00-5.727-2.195c-1.73-.155-1.913 2.42-.394 2.913a18.94 18.94 0 014.531 2.013c1.407.915 2.744-.845 2.167-2.168-1.505-3.377-6.543-3.757-9.653-4.475-4.502-1.027-9.062-1.816-13.62-2.491l-.395 2.814c8.312.388 16.553 1.71 24.569 3.941l.97-3.18a102.293 102.293 0 01-11.664-2.112l-.943 3.392a125.787 125.787 0 0116.35 4.124c2.196.718 3.124-2.716.957-3.448l-4.052-1.408-.478 3.519a19.136 19.136 0 019.118 3.927l.422-3.223c-2.97.698-6.073.596-8.992-.296-2.195-.661-3.095 2.702-.942 3.406 1.28.422 2.56.844 3.87 1.224l.942-3.448c-2.814-.45-5.629-1.055-8.443-1.703v2.998a4.7 4.7 0 011.055-.211.86.86 0 00.83-1.07l.015-.042z" fill="#1F454F"/><path d="M62.938 25.07c6.431.08 12.846.682 19.18 1.801 3.104.526 6.195 1.154 9.272 1.886 2.35.577 6.037.93 7.74 2.815l1.224-2.97c-6.037-.169-11.51-3.391-17.604-3.138a1.759 1.759 0 00-.886 3.265 34.723 34.723 0 0013.973 3.885 1.758 1.758 0 001.505-2.646c-.52-.887-1.829-1.408-2.195-2.379-.366-.971.38-2.28.957-3.124.155-.211.31-.437.478-.648-.576-.267-.506-.21.212.183.717.394 1.182.69 1.773 1.028l4.137 2.42c1.97 1.154 3.447-1.674 1.744-2.983a59.142 59.142 0 00-7.964-5.151 1.702 1.702 0 10-1.717 2.941l7.374 4.518 1.773-3.04c-6.347-3.308-14.395-6.024-21.614-4.602a1.266 1.266 0 000 2.434c3.335.648 6.726.873 10.047 1.661a45.788 45.788 0 019.85 3.547 1.758 1.758 0 002.588-1.968 1.76 1.76 0 00-.815-1.072l-7.43-4.42-1.829 2.97a60.058 60.058 0 017.936 5.194l1.745-2.984c-2.153-1.267-4.221-2.674-6.487-3.814-2.265-1.14-3.32 0-4.559 1.618a7.798 7.798 0 00-1.815 5.095c.043.854.305 1.683.76 2.407.506.802 1.505 1.182 1.97 1.97l1.576-2.674a30.544 30.544 0 01-12.2-3.392l-.887 3.265c6.065-.239 11.539 3.308 17.604 3.11a1.762 1.762 0 001.574-1.087 1.756 1.756 0 00-.35-1.882c-2.252-1.942-5.207-2.463-8.035-3.096-3.307-.76-6.642-1.337-10.005-1.788a118.519 118.519 0 00-20.6-.69.76.76 0 000 1.507v.028z" fill="#1F454F"/><path d="M70.454 20.047c8.88-.099 17.787-1.07 26.638-1.816a1.674 1.674 0 000-3.35c-6.389-.422-12.777-.774-19.137-1.505v3.377a63.016 63.016 0 0119.165.93 1.801 1.801 0 001.407-3.294 43.209 43.209 0 00-16.28-6.01l-.48 3.547a43.79 43.79 0 018.26-.225c1.21.084 5.376 0 5.925 1.52l1.857-2.42c-12.397 1.055-24.625 2.335-36.416 6.558a1.773 1.773 0 00.464 3.476 36.846 36.846 0 0012.256-1.337c1.998-.465 4.01-.985 6.05-1.28 1.225-.184 3.265-.409 3.969.914.563 1.07 2.505.633 2.378-.648-.45-4.433-5.629-3.743-8.823-3.166-5.263.957-10.413 2.604-15.83 1.97l.464 3.49c11.257-3.926 23.443-6.924 35.488-6.15a1.915 1.915 0 001.844-2.42c-1.056-2.815-3.603-3.561-6.333-3.885a53.728 53.728 0 00-11.552 0c-1.858.183-2.645 3.18-.478 3.56a45.304 45.304 0 0115.478 5.63l1.407-3.293a70.92 70.92 0 00-20.122-.83 1.688 1.688 0 000 3.377c6.36.76 12.749 1.169 19.137 1.408v-3.293c-8.977.83-18.04 1.407-26.947 2.955-1.266.211-.942 2.224.31 2.21h-.099z" fill="#1F454F"/><path d="M74.479 20.96c-.422-.14-.845-.295-1.267-.422l-.647 2.322c6.614 1.239 13.326 2.013 19.981 2.914 2.055.281 2.997-2.815.887-3.18a113.175 113.175 0 00-20.305-2.07c-1.872 0-2.463 3.11-.465 3.406a241.035 241.035 0 0115 2.618 46.43 46.43 0 0113.481 4.222 1.882 1.882 0 002.68-1.038c.121-.345.138-.718.05-1.073a5.13 5.13 0 00-2.561-3.28c-1.59-.998-3.293-1.871-4.94-2.814a243.82 243.82 0 00-4.938-2.745 13.985 13.985 0 00-5.22-2.195 1.084 1.084 0 00-.93 1.619 10.963 10.963 0 003.518 2.814c1.407.901 2.815 1.802 4.32 2.688l4.123 2.477c.873.535 2.814 1.267 3.04 2.393l2.729-2.111a49.053 49.053 0 00-13.846-4.391 266.347 266.347 0 00-15.577-2.618l-.464 3.406c6.51.06 13.006.658 19.418 1.787l.45-3.237c-6.683-.76-13.395-1.646-20.107-2.04-1.407-.085-1.66 2.125-.324 2.364l1.618.211c1.28.17 1.407-1.73.296-2.11v.084z" fill="#1F454F"/><path d="M87.088 18.512a48.55 48.55 0 016.543.62 58.72 58.72 0 013.138.618c.483.07.955.198 1.407.38-.098 0-.126-.14 0 0-.21-.281-.168-.802-.225-.239l2.181-1.66c-.619-.155-1.238-.31-1.857-.493l-.915-.296-.464-.154c-.253-.099-.296-.099-.113 0-.59-.352-.548.14.113 1.506l.338-.366c.262-.277.502-.573.717-.887.183-.253.31-.535.493-.802.135-.278.31-.534.52-.76h-1.027c-.323-.197.338.225.437.267.124.072.264.11.407.113.479.07.296 0-.548-.268l-.465-.802v.127l3.082-1.802a3.966 3.966 0 00-3.588-.788 2.519 2.519 0 00-2.224 2.364 1.126 1.126 0 00.83 1.084c.271.047.543.08.817.099a9.458 9.458 0 00.999-.127c.12-.03.246-.03.366 0l.338.127c.562.21-.324-.141.225.098a1.928 1.928 0 002.533-.661 1.888 1.888 0 00-.662-2.534 2.15 2.15 0 00-2.35 0 1.618 1.618 0 00-.802 1.408l.085.605.267-1c-.35.33-.762.588-1.21.76-.442.2-.862.446-1.252.733-1.042.774-1.97 1.773-1.408 3.166a3.476 3.476 0 002.463 1.774 41.96 41.96 0 002.898.774 1.76 1.76 0 002.182-1.661 2.384 2.384 0 00-.76-1.816 3.097 3.097 0 00-.9-.548 5.978 5.978 0 00-.704-.282 19.69 19.69 0 00-3.856-.62 60.206 60.206 0 00-8.12-.38 1.112 1.112 0 000 2.224l.071.099zm-4.6 9.612c-.253-1.675-2.026-2.491-3.504-2.885a48.156 48.156 0 00-6.472-1.084c-2.322-.295-4.658-.507-7.036-.577h-3.504a14.874 14.874 0 00-3.335.52c-.928.226-.999 1.802 0 1.957.954.218 1.923.359 2.899.422h3.067c2.111.085 4.222.17 6.333.352 3.447.31 7.317.338 10.314 2.168a.816.816 0 001.196-.915l.042.042zM32.294 10.928c1.407.366 2.505-.774 3.644-1.408a1.435 1.435 0 00-1.111-2.646c-4.658 1.056-8.204 5.349-10.329 9.388-.59 1.126-1.097 2.294-1.59 3.476a6.672 6.672 0 00-.9 3.153c.267 2.505 3.32 2.575 4.7.957a15.719 15.719 0 001.815-3.35 74.648 74.648 0 011.9-3.645 25.655 25.655 0 014.333-5.869 13.03 13.03 0 016.36-3.518 77.137 77.137 0 018.64-.901l-.788-2.928c-.633.296-1.97-1.252-2.504-1.59a4.22 4.22 0 00-2.646-.69c-1.871.155-3.025 1.69-4.671 2.365l1.14 2.674a16.053 16.053 0 017.908-1.619 5.037 5.037 0 011.9.085c.52.31.38.45 0 1.013a15.622 15.622 0 00-2.21 3.054c-.366.774.478 1.999 1.407 1.337 1.928-1.407 6.206-6.08 2.069-7.6a12.873 12.873 0 00-5.629-.197c-2.195.226-4.221.873-6.445 1.253-1.829.31-1.069 3.35.788 2.815a9.848 9.848 0 002.688-1.408c.788-.506 1.407-.943 2.266-.394a18.775 18.775 0 002.462 1.717 3.672 3.672 0 003.208-.098 1.59 1.59 0 00-.802-2.942c-4.418.394-9.315.268-13.325 2.421a22.517 22.517 0 00-8.359 8.754c-1.182 1.984-2.167 4.081-3.222 6.15-.113.226-1.196 2.21.408 1.675.169-.07.436-1.126.535-1.407.436-1.07.914-2.14 1.407-3.181a20.142 20.142 0 013.504-5.024 16.013 16.013 0 015.192-3.308l-1.83-2.308c-.998.9-2.42 1.802-2.237 3.308a.464.464 0 00.338.436h-.014z" fill="#1F454F"/><path d="M47.436 5.324c-3.35 1.112-6.6 2.505-9.85 3.828-2.21.901-5.206 1.788-5.938 4.405a2.196 2.196 0 001.252 2.815c1.196.422 2.477-.506 3.476-1.041 1.562-.83 3.152-1.619 4.728-2.407a28.965 28.965 0 014.925-2.406 1.407 1.407 0 00-.718-2.576 11.256 11.256 0 00-7.387 6.136c-.535 1.14.365 2.815 1.773 2.308 3.306-1.14 6.261-2.814 9.441-4.222a16.109 16.109 0 014.813-1.407c1.674-.197 3.349.112 5.037.07a.662.662 0 00.465-1.112c-2.308-2.814-7.036-1.703-9.85-.577-3.546 1.408-6.853 3.8-10.68 4.321l1.773 2.308a12.763 12.763 0 015.713-5.292l-1.337-2.294a22.256 22.256 0 01-3.574 1.9l-3.152 1.59c-1.21.62-2.42 1.211-3.63 1.788l-.887.436c.352 1.028.577 1.225.647.563.188-.28.405-.54.647-.774a10.539 10.539 0 012.449-1.238l3.715-1.577c2.42-1.013 4.84-1.984 7.204-3.11 1.28-.605.38-2.73-.957-2.28l-.098-.155z" fill="#1F454F"/><path d="M53.301 8.337c4.602-.591 9.231-1.14 13.847-1.703 3.926-.493 9.02-.647 11.65 2.955l.915-2.265a26.211 26.211 0 00-6.655 1.956c-1.59.69-4.222 1.647-5.136 3.25a2.253 2.253 0 001.9 3.322c2.464.24 4.944.282 7.415.127a1.407 1.407 0 100-2.815c-9.076-.281-18.659-.858-27.214 2.815a1.407 1.407 0 00-.647 1.576c.675 2.125 2.814 1.408 4.221.563a70.984 70.984 0 016.585-2.702c4.433-1.9 8.542-4.222 13.467-4.56 1.97-.14 2.012-3.195 0-3.096-3.18.14-6.375.62-9.54.943-2.823.17-5.603.768-8.246 1.773-1.619.69-.718 3.223.872 3.209 5.811-.07 11.623-.197 17.406-.844 1.745-.183 1.843-2.815 0-2.815-5.797 0-11.609.21-17.406.183l.858 3.209a29.053 29.053 0 017.922-1.534c2.815-.366 5.728-.606 8.556-1.112l-.83-2.984a37.44 37.44 0 00-10.512 4.616c-1.674.943-3.32 1.957-5.037 2.815-.893.505-1.837.915-2.815 1.225-.53.156-1.08.236-1.632.239h-.886c-.535-.155-.62 0-.254.464l-1.027 1.408c8.584-2.52 17.252-2.815 26.13-2.463v-2.815h-4.755a8.435 8.435 0 00-2.224 0l.254.872.422-.267c.387-.17.75-.387 1.083-.647a24.89 24.89 0 018.443-2.703c1.28-.197 1.309-1.787.675-2.575-2.94-3.73-7.908-4.363-12.34-3.814-5.319.675-10.497 2.097-15.732 3.18-.703.141-.549 1.408.169 1.253l.098-.24z" fill="#1F454F"/><path d="M77.9 10.644c-4.04.535-7.923 1.956-11.961 2.618-4.348.717-8.753 1.07-13.129 1.477-8.443.817-16.773 1.816-24.625 5.222l1.619 2.815c2.814-1.788 5.46-3.702 8.344-5.348a83.65 83.65 0 018.837-4.448l-1.618-2.18a37.024 37.024 0 01-9.175 8.022 1.477 1.477 0 00-.295 2.294c2.082 2.21 5.276.605 7.626-.211l5.136-1.802a12.959 12.959 0 004.84-2.252 1.027 1.027 0 00-.731-1.745c-2.533-.183-5.403 1.408-7.767 2.196l-3.856 1.337c-.76.267-2.477 1.154-3.18.408l-.296 2.294a38.993 38.993 0 009.583-8.655 1.408 1.408 0 00-1.618-2.097 145.299 145.299 0 00-17.449 9.345c-1.477.9-.492 3.645 1.239 2.927 7.865-3.307 16.491-4.067 24.906-4.87 4.067-.394 8.147-.83 12.172-1.576 4.024-.746 8.597-1.548 11.862-4.067.619-.479.577-1.858-.465-1.731v.028zM22.474 30.505c3.025 1.97 6.515 4.039 10.272 3.335.452-.159.928-.24 1.407-.239a4.98 4.98 0 011.154.591l2.462 1.309 2.815 1.52c.86.574 1.812.997 2.814 1.253a1.238 1.238 0 001.196-2.07 9.246 9.246 0 00-2.617-1.674l-2.814-1.478-2.491-1.295a6.361 6.361 0 00-2.477-.957 22.17 22.17 0 00-2.814.479 7.428 7.428 0 01-2.42-.253 20.67 20.67 0 01-5.291-2.491c-1.267-.747-2.364 1.168-1.154 1.97h-.042z" fill="#1F454F"/><path d="M43.873 39.398a1.28 1.28 0 002.055-.225c.661-1.07-.422-2.435-1.027-3.251a20.63 20.63 0 00-6.924-5.813l-1.111 2.632a51.604 51.604 0 0013.086 1.914c1.787 0 1.801-2.266.394-2.815a37.071 37.071 0 00-10.849-2.688v3.096a35.512 35.512 0 0011.257-1.843 1.604 1.604 0 00.704-2.66c-3.588-3.434-8.851-2.027-12.763-4.645l-.844 3.083c7.035-.127 14.31-.324 21.107-2.52a1.772 1.772 0 001.055-2.59 12.44 12.44 0 00-5.065-4.545v2.815c3.855-1.717 8.372-.69 12.439-.62 1.168 0 1.21-1.505.253-1.9a18.754 18.754 0 00-13.973-.52 1.687 1.687 0 00-.394 3.04 10.16 10.16 0 013.7 3.462l1.056-2.59C51.5 22.37 44.647 22.608 37.837 22.82a1.66 1.66 0 00-.83 3.082 15.365 15.365 0 006.22 1.97c2.068.338 4.361.564 5.965 2.07l.704-2.66a32.781 32.781 0 01-10.399 1.815 1.548 1.548 0 000 3.096 37.057 37.057 0 0110.075 2.393l.38-2.815a47.946 47.946 0 01-12.312-1.787c-1.534-.423-2.603 1.872-1.112 2.631a20.05 20.05 0 014.222 2.815 32.102 32.102 0 011.716 1.675c.282.296.535.605.802.9l.296.367c.352.59.69.45 1.027-.38a.816.816 0 00-.788 1.407h.07z" fill="#1F454F"/><path d="M67.979 23.116a42.859 42.859 0 009.104 4.151c1.83.577 3.124-2.336 1.323-3.152-5.91-2.66-11.778-5.11-18.293-5.63-2.069-.169-2.378 2.984-.478 3.533a90.826 90.826 0 0021.557 3.293c1.407 0 3.082-.197 3.42-1.9.337-1.703-.873-2.815-1.97-3.758a13.113 13.113 0 00-8.064-2.42v3.898H85.4c-.225-.127-.21-.113 0 0l-.647-2.449c-.228.41-.394.85-.493 1.31a1.211 1.211 0 001.14 1.505c.476.012.95-.05 1.407-.183a1.801 1.801 0 001.253-2.195c-.788-2.477-3.701-1.97-5.742-1.97H74.55a1.956 1.956 0 000 3.898 13.4 13.4 0 013.743.549c.746.239 2.336.872 2.561 1.73V22.3c1.238-.661 1.506-.97.816-.929h-2.012c-.915 0-1.843-.098-2.814-.169a90.66 90.66 0 01-5.488-.577c-3.644-.506-7.275-1.238-10.849-2.082l-.478 3.518c5.811.211 11.355 2.702 16.59 5.01l1.322-3.138a39.204 39.204 0 01-8.611-3.223 1.406 1.406 0 00-1.407 2.392l.056.015zM7.473 79.298a3.04 3.04 0 001.04 1.477c.385.379.821.701 1.296.957.255.135.524.243.802.324l.281.07h.113c.39.189.795.349 1.21.479a5.924 5.924 0 002.265.295c.985-.126 2.097-.774 1.942-1.914a.76.76 0 00-.718-.534 2.717 2.717 0 00-1.083.295l-.155.085c.197-.085 0 0 0 0l-.436.112c-.155 0 .24 0 0 0h-.986l-.238-.084h-.085l-.408-.197-.21-.113c-.156-.098 0 0 0 0l-.071-.084c-.099-.127-.183-.254-.296-.38a5.037 5.037 0 00-.366-.408c-.295-.268-.605-.521-.9-.817a3.63 3.63 0 00-1.309-.943c-.943-.366-1.745.69-1.534 1.534l-.154-.154zM96.76 84.14h.14c.098 0-.113 0 0 0l.422.14c.242.043.486.071.732.085.472.04.949-.002 1.407-.126a3.7 3.7 0 002.293-1.661.981.981 0 00-.154-1.168l.239.394v.422c.084-.38.141-.788-.211-1.055-.352-.268-.704-.085-1.041.084l.422-.113.45.127a.971.971 0 00-1.168.14.247.247 0 00-.098.071l-.38.282s-.24.197-.099.098c.14-.098-.084 0-.112.07l-.437.296-.21.113h-.1s-.21.084 0 0c.212-.085-.084 0-.126 0l-.225.084a2.165 2.165 0 01-.493.14h-.984.394-.24a.758.758 0 00-1.13.443.76.76 0 00.736.965l-.028.17z" fill="#1F454F"/></svg>