<svg width="154" height="193" fill="none" xmlns="http://www.w3.org/2000/svg"><path d="M113.694 88.584c-.985 9.711-1.196 19.493-4.292 28.852a32.93 32.93 0 01-2.814 6.347 27.002 27.002 0 01-1.182 1.83l-.225.324c-.197.253.351-.437 0 0-.352.436-.676.802-1.042 1.182-4.038 4.222-9.85 6.361-15.478 7.698a49.834 49.834 0 01-18.982.859 44.834 44.834 0 01-17.181-6.136 31.15 31.15 0 01-11.384-13.103c-4.222-8.642-4.84-18.662-5.08-28.148-.07-2.815-4.475-2.815-4.404 0 .225 8.923.774 18.226 4.01 26.642a36.86 36.86 0 0010.708 15.481 44.34 44.34 0 0017.04 8.444c12.58 3.266 27.595 2.196 38.866-4.672a24.039 24.039 0 0010.089-12.667 58.567 58.567 0 003.138-12.385 81.26 81.26 0 00.9-20.491 1.404 1.404 0 00-1.372-1.095 1.407 1.407 0 00-1.372 1.095l.057-.057z" fill="#1F454F"/><path d="M34.079 91.752c-.634-2.815-4.292-4.32-6.938-4.222a7.907 7.907 0 00-7.19 5.207c-2.392 5.982.436 13.173 4.798 17.48a18.408 18.408 0 009.33 5.025c2.251.45 3.222-3.012.956-3.449a15.48 15.48 0 01-12.13-12.09c-.534-2.687-.337-6.572 2.267-8.19a4.67 4.67 0 013.363-.493 7.67 7.67 0 013.377 2.027 1.308 1.308 0 002.167-1.267v-.028zm83.023 2.505c1.914-1.055 5.291-3.068 7.219-.957 1.927 2.111 1.294 6.249.464 8.698a20.798 20.798 0 01-4.573 7.234c-1.858 2.055-3.912 4.152-6.755 4.588a1.716 1.716 0 00-1.196 2.097 1.748 1.748 0 002.097 1.196c3.715-.591 6.571-3.532 8.893-6.277a21.935 21.935 0 005.277-10.26c.591-3.448.338-8.444-3.082-10.428-3.419-1.985-7.232-.268-9.85 2.139-1.083.985.296 2.66 1.52 1.97h-.014zM72.2 111.385c1.167 1.168 3.165.633 4.643.506 1.682-.093 3.355-.3 5.01-.619 3.306-.746 4.615-3.448 3.84-6.629a28.472 28.472 0 01-1.026-4.461c-.155-1.76-.07-3.533 0-5.306 0-3.786.084-7.558 0-11.344a1.745 1.745 0 10-3.49 0c0 3.167 0 6.334.098 9.5-.096 3.1-.002 6.201.282 9.289.183 1.281.732 2.547.802 3.842.07 1.295-.915 1.506-2.04 1.689-1.478.225-2.984.38-4.475.647-1.492.268-3.04.24-3.828 1.549a1.124 1.124 0 00.17 1.407l.013-.07zm-14.717-11.007a2.82 2.82 0 001.408-.31c.45-.145.852-.408 1.168-.76.347-.32.608-.721.76-1.168.223-.434.33-.92.309-1.407l-.127-.957a3.716 3.716 0 00-.942-1.605l-.732-.563a3.475 3.475 0 00-1.83-.506 4.222 4.222 0 00-2.56 1.07 3.955 3.955 0 00-1.07 2.56l.127.972c.176.6.5 1.147.943 1.59l.731.577a3.599 3.599 0 001.83.493l-.014.014zm37.945-.013c4.221 0 4.221-6.488 0-6.488-4.222 0-4.222 6.488 0 6.488zm-19.135 25.203h.084l-.267-.268a1.01 1.01 0 00.647.507h.52c.216.014.432.014.648 0 .206.014.413.014.619 0h.155c.174-.015.345-.058.506-.127l.408-.183-.253.099.436-.141c.19-.071.37-.165.535-.281a.79.79 0 00.176-1.161.793.793 0 00-.359-.247 2.209 2.209 0 00-.605-.14h-.45.267a2.916 2.916 0 00-.858-.071 5.983 5.983 0 00-.873.141 4.05 4.05 0 00-.59.169l-.395.155a1.05 1.05 0 00-.605.703l.197-.323-.07.07a.664.664 0 00-.084.821.649.649 0 00.21.206v.071zm10.975 10.841a17.899 17.899 0 00-.76 5.038c-.113 1.689-.084 3.392-.084 5.081v5.08a23.937 23.937 0 00.267 5.222 1.984 1.984 0 003.8 0c.191-1.734.215-3.483.07-5.222 0-1.688-.085-3.391-.1-5.08-.013-1.689 0-3.392-.07-5.081a20.188 20.188 0 00-.633-5.038 1.307 1.307 0 00-2.015-.656c-.224.163-.39.392-.475.656z" fill="#1F454F"/><path d="M89.874 152.578a48.443 48.443 0 0110.455 5.052 45.132 45.132 0 018.106 7.333 46.59 46.59 0 018.879 14.384 25.469 25.469 0 011.913 7.515l.352-.211a3.606 3.606 0 01-1.027 0h-1.337c-1.562 0-3.138.112-4.7.197-5.389.295-10.778.661-16.168.901-10.764.492-21.557.689-32.364.197a181.994 181.994 0 01-35.84-4.968l1.548 2.716c2.815-17.522 19.461-26.98 34.658-32.694a2.348 2.348 0 001.646-2.181v-13.554a2.18 2.18 0 00-4.362 0c0 4.518-.084 9.036-.084 13.554l1.66-2.182c-16.534 6.263-34.615 16.776-37.725 35.875a2.265 2.265 0 001.548 2.73c22.978 5.742 46.83 6.024 70.357 4.827 5.825-.295 11.679-.577 17.504-1.112 1.407-.14 2.815-.295 4.222-.478a4.638 4.638 0 003.067-1.112c1.604-1.717.662-4.729.183-6.699a47.364 47.364 0 00-9.399-18.296c-5.488-6.896-13.565-13.849-22.627-14.919-1.9-.225-1.956 2.52-.422 3.111l-.043.014zm-55.891-55.65a5.91 5.91 0 00-5.629-4.053 4.347 4.347 0 00-3.151 1.407 5.249 5.249 0 00-1.183 2.675 8.936 8.936 0 00.197 3.053c.113.521.55 1.239 1.168 1.239.62 0 .985-.83 1-1.407.013-.577 0-.915 0-1.408v-.155c0-.042 0 .212 0 0v-.31c0-.14 0-.28.07-.421 0-.395 0-.099 0 0a.954.954 0 010-.198c0-.197.084-.394.14-.576.027-.096.06-.19.099-.282.084-.253 0 0 0 0a.636.636 0 01.084-.169c.042-.087.089-.172.141-.253l.085-.113c.07-.14-.07.099-.07.085a.691.691 0 01.196-.212s.296-.239.155-.14c-.14.098 0 0 0 0l.197-.113s.183-.112 0 0c-.183.113.099 0 .127 0l.408-.098s-.211 0 0 0h.619c-.155 0 0 0 0 0h.253c.133.05.27.093.408.126l.225.113c.262.133.511.288.746.464l.155.113.127.084c-.113-.084 0 0 0 0l.253.197c.472.455.986.865 1.534 1.225a.97.97 0 001.407-1.07l.239.197zm82.989 2.477l.239-.14h-.197c.285-.065.556-.18.802-.338.254-.124.518-.227.788-.31l.802-.225c.183 0 .084 0 0 0h.31l.605-.098h.45c.127 0 .112 0 0 0 0 0 .253.07.338.098h.084c.113 0 .113 0 0 0s-.098 0 0 0c.099 0 .084 0 0 0 0 0 0 .085-.07-.098a.5.5 0 00.07.112c.155.197-.084-.24 0-.084.155.38.183.422 0 .126a.337.337 0 000 .127v.127c0 .042 0 0 0 0a3.7 3.7 0 000 .394c.059.181.155.349.281.492 0 0-.168-.253-.112-.14l.141.183a1.136 1.136 0 001.322.098c.354-.234.602-.598.69-1.013a2.04 2.04 0 00-.211-1.408A2.586 2.586 0 00121.671 96a3.63 3.63 0 00-2.209.31 7.38 7.38 0 00-1.787 1.167c-.253.211-.478.437-.717.662a3.757 3.757 0 00-.606.718c-.239.295 0 .788.437.563l.183-.015zm-67.215-.322c1.013-.183 1.407-1.28 1.885-2.026a8.823 8.823 0 011.238-1.408 7.668 7.668 0 011.731-1.083c.31-.141 0 0 .197-.07.197-.071.324-.127.507-.17l.619-.154c.366-.085 0 0 .183 0a6.616 6.616 0 011.055 0h.183l.62.126c.348.087.691.195 1.026.324-.351-.14.254.14.254.14.16.078.316.168.464.268l.464.281s.521.409.24.183c.274.226.533.47.773.732l.24.268.21.295c.24.366.409.76.648 1.112a2.11 2.11 0 003.856-1.632 7.726 7.726 0 00-1.886-3.11 10.13 10.13 0 00-2.434-1.943 9.989 9.989 0 00-6.6-1.126 9.709 9.709 0 00-5.46 3.11 9.163 9.163 0 00-1.702 2.815 3.18 3.18 0 00-.225 1.914 1.632 1.632 0 001.913 1.168v-.014zm39.078-.439a6.36 6.36 0 001.745-1.928c.39-.448.803-.876 1.238-1.28.408-.38-.21.126.24-.198l.421-.267.423-.253.253-.127c.302-.124.612-.228.929-.31l.576-.112h1.253c.19.032.38.079.563.14l.464.155c.197.07-.155-.098.155.07.31.17.633.338.943.535.084.07.365.282.154.1l.45.407c.25.23.484.475.704.732l.141.155c-.099-.127-.099-.127 0 0l.281.436c.22.356.413.727.577 1.112a2.069 2.069 0 002.815.746 2.123 2.123 0 00.745-2.815 9.591 9.591 0 00-9.188-5.77 9.371 9.371 0 00-5.305 2.252c-1.407 1.14-3.237 3.462-2.547 5.376a1.407 1.407 0 001.97.802v.042zm-3.507-15.758c2.124 0 4.108-1.407 6.05-2.153a30.948 30.948 0 016.445-1.66 20.148 20.148 0 015.516-.17 6.52 6.52 0 012.054.606 5.02 5.02 0 011.52 1.407 2.236 2.236 0 003.715-2.153c-1.646-4.701-8.049-4.659-12.073-4.152-2.632.312-5.22.926-7.711 1.83-2.294.844-5.544 1.928-6.769 4.222a1.407 1.407 0 001.253 2.195v.028zM68.471 81.77c-.844-2.223-3.32-3.8-5.347-4.911a20.725 20.725 0 00-6.839-2.322 24.814 24.814 0 00-7.57 0c-2.181.337-5.629 1.013-6.712 3.18a2.45 2.45 0 00.858 3.265 2.406 2.406 0 003.265-.858c-.14.253-.563.281-.099.127l.479-.184c.436-.154.872-.281 1.309-.408.92-.286 1.86-.497 2.814-.633 1.8-.24 3.625-.211 5.417.085 1.89.3 3.737.824 5.502 1.562 1.787.774 3.349 2.195 5.206 2.744a1.406 1.406 0 001.689-1.689l.028.042zm.187 37.173c.548 1.281 3.01 1.478 4.221 1.661 1.7.246 3.42.331 5.136.253a31.121 31.121 0 004.981-.577c1.7-.271 3.35-.793 4.897-1.548 1.66-.9.464-3.209-1.224-2.899-1.689.31-2.927.816-4.418 1.112a35.501 35.501 0 01-4.56.591c-1.52.084-3.04 0-4.559 0-1.252 0-3.335-.605-4.334.324a.927.927 0 00-.14 1.097v-.014z" fill="#1F454F"/><path d="M33.611 89.344a72.928 72.928 0 007.726-29.556l-2.956 1.225a32.362 32.362 0 0020.165 8.979c2.533.183 8.611.802 8.977-2.815.183-1.815-1.322-3.124-2.49-4.222l-5.404-5.207-1.238 2.983c8.035.802 14.353 6.925 21.88 9.331 2.745.873 8.753 2.421 10.357-1.013.83-1.787-.183-3.744-1.407-5.08a50.526 50.526 0 00-5.755-4.744l-.774 2.928c4.644-.634 8.95 2.42 13.255 3.617 3.926 1.098 8.007.535 11.961 1.295a7.035 7.035 0 014.601 2.561 9.683 9.683 0 011.337 5.869c-.084 5.193-.746 10.429-1.14 15.608-.211 2.744 4.222 2.815 4.306 0 .155-3.167.31-6.347.45-9.514.221-2.565.272-5.141.155-7.713-.366-4.616-2.547-8.444-7.134-9.95-4.306-1.407-8.949-.408-13.311-1.492-5.01-1.252-9.583-4.39-14.944-3.73-1.323.17-2.547 1.915-1.238 2.998 1.576 1.31 3.166 2.604 4.728 3.927.281.225 1.702 1.407 1.52 1.76-.717.062-1.437.062-2.154 0a24.468 24.468 0 01-8.963-2.942c-5.741-2.9-11.187-6.474-17.73-7.178-1.562-.169-2.251 1.999-1.238 2.984l3.898 3.828c.647.633 1.308 1.252 1.955 1.9.291.281.573.577.845.887l.436-.55c-1.407-.098-2.941.282-4.376.254a27.634 27.634 0 01-4.222-.394 28.605 28.605 0 01-14.915-7.586 1.746 1.746 0 00-2.955 1.224 92.283 92.283 0 01-6.558 28.472c-.534 1.407 1.703 2.294 2.378 1l-.028.056z" fill="#1F454F"/><path d="M35.25 37.621c-7.823 3.392-12.242 11.26-14.17 19.225a77.277 77.277 0 00-1.744 14.497c-.24 4.996-.324 10.048-1.816 14.862-2.687 8.697-9.061 15.593-13.17 23.573-3.771 7.347-6.135 16.397-2.646 24.278.887 2.012 2.14 4.222 4.222 5.165a4.666 4.666 0 005.037-.802 11.735 11.735 0 002.406-3.589c.31-.591.971-2.266 1.66-2.322l-2.11-2.815a14.077 14.077 0 006.121 15.27 9.547 9.547 0 008.992.985 5.894 5.894 0 002.814-7.768l-3.87 2.251c2.477 5.081 7.402 8.445 12.397 10.823 2.59 1.197 5.629 2.168 8.443.746a5.727 5.727 0 003.04-6.727l-3.462 2.66a29.15 29.15 0 0015.732 5.404c3.04.141 3.025-4.588 0-4.729a24.654 24.654 0 01-13.354-4.743 2.359 2.359 0 00-2.605.188 2.369 2.369 0 00-.843 2.472c.535 1.591-1.927 1.591-2.814 1.408a20.04 20.04 0 01-5.136-2.379 17.77 17.77 0 01-7.43-7.332c-1.294-2.618-4.995-.324-3.87 2.252.718 1.646-2.405 1.871-3.193 1.731a8.055 8.055 0 01-4.222-2.449 9.435 9.435 0 01-2.378-8.853 2.224 2.224 0 00-2.11-2.814c-2.815.197-4.222 2.209-5.502 4.461-.338.591-.9 2.125-1.604 2.421.239-.113-.183-.071 0 0-.76-.338-1.267-1.633-1.619-2.337-3.419-7.036-.506-15.608 3.012-21.927 4.024-7.234 9.371-13.722 12.157-21.617 3.012-8.585 1.717-17.832 2.632-26.74.914-8.91 4.291-18.128 12.1-23.209a.905.905 0 00-.914-1.562l-.183.042z" fill="#1F454F"/><path d="M34.53 41.127c3.01.506 5.417-.859 7.668-2.815 2.603-2.21 4.714-4.349 8.05-5.46 7.471-2.464 15.548-.296 23.104.576 14.353 1.647 31.422 1.844 42.031 13.258 8.598 9.275 9.949 22.968 13.692 34.537a61.29 61.29 0 008.991 17.508c4.672 6.446 7.149 13.807 8.711 21.561a53.179 53.179 0 011.407 13.737 14.261 14.261 0 01-4.785 9.176 47.072 47.072 0 01-4.488 3.856c-.859.662-2.561 2.28-3.771 2.111-.606-.084-.226.141-.493-.563a9.261 9.261 0 01-.281-2.083 4.99 4.99 0 00-2.435-3.87 2.366 2.366 0 00-3.166.844 16.705 16.705 0 01-3.912 4.631c-.647.52-1.139 1.027-1.773.253a5.635 5.635 0 01-.647-3.378 2.362 2.362 0 00-3.982-1.646 52.726 52.726 0 01-6.191 4.799 9.405 9.405 0 01-3.546 1.886 4.306 4.306 0 01-2.421-.845 8.082 8.082 0 00-5.699-1.337c-1.097.24-3.996 2.14-4.615 1.788a2.318 2.318 0 00-3.108.875 2.323 2.323 0 00.772 3.136c2.294 1.407 4.46.352 6.628-.69a2.692 2.692 0 012.814-.155 31.58 31.58 0 003.096 1.548c3.011 1.07 5.699-.337 8.203-1.984a61.745 61.745 0 007.388-5.728l-3.982-1.647c.126 3.786 1.59 8.797 6.36 8.445 3.715-.282 6.853-4.743 8.626-7.614l-3.166.83c-.127 0 .112-.239.098.324.01.193.034.386.07.577.047.773.136 1.544.268 2.308a5.272 5.272 0 002.687 3.659c3.209 1.647 6.698-.718 9.175-2.618 5.854-4.517 11.018-9.725 11.257-17.55a62.42 62.42 0 00-1.309-13.117 75.753 75.753 0 00-3.264-12.3 45.242 45.242 0 00-5.629-10.964 67.064 67.064 0 01-6.149-9.57c-5.868-12.076-6.402-26.15-13.396-37.76-8.372-13.877-24.048-17.889-39.16-19.521-4.982-.549-9.991-.943-14.958-1.619a61.623 61.623 0 00-14.381-.928 21.78 21.78 0 00-11.257 4.123 39.32 39.32 0 00-4.039 3.913c-1.294 1.407-2.66 2.688-4.63 2.674-1.533 0-1.983 2.505-.365 2.815l-.099.014z" fill="#1F454F"/><path d="M69.68 28.686c-4.22-4.222-9.694-7.037-12.185-12.793-.9-2.069-1.801-5.447-.14-7.389a8.16 8.16 0 013.46-1.844 43.42 43.42 0 014.94-1.506c5.628-1.308 12.748-2.11 17.969.775a9.049 9.049 0 014.7 5.883 11.612 11.612 0 01-2.252 8.12 18.49 18.49 0 01-6.036 5.728 35.958 35.958 0 01-8.105 2.815 1.843 1.843 0 00.492 3.617c3.18.366 6.557-1.027 9.287-2.575a23.066 23.066 0 007.177-6.474c4.221-5.813 5.192-13.75-.676-18.803C82.443-.813 73.972-.475 66.91.82a31.684 31.684 0 00-10.793 3.575 8.444 8.444 0 00-3.56 8.528c1.013 8.276 8.555 14.862 15.97 17.691 1.084.408 1.858-1.14 1.098-1.886l.057-.042zM35.813 47.768c-1.407 1.28.535 3.28 1.407 4.222a83.03 83.03 0 006.079 6.108c3.77 3.49 8.006 6.502 13.227 7.121 1.604.184 1.885-2.068.76-2.814a81.322 81.322 0 01-15.943-13.933l-1.815 2.364a449.723 449.723 0 0117.94 9.556l1.154-2.815c-3.953-.774-6.965-4.222-9.85-6.84-3.405-3.025-6.838-6.023-10.145-9.134l-1.14 2.717 21.501.999c1.717.07 2.181-2.815.422-3.068l-10.004-1.407c-1.773-.24-3.574-.423-5.333-.732a7.87 7.87 0 01-.83-.17c-.479 0-.521-.168-.127-.28.127-.437 1.041-.986 1.407-1.281a23.693 23.693 0 0116.295-5.222l-.408-3.054a90.151 90.151 0 00-12.313 3.94 1.42 1.42 0 00.38 2.816 99.889 99.889 0 0122.965 4.222 1.183 1.183 0 10.633-2.28 143.042 143.042 0 00-23.218-4.757v2.815c4.055-1.47 8.189-2.71 12.383-3.716a1.562 1.562 0 00-.422-3.054 27.11 27.11 0 00-11.13 1.858c-3.21 1.28-6.952 3.25-9.119 6.037a3.055 3.055 0 00-.197 3.829c1 1.266 2.688 1.407 4.151 1.576l14.001 1.984.408-3.068-21.5-1.07a1.618 1.618 0 00-1.127 2.73c3.842 3.238 7.57 6.616 11.257 9.937 3.012 2.674 6.051 5.897 10.146 6.7a1.523 1.523 0 101.168-2.816 449.723 449.723 0 00-17.941-9.556 1.52 1.52 0 00-1.83 2.365 84.15 84.15 0 0016.548 14.411l.76-2.814c-4.038-.465-7.457-2.956-10.553-5.419a271.06 271.06 0 01-4.855-3.983c-.577-.492-4.953-3.73-4.53-4.447a.492.492 0 00-.76-.591l.098.014z" fill="#1F454F"/><path d="M46.594 47.982c7.824 1.689 15.633 3.56 23.5 5.038l.38-2.814c-8.204-1-16.422-1.943-24.57-3.322a1.407 1.407 0 00-1.027 2.45c8.753 5.629 19.447 6.74 28.96 10.625l.815-2.984c-5.713-2.223-11.468-4.32-17.18-6.572l-.789 2.913 14.381 5.63c3.18 1.238 8.837 2.449 9.92 6.249l2.815-1.619a122.234 122.234 0 01-9.625-9.275l-1.407 2.505a23.171 23.171 0 0010.089.972 1.52 1.52 0 00.366-2.815 142.25 142.25 0 00-29.888-12.667l-.436 3.223c11.693-.267 23.26 1.534 34.785 3.378a1.736 1.736 0 10.914-3.35 6860.347 6860.347 0 00-30.844-9.134v3.35c12.481-2.196 25.089 0 37.401 2.14 2.181.38 3.124-2.942.93-3.336-8.317-1.52-16.577-3.294-24.738-5.49l-.437 3.252a81.206 81.206 0 0121.276 3.138 82.663 82.663 0 0110.075 3.631 97.025 97.025 0 014.742 2.28c.732.38 1.408.775 2.181 1.183.447.293.917.548 1.408.76.156.067.299.162.422.281.352.38.577.085.661-.887-1.942 1.21-.155 4.293 1.801 3.083a2.706 2.706 0 001.273-1.793 2.71 2.71 0 00-.471-2.148c-1.013-1.689-3.152-2.491-4.826-3.336a88.243 88.243 0 00-38.485-9.5 1.66 1.66 0 00-.45 3.252c8.16 2.195 16.393 4.123 24.695 5.63l.928-3.336c-12.96-2.252-26.144-4.434-39.259-2.154-1.759.31-1.52 2.9 0 3.35 10.286 3.04 20.559 6.122 30.859 9.134l.914-3.35c-11.82-1.843-23.696-3.659-35.699-3.307a1.646 1.646 0 00-.436 3.223 141.165 141.165 0 0129.24 12.117l.352-2.814c-2.85.34-5.738.017-8.442-.943a1.506 1.506 0 00-1.408 2.505 144.571 144.571 0 009.386 9.5 1.674 1.674 0 002.814-1.619c-1.126-4.475-5.853-6.037-9.695-7.487l-17.012-6.404c-1.815-.675-2.59 2.224-.788 2.914 5.727 2.167 11.412 4.461 17.153 6.642 1.871.718 2.631-2.251.816-2.983-9.343-3.758-19.56-4.982-28.424-9.95l-.676 2.49c8.218.873 16.38 2.224 24.54 3.491 1.774.282 2.59-2.35.76-2.815-7.823-1.745-15.745-3.082-23.611-4.616-1.52-.296-2.181 2.013-.647 2.336l-.282.155z" fill="#1F454F"/><path d="M93.846 52.597a1.731 1.731 0 00-2.815.732c-.76 1.632 1.407 2.815 2.463 3.532 4.01 2.421 8.147 4.659 12.214 6.953l1.294-3.054A195.927 195.927 0 0080.9 53.962a1.759 1.759 0 00-.929 3.392c3.715 1.07 7.444 2.153 11.187 3.18a1.759 1.759 0 00.929-3.391c-3.715-1.098-7.458-2.14-11.187-3.181l-.929 3.392a253.94 253.94 0 0126.145 6.629 1.673 1.673 0 002.001-2.14 1.673 1.673 0 00-.721-.914L99.995 57.1l-3.715-1.913c-.62-.31-1.224-.634-1.858-.93-.281-.126-.548-.239-.816-.38-.267-.14-.59-.28-.886.1.83.576 1.745-.69 1.055-1.408l.07.028zm-20.24 7.36a50.515 50.515 0 008.963 6.558l1.28-3.025c-4.22-1.535-8.54-2.815-12.776-4.335-1.844-.648-2.913 2.125-1.309 3.096a42.913 42.913 0 0013.185 5.77 1.73 1.73 0 002.026-.999 1.717 1.717 0 00-.703-2.14 100.258 100.258 0 01-7.557-3.855c-1.21-.69-2.378-1.408-3.602-2.111l-1.815-1.028a6.44 6.44 0 00-.971-.52 2.167 2.167 0 00-1.337 0 1.168 1.168 0 00-.802 1.407 2.73 2.73 0 001.407 1.787c.563.422 1.14.83 1.703 1.225 1.182.816 2.434 1.534 3.687 2.237 2.462 1.408 4.995 2.66 7.57 3.829l1.323-3.139a39.65 39.65 0 01-12.383-5.39l-1.309 3.096c4.222 1.492 8.443 3.054 12.791 4.222 1.759.493 3.011-2.195 1.28-3.026a61.908 61.908 0 01-9.23-5.53c-1.07-.775-2.364.942-1.407 1.829l-.014.042zM40.837 43.013a14.759 14.759 0 00-10.117 2.815l1.407 1.886c1.886-1.816 3.715-3.702 5.629-5.531a1.253 1.253 0 00-.887-2.125c-3.532.154-8.344 1.154-9.709 4.968a2.42 2.42 0 002.477 3.363c2.195-.155 3.236-2.815 4.573-4.222.44-.497.91-.967 1.407-1.407.338-.282 1.407-.718 1.548-1.098l.253-.155-.802-.45c-.085.21-.156.427-.211.647a14.997 14.997 0 00-.746 1.97c-1.013 2.478-2.195 4.884-3.264 7.347a41.067 41.067 0 00-2.547 7.473c-.38 1.788-.83 4.518 1.618 5.01 2.448.493 3.855-2.687 4.826-4.418l4.911-8.867-2.913-1.224a177.722 177.722 0 00-5.952 17.493 1.723 1.723 0 003.321.915c1.604-4.32 3.18-8.641 4.813-12.948l-3.195-.886a38.368 38.368 0 01-5.797 11.005l3.124.409c-1.295-6.25 1.477-12.512-.324-18.719a1.576 1.576 0 00-2.617-.69 55.633 55.633 0 00-6.36 8.037l2.997 1.266a31.871 31.871 0 012.505-7.037l-2.815-1.21a68.668 68.668 0 00-4.221 14.932c-.704 4.223-1.478 9.247 1.07 13.103a1.844 1.844 0 003.334-.436c1.126-5.63 2.238-11.16 3.42-16.734l-3.082-.844a8146.44 8146.44 0 00-2.561 14.144 1404.81 1404.81 0 00-1.21 6.741c-.324 1.802-.535 3.35.732 4.814a1.702 1.702 0 002.659-.338c3.616-6.502 3.377-14.918 8.161-20.801l-2.715-.704a10.489 10.489 0 01-.648 5.165 377.49 377.49 0 01-1.548 5.306c-1.055 3.533-2.251 7.037-3.292 10.541a1.834 1.834 0 003.532.986 110.36 110.36 0 002.631-9.444c.281-1.225-1.534-2.14-2.125-.9a124.987 124.987 0 00-4.038 9.358l3.532.986c1.407-3.913 2.476-7.924 3.574-11.907.943-3.462 2.519-7.36 1.505-10.964a1.634 1.634 0 00-2.955-.38c-4.657 6.235-4.854 14.342-8.527 21.04l2.646-.337c-.324-.366.154-1.787.225-2.195.183-1.014.352-2.027.534-3.04.324-1.914.662-3.828.985-5.742l1.985-11.485c.337-1.984-2.632-2.885-3.082-.844-1.252 5.545-2.575 11.062-3.856 16.607l3.321-.436c-2.265-3.617-1.28-8.318-.577-12.273a74.1 74.1 0 013.673-13.089c.619-1.646-2.083-2.814-2.814-1.21a37.297 37.297 0 00-2.955 7.769 1.647 1.647 0 002.997 1.253 51.918 51.918 0 015.74-7.474l-2.602-.69c1.871 6.15-1.309 12.555 0 18.79a1.716 1.716 0 003.11.407 40.817 40.817 0 006.05-11.836c.662-2.055-2.462-2.815-3.194-.886-1.618 4.32-3.293 8.613-4.94 12.92l3.322.914c1.702-5.925 3.532-11.794 5.713-17.564.633-1.703-2.04-2.815-2.927-1.224l-4.306 7.642-1.168 2.054c-.183.324-1.14 1.549-1.097 1.844l.9.704c.044-.402.11-.801.197-1.196a24.39 24.39 0 01.422-1.746c1.407-5.052 3.982-9.626 5.77-14.524.562-1.534 1.168-3.842-.76-4.715-1.928-.872-4.222 1.408-5.488 2.59a19.347 19.347 0 00-2.153 2.393 5.633 5.633 0 00-.957 1.337c-.422 1.294.676-.352.887-.563a10.257 10.257 0 016.12-1.97l-.886-2.126c-1.83 1.886-3.715 3.702-5.544 5.63-.9.929.338 2.744 1.407 1.886a16.702 16.702 0 018.921-3.21.802.802 0 000-1.604v-.042z" fill="#1F454F"/><path d="M33.98 67.177c-.675 5.362-1.407 10.71-1.97 16.072h3.7c.451-5.066.662-10.175 1.267-15.242.211-1.759-2.814-2.195-3.124-.422a62.037 62.037 0 01-2.476 10.33c-1.112 3.322-2.434 6.7-1.9 10.26l3.054-1.773c-1.71-1.714-3-3.8-3.771-6.094-.577-2.083.196-4.785-2.42-5.63a1.759 1.759 0 00-2.14 1.21 41.589 41.589 0 00-1.73 7.375l3.419.465c.451-4.535.07-9.114-1.126-13.511a1.605 1.605 0 00-3.123.408c.274 5.274.274 10.56 0 15.833-.113 1.774 2.293 2.182 3.151.859a1.112 1.112 0 011.407-.352l.366-2.815a7.034 7.034 0 01-3.602.774 1.689 1.689 0 00-.45 3.308 7.034 7.034 0 005.868-.986 1.83 1.83 0 000-3.096 4.586 4.586 0 00-6.515 1.408l3.152.858c.07-5.278.07-10.541-.24-15.833l-3.123.422a35.612 35.612 0 01.717 12.667c-.225 1.928 3.152 2.406 3.42.464a41.36 41.36 0 011.716-7.375l-2.125 1.21c-.59-.196-.422-.534-.394.226.008.565.05 1.129.127 1.689a11.58 11.58 0 00.915 3.054 31.804 31.804 0 003.588 5.63 1.843 1.843 0 003.405-.915c-.047-1.61.119-3.22.493-4.786.408-1.618.956-3.208 1.407-4.813.95-3.3 1.613-6.676 1.984-10.09h-3.11c-.422 5.108-1.21 10.16-1.787 15.241a1.872 1.872 0 001.857 1.858 1.9 1.9 0 001.844-1.858c.69-5.348 1.224-10.71 1.829-16.072a1.787 1.787 0 00-3.56 0v.042z" fill="#1F454F"/><path d="M20.995 85.627c-3.32 4.025-2.138 9.247-3.63 13.933-1.843 5.743-6.36 10.12-9.442 15.158l2.997 1.267c1.633-3.955 3.42-7.797 4.855-11.837a1.279 1.279 0 00-.904-1.558 1.278 1.278 0 00-.658-.004c-2.28.817-3.307 2.815-4.292 4.94a39.61 39.61 0 00-2.814 7.6 42.935 42.935 0 00-.704 16.509c.268 1.886 3.49 1.407 3.335-.45a92.435 92.435 0 01-.183-14.37 1.617 1.617 0 00-3.166-.422 57.712 57.712 0 00-.956 18.296c.14 1.267 1.829 2.421 2.814 1.182 2.322-2.815 1.97-6.108 2.35-9.5a24.249 24.249 0 014.123-10.78l-3.167-.859-1.688 15.073c-.225 2.097 2.688 2.055 3.349.451 2.364-5.63.858-13.145 5.108-17.931l-2.814-1.168a17.329 17.329 0 01-1.042 6.376l3.448.464a13.791 13.791 0 013.053-9.049l-2.884-.76a13.66 13.66 0 01.731 6.122 1.716 1.716 0 003.35.45 13.16 13.16 0 00-.76-7.501c-.409-1.042-1.985-1.886-2.885-.76a18.592 18.592 0 00-4.123 11.498 1.76 1.76 0 003.447.465 18.4 18.4 0 001-7.305c-.085-1.337-1.844-2.35-2.815-1.182-4.728 5.475-3.39 13.047-6.022 19.38l3.349.45c.544-5.029 1.097-10.053 1.66-15.073.197-1.815-2.322-2.111-3.152-.858a27.166 27.166 0 00-4.221 9.682 32.578 32.578 0 00-.577 4.814c-.085 1.717 0 3.729-1.182 5.123l2.814 1.196a55.126 55.126 0 01.718-17.466l-3.166-.436a92.42 92.42 0 000 14.369l3.349-.45a39.148 39.148 0 01.281-13.849 43.844 43.844 0 011.83-6.544c.647-1.788 1.407-4.616 3.348-5.433l-1.871-1.407a46.785 46.785 0 01-5.404 11.259c-1.055 1.52 1.408 3.392 2.575 1.985a76.002 76.002 0 005.404-7.431 37.622 37.622 0 004.01-7.108c1.956-4.94.211-10.626 2.547-15.41.422-.887-.746-2-1.407-1.127l.084-.014z" fill="#1F454F"/><path d="M18.602 107.077c.17.971.395 1.928.62 2.899.05.285.13.563.239.831l.14.197c.1.141.1.127 0 0 .062.116.11.239.141.366.16.49.372.962.634 1.407a.567.567 0 00.637.272.568.568 0 00.418-.553 6.777 6.777 0 00-.099-1.408v-.76a4.73 4.73 0 00-.197-.858c-.267-.943-.52-1.9-.844-2.815a.9.9 0 00-1.07-.619.913.913 0 00-.62 1.083v-.042z" fill="#1F454F"/><path d="M21.01 110.809a40.484 40.484 0 00-.198-4.884c-.253-1.759-.52-3.504-.816-5.25l-2.814.76a47.769 47.769 0 0013.058 18.297c1.506 1.28 3.673-.817 2.195-2.196a169.141 169.141 0 00-7.387-6.446l-1.464 2.533c4.222 1.506 8.443 3.139 12.58 5.011l1.252-2.942a402.646 402.646 0 00-6.824-2.617 1.677 1.677 0 00-1.734.604 1.672 1.672 0 00-.138 1.83 11.152 11.152 0 01.915 11.625c-.14.268-.394.986-.676 1.14.24.197.254.197 0 0a1.839 1.839 0 01-.464-.619 33.62 33.62 0 01-1.604-3.082 53.845 53.845 0 01-3.124-7.375c-.422-1.252-2.519-1.52-2.814 0a78.23 78.23 0 00-1.14 15.805 1.617 1.617 0 003.222 0 72.655 72.655 0 00-2.364-18.085 1.408 1.408 0 00-2.814 0c-1.97 4.968-3.743 10.134-2.94 15.566a14.414 14.414 0 002.659 6.53 58.4 58.4 0 014.559 5.813l3.081-1.802c-2.082-3.166-4.376-6.164-6.712-9.148-1.055-1.407-2.744.197-2.547 1.478a11.526 11.526 0 004.222 7.276c2.012 1.591 5.052 2.815 6.782.155 1.731-2.66-.422-6.375-1.336-9.092a30.304 30.304 0 01-1.886-11.554H20.53a50.668 50.668 0 003.827 16.522c.647 1.549 3.293 1.577 3.194-.422a51.33 51.33 0 011.407-15.157l-2.912.38a24.422 24.422 0 013.616 14.299c-.085 2.026 2.814 1.928 3.096 0a24.34 24.34 0 00-3.954-15.918 1.617 1.617 0 00-2.913.38 56.312 56.312 0 00-1.66 15.918l3.025-.831a46.815 46.815 0 01-3.588-15.27 1.605 1.605 0 00-3.209 0 36.135 36.135 0 002.899 14.834c.338.887 1.407 2.815 1.041 3.786-.366.971-2.11-.31-2.673-.802a8.824 8.824 0 01-2.814-5.405l-2.547 1.478a68.75 68.75 0 015.783 8.796 1.788 1.788 0 003.21-.482c.128-.44.082-.912-.129-1.319-2.28-3.87-6.135-6.263-7.035-10.936-.9-4.883.929-9.851 2.434-14.397h-2.814a43.214 43.214 0 011.942 17.311h3.222c0-5.165.422-10.26.774-15.482l-2.716.732c1.83 3.406 2.941 7.037 4.475 10.57 1.055 2.477 3.813 4.109 5.896 1.646 3.813-4.531 3.307-12.019.084-16.677l-1.857 2.435c2.265.872 4.545 1.703 6.838 2.533 1.703.619 2.927-2.238 1.239-2.956-4.405-1.885-8.851-3.645-13.396-5.207-1.407-.478-2.702 1.604-1.492 2.59 2.533 2.054 4.967 4.222 7.36 6.46l2.195-2.196a44.512 44.512 0 01-12.369-16.678 1.457 1.457 0 00-2.814.76c.45 3.308.52 6.953 2.547 9.711.366.493 1.266.38 1.252-.337h.014z" fill="#1F454F"/><path d="M22.442 117.349a45.725 45.725 0 018.739 6.066l1.97-2.547a95.346 95.346 0 01-11.483-8.022l-1.871 2.435a87.06 87.06 0 018.64 5.967c2.392 1.9 5.36 4.039 6.318 7.037.956 2.998-.55 6.713-.943 9.936a10.261 10.261 0 001.928 8.107 1.688 1.688 0 002.814-1.633c-1.858-4.912-3.968-9.753-6.107-14.566l-2.645 1.548c1.9 3.223 3.841 6.417 5.895 9.542a12.234 12.234 0 006.121 5.489c1.408.464 2.238-.915 2.083-2.083a24.048 24.048 0 00-3.138-8.628c-1.14-1.97-3.827-.253-2.969 1.732a42.78 42.78 0 005.629 9.232c1.154 1.407 3.123-.183 2.814-1.647a110.886 110.886 0 00-3.194-12.779l-3.138 1.323 4.024 9.317 3.026-1.773c-3.969-7.389-7.613-14.933-11.018-22.589l-2.561 2.562a12.464 12.464 0 014.826 5.362c1.28 2.125 4.222.253 3.237-1.9a44.632 44.632 0 00-3.406-6.432 1.88 1.88 0 00-2.096-.83 1.882 1.882 0 00-1.393 1.773c0 4.011 1.533 8.177 5.15 10.218 1.097.619 2.532-.662 1.8-1.802-1.674-2.589-3.18-5.249-3.193-8.444l-3.504.957a44.527 44.527 0 013.405 6.432l3.237-1.9c-1.59-2.632-3.335-5.292-6.178-6.685a1.885 1.885 0 00-2.589 2.533c3.42 7.642 7.205 15.129 11.257 22.518 1.098 2.027 3.94.253 3.026-1.773l-4.151-9.176c-.803-1.774-3.744-.521-3.153 1.323a99.724 99.724 0 013.237 12.765l2.814-1.647a39.96 39.96 0 01-5.01-8.571l-2.968 1.731a25.708 25.708 0 012.814 7.797l2.083-2.069c-2.477-.69-3.898-3.335-5.207-5.334a271.86 271.86 0 01-5.066-7.994 1.533 1.533 0 00-2.645 1.548c2.097 4.546 3.87 9.205 5.53 13.905l2.814-1.618c-1.955-2.519-.9-6.277-.38-9.078.62-3.307.845-6.643-.914-9.641a24.953 24.953 0 00-6.642-6.614 92.411 92.411 0 00-8.823-6.066c-1.407-.887-3.25 1.281-1.871 2.435a79.696 79.696 0 0012.017 8.627c1.548.858 3.447-1.407 1.97-2.547a38.766 38.766 0 00-10.09-6.01c-1.294-.507-2.138 1.576-.942 2.238l.07-.057z" fill="#1F454F"/><path d="M41.117 132.13a66.486 66.486 0 006.641 5.939l1.66-2.815a6.852 6.852 0 01-3.911-3.11 43.555 43.555 0 01-3.49-6.024l-2.688 2.069a57.896 57.896 0 008.95 7.037 1.743 1.743 0 002.28-.45 1.816 1.816 0 00-.127-2.323 44.966 44.966 0 00-4.025-4.489c-1.111-1.098-3.447 0-2.814 1.646 2.434 6.263 7.697 10.26 13.297 13.61l-.633-2.379-.098.141.619-.633s.732-.127.703 0l-.773-.38-1.408-.662-2.589-1.266-2.814-1.323c-1.112-.535-2.139-.985-3.25-.183-2.013 1.407-.591 3.969.605 5.432a20.442 20.442 0 004.024 3.434l.999-3.715a3.937 3.937 0 01-2.631-1.239 2.065 2.065 0 00-2.452-.27 2.07 2.07 0 00-.968 2.269 5.404 5.404 0 004.996 4.081l-1.407-.591-.521-1.97v.084l1.956-1.492h-.085c-2.603.071-2.617 4.124 0 4.068h.085a2.054 2.054 0 001.745-1.013v-.085a2.125 2.125 0 00-.31-2.463c-.4-.395-.93-.63-1.492-.661h-.154c-.028 0-.141 0-.268-.127a1.417 1.417 0 01-.633-.929l-3.391 1.942a7.548 7.548 0 005.53 2.323 2.016 2.016 0 001.883-1.483 2.011 2.011 0 00-.87-2.233 17.614 17.614 0 01-2.322-1.675 8.174 8.174 0 01-.97-.999 4.267 4.267 0 01-.366-.521l-.141-.239c-.155-.267-.183-.324 0-.169l-.267.943-.817.479.197-.071h-.985c.458.126.898.311 1.309.549l1.548.704 3.096 1.407c1.843.845 4.221 2.407 5.74.268a1.746 1.746 0 00-.619-2.379c-4.685-2.674-9.99-6.122-11.805-11.512l-2.815 1.646a76.27 76.27 0 013.898 4.602l2.14-2.814a52.648 52.648 0 01-8.317-6.446 1.714 1.714 0 00-2.86.892c-.085.4-.024.818.172 1.177a40.965 40.965 0 003.954 6.685 9.291 9.291 0 005.502 4.025 1.758 1.758 0 001.928-.788 1.704 1.704 0 00-.267-2.069 71.454 71.454 0 00-7.5-5.545 1.294 1.294 0 00-1.562 2.026l-.042.057z" fill="#1F454F"/><path d="M41 144.711a6.644 6.644 0 004.362 4.532 1.885 1.885 0 002.064-2.729 1.884 1.884 0 00-1.065-.902 24.457 24.457 0 01-3.954-1.534 1.93 1.93 0 00-2.39.372 1.93 1.93 0 00-.424.754 2.812 2.812 0 002.223 3.603 7.034 7.034 0 004.503-1.211 11.258 11.258 0 003.18-2.744c.45-.563 1.407-2.477 2.378-2.266a1.956 1.956 0 001.042-3.758 18.438 18.438 0 01-5.742-2.969l-.436 2.955c-.183.099.535.155.704.197l1.491.394c.93.254 1.858.535 2.815.817a93.98 93.98 0 015.628 1.928c1.815.689 3.18-1.956 1.914-3.279a41.144 41.144 0 00-8.527-6.657 1.899 1.899 0 00-2.603.675 1.903 1.903 0 00.675 2.604 25.344 25.344 0 005.502 3.026c.918.374 1.858.694 2.814.957.875.108 1.738.301 2.575.577l-.703-.718c-.085-.422-.127-.464-.127-.098l-.099.745-.197 1.506c-.126 1-.267 2.013-.38 3.012l3.476-1.407a30.758 30.758 0 00-5.192-3.491c-1.731-.886-4.658-2.575-6.093-.351-1.21 1.857.14 4.025 1.632 5.221 1.759 1.407 3.673 2.66 5.502 3.983l1.548-3.659a16.07 16.07 0 01-4.503-2.435l-1.928 3.321a32.913 32.913 0 008.654 1.731l-2.026-2.674a10.347 10.347 0 00.155 4.687l4.221-1.759a44.014 44.014 0 01-1.126-2.111 1.911 1.911 0 00-2.886-.457 1.913 1.913 0 00-.59.921 5.49 5.49 0 00.662 3.955 2.292 2.292 0 004.221-1.759 12.797 12.797 0 01-.422-2.914 2.156 2.156 0 00-1.725-2.157 2.166 2.166 0 00-.99.032 12.92 12.92 0 01-6.558-1.224 2.024 2.024 0 00-2.575.506 2 2 0 00.155 2.618 21.628 21.628 0 006.248 3.49 2.012 2.012 0 002.364-1.168 2.04 2.04 0 00-.816-2.505l-3.532-2.561c-.45-.338-.943-.648-1.407-1.014-.141-.126-.479-.591-.634-.619-.098-.211-.126 0-.098.549l-.732.732.211-.099-1.027.268c.456.125.895.305 1.309.535.619.309 1.238.633 1.843.985 1.159.662 2.26 1.42 3.293 2.266a2.085 2.085 0 003.101-.316c.23-.32.365-.698.388-1.092.211-1.745.493-3.518.591-5.263a2.927 2.927 0 00-.745-2.309 3.957 3.957 0 00-2.42-.872 21.352 21.352 0 01-8.992-3.842l-1.928 3.279a37.208 37.208 0 017.669 6.15l1.913-3.279a117.01 117.01 0 00-6.81-2.181c-2.125-.606-4.742-1.816-6.853-.704a1.954 1.954 0 00-.847 2.294c.093.279.248.535.453.746a23.744 23.744 0 007.43 3.997l1.041-3.758c-2.73-.661-4.587 1.14-6.065 3.167a8.268 8.268 0 01-1.8 1.9 8.75 8.75 0 01-1.337.802l-.55.225-.309.099c-.731.084-.59.506.422 1.266l-2.814 1.14a23.23 23.23 0 004.869 1.886l.999-3.631a4.757 4.757 0 01-1.843-.464 5.08 5.08 0 01-1.337-1.408 1.197 1.197 0 00-2.181.915l.098.028zm50.912-4.912l.577-.07-1.407-1.802c-.19.85-.265 1.72-.225 2.59v2.209c0 1.577-.141 3.153-.17 4.743l3.505-.957a7.698 7.698 0 01-.915-3.166l-.591-3.772c-.31-2.013-3.771-1.562-3.574.478.288 2.895.387 5.805.295 8.712a1.843 1.843 0 003.617.493c0-.423.112-.831.154-1.253a1.9 1.9 0 00-1.28-2.266 1.873 1.873 0 00-2.266 1.295 4.082 4.082 0 003.082 4.827 8.081 8.081 0 006.093-1.252 43.654 43.654 0 005.051-3.575 45.154 45.154 0 004.672-4.222 2.1 2.1 0 00-1.08-3.527 2.063 2.063 0 00-1.453.248 14.296 14.296 0 01-10.201 2.674 9.255 9.255 0 01-1.084-.197c-.155 0-.45-.183-.619-.141a1.411 1.411 0 01.577 1.168 6.85 6.85 0 00.844-.619 9.48 9.48 0 011.295-.69 24.52 24.52 0 015.361-1.506l-.971-3.532a39.74 39.74 0 01-8.935.999l.914 3.349c4.137-1.998 8.626-3.335 12.665-5.629a1.51 1.51 0 00.564-1.848 1.508 1.508 0 00-1.718-.882c-4.433 1.252-8.556 3.49-12.89 5.01a1.8 1.8 0 00-.694 3.081c.324.287.74.447 1.173.451 3.318.18 6.644-.177 9.85-1.055 2.293-.591 1.322-4.025-.971-3.533a24.68 24.68 0 00-7.303 2.435 5.348 5.348 0 00-2.814 2.899 2.815 2.815 0 002.096 3.392 19.257 19.257 0 0014.958-2.181l-2.547-3.294a74.297 74.297 0 01-7.036 5.827 16.78 16.78 0 01-3.574 2.294 2.139 2.139 0 01-1.548.169l-.225-.099c-.323-.168 0-.281-.07-.084l-3.602-.493-.17 1.253h3.673a72.031 72.031 0 00-.323-8.712l-3.574.479a26.81 26.81 0 001.759 7.881 1.9 1.9 0 002.124.859 1.942 1.942 0 001.407-1.802c.136-1.629.16-3.265.07-4.898a24.645 24.645 0 00-.196-2.519 8.166 8.166 0 00-.577-2.477 1.41 1.41 0 00-1.96-.54c-.217.13-.396.317-.517.54l-.31.535c-.393.676.085 1.801.972 1.689l.042.014z" fill="#1F454F"/><path d="M100.695 137.012c.394 1.66-1.632 3.237-2.533 4.419a4.997 4.997 0 00-1.238 4.532 1.411 1.411 0 001.428 1.002 1.41 1.41 0 00.598-.172c3.56-1.928 7.12-3.701 10.793-5.376l-1.857-2.463c-2.533 2.688-4.855 5.63-7.261 8.444a1.606 1.606 0 00.549 2.558c.315.135.665.166.999.088 4.77-1.083 8.443-4.152 12.214-7.037l-2.28-2.294a15.795 15.795 0 00-5.052 7.431 1.67 1.67 0 00.428 1.614 1.658 1.658 0 001.613.427 23.107 23.107 0 009.85-6.615c1.154-1.309-.394-3.772-1.998-2.589a24.364 24.364 0 00-6.501 7.037c-1.042 1.717 1.266 3.279 2.659 2.054a28.012 28.012 0 006.403-8.064c.52-.985-.099-2.66-1.408-2.491l-8.696 1.112c-.83.112-6.458 1.407-6.726.197l-.731 1.801a63.392 63.392 0 0010.623-7.923 1.627 1.627 0 00.388-1.795 1.63 1.63 0 00-1.527-1.02 43.19 43.19 0 00-11.778 3.814l1.688 2.885a35.519 35.519 0 0016.253-18.831l-3.166-.872-1.731 4.982 3.152.872c.552-2.154.714-4.389.478-6.6a1.675 1.675 0 00-2.275-1.488 1.672 1.672 0 00-.806.657 6.889 6.889 0 00-1.21 3.054 1.663 1.663 0 00.96 1.946 1.656 1.656 0 002.065-.665l1.857-2.815-3.109-.83c.291 7.046.258 14.083-.099 21.111a1.735 1.735 0 001.496 1.691 1.72 1.72 0 001.175-.262c.348-.225.604-.567.72-.965a19.812 19.812 0 016.009-9.331l-2.913-.774c.676 4.377-1.534 8.571-3.49 12.329a1.777 1.777 0 00.692 2.321 1.769 1.769 0 002.362-.534 13.703 13.703 0 015.375-5.038l-2.702-1.548a17.054 17.054 0 01-1.407 7.332c-.619 1.408.422 3.378 2.167 2.815a17.272 17.272 0 005.629-3.223l-2.547-2.547c-1.492 1.717-3.04 3.377-4.573 5.066a1.801 1.801 0 002.547 2.534c6.233-5.236 7.823-13.708 6.669-21.449-.464-3.124-1.224-8.149-4.502-9.655a4.223 4.223 0 00-4.461.732 55.797 55.797 0 00-5.052 4.757l3.068 1.773a364.876 364.876 0 013.222-8.303c.718-1.745-1.843-2.984-3.025-1.774a142.089 142.089 0 00-4.658 4.983l2.969.788c-1.168-3.814 3.377-5.897 6.121-7.192l-2.364-.957a20.678 20.678 0 01.451 9.641 1.405 1.405 0 00.985 1.731 1.41 1.41 0 001.73-.985 19.606 19.606 0 000-11.26 1.654 1.654 0 00-.357-.637 1.654 1.654 0 00-1.319-.538 1.652 1.652 0 00-.702.204c-4.376 2.013-9.216 5.377-7.922 10.922.088.295.251.563.472.778a1.809 1.809 0 001.702.451c.298-.076.572-.228.795-.441a141.137 141.137 0 004.714-4.926l-3.025-1.773c-1.055 2.814-2.167 5.545-3.265 8.303-.717 1.788 1.844 2.97 3.054 1.788a106.938 106.938 0 013.869-3.617c.985-.887 1.534-1.408 2.238 0a25.94 25.94 0 011.843 8.88c.338 5.7-1.294 11.386-5.741 15.186l2.547 2.533c1.506-1.689 3.011-3.406 4.573-5.052 1.407-1.408-.478-4.096-2.181-2.815a17.571 17.571 0 01-4.503 2.35l2.364 2.365a20.524 20.524 0 001.478-8.811 1.82 1.82 0 00-1.806-1.779 1.813 1.813 0 00-.896.231 18.003 18.003 0 00-6.614 6.348l3.054 1.787c2.434-4.743 4.643-9.598 3.785-15.045-.211-1.407-2.026-1.534-2.899-.76a23.135 23.135 0 00-6.88 10.879l3.391.451c.328-7.047.328-14.084 0-21.111a1.69 1.69 0 00-1.245-1.565 1.688 1.688 0 00-1.865.72c-.619.929-1.224 1.872-1.829 2.815l3.025 1.281a4.982 4.982 0 01.872-2.28l-3.081-.831a15.988 15.988 0 01-.324 5.729 1.645 1.645 0 00.153 1.242 1.639 1.639 0 002.229.617c.378-.214.655-.569.77-.987a702.983 702.983 0 011.745-4.982c.704-2.013-2.434-2.815-3.166-.873a32.092 32.092 0 01-14.775 16.819c-1.942 1.041-.24 3.701 1.689 2.885a53.48 53.48 0 0110.525-3.519l-1.576-2.702a41.932 41.932 0 01-9.948 7.459 1.62 1.62 0 00-.732 1.788c.661 2.913 3.954 2.913 6.318 2.632l12.172-1.408-1.408-2.491a25.729 25.729 0 01-5.938 7.333l2.66 2.054a20.204 20.204 0 015.234-5.897l-1.998-2.589a19.494 19.494 0 01-8.358 5.756l2.04 2.041a14.075 14.075 0 014.123-6.024c1.562-1.407-.718-3.645-2.279-2.294-3.152 2.815-6.628 5.39-10.779 6.333l1.534 2.646c2.49-2.913 5.094-5.77 7.429-8.796.985-1.281-.872-2.815-2.096-2.111a160.084 160.084 0 01-10.638 5.629l2.026.831c-.422-1.619 1.407-3.153 2.223-4.363a5.11 5.11 0 001.084-4.461 1.137 1.137 0 00-1.386-.745 1.142 1.142 0 00-.809 1.35l-.099.014z" fill="#1F454F"/><path d="M123.335 121.153a25.432 25.432 0 01-3.49 11.822l2.955 1.731c.662-1.407 1.239-2.815 1.984-4.124a9.495 9.495 0 012.505-3.448l-.858.225-.76-.45c-.493-.464 0-.605-.268-.099a6.67 6.67 0 00-.225.746c-.152.483-.34.953-.562 1.408a13.79 13.79 0 01-7.036 6.797l2.814 1.14c-1.491-3.687-.07-7.515 1.407-10.991.676-1.647-1.773-2.885-2.898-1.689a98.037 98.037 0 00-9.738 11.456c-1.252 1.83 1.478 3.758 2.983 2.308a17.658 17.658 0 004.574-8.529 1.783 1.783 0 00-.62-1.871 1.777 1.777 0 00-2.8.928 24.155 24.155 0 01-5.727 8.839 1.872 1.872 0 001.309 3.166c3.25-.126 6.079-1.956 8.569-3.87 1.238-.943 2.449-1.956 3.729-2.815a9.545 9.545 0 014.053-1.956l-1.14-1.998a29.754 29.754 0 00-2.927 5.334c-.718 1.674-2.054 3.997-.858 5.728 1.407 2.04 3.7.717 4.995-.605l2.364-2.393 1.168-1.21c.2-.165.384-.349.549-.549.295-.423.295.084-.155 0l-.816-.479-.254-.929c.155 1.14-.956 2.717-1.407 3.786a5.788 5.788 0 00-.239 4.222 1.774 1.774 0 003.405-.943c-.577-2.73 4.222-7.037.676-9.077-1.956-1.154-3.602.549-4.869 1.843l-2.068 2.083c-.38.409-.774.803-1.168 1.197-.169.169-.324.337-.507.492-.183.155-.126 0 .099-.084l.928.253c.226.938.366 1.121.423.549l.098-.366c.099-.366.197-.732.31-1.098.225-.732.464-1.407.717-2.167.521-1.407 1.126-2.815 1.759-4.222a1.404 1.404 0 00-.763-1.851 1.396 1.396 0 00-.728-.091 20.484 20.484 0 00-4.32 1.562 35.574 35.574 0 00-3.926 2.491c-2.378 1.689-4.742 3.406-7.754 3.518l1.309 3.167a26.937 26.937 0 006.529-10.513l-3.419-.943c-.633 2.252-1.506 4.996-3.448 6.488l2.294 2.984c1.548-1.886 2.941-3.885 4.475-5.771a159.687 159.687 0 014.728-5.545l-2.899-1.689c-1.548 4.082-3.166 8.585-1.66 12.934a1.925 1.925 0 002.814 1.14 16.683 16.683 0 009.315-11.681 2.819 2.819 0 00-1.477-3.392c-1.562-.535-2.702.732-3.575 1.844a30.531 30.531 0 00-4.122 7.515c-.732 1.788 2.321 3.082 3.123 1.323a28.784 28.784 0 002.533-13.553c0-.265-.105-.519-.292-.707a1.002 1.002 0 00-1.413 0 1 1 0 00-.293.707l-.014-.028z" fill="#1F454F"/><path d="M130.485 139.688a51.95 51.95 0 00.296 5.349c.225 1.632 2.927 1.562 3.222 0a22.795 22.795 0 012.336-6.714l-3.124-.844c.34 2.776.11 5.591-.675 8.275a1.704 1.704 0 003.109 1.309 23.263 23.263 0 014.559-5.897l-2.912-1.703c-.985 2.59-2.083 5.123-3.11 7.699a1.946 1.946 0 00.503 1.875 1.94 1.94 0 001.875.503c7.993-2.815 10.652-11.484 10.174-19.225-.507-8.36-2.364-17.283-7.233-24.235-1.084-1.534-4.222-1.239-3.996 1.084.577 4.996 1.083 10.006 1.604 15.016.295 2.914 1.407 8.009-1.407 10.106l2.983 1.21a49.423 49.423 0 01-.338-11.625h-3.729a39.314 39.314 0 01-.155 8.05 38.229 38.229 0 01-.633 3.786 50.103 50.103 0 01-.464 1.97c-.085.324-.169.648-.268.971 1.056.254 1.408.155 1.084-.309a5.879 5.879 0 00-.478-1.408 40.823 40.823 0 01-.507-1.871 49.912 49.912 0 01-.76-3.786 38.559 38.559 0 01-.281-7.854h-3.8c-.098 5.7-.52 11.569.31 17.213a1.96 1.96 0 001.871 1.388 1.954 1.954 0 001.872-1.388c.5-3.879 1.314-7.71 2.434-11.456l-2.504.323a32.934 32.934 0 013.264 11.006c.267 1.858 3.18 1.675 3.588 0l3.082-12.666h-3.715c.76 3.912 1.407 7.839 1.843 11.808a2.003 2.003 0 001.734 1.929 1.997 1.997 0 002.178-1.409c.985-3.462 1.956-6.938 2.927-10.4l-3.855-.521a27.342 27.342 0 00.858 8.824 1.974 1.974 0 002.138 1.344 1.969 1.969 0 001.703-1.864 51.67 51.67 0 00-10.961-35.509c-1.112-1.407-3.222-.127-3.293 1.408 0-1.253.83-.69-.239-1a1.963 1.963 0 00-1.675.335 1.955 1.955 0 00-.773 1.523 76.03 76.03 0 01-1.633 12.99h3.574a16.887 16.887 0 01-.562-7.192 1.673 1.673 0 00-.977-1.953 1.675 1.675 0 00-2.077.673c-1.562 2.505-3.138 4.996-4.644 7.529l3.195.873a9.089 9.089 0 011.604-6.291c.844-1.225-.549-2.716-1.844-2.393a6.293 6.293 0 00-4.333 3.561c-.69 1.506 1.238 3.434 2.504 1.928 1.67-1.97 3.34-3.95 5.01-5.939l-2.66-1.548c-.816 2.646-1.66 5.278-2.406 7.937-.535 1.844-1.407 4.012-.676 5.926a2.924 2.924 0 001.785 1.683 2.907 2.907 0 002.437-.276c1.759-1.027 2.997-3.462 4.221-5.038l-3.405-.915c0 3.359-.178 6.718-.535 10.077-.197 2.153 3.082 2.449 3.659.492 1.398-4.691 2.781-9.382 4.151-14.074h-3.687l1.14 8.445c.31 2.308 3.588 1.477 3.785-.507a55.467 55.467 0 00-2.251-21.477l-3.138 1.83a39.406 39.406 0 0111.834 19.788c1.618 6.629 2.364 15.988-3.251 20.998-2.138 1.914.999 5.024 3.124 3.139 6.656-5.926 6.234-16.228 4.32-24.151a44.229 44.229 0 00-13.368-22.42 1.884 1.884 0 00-3.045.622 1.894 1.894 0 00-.093 1.193 52.757 52.757 0 012.013 20.478l3.785-.521c-.394-2.814-.774-5.629-1.168-8.444-.267-1.97-3.208-1.661-3.687 0l-4.08 14.144 3.658.493c.291-3.35.446-6.709.464-10.077a1.857 1.857 0 00-3.419-.929l-1.407 1.984a9.118 9.118 0 00-1.098 1.408c-.525.394-.328.591.591.591a1.987 1.987 0 010-.408c.208-.61.335-1.244.38-1.886.774-3.125 1.576-6.263 2.533-9.345.45-1.408-1.632-2.815-2.673-1.548l-5.01 5.939 2.505 1.928a3.246 3.246 0 012.448-2.027l-1.843-2.392a12.02 12.02 0 00-2.223 7.937 1.727 1.727 0 001.274 1.62 1.727 1.727 0 001.92-.747c1.576-2.505 3.067-5.052 4.573-7.586l-3.053-1.295a22.591 22.591 0 00.211 9.064 1.874 1.874 0 001.787 1.316 1.874 1.874 0 001.787-1.316 82.093 82.093 0 001.914-13.975l-2.505 1.914c2.265.647 4.967 0 5.122-2.717l-3.293 1.408a47.69 47.69 0 019.78 32.778l3.841-.521a23.333 23.333 0 01-.703-7.783 1.97 1.97 0 00-3.856-.52c-.985 3.462-1.998 6.924-2.983 10.386l3.912.535c-.563-4.307-1.239-8.585-2.111-12.835a1.936 1.936 0 00-1.857-1.376 1.944 1.944 0 00-1.858 1.376l-2.955 12.666h3.588a30.692 30.692 0 00-4.488-11.386 1.407 1.407 0 00-2.505.324c-.999 3.786-2.42 7.403-3.532 11.161l3.813.52c-.126-5.629-.422-11.104-.267-16.705.07-2.506-3.687-2.449-3.856 0a42.159 42.159 0 00.634 10.808c.492 2.604 1.154 7.333 4.221 8.093 3.673.887 4.222-4.518 4.601-6.882.605-3.82.789-7.695.549-11.555a1.872 1.872 0 00-3.729 0c-.514 4.21-.462 8.47.155 12.667a2.052 2.052 0 002.104 1.472c.309-.02.61-.11.879-.262 3.56-2.674 4.039-6.967 3.701-11.133-.478-5.84-1.168-11.653-1.674-17.493l-3.983 1.083c3.912 5.968 5.629 13.089 6.332 20.112.62 6.15.24 14.806-6.599 17.452l2.378 2.378c.929-2.59 1.787-5.207 2.744-7.797.633-1.703-1.745-2.815-2.913-1.689a26.402 26.402 0 00-5.037 6.643l3.109 1.323a23.552 23.552 0 00.746-9.19c-.183-1.506-2.251-2.449-3.11-.845a25.685 25.685 0 00-2.673 7.516h3.18a46.155 46.155 0 00-1.14-4.771 1.206 1.206 0 00-1.324-.884 1.215 1.215 0 00-1.054 1.193h.014z" fill="#1F454F"/><path d="M118.17 90.836a14.153 14.153 0 017.035-1.787 5.43 5.43 0 014.602 2.815c.914 1.97.408 4.405.07 6.446a2764.34 2764.34 0 00-1.407 8.599l3.504.464c-.31-2.519-.69-5.01-.943-7.543-.254-2.534-.239-4.842-.465-7.262a5.533 5.533 0 00-.647-2.407 3.827 3.827 0 00-2.181-1.478c-.858-.352-1.407-1.168-2.336-1.407a2.702 2.702 0 00-2.659.69 1.588 1.588 0 000 2.223c2.561 2.013 4.981 4.222 5.628 7.516.648 3.293-.408 6.868-1.266 10.076a1.661 1.661 0 002.026 2.013 4.419 4.419 0 002.814-3.758c.282-2.096.451-4.205.507-6.319.244-4.485.267-8.974.07-13.469l-3.138.423a76.088 76.088 0 005.01 11.4 1.644 1.644 0 002.814 0 4.218 4.218 0 000-4.223 1.534 1.534 0 00-2.814 1.183c.172.453.172.953 0 1.407h2.814a59.433 59.433 0 01-4.742-10.626c-.591-1.59-3.222-1.492-3.138.436a142.81 142.81 0 010 11.26c-.07 1.857-.183 3.701-.324 5.629 0 .521 0 3.237-.689 3.49l2.012 2.027c1.112-3.884 2.125-7.98 1.238-12.02-.886-4.038-3.658-6.769-6.838-8.922l.323 2.477c-.197.225-.295 0 .155.296.28.22.577.417.887.59.45.254 1.28.24 1.59.62.309.38.239 1.196.253 1.66v2.816c.099 3.73.127 7.501.507 11.259a1.828 1.828 0 001.547 1.759 1.761 1.761 0 001.956-1.281c.591-3.349 1.225-6.713 1.731-10.077.45-2.998.619-6.263-1.294-8.824-3.926-5.25-11.257-3.814-15.746-.169-1.238 1.013.352 2.632 1.59 2.055l-.056-.057zM85.611 53.707a6.696 6.696 0 012.814-.703 1.407 1.407 0 00.38-2.745 50.026 50.026 0 00-12.41-2.815c-1.563-.169-1.914 2.435-.38 2.745a93.17 93.17 0 0120.093 6.432c1.731.788 3.25-1.774 1.506-2.576a84.55 84.55 0 01-15.69-9.19l-1.182 2.815 27.003 8.444c1.928.591 2.688-2.336.816-2.998a175.685 175.685 0 01-28.536-13.258l-1.267 2.984a7571.811 7571.811 0 0121.558 4.757 1.603 1.603 0 001.737-2.308 1.604 1.604 0 00-.879-.774 179.4 179.4 0 01-16.196-6.868L83.74 40.59a1096.074 1096.074 0 0127.059 9.331l.872-3.152a56.466 56.466 0 01-18.729-9.148l-1.266 3.012a58.141 58.141 0 0119.306 7.628l1.294-3.083a27.202 27.202 0 01-7.838-4.742l-1.618 2.814c1.562.352 2.702 1.731 3.926 2.703a37.484 37.484 0 0011.736 6.333l.9-3.237c-4.657-1.056-7.781-5.01-11.412-7.811a19.27 19.27 0 00-6.107-3.28c-2.898-.886-6.036-1.055-8.836-2.308-1.858-.83-3.476 1.746-1.633 2.815 5.122 2.913 12.411 1.717 16.605 6.193a27.967 27.967 0 014.939 8.796 52.56 52.56 0 012.94 10.485l2.505-1.914c-6.796-5.024-9.85-13.933-18.194-17.03-1.309-.478-2.392.944-2.125 2.126 1.337 5.742 6.712 8.979 11.581 11.54l1.773-3.04-10.526-4.897c-2.898-1.337-6.064-2.815-9.258-1.563a1.858 1.858 0 00-1.281 1.703c-.267 3.631 3.856 5.94 6.586 7.474 3.264 1.83 6.824 3.25 9.765 5.63l1.703-2.928c-5.976-1.877-11.961-3.753-17.956-5.63-2.138-.647-3.053 2.702-.928 3.35a763.791 763.791 0 0117.955 5.63c1.604.52 3.053-1.802 1.702-2.928a42.714 42.714 0 00-7.936-4.841c-1.407-.704-2.716-1.408-4.01-2.21-1.295-.802-3.49-1.97-3.377-3.575l-1.28 1.69c2.814-1.099 5.867.886 8.442 2.068l8.668 4.04c2.012.928 3.799-1.971 1.773-3.04-4.067-2.126-8.766-4.645-10.033-9.43l-2.11 2.125c3.911 1.323 6.557 4.532 9.033 7.684a43.648 43.648 0 008.359 8.965c1.322.957 2.73-.633 2.504-1.928a53.969 53.969 0 00-3.25-11.062 33.468 33.468 0 00-5.235-9.233c-4.685-5.348-12.017-3.715-17.66-7.036l-1.631 2.814a45.021 45.021 0 008.442 2.421 17.243 17.243 0 016.909 3.66c3.631 3.04 6.952 6.684 11.75 7.754a1.678 1.678 0 002.068-1.168 1.677 1.677 0 00-1.167-2.069 34.817 34.817 0 01-8.443-4.138c-2.336-1.576-4.405-4.222-7.233-4.883-1.534-.366-2.941 1.632-1.632 2.814a30.391 30.391 0 009.273 5.63c1.829.704 2.814-2.125 1.294-3.082a62.537 62.537 0 00-20.122-7.896 1.66 1.66 0 00-1.266 3.012 59.388 59.388 0 0019.531 9.43 1.634 1.634 0 10.872-3.153 1151.17 1151.17 0 00-27.073-9.289c-1.717-.563-2.899 2.14-1.238 2.942a183.21 183.21 0 0016.956 7.178l.858-3.083a3137.096 3137.096 0 01-21.543-4.827 1.632 1.632 0 00-1.252 2.984 175.66 175.66 0 0029.366 13.44l.817-2.998-27.031-8.514c-1.787-.55-2.505 1.843-1.182 2.814a81.355 81.355 0 0015.703 9.134l1.506-2.575a101.975 101.975 0 00-20.854-6.559l-.366 2.815a56.282 56.282 0 0111.665 2.688l.366-2.744a9.99 9.99 0 00-4.137 1.224c-1.477.83-.169 3.012 1.337 2.266v-.014z" fill="#1F454F"/><path d="M89.37 58.395a44.53 44.53 0 0013.41 5.32c1.702.296 3.672-.633 3.306-2.66-.366-2.026-2.814-2.561-4.348-3.138-8.527-3.18-18.081-3.49-26.046-8.191L74.06 52.54a59.738 59.738 0 0019.306 5.08c1.942.183 2.209-2.815.45-3.293l-9.85-2.984c-1.59-.478-5.882-2.364-6.304.591a1.013 1.013 0 001.407 1.126c-.225 0-.126.07.282.07.223.038.44.105.647.198.563.169 1.126.394 1.675.577l3.644 1.196 7.57 2.463.45-3.293a59.09 59.09 0 01-17.673-4.518c-1.857-.802-3.504 1.731-1.632 2.815 6.402 3.673 13.649 4.813 20.713 6.558 1.759.45 3.504.93 5.22 1.506.824.368 1.67.683 2.533.943l.422.197c.802-.704.873-1.013.225-.943a4.034 4.034 0 00-1.252-.225 54.73 54.73 0 01-11.707-3.603c-.971-.436-1.816.915-.845 1.407l.029-.014zm-9.625 1.745a17.578 17.578 0 003.982 6.46 1.43 1.43 0 102.266-1.744 19.817 19.817 0 00-4.067-5.039A1.548 1.548 0 0079.731 62a21.671 21.671 0 007.036 5.25 1.59 1.59 0 002.04-.409 1.562 1.562 0 00-.127-2.083 37.987 37.987 0 00-4.63-3.25 21.235 21.235 0 00-2.574-1.338l-1.224-.478a5.444 5.444 0 00-1.492-.324A1.098 1.098 0 0078 61.21a15.243 15.243 0 002.21 1.562c.731.478 1.49.886 2.223 1.407l.52.352.268.169c-.141-.099 0 0 0 0 .408.31.83.577 1.238.872.408.296.732.507 1.083.775l.254.197c.21.154-.155-.127 0 0l.563.436 1.927-2.491a21.87 21.87 0 01-3.602-2.097l-.352-.254c-.14-.112-.154-.126 0 0l-.225-.183-.802-.675a22.21 22.21 0 01-1.407-1.407l-2.195 2.18a18.701 18.701 0 012.11 2.112 20.057 20.057 0 011.66 2.21l2.266-1.76a15.27 15.27 0 01-3.925-5.305 1.126 1.126 0 00-1.408-.479 1.154 1.154 0 00-.661 1.407v-.098zm-23.744-.492c.185.538.335 1.088.45 1.646l1.056-1.857c-1.014.126-2.04.126-3.053 0a1.604 1.604 0 00-1.408 2.406 16.577 16.577 0 007.74 6.08c1.66.647 2.814-1.717 1.66-2.815a41.74 41.74 0 00-2.814-2.632 1.746 1.746 0 10-2.463 2.478 9.12 9.12 0 002.027 1.646l-.817-1.984v.183l.802-1.042c.591 0 .648 0 .17-.14l-.634-.17-.97-.253a60.703 60.703 0 01-2.238-.633 41.21 41.21 0 01-4.08-1.407 21.207 21.207 0 01-7.037-4.673l-2.223 2.815a37.36 37.36 0 006.572 3.715 35.96 35.96 0 003.799 1.408c1.14.338 2.687.957 3.743.112 2.124-1.703 0-5.052-1.168-6.643a30.259 30.259 0 00-5.249-4.968l-2.054 2.66a73.489 73.489 0 007.838 2.815c2.56.774 5.46 1.844 8.147 1.492 1.168-.14 1.913-1.731.661-2.407-2.35-1.28-5.164-1.59-7.71-2.336a80.456 80.456 0 01-7.628-2.716c-1.533-.648-2.955 1.801-1.646 2.815a34.725 34.725 0 013.912 3.42 12.676 12.676 0 011.491 1.857c.254.363.47.75.648 1.154.08.172.14.35.183.535 0 .253 0 .267 0 0l1.027-.788-.24.07h.915a24.537 24.537 0 01-11.074-5.15c-1.8-1.408-4.221.83-2.589 2.589a24.61 24.61 0 009.61 5.897c1.718.633 3.476 1.154 5.25 1.632 1.772.479 4.333 1.408 5.178-1.027a1.76 1.76 0 00-.802-1.984 6.176 6.176 0 01-1.337-1.084l-2.463 2.477a35.032 35.032 0 012.815 2.576l1.66-2.815a13.311 13.311 0 01-5.882-4.405l-1.407 2.406a13.633 13.633 0 003.856-.338 1.52 1.52 0 001.069-1.857 2.9 2.9 0 00-1.689-2.14c-.844-.38-2.012.24-1.688 1.295l.084.085z" fill="#1F454F"/><path d="M67.332 57.958a59.612 59.612 0 0021.037 5.39 58.86 58.86 0 0010.905-.351c3.954-.507 8.203-2.14 12.157-1.14a1.52 1.52 0 00.803-2.928 54.683 54.683 0 00-14.761-2.547 1.675 1.675 0 00-1.168 2.815 22.157 22.157 0 0016.126 6.755 1.704 1.704 0 00.844-3.152 115.823 115.823 0 01-18.87-12.3l-.352 2.715c1.52-.647 4.081 1.225 5.376 1.872l5.811 2.815 11.257 5.63 1.407-3.266a93.712 93.712 0 01-26.665-13.23v3.252c.816-.535 1.97.155 2.814.464l3.49 1.408a338.79 338.79 0 017.416 3.068 360.244 360.244 0 0114.212 6.53l1.477-3.518a33.972 33.972 0 01-13.973-10.823l-2.181 2.815a41.595 41.595 0 0117.744 13.046L124.771 60a25.577 25.577 0 01-8.991-9.627l-.31 2.463.197-.183-1.407.606c-.816-.07.14.267.492.548.352.282.746.578 1.112.887a34.15 34.15 0 012.237 2.055 33.803 33.803 0 013.954 4.672 38.48 38.48 0 015.207 10.964l3.039-2.336c-2.589-1.126-3.912-3.519-5.319-5.827a18.217 18.217 0 00-5.431-6.263c-1.619-1.055-3.124.943-2.435 2.421 2.646 5.63 5.066 11.442 7.585 17.156l2.997-2.322c-5.46-4.307-9.062-10.133-12.481-16.1a1.956 1.956 0 00-3.56 1.505 61.135 61.135 0 007.725 15.482l3.18-2.463a28.332 28.332 0 01-8.358-13.497 1.971 1.971 0 00-3.842.52 20.306 20.306 0 003.476 10.303c.999 1.618 2.096 3.18 3.138 4.785.478.718.942 1.407 1.407 2.21.267.436.506.9.745 1.407.366.703.183 1.224.943.366l1.984-.535-.239-.07c-2.505-.845-3.588 3.124-1.083 3.954l.239.085a2.025 2.025 0 001.998-.535c1.492-1.745.619-3.519-.324-5.32a55.455 55.455 0 00-3.447-5.503c-2.294-3.364-4.77-6.882-4.883-11.09l-3.841.52a32.462 32.462 0 009.273 15.327c1.604 1.407 4.559-.478 3.18-2.449a61.534 61.534 0 01-7.472-14.538l-3.56 1.506c3.799 6.263 7.626 12.596 13.522 17.128 1.689 1.308 3.307-1.098 2.618-2.604-2.604-5.63-5.319-11.26-7.81-17.015l-2.42 2.434c2.293 1.59 3.461 4.321 4.826 6.671a13.917 13.917 0 005.629 5.925 2.094 2.094 0 002.979-1.145 2.09 2.09 0 00.06-1.19 38.94 38.94 0 00-12.594-19.592c-1.716-1.407-3.968-3.73-6.135-1.843a2.054 2.054 0 00-.309 2.463 29.75 29.75 0 0010.398 11.188c2.125 1.408 3.954-1.562 2.533-3.293a45.881 45.881 0 00-19.7-13.806c-1.505-.563-3.18 1.505-2.181 2.814a38.194 38.194 0 0016.295 12.667c1.998.816 3.447-2.576 1.407-3.519a316.26 316.26 0 00-16.59-7.43c-2.73-1.127-5.46-2.21-8.218-3.266-2.195-.844-4.671-2.012-6.88-.577a1.857 1.857 0 000 3.167 96.41 96.41 0 0027.565 13.51c1.9.578 3.208-2.364 1.407-3.264l-13.776-6.742c-2.195-1.07-4.362-2.21-6.585-3.195a6.585 6.585 0 00-5.629-.295 1.745 1.745 0 00-.351 2.716 121.472 121.472 0 0019.615 12.78l.859-3.14a18.78 18.78 0 01-13.776-5.727l-1.182 2.815c4.712.246 9.388.963 13.958 2.139l.803-2.928c-3.729-.605-7.219.338-10.849 1-3.677.663-7.41.955-11.145.872a59.92 59.92 0 01-21.937-4.518c-1.112-.464-2.11 1.154-.971 1.675z" fill="#1F454F"/><path d="M118.934 73.567c-.534 3.518-.14 7.037-.52 10.597l3.293-.886a7.475 7.475 0 01-.845-3.97 1.768 1.768 0 00-1.051-1.78 1.774 1.774 0 00-2.481 1.78c-.328 3.594-.642 7.183-.942 10.767l.872-1.52h-.141l1.407-.183h-.126l.788.45-.113-.126.451.788c-.141-.366-.141.338 0-.295.084-.324.126-.662.182-.985l.296-1.633.675-3.758 1.407-7.346-3.236.422a38.964 38.964 0 012.519 7.037 18.702 18.702 0 003.644 7.037c1.407 1.548 3.814-.436 2.815-2.182a46.476 46.476 0 01-4.475-11.174l-3.546.97a49.002 49.002 0 006.895 11.907 1.87 1.87 0 002.265.296c1.661-.816 1.253-2.646.873-4.067l-1.14-4.321c-.788-2.928-1.59-5.855-2.378-8.782l-3.645 1.013a70.832 70.832 0 006.53 14.932 2.039 2.039 0 003.7-1.562c-.633-2.477-1.407-4.926-2.124-7.374-.38-1.183-.788-2.379-1.197-3.547a22.325 22.325 0 00-1.533-3.8 1.901 1.901 0 00-3.518.943c.057.757.166 1.51.324 2.252a1.407 1.407 0 002.546.337c.331-.673.613-1.369.845-2.082h-3.645a27.16 27.16 0 001.154 3.574c.394 1.182.788 2.365 1.168 3.561a193.83 193.83 0 012.083 7.22l3.7-1.562a73.23 73.23 0 01-6.388-13.905 1.89 1.89 0 00-3.469-.424c-.247.437-.31.954-.176 1.437l1.985 7.346c.309 1.169.633 2.337.942 3.505l.535 1.928c.084.31.155.633.253.957.183.563 0 .099.169-.225l.676-.662-.155.07 2.265.296a43.177 43.177 0 01-5.994-10.231 1.9 1.9 0 00-2.266-1.281 1.858 1.858 0 00-1.28 2.252 50.742 50.742 0 004.897 12.019l2.814-2.182a15.799 15.799 0 01-2.997-6.178 39.397 39.397 0 00-2.674-7.192 1.773 1.773 0 00-3.222.422c-.591 3.21-1.168 6.418-1.759 9.641-.281 1.576-.605 3.153-.858 4.729-.296 1.9 1.125 3.56 3.081 2.702a1.81 1.81 0 00.873-1.534c.309-3.589.633-7.178.943-10.766h-3.532a10.974 10.974 0 001.322 5.756c.985 1.843 3.617.52 3.237-1.408-.69-3.35-.591-6.797-1.407-10.133-.183-.718-1.408-.802-1.534 0l-.057.113zM23.616 84.068a4.686 4.686 0 00-1.182.985c-.352.45-.661.9-.971 1.407-.507.774-.985 1.534-1.407 2.336a1.858 1.858 0 002.096 2.73c.459-.15.851-.452 1.112-.858 1.14-1.604 2.238-3.223 3.405-4.813l-.281.366c.165-.2.349-.384.549-.549l-.352.282h.113l-.409.168a3.97 3.97 0 00.676-.267l-.38.169h.084a1.59 1.59 0 00.915-.704 1.86 1.86 0 00.155-1.168 1.872 1.872 0 00-1.858-1.407 2.687 2.687 0 00-1.744.69 5.471 5.471 0 00-.845 1.027l-.647.886-2.631 3.364 3.208 1.872c.464-.788.872-1.605 1.28-2.42.254-.508.493-1.014.704-1.549.175-.492.26-1.012.253-1.534a1.239 1.239 0 00-1.857-1.07l.014.057z" fill="#1F454F"/><path d="M25.837 85.038v.225l.113-.45c-.157.282-.211.61-.155.929 0 .281.07.548.127.816.104.494.284.969.534 1.407a6.529 6.529 0 002.027 2.224 1.505 1.505 0 001.534 0 1.478 1.478 0 00.745-1.309 10.109 10.109 0 00-.31-1.604 4.45 4.45 0 00-.224-.605 3.007 3.007 0 00-.254-.578 1.533 1.533 0 00-.52-.52 1.745 1.745 0 00-.802-.211l.886.38a4.45 4.45 0 00-.422-.479 2.53 2.53 0 00-.281-.267 1.673 1.673 0 00-.535-.24.788.788 0 00-.746.155.871.871 0 00-.338.662c.007.476.078.95.211 1.407l.324-1.224a1.69 1.69 0 00-.464 1.07c0 .197.039.393.112.576.05.148.093.298.127.45.087.325.153.654.197.986v-.408.464l2.294-1.309a5.83 5.83 0 01-.957-.548l.281.225a5.344 5.344 0 01-.928-.943l.196.267-.478-.62.197.24a4.909 4.909 0 01-.478-.718c0-.112-.099-.239-.17-.352.071.155.085.184 0 0l-.126-.281a1.21 1.21 0 00-.408-.394l.408.535-.084-.211a.859.859 0 00-1.675.225l.042.028zm8.386 5.615c1.154-.31 1.562-1.408 2.026-2.393.465-.985 1-2.35 1.407-3.547a46.246 46.246 0 001.928-7.248c.48-2.466.785-4.964.915-7.473 0-1.28.098-2.59 0-3.87a6.7 6.7 0 00-.647-3.575 1.408 1.408 0 00-2.28 0 7.617 7.617 0 00-.605 3.575c-.084 1.126-.14 2.252-.253 3.377a87.667 87.667 0 01-1 7.164c-.435 2.379-.998 4.743-1.603 7.037a140.597 140.597 0 01-.901 3.251c-.31 1.084-.774 2.168-.155 3.209a1 1 0 001.126.45l.042.043zM59.72 14.09c0-.52 1.759-1.083 2.096-1.252a34.496 34.496 0 013.096-1.224 31.148 31.148 0 0118.729-.634c2.082.577 2.73-2.35.872-3.124a32.584 32.584 0 00-15.999-2.337c-5.262.563-10.722 2.196-14.676 5.827-.69.647 0 1.985.957 1.647 2.167-.817 3.517-2.674 5.53-3.744a19.542 19.542 0 017.697-2.083 49.241 49.241 0 018.766.127c2.618.267 4.32 2.435 6.769 3.237 1.998.647 2.814-2.505.872-3.153-2.463-.802-4.222-2.688-6.867-2.997a44.26 44.26 0 00-9.259 0c-2.57.196-5.077.884-7.387 2.026a14.41 14.41 0 00-3.096 2.28c-.915.83-1.97 2.21-3.293 2.336l.493 1.83A43.966 43.966 0 0168.979 8.63a29.897 29.897 0 0114.352 2.252l1.253-2.97a33.948 33.948 0 00-15.9-.563 31.404 31.404 0 00-7.43 2.491c-1.914.915-4.433 2.125-3.912 4.63.31 1.506 2.293.957 2.448-.323l-.07-.056z" fill="#1F454F"/><path d="M56.96 13.698a13.67 13.67 0 001.027 5.63 12.666 12.666 0 003.517 4.77c1.605 1.338 3.659 2.084 5.193 3.491 1.534 1.408 2.533 2.9 4.517 3.505a1.675 1.675 0 001.28-3.04 22.515 22.515 0 01-6.684-6.798c-1.07-1.492-2.167-2.984-3.11-4.574a6.743 6.743 0 01-1.407-4.673L59 12.614c.462.444.797 1.003.97 1.619.31.718.634 1.407.958 2.14a52.867 52.867 0 001.984 3.87 55.752 55.752 0 005.08 7.459c1.069 1.337 2.814-.366 2.223-1.717a47.775 47.775 0 01-4.56-15.087l-2.575.351A66.854 66.854 0 0071.313 27.8a1.425 1.425 0 102.477-1.407 48.73 48.73 0 01-3.814-15.904c-.126-1.59-2.546-1.646-2.532 0a55.22 55.22 0 001.111 9.486A50.25 50.25 0 0071.2 29.11c.69 1.703 3.363 1.084 2.814-.788a49.266 49.266 0 01-1.703-8.064c-.281-2.815-.239-5.503-.408-8.248a.76.76 0 00-1.477-.197 25.044 25.044 0 00-.704 8.628c.138 2.934.61 5.842 1.407 8.67l2.815-.789a50.293 50.293 0 01-2.73-8.923c-.633-3.054-.915-6.15-1.407-9.232l-2.435.661c.971 5.784 1.407 11.597 3.814 17.001l2.476-1.407a69.928 69.928 0 01-8.19-15.805 1.309 1.309 0 00-2.518.69 53.12 53.12 0 004.897 16.199l2.223-1.717a50.434 50.434 0 01-5.094-7.403c-.718-1.253-1.407-2.534-1.998-3.856a12.823 12.823 0 00-1.956-3.772 1.407 1.407 0 00-2.294.605 7.715 7.715 0 00.859 5.855 45.129 45.129 0 003.363 5.46c2.18 3.195 4.46 6.404 7.908 8.332l1.266-3.04c-1.407-.408-2.223-1.928-3.292-2.815-1.506-1.266-3.35-1.942-4.953-3.054a11.568 11.568 0 01-4.813-8.36 1.042 1.042 0 00-2.068 0l-.043-.042z" fill="#1F454F"/><path d="M71.019 9.546c1.407 4.588 3.743 9.697 1.407 14.383l2.814.774c.321-5.22.918-10.421 1.787-15.58h-3.053a42.763 42.763 0 01-1.309 19.366l3.307.45c.111-3.49.55-6.963 1.309-10.372.689-2.97 1.407-6.6 3.545-8.909l-2.434-.647a24.958 24.958 0 01-1.027 15.903l3.222.437a64.174 64.174 0 013.926-18.015h-3.152l1.52 8.923 3.278-.915a36.807 36.807 0 00-3.672-8.05c-1.252-2.027-3.011-5.376-5.812-5.165a1.618 1.618 0 00-.802 2.983c3.18 2.337 8.091 2.66 10.455 6.052 1.309 1.872.479 3.617-.675 5.32a38.608 38.608 0 01-4.475 5.221l2.927 1.21a7.319 7.319 0 012.688-4.728l-1.098.464h.183l-1.097-.464c-.634-.816-.45-.591-.915.113l-.62.886c-.464.648-.956 1.267-1.406 1.872-1.028 1.21-2.153 2.322-3.25 3.476l2.813 1.661a6.77 6.77 0 012.21-3.56l-2.66-1.549a9.106 9.106 0 01-2.378 3.406c-1.506 1.407.69 3.476 2.223 2.224a10.428 10.428 0 003.223-4.785c.563-1.59-1.562-2.548-2.66-1.549a12.033 12.033 0 00-3.25 4.898c-.633 1.745 1.688 2.66 2.814 1.661a26.993 26.993 0 004.221-4.87c.943-1.294 2.899-3.49 2.308-5.25a1.83 1.83 0 00-1.815-1.294c-1.013 0-1.858 1.056-2.477 1.773a11.682 11.682 0 00-2.476 5.165 1.717 1.717 0 002.814 1.661 27.894 27.894 0 005.164-6.319 7.39 7.39 0 00.873-7.304c-2.308-4.94-8.218-5.194-12.144-8.15l-.816 2.985c.858 0 1.604 1.491 2.012 2.11.577.873 1.112 1.76 1.604 2.675a36.793 36.793 0 012.59 6.136 1.703 1.703 0 003.278-.915l-1.646-8.88c-.31-1.732-2.66-1.408-3.152 0a74.096 74.096 0 00-4.067 18.887c-.155 1.97 2.631 2.054 3.237.436a28.054 28.054 0 00.675-17.55 1.477 1.477 0 00-2.449-.648c-2.364 2.618-3.363 6.376-4.221 9.711a54.448 54.448 0 00-1.886 11.64 1.69 1.69 0 003.307.45 45.045 45.045 0 001.112-21.111 1.576 1.576 0 00-1.745-1.126 1.604 1.604 0 00-1.407 1.548c-.718 5.32-1.407 10.654-1.745 16.002a1.548 1.548 0 002.814.774c2.52-5.63.521-11.597-2.251-16.677a.985.985 0 00-1.787.746h.169z" fill="#1F454F"/><path d="M38.403 41.001c.506 3.899 6.529 1.21 8.752.718 4.489-.985 8.978-1.858 13.523-2.42 2.223-.282 2.364-3.73 0-3.59-6.445.367-12.876.789-19.32 1.183l.464 3.392c7.402-1.619 14.845-3.125 22.205-4.884 2.082-.507 1.182-3.547-.873-3.167a68.546 68.546 0 01-15 .55l.38 2.814a133.068 133.068 0 0119.925-1.52 84.904 84.904 0 0119.573 2.449 1.717 1.717 0 00.915-3.293c-13.199-3.997-27.397-2.111-40.807-.423a1.407 1.407 0 000 2.815c5.285.45 10.602.38 15.873-.21l-.873-3.168c-7.444 1.408-14.845 3.139-22.26 4.715a1.73 1.73 0 00.464 3.392c6.444-.352 12.889-.675 19.32-1.041l-.479-3.533c-3.349.465-6.684 1.027-9.99 1.745a99.538 99.538 0 00-4.602 1.112l-2.603.746-1.294.394c-.69 0-.859.282-.521.858-.338-1.533-2.997-1.224-2.814.38l.042-.014z" fill="#1F454F"/><path d="M39.431 41.352c-1.14 1.323.197 2.604 1.027 3.674 1.239 1.59 2.435 3.222 3.715 4.756l1.056-2.547c-2.224.296-3.926-.9-5.629-2.238-.929-.746-2.885-.394-2.716 1.126a37.115 37.115 0 003.026 10.978l3.123-1.816c-1.013-1.956-2.124-3.87-3.25-5.77a1.704 1.704 0 00-2.927 0 8.826 8.826 0 003.265 11.104 1.801 1.801 0 002.617-1.055c.464-1.337-.436-2.604-1-3.772l-1.772-3.589c-1.224-2.463-2.434-4.94-3.645-7.403a1.66 1.66 0 00-1.829-.746 1.744 1.744 0 00-1.196 1.577 22.368 22.368 0 001.689 9.851c.999 2.815 2.898 5.532 6.022 6.052A1.675 1.675 0 0042.88 59.1a10.626 10.626 0 00-7.472-5.812 1.674 1.674 0 00-2.097 1.59 2.9 2.9 0 002.167 2.815c1.196.352 2.505-.422 3.617 0a8.937 8.937 0 012.462 2.252 19.545 19.545 0 003.096 2.618 17.417 17.417 0 003.377 1.83 9.173 9.173 0 003.968 1.013 2.56 2.56 0 002.505-2.506 1.97 1.97 0 00-2.35-1.871c-.943.126-1.056 1.407-.52 1.956 0-.9-.001-1.182-.198-.817 0 .1 0 .113-.07 0l.76-.45c-.563.225-1.408-.127-1.97-.31a13.373 13.373 0 01-2.167-.816 16.084 16.084 0 01-4.081-2.815 14.309 14.309 0 00-3.42-2.814 5.388 5.388 0 00-2.18-.45c-.423 0-.83.07-1.239.084-.731 0-.366-.141-.38.281l-2.11 1.605a7.54 7.54 0 015.487 4.292l1.872-2.435c-2.392-.394-3.42-2.688-4.067-4.799a19.045 19.045 0 01-1.266-7.951l-3.025.816 3.039 6.516 1.407 3.068a13.273 13.273 0 011.407 3.251v-.943l-.098.268 2.617-1.056a5.263 5.263 0 01-2.139-6.32h-2.913a53.946 53.946 0 013.054 5.87 1.815 1.815 0 002.476.647 1.844 1.844 0 00.648-2.463 39.413 39.413 0 01-3.026-9.584l-2.335 1.815c2.223 1.408 4.756 3.026 7.514 2.717a1.506 1.506 0 001.055-2.548c-.873-.97-1.815-1.886-2.73-2.815l-1.309-1.323c-.239-.253-1.111-1.407-1.294-1.013.52-.929-.788-2.026-1.52-1.168v.028z" fill="#1F454F"/><path d="M42.708 52.653c3.968-2.815 9.526-1.112 13.65-3.828a1.787 1.787 0 00-.423-3.223 80.405 80.405 0 00-17.18-2.435v3.463c8.604.137 17.2-.575 25.665-2.126 1.745-.323 1.83-3.363 0-3.617a125.863 125.863 0 00-19.39-1.154l.492 3.617a172.423 172.423 0 0124.78-4.827c1.942-.282 1.618-3.124 0-3.603a42.203 42.203 0 00-10.511-1.703l.478 3.49c9.85-2.096 19.785 1.886 28.79 5.419l1.027-3.701a150.536 150.536 0 00-26.876-1.21 1.66 1.66 0 00-.45 3.25 74.06 74.06 0 0024.512 4.63 1.815 1.815 0 00.479-3.56 40.28 40.28 0 00-28.143 1.407c-1.717.732-3.476 1.985-2.941 4.124.535 2.14 2.547 2.815 4.221 3.335a72.26 72.26 0 0015.479 2.745 1.871 1.871 0 00.492-3.66 80.035 80.035 0 00-19.123-1.688c-1.576 0-2.504 2.463-.872 3.209 8.12 3.687 17.139 4.77 25.947 5.362a1.872 1.872 0 00.507-3.66 727.036 727.036 0 01-20.446-4.883v3.04c2.815-1.084 6.572 1.407 9.09 2.533 3.012 1.407 5.967 2.815 8.936 4.222l1.407-3.279c-6.571-2.52-12.228-7.262-17.35-11.977l-1.562 2.674c8.443 1.619 15.858 6.474 23.26 10.584 2.251 1.252 4.221-2.266 2.012-3.434-7.781-4.025-15.661-8.853-24.414-10.246-1.407-.225-2.814 1.506-1.562 2.674 5.77 5.18 11.258 10.387 18.673 13.187 1.886.704 3.208-2.406 1.407-3.279-3.518-1.675-7.12-3.209-10.722-4.7-3.04-1.253-6.628-3.28-9.963-1.985a1.59 1.59 0 000 3.04 705.758 705.758 0 0120.291 5.432l.493-3.659c-8.218-.774-16.534-1.224-24.203-4.616l-.872 3.223a73.357 73.357 0 0118.152 1.844l.506-3.66a70.686 70.686 0 01-11.637-1.787c-.97-.24-1.942-.479-2.814-.774-.352-.099-.718-.282-1.07-.352l-.407-.24-.24.409c.902-.267 1.77-.635 2.59-1.098.872-.31 1.744-.59 2.63-.844a37.79 37.79 0 0121.361.323l.478-3.56a69.416 69.416 0 01-23.625-4.223l-.436 3.252c8.646-.24 17.298.296 25.848 1.604a1.927 1.927 0 001.028-3.701c-9.85-3.744-20.094-7.206-30.774-5.137-2.055.394-1.407 3.363.478 3.49a42.1 42.1 0 019.526 1.745v-3.603a172.156 172.156 0 00-24.78 4.87 1.857 1.857 0 00.493 3.63 134.72 134.72 0 0118.884 1.14l-.492-3.672a133.078 133.078 0 01-24.667 2.28 1.73 1.73 0 000 3.462 69.738 69.738 0 0116.252 2.364l-.422-3.209c-4.222 2.73-9.71 1.014-13.509 4.743-1.07 1.042.352 3.026 1.633 2.125l-.07-.028zm-4 114.449c5.206 2.998 11.257 4.223 17.21 5.123a101.67 101.67 0 0018.292 1.014 162.442 162.442 0 0018.476-1.703c2.973-.441 5.933-.934 8.879-1.478 1.407-.267 2.941-.563 4.404-.859a14.403 14.403 0 004.813-1.407 2.124 2.124 0 00.926-2.354 2.128 2.128 0 00-1.982-1.573 14.616 14.616 0 00-4.376.648 243.594 243.594 0 01-13.255 2.421 156.617 156.617 0 01-17.561 1.717c-5.805.223-11.618.016-17.392-.62-5.91-.647-11.581-2.308-17.42-3.335-1.408-.239-2.337 1.576-.986 2.35l-.028.056zm23.067-19.323a28.8 28.8 0 008.077 1.323c2.701.253 5.431.394 8.147.52a41.906 41.906 0 008.077-.464c2.336-.352 5.966-.479 7.205-2.815a2.421 2.421 0 00-.38-2.885 4.702 4.702 0 00-4.109-.887c-1.253.225-2.505.535-3.771.746a38.472 38.472 0 01-7.317.493c-2.618 0-5.235-.268-7.852-.282a28.168 28.168 0 00-8.077.577 1.941 1.941 0 00-.979 2.997c.243.333.586.58.979.705v-.028z" fill="#1F454F"/><path d="M75.536 149.737a2.658 2.658 0 00-3.602.971c-.25.419-.466.856-.647 1.309-.288.636-.537 1.29-.746 1.956a6.01 6.01 0 001.548 6.544 4.225 4.225 0 003.7.873 10.328 10.328 0 003.082-1.52c1.872-1.21 3.687-2.984 3.588-5.39a6.892 6.892 0 00-1.323-3.575 8.127 8.127 0 00-2.546-2.632 3.283 3.283 0 00-3.884.38 2.282 2.282 0 00-.788 2.111 1.618 1.618 0 001.928 1.225c.316-.097.605-.265.844-.493l.267-.324-.084.099c.183-.183-.338.225 0 0 .098-.071.253 0 0 0h.14-.14c.323.169-.183-.127.169 0 0 0 .267.183 0 0l.239.225a7.3 7.3 0 01.549.591c.332.382.625.797.872 1.239l.169.309v.085c.12.258.201.533.24.816 0-.099 0-.211 0 0v.352c0-.352 0 0 0 0s-.17.45-.085.267c.084-.183-.113.183-.113.183a2.233 2.233 0 01-.155.239c-.225.38.127-.126 0 .071l-.253.267a5.8 5.8 0 01-.436.408l-.183.155-.267.197c-.45.296-.915.577-1.407.845-.226.14-.62.351-.76.422.154-.071-.366.112-.31.098.056-.014-.507.071-.253 0h-.45c.295.071 0 0 0 0l-.183-.112c.126.098.14.112 0 0-.141-.113-.17-.155-.268-.24-.098-.084.07.155-.098-.126a2.481 2.481 0 01-.155-.253s-.211-.451-.099-.141a4.22 4.22 0 01-.197-.718c.07.352 0 0 0-.127a4.884 4.884 0 010-.647 3.28 3.28 0 01.127-.662 7.17 7.17 0 01.267-.886 9.96 9.96 0 01.662-1.591l.14-.253c.113-.155.113-.169 0 0l.113-.098-.183.126h.183a.512.512 0 01-.324 0 1.448 1.448 0 001.9-.774 1.45 1.45 0 00-.774-1.9l-.014.099z" fill="#1F454F"/></svg>