<svg width="134" height="189" fill="none" xmlns="http://www.w3.org/2000/svg"><path d="M106.298 83.928c-.985 9.711-1.211 19.493-4.222 28.852a32.957 32.957 0 01-2.814 6.347 22.52 22.52 0 01-1.168 1.83c-.07.112-.155.211-.24.323-.084.113.367-.436 0 0a17.29 17.29 0 01-1.055 1.183c-4.024 4.222-9.85 6.361-15.478 7.698a49.833 49.833 0 01-18.982.859 44.82 44.82 0 01-17.181-6.137 31.138 31.138 0 01-11.384-13.103c-4.151-8.641-4.84-18.662-5.08-28.147 0-2.815-4.474-2.815-4.404 0 .225 8.922.76 18.225 3.996 26.642a37.114 37.114 0 0010.779 15.579 44.496 44.496 0 0017.054 8.445c12.566 3.265 27.594 2.195 38.865-4.673a24.09 24.09 0 0010.089-12.666 60.268 60.268 0 003.138-12.385 81.314 81.314 0 00.901-20.492 1.405 1.405 0 00-1.372-1.095 1.41 1.41 0 00-1.372 1.095l-.07-.155z" fill="#1F454F"/><path d="M26.657 87.094c-.647-2.815-4.306-4.32-6.951-4.222a7.908 7.908 0 00-7.177 5.207c-2.392 5.982.437 13.173 4.785 17.48a18.503 18.503 0 009.343 5.024c2.251.451 3.208-3.011.943-3.448a15.476 15.476 0 01-12.116-12.09c-.548-2.687-.337-6.572 2.266-8.19a4.657 4.657 0 013.363-.493 7.555 7.555 0 013.363 2.027 1.322 1.322 0 002.181-1.267v-.028zm83.101 2.506c1.914-1.055 5.291-3.067 7.219-.956 1.928 2.11 1.295 6.249.464 8.697a20.992 20.992 0 01-4.573 7.235c-1.857 2.054-3.912 4.151-6.768 4.588a1.7 1.7 0 00-1.182 2.097 1.744 1.744 0 002.097 1.196c3.714-.591 6.571-3.533 8.893-6.277a21.944 21.944 0 005.276-10.26c.591-3.448.338-8.444-3.081-10.429-3.42-1.984-7.233-.267-9.85 2.14-1.07.985.309 2.66 1.534 1.97h-.029zm-44.953 17.128c1.168 1.168 3.152.634 4.644.507 1.681-.094 3.355-.3 5.009-.619 3.307-.746 4.615-3.448 3.841-6.63a28.494 28.494 0 01-1.027-4.46c-.154-1.76-.07-3.533 0-5.306 0-3.786.085-7.558 0-11.344a1.745 1.745 0 10-3.49 0c0 3.167 0 6.333.1 9.5a75.797 75.797 0 00.28 9.289c.183 1.28.732 2.547.788 3.842.057 1.295-.9 1.506-2.026 1.689-1.491.225-2.983.38-4.475.647-1.491.268-3.053.239-3.827 1.548a1.112 1.112 0 00.169 1.408l.014-.071zM50.086 95.721c.488.021.973-.086 1.407-.31.45-.145.853-.407 1.168-.76a2.65 2.65 0 00.746-1.167c.238-.43.35-.918.324-1.408l-.141-.957a3.548 3.548 0 00-.929-1.604l-.732-.563a3.517 3.517 0 00-1.829-.507 2.617 2.617 0 00-1.407.324 2.64 2.64 0 00-1.168.746 2.674 2.674 0 00-.76 1.168c-.223.434-.33.92-.31 1.407l.127.971c.17.603.496 1.152.943 1.59l.732.578a3.602 3.602 0 001.83.492zm37.951-.012c4.221 0 4.221-6.488 0-6.488s-4.221 6.488 0 6.488zm-21.756 20.152a3.474 3.474 0 002.505.746c.746 0 1.506.085 2.266.07.752 0 1.503-.042 2.251-.126a16.94 16.94 0 002.35-.549 1.139 1.139 0 00.816-1.253 1.154 1.154 0 00-1.126-.999c-.802 0-1.407-.155-2.251-.155h-4.348a3.531 3.531 0 00-2.505.605 1.1 1.1 0 000 1.52l.042.141zm2.669 5.051h.084l-.267-.268a1.01 1.01 0 00.647.507h.52c.216.014.433.014.648 0 .206.014.413.014.62 0h.224c.17-.012.338-.055.493-.127l.422-.183-.253.099.436-.141c.188-.074.367-.169.535-.281a.794.794 0 00.35-.762.787.787 0 00-.533-.646 2.248 2.248 0 00-.605-.141h-.45.267a2.95 2.95 0 00-.859-.07 5.851 5.851 0 00-.872.141 4.045 4.045 0 00-.591.169l-.394.155a1.047 1.047 0 00-.605.703l.183-.324v.071a.659.659 0 00.14 1.027l-.14.071zm10.922 10.839a17.906 17.906 0 00-.76 5.039c-.113 1.688-.085 3.391-.099 5.08-.014 1.689 0 3.392 0 5.081a23.14 23.14 0 00.268 5.221 1.987 1.987 0 001.9 1.412 1.985 1.985 0 001.899-1.412 25.88 25.88 0 000-5.221c0-1.689 0-3.392-.084-5.081-.085-1.689 0-3.392-.085-5.08a18.961 18.961 0 00-.633-5.039 1.296 1.296 0 00-2.009-.663 1.296 1.296 0 00-.468.663h.07z" fill="#1F454F"/><path d="M82.471 147.921a48.415 48.415 0 0110.455 5.053 46.108 46.108 0 018.106 7.332 46.61 46.61 0 018.879 14.384 25.477 25.477 0 011.913 7.515l.352-.211c-.341.05-.687.05-1.027 0h-1.337c-1.562 0-3.138.113-4.7.197-5.39.296-10.778.662-16.182.901-10.75.492-21.543.69-32.364.197a181.925 181.925 0 01-35.797-4.926l1.533 2.716c2.815-17.522 19.475-26.979 34.658-32.693a2.35 2.35 0 001.66-2.182c0-4.518-.084-9.035-.084-13.553a2.18 2.18 0 00-4.348 0c0 4.518-.084 9.035-.084 13.553l1.66-2.181c-16.534 6.263-34.616 16.776-37.725 35.874a2.267 2.267 0 001.548 2.73c22.978 5.743 46.815 6.024 70.356 4.828 5.84-.296 11.694-.577 17.519-1.112 1.407-.141 2.814-.296 4.222-.479a4.642 4.642 0 003.067-1.111c1.59-1.717.661-4.729.183-6.7a47.38 47.38 0 00-9.4-18.296c-5.487-6.896-13.564-13.848-22.626-14.918-1.9-.225-1.956 2.519-.422 3.11l-.015-.028zM26.586 92.272a5.925 5.925 0 00-5.628-4.053 4.347 4.347 0 00-3.152 1.407 5.378 5.378 0 00-1.197 2.674 9.305 9.305 0 00.211 3.054c.113.52.55 1.239 1.168 1.239.62 0 .971-.83 1-1.408.028-.577 0-.915.07-1.407v-.155c0-.042 0 .211 0 0a2.025 2.025 0 000-.31v-.422c0-.394 0-.098 0 0a.477.477 0 010-.197 3.84 3.84 0 01.14-.577l.085-.281c.098-.254 0 0 0 0s0-.141.084-.17a2.26 2.26 0 01.141-.252.313.313 0 000-.113v.084s.14-.169.183-.21c.042-.043.296-.24.155-.141-.14.098 0 0 0 0l.197-.113s.183-.113 0 0c-.183.112.098 0 .127 0l.408-.099s-.212 0 0 0h.844l.422.127.225.113c.262.133.511.288.746.464l.155.113.126.084c-.112-.084 0 0 0 0l.493.352c.48.451.998.861 1.548 1.224a.97.97 0 001.407-1.07l.042.043zm82.989 2.478l.239-.142h-.211c.286-.062.558-.176.802-.337.26-.122.528-.225.802-.31l.802-.225c.183 0 0 0 0 0h.31l.591-.099h.464c.127 0 .113 0 0 0 .084 0 .267.07.352.099h.084c.113 0 .113 0 0 0-.112 0-.084 0 0 0 .085 0 0 0 0 0s0 .084-.07-.099c.018.04.042.079.07.113.141.197-.084-.24 0-.085.155.38.169.423 0 .127a.337.337 0 000 .127v.127c0 .042 0 0 0 0a3.699 3.699 0 000 .393c.06.182.155.35.282.493 0 0-.169-.253-.113-.14l.141.182a1.137 1.137 0 001.322.099c.354-.234.602-.598.69-1.013a2.04 2.04 0 00-.211-1.408 2.571 2.571 0 00-1.632-1.309 3.633 3.633 0 00-2.21.31 6.898 6.898 0 00-1.787 1.168c-.253.211-.492.436-.717.662a2.434 2.434 0 00-.324.337 4.098 4.098 0 00-.281.38c-.24.296 0 .788.436.563l.169-.014zm-67.215-.324c1.013-.183 1.407-1.28 1.885-2.026.36-.509.77-.98 1.224-1.408a8.134 8.134 0 011.745-1.083c.296-.141 0 0 .183-.07a4.28 4.28 0 01.507-.17l.633-.154c.366-.085 0 0 .169 0a6.842 6.842 0 011.07 0h.182l.62.126a8.71 8.71 0 011.026.324c-.351-.14.24.14.254.14l.464.268.45.281s.521.409.254.184c.274.225.533.47.774.731l.239.268.21.295c.24.366.409.76.648 1.112a2.11 2.11 0 003.87-1.675 7.756 7.756 0 00-1.9-3.11 9.848 9.848 0 00-2.42-1.942 9.989 9.989 0 00-6.6-1.126 9.708 9.708 0 00-5.46 3.11 9.163 9.163 0 00-1.702 2.815 3.18 3.18 0 00-.225 1.914 1.619 1.619 0 001.914 1.168l-.014.028zm39.076-.437a6.361 6.361 0 001.745-1.928c.39-.449.803-.877 1.238-1.281.408-.38-.225.127.24-.197l.421-.267.422-.254.254-.126c.302-.125.612-.228.928-.31l.577-.113h1.253c.19.032.379.08.563.141l.464.155c.197.07-.169-.099.155.07.323.17.633.338.942.535.085.07.366.281.141.099.17.126.31.267.465.408.248.23.483.474.703.732l.127.154c-.085-.126-.085-.126 0 0l.281.437c.22.355.413.727.577 1.112a2.068 2.068 0 002.814.745 2.11 2.11 0 00.732-2.814 9.57 9.57 0 00-9.188-5.77 9.456 9.456 0 00-5.305 2.251c-1.407 1.14-3.223 3.462-2.533 5.376a1.407 1.407 0 001.97.803l.014.042z" fill="#1F454F"/><path d="M20.774 83.295c.366-5.01.394-10.063.633-15.101.084-1.703-.155-4.222 1.66-5.08a18.3 18.3 0 012.505-.69 23.48 23.48 0 003.194-1.323c3.955-1.943 7.43-4.659 11.581-6.25a44.134 44.134 0 0112.031-2.63c8.738-.733 17.49.323 26.159 1.238 8.668.914 17.842.97 25.792 4.405a18.984 18.984 0 015.812 3.659c1.787 1.801 2.111 4.42 2.519 6.812a61.08 61.08 0 01.352 17.1c-.31 2.73 3.968 2.702 4.221 0a63.805 63.805 0 00-.225-16.214c-.231-2.52-.795-5-1.675-7.374a12.327 12.327 0 00-4.488-5.123c-7.726-5.545-17.871-5.953-26.975-6.882-9.667-1-19.433-2.379-29.17-1.9-4.701.17-9.358.97-13.846 2.378-4.616 1.534-8.373 4.124-12.496 6.629a20.702 20.702 0 01-3.827 1.914c-.957.338-1.97.535-2.913.957a6.178 6.178 0 00-3.518 5.447 67.204 67.204 0 00-.154 8.444c-.008 3.21.147 6.418.464 9.612a1.154 1.154 0 002.308 0l.056-.028z" fill="#1F454F"/><path d="M19.362 84.956c5.7 1.408 11.68-.633 17.182-2.11a78.53 78.53 0 0118.911-2.506c11.961-.267 24.119-.704 36.009.985a71.76 71.76 0 0119.503 5.39c2.716 1.225 5.094-2.814 2.35-4.038-11.257-5.039-23.443-6.686-35.671-7.038-6.15-.168-12.313 0-18.462 0a83.471 83.471 0 00-19.7 2.182c-3.306.887-6.5 2.069-9.765 3.068a72.454 72.454 0 01-10.357 2.238c-.97.14-.858 1.618 0 1.83zm3.931-23.927c2.04-7.699 2.124-16.059 7.753-22.322 5.29-5.897 13.424-8.134 20.882-9.851 16.154-3.646 35.08-3.927 47.842 8.219 5.812 5.53 9.71 13.046 9.513 21.181 0 2.815 4.221 2.815 4.291 0 .493-17.03-14.155-30.104-29.69-33.848-9.583-2.308-19.602-1.73-29.198.127-8.316 1.59-17.238 3.786-23.921 9.331-7.486 6.263-10.259 17.381-9.949 26.74a1.225 1.225 0 002.406.324l.07.099z" fill="#1F454F"/><path d="M69.601 23.987c-5.628-1.07-12.143.113-16.379-3.701a2.337 2.337 0 01-.858-1.408c-.084-1.013 1-1.731 1.97-2.04 5.023-1.647 10.568.647 14.662 3.996a42.131 42.131 0 01-2.392-18.662c.113-1.14 1.041-2.674 1.984-2.012a1.703 1.703 0 01.52 1.238c.873 6.63 1.492 13.3 1.858 19.971a52.319 52.319 0 012.378-11.259 17.719 17.719 0 016.783-9.05c1.562 3.561.422 7.699-.915 11.358a109.47 109.47 0 01-4.334 10.274A70.815 70.815 0 0191.595 5.255c-1.041 7.248-7.36 12.413-13.213 16.818a50.196 50.196 0 0114.48-3.18c1.224-.1 2.814 0 3.194 1.224.548 1.548-1.52 2.66-3.138 2.941a48.41 48.41 0 01-17.322-.211" fill="#1F454F"/><path d="M69.42 22.018A36.098 36.098 0 0156.404 7.944c-.24-.465-.464-1.07-.113-1.408.352-.337 1.21-.126 1.717.254a44.433 44.433 0 018.724 9.95 949.088 949.088 0 013.532 4.968M23.787 81.536c0-2.069.324-4.137.436-6.206.113-2.07.155-3.87.268-5.813.032-1.74.192-3.476.478-5.193.14-.662 1.407-2.815 0-2.97-1.407-.154-1.97 2.435-2.167 3.364a27.873 27.873 0 00-.52 5.18 44.698 44.698 0 00.112 5.826c.197 1.984.69 3.884 1.055 5.84 0 .17.282.127.296 0l.042-.028zm5.737 1.432c.393-1.974.581-3.983.563-5.996.127-1.9.225-3.814.366-5.728.14-1.914.295-3.8.464-5.714.141-1.703.507-3.363.69-5.052 0-.422-.493-.648-.83-.465-1.408.845-1.802 2.815-1.998 4.223a126.847 126.847 0 00-.704 6.08c-.183 2.026-.366 4.11-.479 6.164a25.22 25.22 0 000 6.432.985.985 0 001.9 0l.028.056zm8.754-30.003a21.323 21.323 0 00-1.633 5.63 22.302 22.302 0 00-.352 3.053 8.446 8.446 0 00.183 2.956.858.858 0 001.647 0 5.63 5.63 0 00.394-1.492c0-.45.126-.9.197-1.407.154-.943.267-1.886.394-2.815.253-1.858.717-3.688.872-5.63a.915.915 0 00-1.702-.45v.155zm-1.956 15.761a5.546 5.546 0 00-.859 3.335 23.154 23.154 0 000 3.56 20.23 20.23 0 00.563 3.562c.127.548.3 1.085.52 1.604.183.562.449 1.093.789 1.576a.45.45 0 00.76-.197 8.32 8.32 0 000-1.562c0-.563 0-1.112-.127-1.689-.099-1.126-.225-2.266-.296-3.406a56.505 56.505 0 01-.126-3.448 6.884 6.884 0 00-.31-3.223.549.549 0 00-.872-.112h-.042zm9.136-16.761c-1.196 1.534-.929 4.222-.929 6.093 0 2.393.085 4.786.24 7.164.154 2.379.408 4.616.717 6.91.31 2.294.493 4.954 1.07 7.333a.915.915 0 001.8-.24c-.112-2.293-.548-4.573-.703-6.853-.154-2.28-.295-4.757-.436-7.15-.14-2.392-.211-4.588-.295-6.896-.085-1.844.253-4.729-.901-6.291-.113-.155-.408-.267-.563-.07zm10.648 25.772c.51-2.55.773-5.141.788-7.741l.211-3.842c0-.676.07-1.337.113-1.999a2.196 2.196 0 00-.493-1.942 1.154 1.154 0 00-1.407-.169 2.07 2.07 0 00-.774 1.886c0 .662-.084 1.323-.112 1.985a94.905 94.905 0 00-.127 3.997 31.434 31.434 0 00.45 7.881.718.718 0 001.407 0l-.056-.056zM55.08 51.05c0 .985-.126 1.985-.14 2.97v.717a3.35 3.35 0 000 .648s.112.38 0 .07c0 .254 0 .52.084.774a1.59 1.59 0 00.493 1.14.97.97 0 001.407 0c.295-.309.47-.713.492-1.14 0-.253 0-.52.085-.774v-.07c.02-.197.02-.395 0-.591v-.774c0-.986-.085-1.985-.14-2.97a1.238 1.238 0 10-2.463 0h.183zm9.607-1.195c-.366 9.148-.534 18.296-.746 27.444a1.225 1.225 0 002.449 0c0-9.148.084-18.296 0-27.444a.817.817 0 00-1.633 0h-.07zm7.553 3.39c1.013 3.814.675 7.952.774 11.85.056 2.084.126 4.166.21 6.25a21.466 21.466 0 00.606 6.08c.38 1.055 2.125 1.28 2.392 0a25.607 25.607 0 00-.113-6.56c-.14-2.082-.239-4.221-.337-6.248-.183-3.997 0-8.163-1.098-12.047a1.266 1.266 0 00-2.434.675zm10.98-1.391c.226 1.408.38 2.815.507 4.223.127 1.407 0 3.307 1.013 4.49a.816.816 0 001.28-.17c.428-.71.616-1.54.535-2.364 0-.732-.112-1.408-.197-2.196a73.504 73.504 0 00-.703-4.63 1.295 1.295 0 00-1.562-.873 1.281 1.281 0 00-.872 1.548v-.028zm1.783 11.159a68.106 68.106 0 000 7.39c.084 1.21.168 2.42.267 3.616.012 1.301.183 2.596.507 3.856.394 1.183 2.476 1.408 2.701 0 .155-1.28.155-2.575 0-3.856-.098-1.252-.225-2.505-.337-3.758a71.302 71.302 0 00-1.168-7.515c-.24-1.14-1.928-.816-1.97.267zm9.681-9.443c.268 2.182.268 4.433.366 6.643.099 2.21.183 4.152.197 6.235.014 2.083 0 4.222-.14 6.277 0 1.126-.085 2.252-.141 3.377a5.081 5.081 0 00.38 3.069 1.408 1.408 0 002.265 0 5.335 5.335 0 00.62-3.069c0-1.126.112-2.251.154-3.377 0-2.168.099-4.35 0-6.516a51.345 51.345 0 00-.436-6.404 42.582 42.582 0 00-1.576-6.474c-.281-.915-1.871-.802-1.745.24h.056zm8.096 1.718c.562 4.589 1.632 9.092 1.998 13.708.183 2.323.239 4.659.281 7.037 0 1.985-.535 5.053.816 6.657a1.282 1.282 0 001.773 0 4.32 4.32 0 00.802-3.138V75.78c0-2.322-.154-4.672-.38-7.037a42.814 42.814 0 00-1.097-6.826c-.619-2.336-1.647-4.546-2.195-6.896-.254-1.098-2.125-.887-1.998.267zm-84.004 49.833a16.339 16.339 0 01-5.038 4.982c-2.265 1.281-4.91 1.661-7.035 3.209-3.518 2.561-4.222 8.149.366 9.964l.506-3.715c-6.374.563-8.64 7.895-7.12 13.314a10.527 10.527 0 005.544 6.938 8.928 8.928 0 008.837-.999l-2.505-3.237a6.953 6.953 0 00.479 9.218c2.66 2.885 7.035 3.04 10.567 1.731l-2.814-2.153a13.405 13.405 0 005.136 10.274 12.077 12.077 0 0011.257 2.083c2.012-.774 1.984-4.335-.563-4.11a11.08 11.08 0 01-7.71-1.407 8.894 8.894 0 01-3.645-6.812c0-1.323-1.407-2.73-2.815-2.167-1.815.704-4.221 1.154-5.867-.169a3.097 3.097 0 01-.746-3.969c1.323-2.364-2.012-4.222-3.56-2.069-.971 1.323-3.785.69-4.911 0a7.286 7.286 0 01-3.04-4.672c-.633-2.646 0-7.642 3.518-7.98a1.918 1.918 0 001.793-1.661 1.915 1.915 0 00-1.3-2.069c-1.787-.689.408-3.04 1.126-3.518a53.015 53.015 0 015.417-2.393 11.946 11.946 0 006.332-7.656 1.225 1.225 0 00-2.223-.929l.014-.028zm93.275 2.648a10.039 10.039 0 005.629 12.399c2.73 1.097 6.051 1.041 7.852 3.715a5.507 5.507 0 01-1.126 7.206 2.452 2.452 0 00.492 3.8c2.111 1.084 6.192 4.743 3.11 7.135-2.462 1.929-6.43.141-9.174 1.338a3.74 3.74 0 00-2.041 4.292c.099.591.366 1.154.071 1.717a3.04 3.04 0 01-1.801 1.14c-1.85.491-3.73.858-5.629 1.098a17.805 17.805 0 00-6.29 1.604 2.073 2.073 0 00.493 3.73c2.532.492 5.234-.366 7.739-.816a22.863 22.863 0 006.839-1.732 6.695 6.695 0 003.616-4.982c.07-.528.07-1.062 0-1.59 0-.324-.113-.647-.197-.971l-1.013 1.013 3.363-.127c4.221-.112 8.738-1.407 9.695-6.136.957-4.729-2.251-8.726-6.234-10.893l.493 3.8a10.087 10.087 0 003.249-8.258 10.084 10.084 0 00-4.53-7.631c-2.744-1.732-6.219-1.267-8.949-2.815a7.208 7.208 0 01-3.419-7.389 1.116 1.116 0 00-2.153-.591l-.085-.056z" fill="#1F454F"/><path d="M7.051 128.206l-.169.155-1.477-.197a12.816 12.816 0 012.983 5.559c.099.487.155.981.169 1.478 0 .253-.183 1.168.31 1.013-.606.197-1.83-1.604-2.097-1.956-1.407-1.971-1.407-4.222 1.027-5.208a7.297 7.297 0 013.25-.422 9.058 9.058 0 011.745.197c.366.085.873.437 1.07.479.69.183 1.04-.943 1.618-1.408.577-.464 1.646-1.266 2.462-1.914a8.798 8.798 0 003.392-4.517c.83-3.364-1.408-7.319-5.221-6.573-4.573.887-7.598 5.855-7.992 10.176a1.817 1.817 0 002.8 1.519c3.04-1.731 2.575-4.925 3.011-7.881.253-1.844 1.407-2.027 3.053-1.97a17.14 17.14 0 015.812 1.407l-1.323-2.336c1.407-.071 1.773-.394 1.07-.929a5.906 5.906 0 01-.563-.76c-.17-.296-.535-.858-.45-1.224.21-.929 1.744-.141 2.392.14.914.394 1.618.817 1.491 1.9-.127 1.084-.605 2.534-.746 3.828a32.005 32.005 0 00.324 7.094c.24 2.153-.281 3.842-2.716 3.842-2.012 0-3.841-1.337-5.769-.141a4.308 4.308 0 00-1.407 4.842c1.083 4.222 5.84 6.938 9.33 8.951l1.406-3.449a18.501 18.501 0 01-6.67-3.082 15.452 15.452 0 01-2.617-2.308c-.112-.127-.886-.872-.83-1.069.056-.198 1.407-.521 1.646-.578a9.992 9.992 0 017.036 1.07 3.926 3.926 0 012.04 2.182c.17.717-.239 1.787-1.097 1.829-1.773.071-2.336 2.815-.436 3.223 4.221.859 6.472-3.927 4.63-7.304-2.084-3.814-7.346-5.292-11.399-4.87-1.9.197-4.305.633-5.487 2.308-1.408 1.957-.324 4.082 1.055 5.63a21.377 21.377 0 0011.032 6.601 1.9 1.9 0 001.407-3.449 27.122 27.122 0 01-5.629-3.856 7.758 7.758 0 01-1.9-2.477 3.561 3.561 0 01-.168-1.084c0-.239 0 0-.225.071.316.036.625.122.914.253 4.11 1.126 8.936-.127 9.484-4.982.282-2.421-.52-4.827-.506-7.262.024-1.395.203-2.783.535-4.138a6.827 6.827 0 00.168-3.448c-.999-3.575-7.978-6.418-10.356-2.815-1.407 2.139-.62 4.645.816 6.53a3.933 3.933 0 003.025 1.957 2.662 2.662 0 002.632-2.083 1.914 1.914 0 00-.873-2.139c-3.278-1.478-8.724-3.012-11.904-.479a6.429 6.429 0 00-2.083 4.743c-.112 1.407.324 3.814-1.182 4.532l2.66 2.041a9.117 9.117 0 014.221-6.615c1.056-.577 1.745-.521 1.928.746a3.602 3.602 0 01-1.52 3.054c-1.66 1.815-4.798 3.223-4.953 6.037-.126 2.309 2.322 4.659 4.517 3.083 2.195-1.577 1.267-4.631-.915-5.63a11.256 11.256 0 00-8.442.07 6.167 6.167 0 00-3.8 6.291 9.45 9.45 0 004.827 6.446 2.957 2.957 0 003.49-.534 5.323 5.323 0 00.675-4.223 11.26 11.26 0 00-4.643-8.022 1.25 1.25 0 00-1.674.436 1.848 1.848 0 00.098 2.188c.165.203.371.369.605.487.675.323 1.66-.395 1.14-1.14l-.057.084z" fill="#1F454F"/><path d="M30.229 124.686c-.14-1.59 1.759-1.492 2.673-.802.212.155 1.408 1.886 1.408 1.9l.506-.605-.366-.366a8.08 8.08 0 00-.9-1.07 12.668 12.668 0 01-2.28-9.148l-1.407 1.802c1.126-.394 2.322 1.407 2.94 2.111a20.63 20.63 0 012.435 3.786 20.91 20.91 0 012.252 7.74 5.758 5.758 0 01-.24 3.012c-.168.324-.267.521-.66.535-.395.014-1.24-1.267-1.52-1.224l-.254.816h.38c.195.038.393.061.591.07.506.109.985.32 1.407.619a3.602 3.602 0 011.52 2.942 4.773 4.773 0 01-4.404 4.349 6.598 6.598 0 01-3.532-.803c-.211-.112-1.309-1.083-1.52-1.069l-.296.366c-.408.366-.422.464 0 .309.29.035.583.035.873 0 1.942 0 4.826 1.577 5.108 3.744.281 2.167-4.348 1.956-5.53.971-.17-.141-.465-.788-.535-.338-.07.451.183 0 .479-.084a7.408 7.408 0 012.082-.197 7.53 7.53 0 014.221 1.492c.718.563 1.76 1.548.437 1.787-.676.127-2.998.141-3.434-.506-1.125-1.675-4.221-.676-3.433 1.407 1.534 4.461 10.44 4.658 11.58-.282.634-2.744-1.618-5.151-3.799-6.403a11.859 11.859 0 00-8.443-1.309c-2.603.619-4.502 3.026-3.236 5.629a7.202 7.202 0 006.487 3.66 7.918 7.918 0 006.825-3.477c1.407-2.392-.183-5.418-1.886-7.205a9.85 9.85 0 00-6.614-2.984c-2.462-.113-5.727 1.14-4.924 4.222.703 2.66 4.052 4.476 6.557 4.954a9.18 9.18 0 007.542-1.647c4.221-3.279 4.601-9.851-.113-12.807-1.9-1.224-5.023-1.801-6.909-.253-2.321 1.9 0 5.038 1.844 6.277a4.51 4.51 0 003.828.724 4.52 4.52 0 002.968-2.526c1.238-2.688.62-6.094-.084-8.852a25.337 25.337 0 00-4.222-8.853c-1.745-2.308-4.306-5.404-7.57-4.32a1.951 1.951 0 00-1.407 1.801 16.005 16.005 0 002.476 10.598c1.478 2.223 5.7 6.263 7.894 2.35 1.59-2.815-2.237-6.783-4.756-7.529-2.997-.901-6.768 1.308-6.416 4.686.239 2.21 3.686 2.252 3.49 0h-.113z" fill="#1F454F"/><path d="M37.908 149.526a5.028 5.028 0 014.137-2.561c.845-.127 1.76 0 2.59-.155h.196c-.056 0-1.533-.873-.506-.971.084 0-.394.352-.31.31a1.851 1.851 0 01-2.114-.53 1.858 1.858 0 01-.362-.681 4.224 4.224 0 011.07-4.222 6.04 6.04 0 011.857-1.407c.35-.17.725-.284 1.111-.338.254 0 .563.112.802.084-.14 0 .155.113.155.099 0-.591-.394-.071-.225-.788 0 0 .169-.409.225-.38l-.422.239a2.58 2.58 0 01-.887.239 1.328 1.328 0 01-.69-.112 3.065 3.065 0 01-.773-1.211 14.55 14.55 0 01-.478-2.083 8.9 8.9 0 010-1.998c.098-.549.21-.887.703-1.028 1.562-.45 3.25 1.661 4.221 2.815.296.38 1.197 1.562.943 2.013.085-.155-.253.126-.239.126.014 0-.323.197-.506.282a.55.55 0 01-.31.112c-.661.127-.408.282.76.451l.295 1.069v.085l-.534.915a3.266 3.266 0 012.321-.957.546.546 0 01.492.281c-.168-.211.085.324 0 0 0 0 .142.633.114.366a2.029 2.029 0 01-.521 1.759 10.18 10.18 0 01-2.406 2.055l3.081 3.082a18.297 18.297 0 002.21-12.089l-4.222 1.154c.473 1.81.709 3.674.704 5.545a2.987 2.987 0 01-.352 1.647 4.31 4.31 0 01-1.07.717 18.178 18.178 0 01-4.6.943c-2.14.268-4.222.549-6.375.929a1.815 1.815 0 00-1.323 2.027 1.871 1.871 0 001.815 1.59c1.182.188 2.379.263 3.574.225 1.408 0 2.66-.225 3.983-.394a14.577 14.577 0 005.684-1.604c4.334-2.59 3.363-8.571 2.069-12.667a2.199 2.199 0 00-1.026-1.323 2.177 2.177 0 00-1.662-.211 2.195 2.195 0 00-1.594 1.837 2.2 2.2 0 00.06.851 12.824 12.824 0 01-1.927 8.67 2.223 2.223 0 00.577 2.899 2.304 2.304 0 002.955-.183 11.325 11.325 0 004.038-4.799 5.941 5.941 0 00-.746-5.517 5.246 5.246 0 00-6.107-1.407 7.734 7.734 0 00-2.73 1.407 2.81 2.81 0 00-.631 3.116 2.8 2.8 0 00.631.923c1.83 1.759 5.038.479 6.473-1.21a5.222 5.222 0 00-.098-6.347c-2.139-3.266-6.614-7.347-10.694-4.603a6.03 6.03 0 00-2.252 5.588 13.372 13.372 0 001.253 5.376 5.357 5.357 0 004.939 3.096c2.082-.07 4.629-1.182 5.15-3.392.59-2.575-1.984-4.222-4.222-4.391a8.19 8.19 0 00-5.826 2.393c-3.067 2.815-4.32 7.909-1.266 11.259a5.742 5.742 0 006.248 1.407c2.336-.928 4.221-4.067 1.97-6.15a4.421 4.421 0 00-3.447-.887 17.86 17.86 0 00-3.758.549 8.155 8.155 0 00-5.389 4.223 1.928 1.928 0 00.676 2.547 1.9 1.9 0 002.56-.676l-.042-.028zm52.811-8.837a19.828 19.828 0 01-1.266-4.968 4.002 4.002 0 000-.816c.112-.225 0-.225-.155 0 0 .113.337.38.38.563.029.163.029.33 0 .493a1.677 1.677 0 01-2.406 1.111 2.952 2.952 0 01-1.478-3.237H82.6c-.197 4.026-.24 8.445 2.814 11.513a7.198 7.198 0 005.263 2.097 13.732 13.732 0 003.11-.535l1.716-.507c.38-.112 1.056-.408 1.407-.281l-.76-.45c-.239-.212 0-.338-.197-.197-.197.14-.197.309-.267.408a1.502 1.502 0 01-.718.506s-.394-.07-.267 0c.127.071-.169.211 0 0s.225-.197.352-.281a6.126 6.126 0 015.882.197 6.56 6.56 0 011.998 1.787c.297.397.547.827.746 1.281.07.169.126.324.183.493.126.394 0 .9.394.281s.14-.295-.211-.253a2.844 2.844 0 01-.76 0 5.155 5.155 0 01-1.196-.366 15.423 15.423 0 01-2.941-1.802l-1.52 3.603a5.44 5.44 0 013.813 2.815l1.196-2.955-2.096.577a2.067 2.067 0 00-.493 3.729 4.77 4.77 0 004.658.155 3.557 3.557 0 002.082-4.011 1.682 1.682 0 00-1.194-1.183 1.671 1.671 0 00-1.62.451 4.055 4.055 0 01-1.182 1.027c-.309.183-.45.197-.717 0l-.493 3.73 2.083-.647a2.016 2.016 0 001.196-2.942 9.51 9.51 0 00-6.22-4.574 1.985 1.985 0 00-1.52 3.603c1.97 1.407 4.222 2.815 6.797 2.519a4.585 4.585 0 002.955-1.196 3.543 3.543 0 00.366-3.715 10.119 10.119 0 00-11.37-6.629c-2.125.394-4.643 1.703-4.714 4.152a3.67 3.67 0 002.951 3.598 3.67 3.67 0 001.665-.052c2.124-.422 4.221-2.927 3.714-5.165-.717-3.11-4.32-1.647-6.346-1.07a6.332 6.332 0 01-3.912.282 4.644 4.644 0 01-2.293-2.013c-1.407-2.35-1.28-5.334-1.14-7.98a1.618 1.618 0 00-1.59-1.604 1.646 1.646 0 00-1.604 1.604 5.885 5.885 0 004.418 6.517 4.818 4.818 0 005.399-2.559 4.814 4.814 0 00.497-2.072 4.107 4.107 0 00-1.871-3.518 2.994 2.994 0 00-3.954.535 4.98 4.98 0 00-.45 4.222 11.162 11.162 0 002.04 4.518c.69.9 2.49.436 2.04-.859v.07z" fill="#1F454F"/><path d="M106.469 150.498a102.676 102.676 0 01-1.759-3.237c-.45-.872-1.407-2.139-1.322-3.124l-.268.999c.31-.732 1.9-.704 2.646-.647a5.627 5.627 0 013.264 1.323c.521.478 1.407 1.505.971 2.28-.281.478-.619.408-.844-.155-.225-.563.38-1.408.928-1.661a4.34 4.34 0 013.575 0c.309.113 1.013.338 1.153.69-.098-.24-.112 0-.337.253a3.822 3.822 0 01-3.096.619 12.162 12.162 0 01-6.515-3.983c-1.534-1.576-3.419-3.673-3.433-6.009a3.573 3.573 0 01.745-2.308 2.437 2.437 0 011.028-.662c.154-.07.534.113.365-.141.409.62-1.407 1.675-1.73 1.886a9.165 9.165 0 01-3.406 1.225 7.03 7.03 0 01-3.278-.296c-.732-.253-2.28-.943-2.14-1.886.142-.943 1.957-1.407 2.815-1.618a9.85 9.85 0 014.728-.155l-.915-.535c.17-.887.113-1.14-.126-.76a1.4 1.4 0 01-.394.324 7.6 7.6 0 01-1.168.704 4.468 4.468 0 01-2.603.788c-1.28-.141-1.407-1.042-.62-1.886 2.125-2.168 5.503-.155 6.839 1.872a1.76 1.76 0 003.209-1.408c-1.675-5.911-11.117-7.698-14.072-1.843a4.95 4.95 0 001.36 6.206 4.955 4.955 0 002.074.943 9.466 9.466 0 008.865-3.532 3.253 3.253 0 00-.141-4.223c-1.295-1.407-3.56-1.111-5.235-.971-3.25.268-7.12 1.014-8.443 4.448-1.322 3.434 1.563 6.164 4.517 7.262 2.918.964 6.094.778 8.879-.521 2.815-1.196 5.812-3.645 5.066-7.037-.746-3.392-5.066-3.927-7.57-2.097a7.799 7.799 0 00-2.618 8.444 17.884 17.884 0 005.939 8.206 13.886 13.886 0 009.019 3.799c3.054-.098 6.783-2.026 6.558-5.629-.226-3.603-4.841-5.081-7.852-4.898-3.012.183-6.276 2.618-6.248 5.996 0 3.828 4.742 6.417 7.725 3.743 2.983-2.674 1.407-7.037-1.407-9.176-2.814-2.139-7.317-2.815-10.272-.774-1.9 1.337-1.83 3.392-.858 5.292.971 1.9 2.139 3.701 3.264 5.503a1.8 1.8 0 003.19-.513 1.802 1.802 0 00-.094-1.303l.042.183z" fill="#1F454F"/><path d="M101.104 135.704a5.993 5.993 0 012.378-5.419c1.872-1.407 4.588-.718 5.727-3.124 1.14-2.407-.281-4.363-1.505-6.319-.099-.155-.38-1.126-.451-1.169-.534-.351-.183.352-.267.493a5.444 5.444 0 01-2.885 2.322l2.815 1.126c-.338-2.238 1.829-4.475 3.053-6.108a11.741 11.741 0 002.955-7.037l-3.813.507a32.22 32.22 0 005.037 11.146 31.472 31.472 0 003.828 4.49 54.964 54.964 0 004.643 3.645l.296.225c.422.577.549.366.408-.647 0 0-1.252-.085-1.407-.113a8.888 8.888 0 01-2.702-1.407 17.964 17.964 0 01-2.378-2.125c-.619-.648-2.181-2.041-2.266-2.97-.126-1.604 1.97.296 2.421.873 1.28 1.59 2.814 3.983 2.139 6.094a3.691 3.691 0 01-3.617 2.702 3.367 3.367 0 01-3.363-3.026c0-1.745 1.928-.943 2.814-.225a6.156 6.156 0 012.139 4.63 4.563 4.563 0 01-1.67 3.701 4.56 4.56 0 01-3.958.901c-1.126-.239-3.026-1.407-2.505-2.814.521-1.408 3.448-.887 4.517-.592a9.092 9.092 0 015.432 3.477c.365.619.717 1.815-.113 2.266a1.41 1.41 0 01-1.618-.563c-1.154-1.548.38-3.589 1.843-4.223a3.81 3.81 0 012.406-.168c.352.098.619.323.943.422.147.099.275.223.38.366.183-.957.887-.746 2.097.591.886-2.351-3.054-4.053-4.081-1.731a3.405 3.405 0 001.28 4.56 3.5 3.5 0 002.94.165 3.505 3.505 0 002.028-2.136c1.477-3.898-2.815-6.628-6.192-6.755a8.175 8.175 0 00-8.035 5.278c-1.238 3.631.591 7.909 4.602 8.542a5.44 5.44 0 004.982-1.833 5.452 5.452 0 001.054-5.204c-1.041-3.828-5.22-6.262-8.808-7.191-3.068-.802-7.303-.774-9.203 2.266-2.04 3.279 0 7.431 3.265 8.979a8.938 8.938 0 009.432-1.151 8.937 8.937 0 003.063-8.997 9.853 9.853 0 00-6.628-7.684 5.278 5.278 0 00-6.439 3.339 5.275 5.275 0 00-.216 2.628 7.684 7.684 0 007.373 6.446 7.955 7.955 0 007.852-5.84c1.013-3.814-1.196-8.107-3.87-10.725-2.35-2.28-7.134-2.983-8.527.774-.858 2.266.507 4.349 1.857 6.08a22.706 22.706 0 004.996 4.715 8.69 8.69 0 005.994 1.731c1.97-.295 3.87-1.689 3.419-3.898-.45-2.21-2.575-2.998-4.094-4.124a27.387 27.387 0 01-4.63-4.391 25.761 25.761 0 01-5.474-11.442c-.436-2.224-3.742-1.605-3.813.521-.084 2.603-2.096 4.658-3.532 6.671a9.942 9.942 0 00-2.251 7.473c.197 1.309 1.815 1.604 2.814 1.126a8.167 8.167 0 004.222-3.674 4.382 4.382 0 00-.817-5.066c-3.081-2.815-7.035.549-5.966 4.222a7.292 7.292 0 001.168 2.28c.239.366 1.407 1.548 1.013 2.083-.736.103-1.464.253-2.181.45a9.022 9.022 0 00-2.308 1.337 9.732 9.732 0 00-3.616 9.345c.38 2.309 3.856 1.309 3.504-.971l.07-.126zm-45.288 3.676c.928 1.717 3.77 2.097 5.516 2.463 2.194.457 4.41.795 6.641 1.013a41.76 41.76 0 006.501.169 17.066 17.066 0 006.36-1.182 1.66 1.66 0 00-.83-3.082c-1.998.113-3.94.732-5.966.83a43.538 43.538 0 01-6.065-.126 50.883 50.883 0 01-6.191-.901c-1.689-.338-4.039-1.253-5.629-.394a.899.899 0 00-.31 1.21h-.027zm-5.336 9.104c1 6.376 10.891 7.713 15.9 8.445 3.846.535 7.75.492 11.582-.127a32.752 32.752 0 005.389-1.407c1.703-.606 4.095-1.183 4.939-2.9a1.798 1.798 0 00-.36-2.24 1.788 1.788 0 00-.71-.391c-1.73-.282-2.814.562-4.432 1.182a32.033 32.033 0 01-14.845 2.111 40.442 40.442 0 01-9.062-1.633 20.535 20.535 0 01-6.557-4.053 1.118 1.118 0 00-.635-.296 1.117 1.117 0 00-1.15.668c-.094.22-.115.465-.059.698v-.057z" fill="#1F454F"/><path d="M62.409 141.405a5.633 5.633 0 00-.704 2.717c-.14.985-.225 1.984-.267 2.983-.084 1.971-.183 3.997-.084 5.982a1.123 1.123 0 001.118 1 1.124 1.124 0 001.119-1 56.62 56.62 0 00.169-5.982c0-.999 0-1.998-.127-2.983a5.634 5.634 0 00-.605-2.717.37.37 0 00-.31-.171.365.365 0 00-.309.171zm6.207-.38c-.45.352-.493 1.084-.591 1.618-.099.535-.211 1.14-.296 1.717a34.728 34.728 0 00-.281 4.012c0 1.28 0 2.547-.113 3.828a3.223 3.223 0 001.154 2.969c1.013.746 2.054-.647 1.59-1.576a1.72 1.72 0 010-.845v-5.151c.045-1.149.027-2.3-.056-3.448 0-.591-.113-1.196-.225-1.773a2.18 2.18 0 00-.493-1.407.475.475 0 00-.661 0l-.028.056zm5.403-.041a12.43 12.43 0 00-.746 6.249c.082 1.089.241 2.171.478 3.237.24 1.07.493 2.688 1.745 2.998a1.105 1.105 0 001.098-.296c.83-1.013.253-2.238 0-3.377a33.189 33.189 0 01-.549-2.815c-.281-1.928-.24-3.899-.633-5.799a.762.762 0 00-1.085-.498.761.761 0 00-.322.315l.014-.014zm-28.284-37.409l-.197.197s-.14.155-.211.183l-.113.085-.084.112-.127.155a6.162 6.162 0 00-.436.619c0 .169-.155.324-.225.493-.07.169-.352.788-.507 1.182a3.735 3.735 0 00-.253 1.309 1.044 1.044 0 001.439.961c.211-.088.388-.242.503-.44.123-.23.227-.47.31-.718 0-.155.098-.324.14-.479.082-.339.185-.673.31-.999.112-.338.239-.647.337-.985l.085-.267c0-.099.098-.479 0-.212 0-.182.084-.365.14-.548a.678.678 0 00-.318-.748.677.677 0 00-.807.1h.014zm2.871.761l-.338.338c-.15.173-.274.367-.365.577-.113.225-.212.465-.31.704-.099.239-.113.296-.155.45a1.721 1.721 0 000 .803c.041.157.113.306.211.436.12.169.267.316.436.436a.918.918 0 00.718.099c.26-.069.498-.205.69-.394.283-.345.438-.778.436-1.225v.324c0-.239.084-.479.14-.718.057-.239 0-.225.099-.338a4.38 4.38 0 00.084-.605v.268-.24a1.04 1.04 0 000-.619.841.841 0 00-.38-.45.986.986 0 00-1.14.154h-.126zm38.719.183a13.319 13.319 0 00-.169 1.506v.647c.007.298.065.593.17.873a.971.971 0 00.689.689c.13.014.263.014.394 0 .127-.025.25-.067.365-.126a1.003 1.003 0 00.493-.859v-.38c0-.126 0-.408-.084-.605v.282a11.11 11.11 0 01-.07-1.802.927.927 0 00-1.83-.253l.042.028zm3.143-1.044a6.292 6.292 0 00-.14 1.534c0 .313.038.625.112.929 0 .099 0 .197.098.282.082.296.237.567.45.788.156.159.35.276.564.338.226.057.463.057.689 0a1.326 1.326 0 00.9-.901 1.41 1.41 0 000-.76v-.155.366-.408c0-.254 0-.493-.098-.732v.366a4.977 4.977 0 010-1.295c0-.175-.039-.348-.113-.507a1.114 1.114 0 00-.28-.436 1.283 1.283 0 00-.76-.352 1.201 1.201 0 00-.845.155 1.276 1.276 0 00-.605.788h.028zM24.32 54.738a79.501 79.501 0 007.29-3.392 59.116 59.116 0 017.5-2.815 86.201 86.201 0 0116.337-3.18 125.946 125.946 0 0133.025.59 50.11 50.11 0 0117.66 6.193 2.01 2.01 0 002.921-2.252 2.01 2.01 0 00-.895-1.224C98.083 42.536 86.15 41.03 74.57 40.791c-11.581-.24-23.359.253-34.545 3.321a64.245 64.245 0 00-8.753 3.153 24.595 24.595 0 00-8.288 5.123c-.886.957 0 2.814 1.407 2.308l-.07.042zm3.81-13.677c2.94.225 6.163-.788 9.075-1.238 2.913-.45 5.896-.943 8.865-1.337a206.484 206.484 0 0118.49-1.619 210.748 210.748 0 0118.222 0c5.7.254 12.285 0 17.604 2.407 2.265.985 4.221-2.28 1.984-3.378-5.446-2.617-11.99-2.561-17.899-2.815-6.417-.29-12.833-.29-19.25 0a217.14 217.14 0 00-18.982 1.69c-3.11.422-6.233.872-9.315 1.491-3.082.62-6.712 1.028-9.4 2.562a1.21 1.21 0 00.605 2.237zm10.02-8.321a163.196 163.196 0 0125.75-2.9c4.137-.126 8.288 0 12.411.17 2.13.112 4.254.28 6.374.506 2.202.394 4.434.592 6.67.59a1.21 1.21 0 00.366-2.364 24.457 24.457 0 00-6.318-.985c-2.223-.183-4.46-.323-6.698-.422-4.362-.169-8.724-.14-13.086.085a124.506 124.506 0 00-25.807 4.137c-.788.211-.45 1.408.338 1.21v-.028z" fill="#1F454F"/><path d="M50.158 107.31c-7.76.175-12.766-8.589-13.007-15.47-.13-3.72.787-7.659 3.771-10.11 2.984-2.45 7.072-3.37 10.712-3.479a11.575 11.575 0 019.312 3.928 13.246 13.246 0 013.279 9.365 17.428 17.428 0 01-4.153 10.197 14.673 14.673 0 01-4.23 3.643 10.174 10.174 0 01-5.782.854 14.304 14.304 0 01-8.073-3.706 14.326 14.326 0 01-4.333-7.76 34.091 34.091 0 01-.251-6.51 1.313 1.313 0 00-2.416-.656c-2.186 4.113-1.016 9.627 1.093 13.522a17.834 17.834 0 0010.395 8.206c2.299.772 4.756.949 7.141.513a14.336 14.336 0 006.5-3.008 21.554 21.554 0 007.115-11.838c1.694-8.369-3.06-18.095-12.023-19.693a22.016 22.016 0 00-13.87 2.648 13.548 13.548 0 00-6.886 10.733 20.726 20.726 0 003.497 14.135c2.667 3.84 7.444 7.812 12.417 6.357a.972.972 0 00.714-1.068.974.974 0 00-.966-.847l.044.044zm41.338 1.925c4.359 1.282 8.782-1.774 11.419-5.081a21.166 21.166 0 004.576-12.112c.218-4.38-.937-9.22-4.358-12.221-3.421-3-8.15-4.38-12.595-4.687-9.174-.624-16.344 7.403-16.224 16.426a20.864 20.864 0 005.023 12.78c3.269 3.943 7.627 6.198 12.748 5.662a17.916 17.916 0 007.15-2.311 18.021 18.021 0 005.587-5.048c2.865-4.041 4.478-10.426 2.081-15.025a1.297 1.297 0 00-1.451-.587 1.305 1.305 0 00-.957 1.244c0 3.91.109 7.48-1.939 10.951a14.387 14.387 0 01-7.954 6.395c-3.77 1.205-7.704.877-10.733-1.85a18.823 18.823 0 01-5.73-9.517c-1.559-6.57 1.982-14.236 8.901-15.791a18.679 18.679 0 0111.67 1.785 10.684 10.684 0 014.068 3.547 10.756 10.756 0 011.826 5.093c1.013 7.666-3.999 18.617-12.835 18.409a.978.978 0 00-.916.85.99.99 0 00.654 1.066l-.01.022z" fill="#1F454F"/><path d="M65.646 92.26c1.618.714 3.514.51 5.255.532l5.11.103c.375-.033.725-.208.98-.491a1.546 1.546 0 000-2.071 1.497 1.497 0 00-.98-.49h-7.42a6.72 6.72 0 00-2.688.362c-.198.063-.374.18-.51.338a1.143 1.143 0 00-.26.559c-.042.22-.016.448.076.651.092.204.245.373.437.484v.022z" fill="#1F454F"/></svg>