<svg width="106" height="46" viewBox="0 0 106 46" fill="none" xmlns="http://www.w3.org/2000/svg">
    <path d="M41.4515 19.0595L39.8741 18.6136C39.0469 18.3786 38.5034 18.1054 38.2434 17.794C37.9697 17.4569 37.8291 17.0319 37.8482 16.599C37.8482 15.9469 38.0307 15.4451 38.3959 15.0938C38.7592 14.7413 39.4327 14.565 40.4111 14.565C41.2488 14.5687 42.0838 14.6578 42.9031 14.8312C43.068 14.8728 43.2356 14.9028 43.4047 14.9211C43.4908 14.9219 43.5741 14.8916 43.6394 14.8359C43.7046 14.7801 43.7472 14.7026 43.7592 14.6179C43.8352 14.381 43.8833 14.1361 43.9028 13.8882C43.9013 13.7874 43.8655 13.6901 43.801 13.6123C43.7366 13.5345 43.6475 13.4807 43.5483 13.4599C42.772 13.2249 41.7676 13.1074 40.5352 13.1074C38.9825 13.1074 37.86 13.4194 37.1676 14.0433C36.4751 14.6673 36.1289 15.5726 36.1289 16.7594C36.1289 18.522 37.0151 19.6453 38.7876 20.1294L40.4731 20.5912C41.3936 20.8415 41.9909 21.1182 42.2651 21.4213C42.5509 21.7554 42.698 22.1853 42.6763 22.6234C42.6797 22.8671 42.6499 23.1102 42.5876 23.346C42.512 23.5805 42.3917 23.7984 42.2332 23.9876C42.0077 24.2402 41.7114 24.4201 41.3824 24.504C40.905 24.6401 40.4095 24.703 39.9131 24.6909C38.948 24.6998 37.9886 24.543 37.0772 24.2273C36.9057 24.1605 36.7274 24.1127 36.5454 24.0845C36.4434 24.0833 36.3441 24.118 36.2653 24.1825C36.1865 24.247 36.1331 24.3372 36.1147 24.437C36.0242 24.6722 35.9646 24.9181 35.9375 25.1685C35.939 25.2748 35.9774 25.3772 36.0462 25.4585C36.115 25.5398 36.21 25.5949 36.315 25.6144C37.4707 25.9923 38.6827 26.1711 39.8989 26.1432C41.5118 26.1432 42.6645 25.8253 43.3569 25.1897C44.0493 24.554 44.3937 23.6357 44.3902 22.4348C44.3902 21.4478 44.1781 20.7198 43.7539 20.251C43.3297 19.7822 42.5622 19.385 41.4515 19.0595Z" fill="#1F454F"/>
    <path d="M50.1001 16.6387C49.0929 16.6403 48.0909 16.7839 47.1242 17.0652C47.0339 17.0784 46.9514 17.1237 46.8921 17.1928C46.8328 17.2618 46.8007 17.3498 46.8016 17.4406C46.8096 17.6804 46.8519 17.9178 46.9275 18.1456C46.9426 18.2154 46.9809 18.278 47.0362 18.3234C47.0915 18.3688 47.1606 18.3944 47.2323 18.3959C47.2802 18.3959 47.5017 18.3536 47.8952 18.2708C48.5361 18.1341 49.1894 18.0626 49.8449 18.0575C50.8729 18.0575 51.4702 18.2831 51.6368 18.7343C51.7423 19.0928 51.7849 19.4666 51.7627 19.8395V20.5691C51.1434 20.5134 50.5216 20.4898 49.8998 20.4986C48.6071 20.4986 47.6749 20.6708 47.1029 21.0151C46.4223 21.431 46.082 22.1437 46.082 23.153C46.082 24.032 46.3119 24.727 46.7715 25.2381C47.2312 25.7493 48.0707 26.0048 49.2901 26.0048C50.7589 26.0048 51.8814 25.8209 52.6577 25.4532C52.8651 25.3657 53.0446 25.2237 53.177 25.0425C53.3112 24.8164 53.373 24.5552 53.3543 24.2934V19.6315C53.3543 18.4682 53.157 17.6903 52.7623 17.2979C52.3416 16.8572 51.4543 16.6375 50.1001 16.6387ZM51.7662 23.5355C51.7737 23.7394 51.7498 23.9433 51.6953 24.1401C51.6248 24.2805 51.5031 24.3889 51.355 24.4432C50.7613 24.6453 50.1351 24.7361 49.5081 24.7111C48.7992 24.7111 48.3011 24.5772 48.0388 24.3093C47.7765 24.0414 47.6453 23.6483 47.6453 23.1248C47.6453 22.6014 47.7871 22.27 48.0742 22.092C48.4086 21.864 49.078 21.7506 50.0824 21.7518C50.6803 21.7518 51.2416 21.7759 51.7662 21.8241V23.5355Z" fill="#1F454F"/>
    <path d="M60.503 24.6886C59.4868 24.6404 58.8593 24.4324 58.6206 24.0647C58.4186 23.7685 58.3158 23.2504 58.3158 22.5136V18.4157H60.2158C60.4906 18.4157 60.6288 18.2853 60.6288 18.0227V17.4005C60.6288 17.1502 60.4852 17.0251 60.1981 17.0251H58.3105V15.0475C58.3105 14.7496 58.197 14.6016 57.9702 14.6016H57.146C56.9315 14.6016 56.8128 14.7496 56.7915 15.0475C56.7561 15.9746 56.7383 16.6338 56.7383 17.0251H55.6518C55.5983 17.0185 55.5441 17.0241 55.4931 17.0416C55.4421 17.059 55.3958 17.0878 55.3577 17.1256C55.3196 17.1635 55.2907 17.2096 55.2732 17.2603C55.2557 17.3109 55.25 17.3649 55.2566 17.4181V18.042C55.2566 18.2906 55.3771 18.4157 55.6111 18.4157H56.7029V22.4431C56.7029 23.7862 56.9002 24.6892 57.2949 25.1521C57.5889 25.4975 57.9833 25.7438 58.4239 25.8572C59.0624 26.007 59.7178 26.0734 60.3736 26.0546C60.4231 26.0623 60.4737 26.06 60.5224 26.048C60.5711 26.036 60.6168 26.0144 60.6569 25.9845C60.6971 25.9546 60.7308 25.917 60.7561 25.8739C60.7814 25.8309 60.7978 25.7832 60.8043 25.7338C60.8273 25.4712 60.8397 25.2456 60.8397 25.0552C60.8457 25.0084 60.8413 24.9608 60.8269 24.9158C60.8125 24.8708 60.7885 24.8294 60.7565 24.7945C60.7245 24.7597 60.6852 24.7322 60.6414 24.7139C60.5977 24.6956 60.5504 24.6869 60.503 24.6886Z" fill="#1F454F"/>
    <path d="M69.4657 16.9902H68.6238C68.3598 16.9902 68.2286 17.126 68.2286 17.4009V23.6192C68.2446 23.7925 68.2069 23.9666 68.1205 24.118C68.0238 24.2173 67.9081 24.2965 67.7802 24.3506C67.2579 24.5997 66.559 24.7243 65.6834 24.7243C64.7877 24.7243 64.2619 24.5104 64.1059 24.0827C64.003 23.7117 63.9611 23.3266 63.9819 22.9423V17.4009C63.9819 17.126 63.856 16.9902 63.6043 16.9902H62.7429C62.493 16.9902 62.3672 17.126 62.3672 17.4009V23.2631C62.3672 24.048 62.4387 24.6303 62.5817 25.0098C62.8688 25.77 63.729 26.1502 65.1623 26.1502C66.4621 26.1502 67.4718 25.9422 68.1914 25.5262V25.9721C68.2047 26.4448 68.1321 26.9159 67.9769 27.3628C67.7997 27.7788 67.4204 28.089 66.8461 28.2969C66.2718 28.5049 65.2509 28.6336 63.8011 28.6812C63.7455 28.6793 63.6903 28.6896 63.6391 28.7112C63.588 28.7328 63.5423 28.7653 63.5051 28.8063C63.4252 28.8938 63.3832 29.009 63.3881 29.1271C63.3902 29.342 63.4079 29.5564 63.4413 29.7687C63.4785 29.9819 63.6451 30.0894 63.9429 30.0894C65.5971 30.0894 66.8881 29.905 67.8156 29.536C68.7432 29.167 69.334 28.5613 69.588 27.7188C69.7737 27.0031 69.8578 26.2651 69.838 25.5262V17.4009C69.8415 17.126 69.7157 16.9902 69.4657 16.9902Z" fill="#1F454F"/>
    <path d="M79.2207 17.0806C78.8449 16.9032 78.263 16.8145 77.4749 16.8145C76.7328 16.8196 75.9924 16.8851 75.2611 17.0101C74.5852 17.1068 73.9253 17.2929 73.299 17.5635C72.9038 17.7398 72.707 18.0923 72.707 18.6211V25.5531C72.707 25.8263 72.8329 25.9638 73.0828 25.9638H73.9265C74.1888 25.9638 74.3199 25.8263 74.3199 25.5531V19.3261C74.3042 19.1527 74.3419 18.9788 74.4281 18.8273C74.5202 18.7189 74.6368 18.6337 74.7684 18.5788C75.3296 18.3438 76.064 18.2263 76.9715 18.2263C77.327 18.2081 77.6828 18.2559 78.0208 18.3673C78.1256 18.4096 78.2195 18.4748 78.2956 18.5581C78.3717 18.6414 78.428 18.7406 78.4603 18.8484C78.5465 19.2168 78.5823 19.595 78.5667 19.9729V25.5496C78.5667 25.8228 78.6925 25.9603 78.9442 25.9603H79.8038C80.0555 25.9603 80.1796 25.8228 80.1796 25.5496V19.6486C80.1796 18.8044 80.1211 18.2227 80.0023 17.9019C79.8613 17.5361 79.5803 17.2408 79.2207 17.0806Z" fill="#1F454F"/>
    <path d="M86.4751 16.7773C85.4679 16.7789 84.4659 16.9226 83.4992 17.2039C83.4089 17.2171 83.3264 17.2624 83.2671 17.3314C83.2078 17.4005 83.1757 17.4885 83.1766 17.5793C83.1846 17.8191 83.2269 18.0565 83.3025 18.2843C83.3176 18.354 83.3559 18.4167 83.4112 18.4621C83.4666 18.5075 83.5356 18.533 83.6073 18.5346C83.6552 18.5346 83.8768 18.4923 84.2702 18.4095C84.9111 18.2727 85.5644 18.2012 86.2199 18.1962C87.2479 18.1962 87.8452 18.4218 88.0118 18.873C88.1164 19.2316 88.1589 19.6053 88.1377 19.9781V20.7078C87.5178 20.652 86.8954 20.6285 86.2731 20.6373C84.9827 20.6373 84.051 20.8095 83.478 21.1537C82.7973 21.5697 82.457 22.2824 82.457 23.2917C82.457 24.1706 82.6869 24.8657 83.1465 25.3768C83.6062 25.8879 84.4457 26.1435 85.6651 26.1435C87.1339 26.1435 88.2564 25.9596 89.0328 25.5918C89.2401 25.5044 89.4197 25.3624 89.5521 25.1812C89.6862 24.9551 89.748 24.6939 89.7293 24.4321V19.7701C89.7293 18.6069 89.532 17.829 89.1373 17.4365C88.7131 16.9959 87.8257 16.7762 86.4751 16.7773ZM88.1412 23.6742C88.1478 23.8781 88.1239 24.0818 88.0703 24.2787C87.9995 24.4196 87.8771 24.5281 87.7282 24.5819C87.1352 24.7841 86.5096 24.875 85.8831 24.8498C85.1742 24.8498 84.6761 24.7158 84.4138 24.4479C84.1515 24.18 84.0186 23.787 84.0186 23.2635C84.0186 22.74 84.1621 22.4087 84.4493 22.2307C84.7848 22.0027 85.4542 21.8893 86.4574 21.8905C87.0547 21.8905 87.6148 21.9152 88.1412 21.9627V23.6742Z" fill="#1F454F"/>
    <path d="M95.3995 24.7071C94.8855 24.6366 94.5452 24.4821 94.3786 24.2436C94.2474 24.0532 94.1818 23.7007 94.1818 23.1861V12.9986C94.1818 12.7254 94.0613 12.5879 93.8273 12.5879H92.9677C92.7054 12.5879 92.5742 12.7254 92.5742 12.9986V23.3888C92.5742 24.1607 92.6753 24.713 92.8773 25.0455C93.2602 25.6742 94.0282 25.9891 95.1815 25.9903C95.4314 25.9903 95.5821 25.9021 95.6299 25.7224C95.6832 25.5068 95.7071 25.2851 95.7008 25.0632C95.7047 25.0201 95.7 24.9767 95.6869 24.9354C95.6738 24.8941 95.6527 24.8559 95.6247 24.8228C95.5967 24.7897 95.5624 24.7624 95.5237 24.7426C95.4851 24.7227 95.4428 24.7107 95.3995 24.7071Z" fill="#1F454F"/>
    <path d="M10.5371 5.76254C10.6098 5.76246 10.6817 5.74778 10.7486 5.71938C10.8155 5.69099 10.8758 5.64947 10.9261 5.59732C11.1574 5.35435 11.3788 5.13688 11.6003 4.92671L11.6064 4.92063C11.7058 4.82609 11.765 4.69732 11.7718 4.56078C11.7785 4.42425 11.7324 4.29033 11.6427 4.18657C11.5531 4.0828 11.4269 4.01707 11.2899 4.00289C11.153 3.9887 11.0158 4.02714 10.9066 4.11031C10.8843 4.12772 10.8635 4.14681 10.8442 4.16741C10.6141 4.38487 10.3866 4.61084 10.148 4.85989C10.0756 4.93562 10.0271 5.03076 10.0085 5.13356C9.98989 5.23636 10.002 5.34231 10.0434 5.43833C10.0848 5.53435 10.1536 5.61622 10.2413 5.67384C10.3291 5.73146 10.4319 5.76229 10.5371 5.76254Z" fill="#1F454F"/>
    <path d="M25.9259 34.9925C25.6903 35.2363 25.4695 35.457 25.2499 35.6642L25.2069 35.7106C25.1123 35.8137 25.062 35.9494 25.0667 36.0889C25.0714 36.2283 25.1307 36.3604 25.2319 36.4571C25.3332 36.5537 25.4684 36.6073 25.6088 36.6063C25.7492 36.6053 25.8837 36.5499 25.9836 36.4518L26.0057 36.4299C26.2326 36.2141 26.4621 35.9861 26.705 35.7337C26.7967 35.6298 26.8444 35.4947 26.8383 35.3567C26.8322 35.2187 26.7728 35.0883 26.6723 34.9927C26.5719 34.8972 26.4382 34.8438 26.2992 34.8438C26.1601 34.8437 26.0264 34.897 25.9259 34.9925Z" fill="#1F454F"/>
    <path d="M21.1133 41.9473L21.1231 41.9375L21.1133 41.9473Z" fill="#1F454F"/>
    <path d="M21.148 41.9073C21.1392 41.9179 21.1339 41.9284 21.125 41.9373C21.1413 41.9172 21.1591 41.8983 21.1782 41.8809L21.148 41.9073Z" fill="#1F454F"/>
    <path d="M26.3119 19.8633C26.1717 19.8633 26.0373 19.9187 25.9382 20.0172C25.839 20.1158 25.7833 20.2494 25.7833 20.3888V20.6349C25.7225 24.5024 24.1769 28.2005 21.463 30.9719C18.7492 33.7432 15.0724 35.3782 11.1856 35.542C10.9562 35.5516 10.7412 35.5564 10.5286 35.5564C10.3884 35.5564 10.2539 35.6117 10.1548 35.7103C10.0557 35.8089 10 35.9425 10 36.0819C10 36.2213 10.0557 36.355 10.1548 36.4535C10.2539 36.5521 10.3884 36.6074 10.5286 36.6074H11.2229C11.2572 36.6074 11.2914 36.6038 11.325 36.5967C11.3394 36.5967 11.3526 36.5883 11.367 36.5847C15.4981 36.3755 19.3947 34.6128 22.2673 31.6536C25.14 28.6945 26.7739 24.7602 26.8381 20.648V20.6372C26.8381 20.5548 26.8381 20.4724 26.8381 20.3888C26.8381 20.2498 26.7827 20.1165 26.6841 20.0181C26.5855 19.9196 26.4517 19.8639 26.3119 19.8633Z" fill="#1F454F"/>
    <path d="M26.3106 15.7094C26.4506 15.7091 26.5848 15.6529 26.6836 15.5534C26.7825 15.4538 26.8381 15.3188 26.8381 15.1781V10.5235C26.8381 10.3828 26.7825 10.2478 26.6836 10.1482C26.5848 10.0486 26.4506 9.99251 26.3106 9.99219C23.5895 9.99251 20.98 11.079 19.0559 13.0127C17.1318 14.9464 16.0507 17.569 16.0504 20.3037C16.0504 20.4446 16.1061 20.5797 16.2052 20.6793C16.3044 20.779 16.4388 20.8349 16.579 20.8349H19.7124C19.6168 22.593 19.02 24.2864 17.9931 25.713C17.1932 26.8294 16.1552 27.7521 14.955 28.4136C13.7548 29.0752 12.4227 29.459 11.0561 29.5369V25.4316C11.0496 25.2953 10.9911 25.1666 10.8928 25.0724C10.7945 24.9782 10.6639 24.9257 10.528 24.9257C10.3922 24.9257 10.2616 24.9782 10.1632 25.0724C10.0649 25.1666 10.0065 25.2953 10 25.4316V30.0839C10 30.1536 10.0137 30.2226 10.0403 30.287C10.0668 30.3514 10.1058 30.4099 10.1549 30.4591C10.204 30.5084 10.2623 30.5474 10.3264 30.5739C10.3906 30.6005 10.4593 30.6141 10.5286 30.6139C13.2495 30.6139 15.8589 29.5277 17.7829 27.5941C19.7068 25.6606 20.7876 23.0381 20.7876 20.3037C20.7876 20.1628 20.732 20.0276 20.6328 19.928C20.5337 19.8284 20.3992 19.7724 20.259 19.7724H17.1245C17.2193 18.0128 17.8175 16.3182 18.8473 14.892C19.9946 13.2986 21.6148 12.1117 23.4752 11.5015C24.2225 11.2586 24.9978 11.1133 25.782 11.0692V15.1745C25.7815 15.2446 25.7948 15.314 25.8212 15.3789C25.8475 15.4438 25.8864 15.5028 25.9355 15.5525C25.9847 15.6022 26.0431 15.6417 26.1075 15.6686C26.1719 15.6955 26.2409 15.7094 26.3106 15.7094Z" fill="#1F454F"/>
    <path d="M10.5264 20.7442C10.5958 20.7442 10.6645 20.7305 10.7286 20.7041C10.7927 20.6777 10.8509 20.639 10.8999 20.5901C10.9489 20.5413 10.9878 20.4834 11.0142 20.4196C11.0407 20.3559 11.0542 20.2875 11.054 20.2186V19.9725C11.0983 16.8598 12.1114 13.8371 13.9541 11.3197C15.2175 9.594 16.829 8.14899 18.6858 7.07697C20.8127 5.8583 23.2039 5.16747 25.6566 5.06308C25.7984 5.05711 25.9475 5.05233 26.1109 5.04994H26.3128C26.4473 5.04893 26.5764 4.99679 26.6734 4.90422L26.683 4.89705C26.695 4.8851 26.7046 4.87077 26.7155 4.85763C26.7485 4.81896 26.776 4.77596 26.7972 4.72982C26.8243 4.66469 26.8382 4.59487 26.8381 4.52437C26.8377 4.3854 26.782 4.2522 26.6832 4.15393C26.5843 4.05566 26.4503 4.00032 26.3104 4H26.0989C25.9222 4 25.76 4.00717 25.6074 4.01314C22.9858 4.12464 20.4299 4.86213 18.1558 6.16319C16.1704 7.3101 14.4475 8.85603 13.0972 10.7022C11.1274 13.3945 10.0454 16.6273 10 19.9558V19.9665C10 20.049 10 20.1314 10 20.215C9.99954 20.2841 10.0128 20.3527 10.039 20.4167C10.0652 20.4807 10.1039 20.539 10.1528 20.5881C10.2017 20.6373 10.2598 20.6763 10.324 20.7031C10.3881 20.7299 10.4569 20.7438 10.5264 20.7442Z" fill="#1F454F"/>
</svg>