<svg width="22" height="14" viewBox="0 0 22 14" fill="none" xmlns="http://www.w3.org/2000/svg">
<path d="M6.28699 0.296875C6.90275 0.296875 7.47115 0.344241 7.99217 0.486339C8.5132 0.581072 8.93949 0.770536 9.31842 1.00737C9.69735 1.2442 9.98155 1.57576 10.171 2.00206C10.3605 2.42835 10.4552 2.94938 10.4552 3.51777C10.4552 4.1809 10.3131 4.74929 9.98155 5.17559C9.69735 5.60188 9.22369 5.98081 8.6553 6.26501C9.46052 6.50184 10.0763 6.92813 10.4552 7.49652C10.8341 8.06492 11.071 8.77541 11.071 9.58063C11.071 10.2438 10.9289 10.8122 10.692 11.2858C10.4552 11.7595 10.0763 12.1858 9.64999 12.47C9.22369 12.7542 8.70266 12.991 8.13427 13.1331C7.56588 13.2752 6.99748 13.3699 6.42909 13.3699H0.0820312V0.296875H6.28699ZM5.90806 5.60188C6.42909 5.60188 6.85538 5.45978 7.18695 5.22295C7.51851 4.98612 7.66061 4.55983 7.66061 4.0388C7.66061 3.7546 7.61324 3.4704 7.51851 3.28094C7.42378 3.09148 7.28168 2.94938 7.09222 2.80728C6.90275 2.71255 6.71329 2.61781 6.47646 2.57045C6.23963 2.52308 6.00279 2.52308 5.7186 2.52308H2.97136V5.60188H5.90806ZM6.05016 11.1911C6.33436 11.1911 6.61855 11.1437 6.85539 11.0963C7.09222 11.049 7.32905 10.9543 7.51851 10.8122C7.70797 10.6701 7.85007 10.528 7.99217 10.2911C8.0869 10.0543 8.18164 9.7701 8.18164 9.43854C8.18164 8.77541 7.99217 8.30175 7.61324 7.97019C7.23431 7.68599 6.71329 7.54389 6.09753 7.54389H2.97136V11.1911H6.05016ZM15.1918 11.1437C15.5707 11.5226 16.1391 11.7121 16.897 11.7121C17.418 11.7121 17.8917 11.57 18.2706 11.3332C18.6495 11.049 18.8864 10.7648 18.9811 10.4806H21.302C20.9231 11.6174 20.3547 12.4226 19.5969 12.9436C18.839 13.4173 17.9391 13.7015 16.8496 13.7015C16.0918 13.7015 15.4287 13.5594 14.8129 13.3226C14.1971 13.0857 13.7235 12.7542 13.2972 12.2805C12.8709 11.8542 12.5393 11.3332 12.3499 10.7174C12.113 10.1017 12.0183 9.43854 12.0183 8.68068C12.0183 7.97019 12.113 7.30706 12.3499 6.6913C12.5867 6.07554 12.9182 5.55451 13.3445 5.08085C13.7708 4.65456 14.2919 4.27563 14.8603 4.0388C15.476 3.80197 16.0918 3.65987 16.8496 3.65987C17.6549 3.65987 18.3653 3.80197 18.9811 4.13353C19.5969 4.46509 20.0705 4.84402 20.4495 5.41242C20.8284 5.93344 21.1126 6.5492 21.302 7.21233C21.3968 7.87545 21.4441 8.53858 21.3968 9.29644H14.5287C14.5287 10.0543 14.8129 10.7648 15.1918 11.1437ZM18.1759 6.17027C17.8443 5.83871 17.3233 5.64925 16.7075 5.64925C16.2812 5.64925 15.9497 5.74398 15.6655 5.88608C15.3813 6.02818 15.1918 6.21764 15.0024 6.4071C14.8129 6.59657 14.7182 6.8334 14.6708 7.07023C14.6234 7.30706 14.5761 7.49653 14.5761 7.68599H18.839C18.7443 6.9755 18.5074 6.50184 18.1759 6.17027ZM14.0077 1.19683H19.3127V2.47572H14.0077V1.19683Z" fill="white"/>
</svg>
