<svg width="52" height="48" viewBox="0 0 52 48" fill="none" xmlns="http://www.w3.org/2000/svg">
<g clip-path="url(#clip0_581_74)" filter="url(#filter0_d_581_74)">
<path d="M47.766 28.4441C47.7399 28.392 47.7056 28.3446 47.6644 28.3035C46.5903 27.188 45.4038 26.1883 44.124 25.3207C44.0265 25.263 43.9155 25.2325 43.8025 25.2325C43.6894 25.2325 43.5785 25.263 43.481 25.3207C43.3357 25.3969 43.1946 25.4809 43.058 25.5721C42.525 25.0224 42.0048 24.3363 41.2053 24.5196C41.0044 24.576 40.8153 24.6684 40.6469 24.7923C39.4245 23.0196 38.9127 21.1319 38.2739 19.0865C37.6588 17.2577 36.639 15.5937 35.2918 14.2202C34.3316 13.189 33.033 11.4419 31.5314 11.2374C31.0575 11.18 30.5774 11.2627 30.1493 11.4753C29.7212 11.6879 29.3637 12.0212 29.1203 12.4348C27.6567 11.5229 25.8252 11.9532 25.1484 13.5299C24.5213 13.2495 23.8135 13.2122 23.1608 13.4254C22.5082 13.6385 21.9567 14.087 21.6121 14.6847C18.998 12.1279 16.7815 8.97891 13.8544 6.81421C11.7859 5.28444 8.56271 6.66933 9.83593 9.46469C10.6819 11.3481 12.6573 12.7586 14.0659 14.2074C15.0642 15.2344 16.0667 16.24 17.0269 17.3011C17.7756 18.1235 18.5539 18.9288 19.3407 19.7214C18.1097 23.2284 19.3999 26.6416 22.9107 28.1757C24.7085 28.9597 26.6077 29.241 28.5154 29.5904C30.2666 29.91 31.5779 31.0648 32.8215 32.3005C32.7181 32.4439 32.6395 32.6038 32.5889 32.7735C32.3689 33.6002 33.2276 34.3843 33.824 34.9766L33.6337 35.1981C33.5188 35.3201 33.4548 35.4817 33.4548 35.6498C33.4548 35.8179 33.5188 35.9796 33.6337 36.1015C34.8223 37.3245 35.9475 38.6114 37.1361 39.8386C37.237 39.936 37.3663 39.998 37.5049 40.0157C37.6436 40.0333 37.7841 40.0056 37.9059 39.9366C39.1749 39.3358 40.2113 38.002 41.1545 36.9964C42.3178 35.7564 43.4641 34.5419 44.6908 33.3658C45.6256 32.471 48.8869 30.106 47.766 28.4441ZM33.6887 31.3417C31.9713 29.6714 30.3935 28.6061 27.974 28.1927C23.8836 27.4939 18.8711 25.636 20.3601 20.693C21.058 21.3876 21.7602 22.0779 22.4539 22.7767C22.5734 22.8965 22.7352 22.9636 22.9038 22.9632C23.0723 22.9628 23.2338 22.8949 23.3528 22.7746C23.4717 22.6542 23.5383 22.4912 23.5379 22.3214C23.5375 22.1516 23.4701 21.9889 23.3506 21.8691C20.6012 19.1206 17.9405 16.2911 15.2207 13.5171C14.0321 12.3112 12.1751 10.9987 11.3545 9.5073C10.8427 8.57409 10.7285 7.61958 11.9848 7.53862C12.78 7.48748 13.0126 7.70907 13.5795 8.20337C14.0574 8.62949 14.4804 9.0897 14.9288 9.53713C17.1326 11.7359 19.1207 14.1265 21.4218 16.223C21.5012 16.3 21.599 16.3551 21.7057 16.383C21.8124 16.411 21.9244 16.4108 22.031 16.3826C22.1376 16.3543 22.2352 16.299 22.3145 16.2218C22.3937 16.1446 22.4519 16.0481 22.4835 15.9417C22.7655 14.6719 23.6425 14.3324 25.1145 14.9233C25.2047 15.0086 25.3174 15.066 25.4392 15.0884C25.5609 15.1108 25.6864 15.0974 25.8007 15.0497C25.9151 15.002 26.0133 14.9221 26.0837 14.8195C26.154 14.717 26.1935 14.5962 26.1974 14.4716C26.4991 13.1194 27.4142 12.9248 28.9427 13.8878C29.0221 13.9648 29.1199 14.0199 29.2265 14.0479C29.3332 14.0758 29.4453 14.0757 29.5519 14.0474C29.6585 14.0192 29.7561 13.9638 29.8353 13.8866C29.9146 13.8094 29.9728 13.713 30.0044 13.6066C30.7108 10.8027 33.8494 14.4588 34.5389 15.2216C35.6226 16.3618 36.4607 17.7154 37.0007 19.1973C37.7875 21.4941 38.2697 23.5991 39.6952 25.5891C39.6317 25.6445 39.5725 25.6999 39.5133 25.7468C38.5885 26.4981 37.7019 27.296 36.8569 28.1373C36.0955 28.883 35.3637 29.6628 34.6404 30.4469C34.3951 30.7111 34.0397 31.0136 33.6887 31.3417ZM33.9763 33.1442C33.9763 32.8758 34.577 32.3985 34.8561 32.096C35.7994 31.0648 36.7427 30.0336 37.7367 29.0535C38.7883 28.0153 39.8999 27.0406 41.0657 26.1345C41.6917 25.6445 41.6452 25.8533 42.0851 26.3647C41.1122 27.3064 40.2535 28.4953 39.3949 29.3475C37.8044 30.9156 36.1886 32.3303 34.6912 33.9794C34.4311 33.7207 34.192 33.4414 33.9763 33.1442ZM37.7071 38.5389C36.785 37.5716 35.8882 36.5788 34.9703 35.6115C37.0515 33.1869 39.4879 31.1883 41.6663 28.8489C42.1147 28.3674 42.5462 27.8731 43.0115 27.4044C43.2737 27.1402 43.8575 26.6672 43.8194 26.6629C44.3693 26.6928 46.3574 28.7935 46.7804 29.2197C46.9327 29.4072 39.7586 36.9239 37.7071 38.5389Z" fill="#F7BC13"/>
<path d="M36.9513 34.5332C36.9241 34.5602 36.9 34.5902 36.8794 34.6227C36.8572 34.653 36.8388 34.6859 36.8244 34.7207C36.7151 34.874 36.6377 35.0479 36.5965 35.2321C36.5554 35.4162 36.5515 35.6068 36.5851 35.7925C36.6186 35.9782 36.6889 36.1552 36.7918 36.3129C36.8947 36.4707 37.0281 36.6059 37.184 36.7107C37.5094 36.9084 37.8986 36.9701 38.2685 36.8825C38.6385 36.7949 38.9597 36.565 39.1636 36.2419C39.361 35.9154 39.4406 35.5302 39.389 35.1514C39.3374 34.7726 39.1577 34.4233 38.8802 34.1624C38.2711 33.6127 37.4166 33.9707 36.9513 34.5332ZM38.343 35.7434C38.2743 35.8428 38.172 35.9137 38.0552 35.9427C37.9385 35.9717 37.8152 35.9569 37.7085 35.901C37.3701 35.705 37.5308 35.3471 37.7085 35.0914C37.8861 34.8357 38.1907 34.7207 38.3599 34.9976C38.4309 35.1096 38.4672 35.2403 38.4642 35.3731C38.4612 35.5059 38.419 35.6348 38.343 35.7434Z" fill="#F7BC13"/>
<path d="M18.1813 8.11668C18.7608 2.72625 11.6418 1.29874 8.38892 4.40516C4.75961 7.85675 6.36277 15.2755 12.1155 14.6747C12.7204 14.6108 12.7246 13.652 12.1155 13.7159C7.16646 14.2315 6.00323 7.94197 9.06149 5.0827C11.7687 2.52597 17.716 3.57423 17.2295 8.11668C17.1619 8.73029 18.1136 8.72603 18.1813 8.11668Z" fill="#F7BC13"/>
<path d="M13.7 15.4934C11.2889 16.4777 8.27716 15.5189 6.50904 13.6525C3.87377 10.8359 4.86358 5.92268 7.24928 3.31482C8.37587 2.09464 9.87781 1.29261 11.5126 1.03823C13.1474 0.783859 14.8195 1.092 16.2591 1.91288C18.9874 3.40431 20.874 7.45246 19.2201 10.3288C19.1696 10.4374 19.1612 10.5611 19.1964 10.6756C19.2317 10.7902 19.3081 10.8873 19.4108 10.9481C19.5134 11.0089 19.6349 11.0289 19.7514 11.0042C19.8679 10.9795 19.971 10.9118 20.0407 10.8146C21.8469 7.70813 20.2649 3.52362 17.4731 1.5379C15.9117 0.42691 14.0193 -0.111045 12.1117 0.0138086C10.2042 0.138663 8.39682 0.91877 6.99126 2.22395C4.13181 4.95965 2.90935 9.94953 5.16815 13.4608C6.91089 16.1709 10.9463 17.641 13.9495 16.418C14.5121 16.1922 14.271 15.2633 13.7 15.4934Z" fill="#F7BC13"/>
<path d="M43.4529 28.5757C43.3889 28.4627 43.283 28.3799 43.1585 28.3455C43.0339 28.3112 42.9009 28.3281 42.7887 28.3925C42.6766 28.4569 42.5944 28.5636 42.5603 28.689C42.5262 28.8145 42.5429 28.9485 42.6069 29.0615C42.8734 29.5132 43.1356 29.9649 43.3979 30.4166C43.4675 30.5138 43.5706 30.5815 43.6872 30.6062C43.8037 30.6309 43.9251 30.6109 44.0277 30.5501C44.1304 30.4894 44.2068 30.3922 44.2421 30.2776C44.2774 30.1631 44.269 30.0394 44.2185 29.9308L43.4529 28.5757Z" fill="#F7BC13"/>
<path d="M44.8318 28.3589C44.7678 28.2459 44.6619 28.1631 44.5374 28.1288C44.4128 28.0944 44.2798 28.1113 44.1677 28.1757C44.0555 28.2401 43.9733 28.3468 43.9392 28.4722C43.9051 28.5977 43.9218 28.7317 43.9858 28.8447C44.1846 29.2708 44.3791 29.731 44.5779 30.1785C44.643 30.2868 44.7476 30.3653 44.8692 30.3971C44.9909 30.4289 45.1202 30.4116 45.2294 30.3489C45.3361 30.2826 45.4133 30.1773 45.4448 30.055C45.4763 29.9328 45.4598 29.803 45.3986 29.6927C45.2251 29.2495 45.0263 28.8064 44.8318 28.3589Z" fill="#F7BC13"/>
</g>
<defs>
<filter id="filter0_d_581_74" x="0" y="0" width="52" height="48" filterUnits="userSpaceOnUse" color-interpolation-filters="sRGB">
<feFlood flood-opacity="0" result="BackgroundImageFix"/>
<feColorMatrix in="SourceAlpha" type="matrix" values="0 0 0 0 0 0 0 0 0 0 0 0 0 0 0 0 0 0 127 0" result="hardAlpha"/>
<feOffset dy="4"/>
<feGaussianBlur stdDeviation="2"/>
<feComposite in2="hardAlpha" operator="out"/>
<feColorMatrix type="matrix" values="0 0 0 0 0 0 0 0 0 0 0 0 0 0 0 0 0 0 0.25 0"/>
<feBlend mode="normal" in2="BackgroundImageFix" result="effect1_dropShadow_581_74"/>
<feBlend mode="normal" in="SourceGraphic" in2="effect1_dropShadow_581_74" result="shape"/>
</filter>
<clipPath id="clip0_581_74">
<rect width="44" height="40" fill="white" transform="translate(4)"/>
</clipPath>
</defs>
</svg>
