<svg width="16" height="16" viewBox="0 0 16 16" fill="none" xmlns="http://www.w3.org/2000/svg">
<path fill-rule="evenodd" clip-rule="evenodd" d="M7.97553 0.191406C3.57186 0.191406 0 3.76327 0 8.16694C0 11.6899 2.29969 14.6746 5.43119 15.751C5.82263 15.8 5.96942 15.5553 5.96942 15.3596C5.96942 15.1639 5.96942 14.6746 5.96942 13.9896C3.76758 14.4789 3.27829 12.9131 3.27829 12.9131C2.93578 11.9835 2.39755 11.7388 2.39755 11.7388C1.66361 11.2495 2.44648 11.2495 2.44648 11.2495C3.22936 11.2984 3.66972 12.0813 3.66972 12.0813C4.40367 13.3046 5.52905 12.962 5.96942 12.7663C6.01835 12.2281 6.263 11.8856 6.45872 11.6899C4.69725 11.4942 2.83792 10.8091 2.83792 7.72657C2.83792 6.84584 3.1315 6.16083 3.66972 5.57367C3.6208 5.42688 3.32722 4.59508 3.76758 3.51862C3.76758 3.51862 4.4526 3.3229 5.96942 4.35043C6.6055 4.15471 7.29052 4.10578 7.97553 4.10578C8.66055 4.10578 9.34556 4.20364 9.98165 4.35043C11.4985 3.3229 12.1835 3.51862 12.1835 3.51862C12.6239 4.59508 12.3303 5.42688 12.2813 5.6226C12.7706 6.16083 13.1131 6.89477 13.1131 7.7755C13.1131 10.8581 11.2538 11.4942 9.49235 11.6899C9.78593 11.9345 10.0306 12.4238 10.0306 13.1578C10.0306 14.2342 10.0306 15.066 10.0306 15.3596C10.0306 15.5553 10.1774 15.8 10.5688 15.751C13.7492 14.6746 16 11.6899 16 8.16694C15.9511 3.76327 12.3792 0.191406 7.97553 0.191406Z" fill="#FBFAF1"/>
</svg>
