<svg width="18" height="18" viewBox="0 0 18 18" fill="none" xmlns="http://www.w3.org/2000/svg">
<path d="M8.99922 2.19922C11.1992 2.19922 11.4992 2.19922 12.3992 2.19922C13.1992 2.19922 13.5992 2.39922 13.8992 2.49922C14.2992 2.69922 14.5992 2.79922 14.8992 3.09922C15.1992 3.39922 15.3992 3.69922 15.4992 4.09922C15.5992 4.39922 15.6992 4.79922 15.7992 5.59922C15.7992 6.49922 15.7992 6.69922 15.7992 8.99922C15.7992 11.2992 15.7992 11.4992 15.7992 12.3992C15.7992 13.1992 15.5992 13.5992 15.4992 13.8992C15.2992 14.2992 15.1992 14.5992 14.8992 14.8992C14.5992 15.1992 14.2992 15.3992 13.8992 15.4992C13.5992 15.5992 13.1992 15.6992 12.3992 15.7992C11.4992 15.7992 11.2992 15.7992 8.99922 15.7992C6.69922 15.7992 6.49922 15.7992 5.59922 15.7992C4.79922 15.7992 4.39922 15.5992 4.09922 15.4992C3.69922 15.2992 3.39922 15.1992 3.09922 14.8992C2.79922 14.5992 2.59922 14.2992 2.49922 13.8992C2.39922 13.5992 2.29922 13.1992 2.19922 12.3992C2.19922 11.4992 2.19922 11.2992 2.19922 8.99922C2.19922 6.69922 2.19922 6.49922 2.19922 5.59922C2.19922 4.79922 2.39922 4.39922 2.49922 4.09922C2.69922 3.69922 2.79922 3.39922 3.09922 3.09922C3.39922 2.79922 3.69922 2.59922 4.09922 2.49922C4.39922 2.39922 4.79922 2.29922 5.59922 2.19922C6.49922 2.19922 6.79922 2.19922 8.99922 2.19922ZM8.99922 0.699219C6.69922 0.699219 6.49922 0.699219 5.59922 0.699219C4.69922 0.699219 4.09922 0.899219 3.59922 1.09922C3.09922 1.29922 2.59922 1.59922 2.09922 2.09922C1.59922 2.59922 1.39922 2.99922 1.09922 3.59922C0.899219 4.09922 0.799219 4.69922 0.699219 5.59922C0.699219 6.49922 0.699219 6.79922 0.699219 8.99922C0.699219 11.2992 0.699219 11.4992 0.699219 12.3992C0.699219 13.2992 0.899219 13.8992 1.09922 14.3992C1.29922 14.8992 1.59922 15.3992 2.09922 15.8992C2.59922 16.3992 2.99922 16.5992 3.59922 16.8992C4.09922 17.0992 4.69922 17.1992 5.59922 17.2992C6.49922 17.2992 6.79922 17.2992 8.99922 17.2992C11.1992 17.2992 11.4992 17.2992 12.3992 17.2992C13.2992 17.2992 13.8992 17.0992 14.3992 16.8992C14.8992 16.6992 15.3992 16.3992 15.8992 15.8992C16.3992 15.3992 16.5992 14.9992 16.8992 14.3992C17.0992 13.8992 17.1992 13.2992 17.2992 12.3992C17.2992 11.4992 17.2992 11.1992 17.2992 8.99922C17.2992 6.79922 17.2992 6.49922 17.2992 5.59922C17.2992 4.69922 17.0992 4.09922 16.8992 3.59922C16.6992 3.09922 16.3992 2.59922 15.8992 2.09922C15.3992 1.59922 14.9992 1.39922 14.3992 1.09922C13.8992 0.899219 13.2992 0.799219 12.3992 0.699219C11.4992 0.699219 11.2992 0.699219 8.99922 0.699219Z" fill="#FBFAF1"/>
<path d="M8.99922 4.69922C6.59922 4.69922 4.69922 6.59922 4.69922 8.99922C4.69922 11.3992 6.59922 13.2992 8.99922 13.2992C11.3992 13.2992 13.2992 11.3992 13.2992 8.99922C13.2992 6.59922 11.3992 4.69922 8.99922 4.69922ZM8.99922 11.7992C7.49922 11.7992 6.19922 10.5992 6.19922 8.99922C6.19922 7.49922 7.39922 6.19922 8.99922 6.19922C10.4992 6.19922 11.7992 7.39922 11.7992 8.99922C11.7992 10.4992 10.4992 11.7992 8.99922 11.7992Z" fill="#FBFAF1"/>
<path d="M13.3992 5.59922C13.9515 5.59922 14.3992 5.1515 14.3992 4.59922C14.3992 4.04693 13.9515 3.59922 13.3992 3.59922C12.8469 3.59922 12.3992 4.04693 12.3992 4.59922C12.3992 5.1515 12.8469 5.59922 13.3992 5.59922Z" fill="#FBFAF1"/>
</svg>
