<svg width="44" height="41" viewBox="0 0 44 41" fill="none" xmlns="http://www.w3.org/2000/svg">
    <path d="M43.7699 28.448C43.7438 28.396 43.7095 28.3485 43.6683 28.3074C42.5942 27.1919 41.4077 26.1922 40.1279 25.3246C40.0304 25.2669 39.9194 25.2364 39.8064 25.2364C39.6933 25.2364 39.5824 25.2669 39.4849 25.3246C39.3397 25.4009 39.1985 25.4848 39.0619 25.576C38.5289 25.0263 38.0087 24.3402 37.2092 24.5235C37.0084 24.5799 36.8192 24.6723 36.6508 24.7962C35.4284 23.0235 34.9166 21.1358 34.2778 19.0904C33.6627 17.2616 32.6429 15.5976 31.2957 14.2241C30.3355 13.1929 29.0369 11.4458 27.5353 11.2413C27.0614 11.1839 26.5813 11.2666 26.1532 11.4792C25.7251 11.6918 25.3676 12.0251 25.1242 12.4387C23.6607 11.5268 21.8291 11.9571 21.1523 13.5338C20.5252 13.2534 19.8174 13.2161 19.1647 13.4293C18.5121 13.6424 17.9606 14.0909 17.616 14.6886C15.0019 12.1319 12.7854 8.98282 9.8583 6.81812C7.78985 5.28835 4.56662 6.67324 5.83984 9.46859C6.68583 11.3521 8.66122 12.7625 10.0698 14.2113C11.0681 15.2383 12.0706 16.2439 13.0308 17.305C13.7795 18.1274 14.5578 18.9327 15.3446 19.7253C14.1136 23.2323 15.4038 26.6455 18.9146 28.1796C20.7124 28.9636 22.6116 29.2449 24.5193 29.5943C26.2705 29.9139 27.5818 31.0687 28.8254 32.3044C28.722 32.4478 28.6434 32.6077 28.5928 32.7774C28.3728 33.6041 29.2315 34.3882 29.8279 34.9805L29.6376 35.2021C29.5227 35.324 29.4587 35.4857 29.4587 35.6537C29.4587 35.8218 29.5227 35.9835 29.6376 36.1054C30.8262 37.3284 31.9514 38.6153 33.14 39.8425C33.2409 39.9399 33.3702 40.0019 33.5088 40.0196C33.6475 40.0372 33.788 40.0095 33.9098 39.9405C35.1788 39.3397 36.2152 38.0059 37.1584 37.0003C38.3217 35.7603 39.468 34.5458 40.6947 33.3697C41.6295 32.4749 44.8908 30.1099 43.7699 28.448ZM29.6926 31.3457C27.9752 29.6753 26.3974 28.61 23.9779 28.1966C19.8875 27.4978 14.875 25.6399 16.364 20.6969C17.0619 21.3915 17.7641 22.0818 18.4578 22.7806C18.5773 22.9004 18.7391 22.9675 18.9077 22.9671C19.0762 22.9667 19.2378 22.8989 19.3567 22.7785C19.4756 22.6581 19.5422 22.4951 19.5418 22.3253C19.5414 22.1555 19.474 21.9928 19.3546 21.873C16.6051 19.1245 13.9444 16.2951 11.2246 13.521C10.036 12.3151 8.17901 11.0026 7.3584 9.51121C6.84658 8.578 6.73237 7.62349 7.98866 7.54252C8.78389 7.49139 9.01655 7.71298 9.58336 8.20728C10.0613 8.6334 10.4843 9.09361 10.9327 9.54103C13.1365 11.7398 15.1246 14.1304 17.4257 16.2269C17.5051 16.3039 17.6029 16.359 17.7096 16.3869C17.8163 16.4149 17.9283 16.4147 18.0349 16.3865C18.1415 16.3582 18.2391 16.3029 18.3184 16.2257C18.3976 16.1485 18.4558 16.052 18.4874 15.9456C18.7694 14.6758 19.6464 14.3363 21.1184 14.9272C21.2086 15.0126 21.3213 15.0699 21.4431 15.0923C21.5648 15.1147 21.6903 15.1013 21.8046 15.0536C21.919 15.0059 22.0172 14.926 22.0876 14.8235C22.1579 14.7209 22.1974 14.6001 22.2013 14.4755C22.503 13.1233 23.4181 12.9287 24.9466 13.8917C25.026 13.9687 25.1238 14.0238 25.2305 14.0518C25.3371 14.0797 25.4492 14.0796 25.5558 14.0513C25.6624 14.0231 25.76 13.9677 25.8392 13.8905C25.9185 13.8133 25.9767 13.7169 26.0083 13.6105C26.7147 10.8066 29.8533 14.4627 30.5428 15.2255C31.6265 16.3657 32.4646 17.7193 33.0046 19.2012C33.7914 21.498 34.2736 23.603 35.6991 25.593C35.6357 25.6484 35.5764 25.7038 35.5172 25.7507C34.5924 26.502 33.7058 27.2999 32.8608 28.1412C32.0994 28.8869 31.3676 29.6667 30.6443 30.4508C30.399 30.715 30.0436 31.0175 29.6926 31.3457V31.3457ZM29.9802 33.1481C29.9802 32.8797 30.5809 32.4024 30.86 32.0999C31.8033 31.0687 32.7466 30.0375 33.7406 29.0574C34.7922 28.0192 35.9038 27.0445 37.0696 26.1385C37.6956 25.6484 37.6491 25.8572 38.089 26.3686C37.1161 27.3103 36.2574 28.4992 35.3988 29.3514C33.8083 30.9195 32.1925 32.3343 30.6951 33.9833C30.435 33.7246 30.196 33.4453 29.9802 33.1481V33.1481ZM33.711 38.5428C32.7889 37.5755 31.8922 36.5827 30.9743 35.6154C33.0554 33.1908 35.4918 31.1923 37.6703 28.8528C38.1186 28.3713 38.5501 27.877 39.0154 27.4083C39.2776 27.1441 39.8614 26.6711 39.8233 26.6668C40.3732 26.6967 42.3613 28.7975 42.7843 29.2236C42.9366 29.4111 35.7625 36.9278 33.711 38.5428Z" fill="#F7BC13"/>
    <path d="M32.9552 34.5371C32.928 34.5641 32.9039 34.5941 32.8833 34.6266C32.8611 34.6569 32.8427 34.6898 32.8283 34.7246C32.7191 34.8779 32.6416 35.0518 32.6005 35.236C32.5593 35.4201 32.5554 35.6107 32.589 35.7964C32.6225 35.9821 32.6928 36.1591 32.7957 36.3168C32.8986 36.4746 33.032 36.6098 33.1879 36.7146C33.5133 36.9123 33.9025 36.974 34.2725 36.8864C34.6424 36.7988 34.9636 36.5689 35.1675 36.2458C35.3649 35.9193 35.4445 35.5341 35.3929 35.1553C35.3413 34.7765 35.1616 34.4272 34.8841 34.1663C34.275 33.6167 33.4205 33.9746 32.9552 34.5371ZM34.3469 35.7473C34.2782 35.8467 34.1759 35.9176 34.0591 35.9466C33.9424 35.9756 33.8191 35.9608 33.7124 35.9049C33.374 35.7089 33.5347 35.351 33.7124 35.0953C33.89 34.8396 34.1946 34.7246 34.3638 35.0015C34.4348 35.1135 34.4711 35.2442 34.4681 35.377C34.4651 35.5098 34.4229 35.6387 34.3469 35.7473V35.7473Z" fill="#F7BC13"/>
    <path d="M14.1852 8.12059C14.7647 2.73015 7.64566 1.30265 4.39282 4.40907C0.76352 7.86065 2.36667 15.2794 8.11941 14.6786C8.7243 14.6147 8.72853 13.6559 8.11941 13.7198C3.17036 14.2354 2.00714 7.94588 5.0654 5.08661C7.77257 2.52988 13.7199 3.57813 13.2334 8.12059C13.1658 8.7342 14.1175 8.72994 14.1852 8.12059Z" fill="#F7BC13"/>
    <path d="M9.70387 15.4973C7.2928 16.4816 4.28107 15.5228 2.51294 13.6564C-0.122319 10.8398 0.867491 5.92659 3.25319 3.31873C4.37977 2.09855 5.88172 1.29651 7.5165 1.04214C9.15128 0.787765 10.8235 1.0959 12.263 1.91679C14.9913 3.40821 16.8779 7.45636 15.224 10.3327C15.1735 10.4413 15.1651 10.565 15.2003 10.6795C15.2356 10.7941 15.3121 10.8912 15.4147 10.952C15.5173 11.0128 15.6388 11.0328 15.7553 11.0081C15.8718 10.9834 15.9749 10.9157 16.0446 10.8185C17.8508 7.71204 16.2688 3.52753 13.477 1.5418C11.9156 0.430816 10.0232 -0.107139 8.11565 0.0177149C6.20808 0.142569 4.40072 0.922676 2.99517 2.22785C0.135715 4.96355 -1.08674 9.95343 1.17206 13.4647C2.9148 16.1748 6.95018 17.6449 9.95345 16.422C10.516 16.1961 10.2749 15.2672 9.70387 15.4973Z" fill="#F7BC13"/>
    <path d="M39.4568 28.5796C39.3928 28.4666 39.2869 28.3838 39.1624 28.3495C39.0378 28.3151 38.9048 28.332 38.7927 28.3964C38.6805 28.4608 38.5983 28.5675 38.5642 28.6929C38.5301 28.8184 38.5468 28.9524 38.6108 29.0654C38.8773 29.5171 39.1395 29.9688 39.4018 30.4205C39.4714 30.5178 39.5746 30.5854 39.6911 30.6101C39.8076 30.6348 39.929 30.6148 40.0316 30.554C40.1343 30.4933 40.2107 30.3961 40.246 30.2815C40.2813 30.167 40.2729 30.0433 40.2224 29.9347L39.4568 28.5796Z" fill="#F7BC13"/>
    <path d="M40.8357 28.3628C40.7717 28.2498 40.6658 28.167 40.5413 28.1327C40.4167 28.0983 40.2837 28.1152 40.1716 28.1796C40.0594 28.244 39.9772 28.3507 39.9431 28.4762C39.909 28.6016 39.9257 28.7356 39.9897 28.8486C40.1885 29.2747 40.383 29.7349 40.5819 30.1824C40.647 30.2907 40.7515 30.3692 40.8732 30.401C40.9948 30.4328 41.1241 30.4156 41.2333 30.3528C41.34 30.2865 41.4172 30.1812 41.4487 30.0589C41.4802 29.9367 41.4637 29.8069 41.4025 29.6966C41.229 29.2534 41.0302 28.8103 40.8357 28.3628Z" fill="#F7BC13"/>
</svg>