<svg class="mx-auto" width="54" height="40" viewBox="0 0 54 40" fill="none" xmlns="http://www.w3.org/2000/svg"> <g clip-path="url(#clip0_581_94)"> <path d="M53.4604 34.809C52.5867 33.5275 51.261 32.5895 50.0978 31.6515C48.4673 30.3318 47.0501 28.7831 45.4856 27.3652C47.5428 25.8601 47.0095 21.3993 46.9587 19.1416C46.9028 14.3482 46.7402 9.53835 46.6285 4.7449C46.598 3.36521 46.6285 1.77284 45.4348 0.862141C44.1446 -0.141268 41.4627 0.262279 39.9084 0.131399C35.5603 -0.239425 31.1412 0.311359 26.7728 0.131399L12.0423 0.21865C10.7013 0.21865 9.45175 0.0768642 8.56792 1.30931C7.44536 2.90168 7.70441 5.28477 7.77552 7.13344C7.99394 12.9903 7.44537 18.869 7.82125 24.7476C7.82274 25.2759 7.94766 25.7954 8.1846 26.2584C8.42155 26.7215 8.76293 27.1133 9.17747 27.3979C7.14567 28.9467 5.04277 30.4136 3.08208 32.0932C1.63951 33.3366 -0.00116147 34.5036 0.00391801 36.6358C0.00391801 38.5172 0.821717 39.477 2.49795 39.6842C5.88575 40.0141 9.29192 40.0688 12.6874 39.8478C20.4285 39.5479 28.1494 39.8042 35.8854 39.5752C39.2328 39.477 42.5801 39.5752 45.9275 39.6079C47.9593 39.6079 51.6775 40.4041 53.2471 38.5718C53.6878 38.0709 53.9506 37.4197 53.9896 36.7319C54.0286 36.0442 53.8413 35.3636 53.4604 34.809V34.809ZM9.20286 20.2323C9.13175 17.7347 9.06571 15.2371 9.14191 12.7449C9.20794 10.4381 9.28414 8.18593 9.23335 5.87919C9.20287 4.40134 9.23335 2.44905 10.8486 1.87646C11.7375 1.56562 13.1547 1.87646 14.0792 1.87646L26.7779 1.80011C29.5056 1.90918 32.2586 1.96371 34.9812 1.80011C37.013 1.68014 44.3123 0.922126 45.064 3.58334C45.3333 4.52676 45.1148 5.86828 45.1148 6.85532C45.1148 9.03665 45.1656 11.2507 45.252 13.4484C45.3231 15.1989 45.4044 16.9548 45.4348 18.7054C45.4348 19.796 45.4348 20.8867 45.4348 21.9773C45.3993 23.5533 45.6329 24.8458 44.3224 25.6856C42.8443 26.629 40.1928 26.1 38.481 26.0891C36.5864 26.0891 34.6917 26.0182 32.7971 26.0455C29.084 26.1 25.3709 26.3236 21.6578 26.3673C19.8698 26.3673 18.1021 26.3127 16.2938 26.3945C14.6684 26.4654 11.8544 27.1798 10.3407 26.2855C8.68476 25.3257 9.25365 21.8846 9.20286 20.2323V20.2323ZM51.515 37.8792C50.3213 38.479 47.6292 38.0101 46.3187 37.9992C39.7153 37.961 33.0358 37.7429 26.4274 37.8356C19.5142 37.9337 12.6163 38.3809 5.68786 38.2227C4.35196 38.19 1.66998 38.5336 1.52268 36.6631C1.43125 35.4743 2.56397 34.7217 3.31574 34.0182C5.61674 31.8751 8.24792 30.1682 10.7115 28.2486C10.7747 28.1971 10.8311 28.1366 10.8791 28.0687C12.1232 28.2294 13.3795 28.2513 14.6278 28.1341C19.4431 27.8669 24.2788 27.9487 29.1043 27.7797C31.4967 27.6979 33.8942 27.6433 36.2867 27.6815C38.6791 27.7197 41.3103 28.0469 43.718 27.8833L43.7586 27.9215C46.2222 30.0591 48.7721 32.3168 51.1289 34.5854C52.0382 35.4634 53.5722 36.8758 51.515 37.8792V37.8792Z" fill="#F7BC13"/> <path d="M12.4045 24.2504C17.3621 24.1632 22.3501 24.1686 27.3026 23.945C32.2551 23.7214 37.4616 23.4488 42.4192 23.7705C42.4943 23.7705 42.5687 23.7546 42.6381 23.7235C42.7074 23.6925 42.7704 23.647 42.8233 23.5897C42.8762 23.5324 42.918 23.4645 42.9463 23.3897C42.9746 23.315 42.9888 23.235 42.9881 23.1543C42.8509 17.0957 42.8205 11.048 42.597 4.98389C42.5957 4.82183 42.5355 4.66673 42.4292 4.55162C42.3229 4.43651 42.179 4.37051 42.0281 4.36767C32.0672 4.49855 22.1013 4.24224 12.1353 4.36767C11.9868 4.37559 11.8463 4.44248 11.7412 4.55535C11.6361 4.66822 11.5738 4.81902 11.5664 4.97844C11.6511 11.2025 11.7391 17.4265 11.8305 23.6506C11.8358 23.8107 11.8984 23.9625 12.0053 24.0742C12.1123 24.186 12.2553 24.2491 12.4045 24.2504V24.2504ZM41.4744 5.60012C41.6725 11.2443 41.7131 16.8776 41.835 22.5054C37.0349 22.2327 32.0977 22.5054 27.3026 22.7071C22.5076 22.9089 17.738 22.9253 12.9633 23.0071C12.882 17.1902 12.799 11.3734 12.7144 5.55649C22.3044 5.48015 31.8894 5.70919 41.4744 5.60012V5.60012Z" fill="#F7BC13"/> <path d="M32.5137 32.3376C32.4759 32.2107 32.4024 32.0995 32.3032 32.0194C32.204 31.9393 32.0841 31.8942 31.9601 31.8904C28.8209 31.6614 25.6971 31.9722 22.5529 31.994C22.4286 31.9971 22.3084 32.0418 22.2091 32.122C22.1097 32.2022 22.0363 32.3139 21.9992 32.4412C21.5919 33.4822 21.2806 34.5634 21.0696 35.6696C21.0478 35.7902 21.0584 35.915 21.1001 36.0295C21.128 36.1505 21.1935 36.2576 21.2859 36.333C21.3784 36.4084 21.4921 36.4476 21.6081 36.4439C25.372 36.4439 29.3899 36.7548 33.1182 36.1276C33.2641 36.0831 33.3877 35.9784 33.462 35.8364C33.5362 35.6944 33.5551 35.5265 33.5144 35.3696C33.1639 34.3608 32.849 33.3464 32.5137 32.3376ZM22.3548 35.2387C22.5112 34.7448 22.6368 34.2401 22.7306 33.7282C22.7967 33.5646 22.8576 33.3955 22.9186 33.2319H22.9694C24.4628 33.1174 25.9764 33.1065 27.4698 33.0683C28.823 32.9644 30.1818 32.9753 31.5334 33.1011H31.5588C31.6299 33.2919 31.6959 33.4773 31.762 33.6464C31.8617 34.1178 32.0028 34.5779 32.1836 35.0206C28.9581 35.4678 25.565 35.2387 22.3548 35.2387Z" fill="#F7BC13"/> <path d="M26.8286 3.66449C26.9709 3.65008 27.103 3.57922 27.1992 3.46576C27.2954 3.3523 27.3487 3.2044 27.3487 3.051C27.3487 2.89759 27.2954 2.7497 27.1992 2.63624C27.103 2.52278 26.9709 2.45192 26.8286 2.4375C26.6864 2.45192 26.5542 2.52278 26.4581 2.63624C26.3619 2.7497 26.3086 2.89759 26.3086 3.051C26.3086 3.2044 26.3619 3.3523 26.4581 3.46576C26.5542 3.57922 26.6864 3.65008 26.8286 3.66449V3.66449Z" fill="#F7BC13"/> <path d="M13.6348 7.69471C14.0716 8.42182 14.5338 9.13621 15.0215 9.83786C15.1014 9.97434 15.2265 10.0733 15.3716 10.1147C15.5168 10.1562 15.6711 10.1372 15.8037 10.0615C15.9337 9.97842 16.0283 9.84405 16.0672 9.6871C16.1062 9.53016 16.0863 9.36309 16.012 9.22164C15.521 8.52362 15.0587 7.80742 14.6253 7.07304C14.2291 6.40773 13.2386 7.02396 13.6348 7.69471Z" fill="#F7BC13"/> <path d="M17.2749 9.70078C17.7828 10.2788 18.5905 9.41176 18.0825 8.83371L16.2996 6.79962C15.7917 6.25429 14.984 7.0941 15.4869 7.6667L17.2749 9.70078Z" fill="#F7BC13"/> </g> <defs> <clipPath id="clip0_581_94"> <rect width="54" height="40" fill="white"/> </clipPath> </defs> </svg>