<svg width="110" height="177" fill="#fbfaf1" xmlns="http://www.w3.org/2000/svg"><path d="M13.512 50.12c-.568 7.06-.77 14.144-.605 21.224-.08 6.862.543 13.714 1.857 20.45a43.086 43.086 0 007.036 16.649 36.122 36.122 0 0013.832 11.119 53.869 53.869 0 0037.36 2.814c5.628-1.632 11.636-4.222 15.647-8.697 4.01-4.476 6.191-11.02 7.683-16.89 3.644-14.355 2.814-29.343 1.843-43.98-.183-2.815-4.573-2.815-4.404 0 .718 12.075 1.491 24.376-.45 36.367a59.312 59.312 0 01-5.137 17.198 21.485 21.485 0 01-12.002 10.26 49.89 49.89 0 01-35.066.479 34.506 34.506 0 01-14.072-9.064 37.183 37.183 0 01-7.654-14.51c-4.053-13.976-2.336-29.035-3.223-43.376a1.407 1.407 0 00-2.743 0l.098-.042z"/><path d="M15.003 75.635c-.648-2.815-4.306-4.32-6.951-4.222A7.907 7.907 0 00.875 76.62c-2.392 5.981.422 13.173 4.784 17.48a18.446 18.446 0 009.344 5.024c2.251.45 3.208-3.011.942-3.448a15.575 15.575 0 01-12.129-12.09c-.535-2.687-.338-6.572 2.28-8.19a4.657 4.657 0 013.363-.493 7.557 7.557 0 013.363 2.027 1.322 1.322 0 002.18-1.267v-.028zm83.111 2.507c1.9-1.056 5.291-3.068 7.218-.957 1.928 2.11 1.295 6.249.465 8.697a21.014 21.014 0 01-4.573 7.234c-1.858 2.055-3.912 4.152-6.769 4.589a1.702 1.702 0 00-1.182 2.097 1.745 1.745 0 002.097 1.196c3.715-.591 6.571-3.533 8.893-6.277a21.936 21.936 0 005.277-10.26c.591-3.448.338-8.444-3.082-10.429-3.419-1.984-7.233-.267-9.85 2.14-1.07.985.31 2.66 1.534 1.97h-.028zM53.157 93.86c1.168 1.169 3.152.634 4.643.508 1.677-.093 3.346-.3 4.995-.62 3.321-.746 4.63-3.448 3.856-6.629a30.188 30.188 0 01-1.041-4.461c-.14-1.76 0-3.533 0-5.306 0-3.786.084-7.558 0-11.344a1.746 1.746 0 00-3.476 0c0 3.167 0 6.334.099 9.5a75.61 75.61 0 00.281 9.29c.183 1.28.732 2.547.788 3.841.056 1.295-.9 1.506-2.026 1.69-1.492.224-2.983.38-4.475.647-1.492.267-3.053.239-3.827 1.548a1.112 1.112 0 00.169 1.407l.014-.07zM38.434 80.535c.36.025.722-.053 1.04-.225.336-.108.637-.302.873-.563a3.04 3.04 0 00.802-1.928l-.098-.718a2.815 2.815 0 00-.704-1.21l-.549-.422a2.715 2.715 0 00-1.407-.366c-.365-.02-.73.058-1.055.225-.331.116-.63.309-.872.563a2.125 2.125 0 00-.563.886c-.17.32-.252.68-.24 1.042l.099.732c.128.452.37.864.704 1.196l.548.422a2.63 2.63 0 001.407.366h.015zm36.528.081a2.448 2.448 0 000-4.884 2.448 2.448 0 000 4.884zm-20.334 23.786a3.474 3.474 0 002.505.746c.746 0 1.506.085 2.265.071a20.403 20.403 0 002.252-.127c.8-.126 1.59-.31 2.364-.549a1.139 1.139 0 00.816-1.253 1.154 1.154 0 00-1.126-.999c-.802 0-1.407-.155-2.251-.155h-4.348a3.531 3.531 0 00-2.505.605 1.085 1.085 0 000 1.52l.028.141zm2.677 5.053h.085l-.268-.268a.961.961 0 00.648.507h.506c.22.014.441.014.662 0 .201.014.403.014.605 0h.169c.17-.012.337-.055.492-.127l.408-.183-.24.099.437-.141c.188-.074.367-.169.535-.281a.792.792 0 00.166-1.165.784.784 0 00-.363-.243 2.04 2.04 0 00-.591-.141h-.45.267a2.915 2.915 0 00-.858-.07 5.851 5.851 0 00-.873.141 4.045 4.045 0 00-.59.169l-.395.154a1.061 1.061 0 00-.605.704l.183-.324-.07.071a.66.66 0 00.14 1.027v.071zm10.93 10.837a17.91 17.91 0 00-.76 5.039c-.113 1.688-.084 3.391-.099 5.08-.014 1.689 0 3.392 0 5.081a23.925 23.925 0 00.254 5.221c.436 1.816 3.461 1.929 3.813 0a26.962 26.962 0 000-5.221c0-1.689-.07-3.392-.098-5.081-.028-1.689 0-3.392-.07-5.08a18.961 18.961 0 00-.634-5.039 1.296 1.296 0 00-2.009-.663 1.296 1.296 0 00-.468.663h.07z"/><path d="M70.826 136.462a48.761 48.761 0 0110.455 5.053 46.09 46.09 0 018.105 7.332 46.59 46.59 0 018.88 14.384 25.031 25.031 0 011.899 7.515l.366-.211c-.341.05-.687.05-1.028 0h-1.407c-1.576 0-3.138.113-4.7.197-5.403.296-10.778.662-16.181.901-10.765.493-21.544.69-32.365.197-12.037-.458-24-2.108-35.713-4.926l1.548 2.716c2.814-17.522 19.475-26.979 34.658-32.693a2.365 2.365 0 001.66-2.182c0-4.518-.084-9.035-.084-13.553a2.18 2.18 0 00-4.348 0c0 4.518-.085 9.035-.085 13.553l1.66-2.181c-16.533 6.263-34.615 16.776-37.724 35.874a2.267 2.267 0 001.547 2.73c22.979 5.743 46.816 6.024 70.357 4.828 5.84-.296 11.693-.577 17.519-1.112 1.407-.141 2.814-.296 4.221-.479a4.588 4.588 0 003.054-1.111c1.604-1.717.675-4.729.197-6.7a47.39 47.39 0 00-9.4-18.296c-5.488-6.896-13.565-13.848-22.627-14.918-1.9-.225-1.956 2.519-.422 3.11l-.042-.028z"/><path d="M33.141 138.403h-.07a1.267 1.267 0 00-.577 1.407c.774 4.054 5.08 7.037 8.527 8.797a40.455 40.455 0 0014.17 3.631c5.561.522 11.17.098 16.59-1.253a34.953 34.953 0 006.923-2.533 57.834 57.834 0 006.178-4.082c2.589-1.759-.845-5.249-2.646-2.646-2.392 3.491-7.683 5.236-11.595 6.221a47.064 47.064 0 01-14.789 1.21 36.569 36.569 0 01-12.804-3.011 18.778 18.778 0 01-4.757-3.04 35.384 35.384 0 01-3.686-4.518 1.185 1.185 0 00-1.224-.324l-.24.099v.042zM14.922 80.815a5.912 5.912 0 00-5.628-4.053 4.347 4.347 0 00-3.152 1.407 5.377 5.377 0 00-1.196 2.674 8.938 8.938 0 00.211 3.054c.098.52.549 1.239 1.168 1.239.619 0 .97-.83.999-1.408.028-.577 0-.914 0-1.407v-.155c0-.042 0 .211 0 0v-.31c0-.112 0-.281.07-.422 0-.394 0-.098 0 0a.986.986 0 010-.197 3.98 3.98 0 01.141-.577l.084-.281c.085-.254 0 0 0 0s0-.141.085-.17c.041-.087.088-.171.14-.252a.31.31 0 00.071-.113v.084s.14-.168.183-.21c.042-.043.295-.24.155-.142-.141.099 0 0 0 0l.197-.112s.183-.113 0 0h.112l.422-.099s-.21 0 0 0h.915l.422.127.225.113c.262.133.511.288.746.464l.155.113.127.084c-.113-.084 0 0 0 0l.239.197c.48.452.998.861 1.548 1.225a.956.956 0 001.407-1.07l.154.197zm83.007 2.478l.239-.141h-.211c.286-.062.558-.177.802-.338.26-.121.528-.225.802-.31l.802-.225c.183 0 .07 0 0 0h.31l.591-.098h.45c.141 0 .126 0 0 0 .084 0 .267.07.352.098h.084c.113 0 .113 0 0 0s-.084 0 0 0c0 0 0 .085-.07-.098a.5.5 0 00.07.112c.141.197-.084-.239 0-.084.155.38.169.422 0 .127a.337.337 0 000 .126v.127c0 .042 0 0 0 0a3.7 3.7 0 000 .394 1.4 1.4 0 00.281.493s-.182-.254-.112-.141l.141.183a1.136 1.136 0 001.322.098c.354-.234.602-.598.69-1.013a2.04 2.04 0 00-.211-1.407 2.576 2.576 0 00-1.633-1.31 3.616 3.616 0 00-2.209.31 7.193 7.193 0 00-1.8 1.169l-.704.661a2.455 2.455 0 00-.324.338c-.1.121-.195.248-.281.38-.24.295 0 .788.436.563l.183-.014z"/><path d="M35.73 140.165c0 3.842 4.968 6.924 8.063 8.374a32.943 32.943 0 0013.1 2.815 43.762 43.762 0 0013.425-1.703 38.555 38.555 0 0012.495-5.813 2.912 2.912 0 001.013-3.856 2.825 2.825 0 00-1.723-1.314 2.813 2.813 0 00-2.146.301 48.17 48.17 0 01-10.61 4.996 39.395 39.395 0 01-11.58 1.604 36.201 36.201 0 01-10.822-1.717 20.087 20.087 0 01-4.91-2.238c-1.492-.971-2.604-2.35-4.32-2.927a1.583 1.583 0 00-1.367.271 1.574 1.574 0 00-.617 1.249v-.042zm-7.782-73.508a35.404 35.404 0 003.433-2.027 14.71 14.71 0 013.588-1.266 13.14 13.14 0 013.645-.197c1.238.098 2.42.59 3.672.802a1.745 1.745 0 001.337-3.167 10.72 10.72 0 00-4.77-1.182 16.464 16.464 0 00-4.7.366 15.4 15.4 0 00-4.221 1.604 7.866 7.866 0 00-3.603 3.392c-.394.943.76 1.999 1.675 1.675h-.056zm43.267-1.847a25.655 25.655 0 013.11-.956 10.79 10.79 0 013.011.084c1.196.197 2.364.521 3.532.802a8.863 8.863 0 004.109.592 1.759 1.759 0 00.774-2.914 9.735 9.735 0 00-4.404-1.407 26.584 26.584 0 00-4.222-.69c-2.477-.154-5.755.648-7.19 2.815a1.112 1.112 0 001.252 1.619l.028.056zm-1.739 14.838c.289-.157.513-.411.633-.717.068-.204.152-.402.254-.591.221-.437.522-.828.886-1.154a4.812 4.812 0 013.223-.873 9.145 9.145 0 013.644.478 4.095 4.095 0 012.097 2.266 1.548 1.548 0 002.096.55 1.576 1.576 0 00.549-2.098c-1.478-3.448-5.361-4.517-8.823-4.222a7.443 7.443 0 00-4.798 1.984 4.335 4.335 0 00-1.196 2.14 1.928 1.928 0 00.69 2.21.774.774 0 00.745 0v.027zm-38.16-.676c.098-1.14 1.759-1.998 2.617-2.448a8.61 8.61 0 013.926-1.084 5.247 5.247 0 015.178 3.575 1.283 1.283 0 102.477-.676 7.783 7.783 0 00-8.105-5.77 11.003 11.003 0 00-5.629 2.04c-1.491 1.056-3.42 2.815-2.139 4.828a.929.929 0 001.717-.465h-.042zm-21.221-3.886c1.562-1.182 1.224-3.63 1.182-5.39 0-2.111-.126-4.222-.267-6.32-.14-2.096-.338-4.067-.563-6.08-.225-2.012-.211-4.503-1.154-6.304a1.773 1.773 0 00-3.208.422c-.142 2.044.02 4.097.478 6.094.226 2.026.408 4.053.577 6.094.17 2.04.31 4.067.408 6.094.07 1.745-.225 4.222 1.407 5.39a1.182 1.182 0 001.197 0h-.057zm91.63 1.155a16.45 16.45 0 001.928-5.897c.366-2.054.689-4.123.971-6.192.281-2.069.535-4.152.76-6.22.112-1.085.225-2.168.323-3.238a7.453 7.453 0 000-3.209 1.617 1.617 0 00-2.898-.38 7.605 7.605 0 00-.577 3.125 235.43 235.43 0 01-.957 9.472 316.21 316.21 0 01-.802 6.234 18.64 18.64 0 00-.127 6.122.762.762 0 001.085.499.757.757 0 00.322-.316h-.028z"/><path d="M6.18 53.358a120.113 120.113 0 0118.547-3.406c6.416-.563 12.86-.845 19.291-1.126a288.812 288.812 0 0139.175.492 146.12 146.12 0 0122.19 3.758c2.379.591 3.392-3.096 1.014-3.673a184.389 184.389 0 00-40.23-4.8 371.615 371.615 0 00-40.174 1.31c-7.036.647-14.522 1.548-20.797 5.094a1.295 1.295 0 00.985 2.35z"/><path d="M7.576 51.19c.169-5.63-.267-11.386-.324-17.072 0-5.334-.098-10.823 2.702-15.566 5.29-8.979 15.97-12.131 25.638-13.637a123.708 123.708 0 0133.968-.521c9.85 1.21 21.248 2.815 27.861 11.034 7.627 9.43 7.571 22.448 7.599 33.946a1.986 1.986 0 003.32 1.294c.366-.336.592-.798.634-1.294 0-11.259-.31-23.222-6.487-33.074a27.187 27.187 0 00-11.06-10.23A58.584 58.584 0 0075.02 1.62a124.72 124.72 0 00-36.473-.534C27.965 2.494 16.257 5.182 9.18 13.894c-3.898 4.813-5.277 10.5-5.43 16.606a100.27 100.27 0 001.182 21.111c.295 1.534 2.603 1.112 2.645-.366v-.056z"/><path d="M40.19 45.897c.38-3.138.55-6.297.507-9.458a55.29 55.29 0 01.169-9.035c.999-5.63 8.668-6.333 13.185-6.77 4.826-.464 11.172.282 12.664 5.841.512 2.742.743 5.529.69 8.318l.421 9.71c.113 2.59 4.222 2.576 4.039 0-.408-5.558-.52-11.258-1.238-16.761a11.654 11.654 0 00-7.754-9.852c-4.84-1.83-10.722-.929-15.633.197-4.503 1.027-9.02 3.744-9.85 8.641a51.157 51.157 0 00-.14 9.402 73.084 73.084 0 00.59 9.767 1.252 1.252 0 002.407 0h-.057z"/><path d="M38.686 38.126c2.422.277 4.87.215 7.275-.183 2.533-.183 5.08-.31 7.627-.366 5.098-.136 10.2.024 15.281.479 2.49.24 2.547-3.828 0-3.927-5.206-.21-10.385-.267-15.577 0-2.547.141-5.094.352-7.627.634a20.23 20.23 0 00-7.218 1.52 1.013 1.013 0 00.239 1.83v.013z"/><path d="M45.834 36.82a1.211 1.211 0 00-.282.605v.45c0 .367-.098.719-.14 1.07-.07.732 0 1.408-.099 2.196-.098.788 0 1.407 0 2.125a2.731 2.731 0 00.76 2.196.703.703 0 00.704 0 2.66 2.66 0 00.76-2.111v-2.21c0-.802 0-1.407-.099-2.125 0-.352-.098-.704-.14-1.056-.043-.352 0-.352 0-.535a1.098 1.098 0 00-.282-.605.605.605 0 00-1.041 0h-.141zm3.827.31v.113-.281a4.644 4.644 0 00-.155 1.773v1.675a16.53 16.53 0 000 1.675 2.984 2.984 0 00.591 1.843.704.704 0 00.957 0c.355-.545.5-1.2.408-1.843 0-.591-.126-1.197-.21-1.788a39.626 39.626 0 00-.268-1.632l-.127-.859-.07-.352a2.666 2.666 0 00-.127-.478.55.55 0 00-1.07.155h.071zm1.209-7.813a29.167 29.167 0 0113.395-5.531c4.221-.436 10.75-.14 13.326 3.814l1.407-2.364a18.754 18.754 0 00-9.105 2.66 1.576 1.576 0 00.38 2.814c3.547.915 6.84 2.379 8.725 5.63a27.702 27.702 0 012.66 9.852l2.574-1.985a115.82 115.82 0 01-7.162-4.672c-1.323-.943-2.66.605-2.463 1.886.62 3.87 1.126 11.751-4.742 11.751l1.605 1.225a28.15 28.15 0 00-18.63-21.632c-2.35-.802-3.448 3.054-1.028 3.744a23.54 23.54 0 0116.421 18.873 1.675 1.675 0 001.618 1.224 8.118 8.118 0 007.36-4.87c1.688-3.518 1.111-7.402.605-11.118l-2.547 1.886a100.577 100.577 0 007.035 4.828 1.773 1.773 0 002.575-1.985c-.605-3.926-1.322-8.092-3.63-11.428-2.448-3.56-6.205-5.25-10.3-6.178l.366 2.814a14.703 14.703 0 017.528-2.21 1.59 1.59 0 001.407-2.363c-3.11-4.814-9.977-5.912-15.281-5.447-5.629.478-11.651 2.73-15.31 7.248-.62.774.183 2.153 1.154 1.492l.056.042z"/><path d="M42.275 31.726c.506-1.238.985-2.52 1.562-3.73a1.604 1.604 0 00-.408-2.04 1.575 1.575 0 00-2.083.127 12.26 12.26 0 00-2.814 8.542c.084 1.408 2.237 2.323 2.899.789 1.759-4.054 3.49-8.121 5.262-12.174l-1.787.732c-.816-.198-.21-.606-.394-.155a5.673 5.673 0 00-.112.563c-.183.858-.45 1.717-.704 2.561a41.438 41.438 0 01-1.759 4.785l2.885 1.21c1.196-2.983 2.462-5.925 3.715-8.88.253-.577.478-1.168.773-1.717.113-.263.282-.498.493-.69 0 0 .31-.14.338-.169.028-.028-.085 0 0-.098.084-.099 0-.352 0-.225a.297.297 0 010 .154 4.714 4.714 0 01-1.675.479l.422 3.153c3.532-.845 7.036-1.661 10.61-2.478 1.731-.393 1.407-3.363-.422-3.152a20.823 20.823 0 00-9.934 3.744c-1.408 1.027-.634 3.63 1.28 3.04a51.386 51.386 0 006.557-2.548l-1.674-2.814c-5.22 2.744-11.117 6.009-13.34 11.85a1.647 1.647 0 00.746 1.843 1.702 1.702 0 001.984-.253c3.166-2.52 6.571-4.757 9.85-7.121l-1.942-2.505c-2.814 2.885-5.628 5.756-8.344 8.655a1.66 1.66 0 002.012 2.604c3.94-2.374 7.894-4.72 11.862-7.037l-2.307-.943v.253-.943c-.07.408-1.07.802-1.408 1.027-.703.437-1.407.845-2.138 1.267a69.825 69.825 0 00-4.137 2.716.943.943 0 00.717 1.703 23.494 23.494 0 006.234-2.42c1.815-1.042 4.137-2.111 3.771-4.546a1.577 1.577 0 00-2.308-.943c-3.968 2.317-7.95 4.62-11.946 6.91l2.012 2.604c2.814-2.9 5.502-5.827 8.26-8.74 1.182-1.253-.408-3.603-1.942-2.505-3.391 2.434-6.712 5.038-10.216 7.304l2.252 2.238a16.676 16.676 0 014.896-5.94 46.878 46.878 0 017.12-4.292 1.689 1.689 0 00.606-2.28 1.717 1.717 0 00-2.28-.591 49.966 49.966 0 01-5.755 2.21l1.28 3.04a17.504 17.504 0 018.246-3.392l-.436-3.167c-3.532.845-7.036 1.66-10.61 2.477-1.73.394-1.407 3.322.436 3.153 2.153-.183 4.855-1.07 4.869-3.702a3.097 3.097 0 00-4.686-2.519c-1.998 1.041-2.66 3.701-3.461 5.63-1.042 2.448-2.069 4.897-3.152 7.318a1.62 1.62 0 00.577 2.153 1.576 1.576 0 002.152-.563 39.967 39.967 0 002.604-7.234c.45-1.773.914-4.616-1.52-5.165a1.59 1.59 0 00-1.787.732c-1.717 4.068-3.476 8.12-5.22 12.188l2.912.788a9.247 9.247 0 011.928-6.305l-2.702-1.126c-.07 1.408-.267 2.815-.408 4.222-.112 1.112 1.407 1.098 1.801.24l-.112.098z"/><path d="M47.285 33.538a114.4 114.4 0 0122.514-7.389l-.845-3.054a48.95 48.95 0 01-13.381 2.04l.76 2.816a43.05 43.05 0 018.09-2.928c.718-.183 6.192-1.632 6.431-.844l1.098-1.942a28.138 28.138 0 00-9.4 3.138 1.617 1.617 0 00-.324 2.533l4.616 3.59 1.126-2.745a59.255 59.255 0 01-13.256-1.407 1.603 1.603 0 00-1.224 2.913l11.496 7.515 1.689-2.815a78.783 78.783 0 00-12.397-4.897c-1.83-.507-3.096 2.223-1.323 3.138 4.039 2.083 8.077 4.222 12.116 6.235 1.73.887 3.658-1.323 2.139-2.815-4.574-4.39-11.651-7.614-17.998-5.77a1.154 1.154 0 00.296 2.252c5.628.746 10.975 1.956 15.211 6.023l2.139-2.814c-4.053-2.07-8.105-4.096-12.172-6.15l-1.323 3.138a74.388 74.388 0 0111.623 4.447 1.66 1.66 0 001.689-2.815l-11.567-7.417-1.238 2.914a66.121 66.121 0 0014.071 1.548c1.253 0 2.308-1.83 1.14-2.745l-4.601-3.588-.324 2.533a27.38 27.38 0 018.612-2.815 1.618 1.618 0 001.111-1.956c-1.097-3.434-5.46-2.337-8.048-1.788a48.61 48.61 0 00-11.032 3.843 1.506 1.506 0 00.745 2.814 54.544 54.544 0 0014.227-1.956 1.59 1.59 0 00-.845-3.054 56.49 56.49 0 00-22.359 9.289.676.676 0 00.675 1.154l.043-.169z"/><path d="M42.91 34.538c1.239.279 2.501.443 3.77.493l3.49.352c1.168.112 2.322.21 3.49.295 1.168.085 2.814.507 3.855-.183a1.253 1.253 0 00.254-1.942 6.177 6.177 0 00-3.842-.774c-1.21-.07-2.406-.127-3.616-.169-1.21-.042-2.42-.084-3.63-.098a19.83 19.83 0 00-3.772 0c-1.07.183-.914 1.73 0 1.998v.028z"/><path d="M59.793 31.782v-.084a1.294 1.294 0 00-.93-.943 1.56 1.56 0 00-1.505.408 1.295 1.295 0 00-.351 1.309 2.815 2.815 0 001.618 1.52c.97.52 1.913 1.041 2.884 1.534l5.629 2.815a1.623 1.623 0 101.618-2.815 24.02 24.02 0 01-7.036-6.066l-1.927 2.632a47.48 47.48 0 016.796 2.913 32.369 32.369 0 015.938 4.391l2.364-3.068a36.782 36.782 0 01-8.302-5.94l-1.956 3.379a37.751 37.751 0 0112.256 6.431l2.463-3.208a22.054 22.054 0 01-5.755-6.376l-2.815 2.815a45.792 45.792 0 018.443 8.557 2.125 2.125 0 002.814.732 2.054 2.054 0 00.732-2.815c-2.054-3.195-4.77-6.404-8.372-7.84-1.675-.675-2.716 1.718-1.66 2.816 2.222 2.364 4.7 4.222 6.5 7.037l3.532-2.07a52.073 52.073 0 00-9.85-10.006c-1.674-1.295-3.785 1.154-2.814 2.815a26.837 26.837 0 007.233 7.825c1.843 1.407 4.221-1.76 2.462-3.195a43.097 43.097 0 00-14.071-7.445 2.025 2.025 0 00-2.5 2.203c.05.436.242.843.544 1.16a34.248 34.248 0 009.174 6.46 1.983 1.983 0 002.52-.506 1.956 1.956 0 00-.156-2.561 35.673 35.673 0 00-6.81-4.856 27.464 27.464 0 00-7.754-3.04 1.745 1.745 0 00-1.688 2.9 35.179 35.179 0 008.12 6.727l1.617-2.815-4.939-2.336c-.788-.366-1.576-.746-2.378-1.098l-1.21-.52-.605-.268c-.469-.254-.525-.254-.169 0l-.21 1.632.07-.084-.943.394h.112l-1.294-.985v.084c.422 1.689 2.814.957 2.575-.704l-.014.155z"/><path d="M65.325 36.103a61.038 61.038 0 017.78 11.259l2.055-2.66c-2.223-.465-3.49-2.477-4.39-4.405a32.56 32.56 0 00-3.687-7.037 1.746 1.746 0 00-2.898.76 8.657 8.657 0 001.182 6.052 27.53 27.53 0 012.814 4.911l3.307-1.407a27.147 27.147 0 00-7.754-8.965 1.815 1.815 0 00-2.012.14 1.872 1.872 0 00-.647 1.915 15.285 15.285 0 004.686 8.613 1.843 1.843 0 002.378.14 1.801 1.801 0 00.464-2.336l-2.139-2.927-1.562 2.716a24.058 24.058 0 018.317 2.59 1.815 1.815 0 002.195-2.815 5.729 5.729 0 01-1.112-4.081h-3.476c1.098 3.63 2.35 7.853-.168 11.188l3.067 1.802 1.337-1.956c1.126-1.633-1.407-3.603-2.814-2.126a12.13 12.13 0 00-2.392 3.983l3.334.93.76-3.97-3.391-.464a12.36 12.36 0 01-.225 4.222l2.814-.76a15.667 15.667 0 01-3.785-7.15c-.464-1.97-3.25-1.407-3.377.451a7.981 7.981 0 003.475 7.22 1.617 1.617 0 001.956-2.52 5.756 5.756 0 01-1.773-4.827l-3.377.465a19 19 0 004.672 8.67 1.73 1.73 0 002.814-.76 15.23 15.23 0 00.352-5.11 1.745 1.745 0 00-1.492-1.688 1.703 1.703 0 00-1.9 1.238l-.759 3.955a1.731 1.731 0 003.335.929 7.472 7.472 0 011.548-2.435l-2.815-2.125c-.464.647-.914 1.295-1.407 1.928-1.153 1.633 1.548 3.744 2.815 2.153 3.349-4.222 2.28-9.5.844-14.299a1.844 1.844 0 00-1.73-1.323 1.815 1.815 0 00-1.746 1.323 9.74 9.74 0 002.026 7.6l2.196-2.815a29.262 29.262 0 00-10.146-3.082 1.8 1.8 0 00-1.562 2.716 141.57 141.57 0 002.14 2.928l2.813-2.182a12.16 12.16 0 01-3.757-7.037l-2.66 2.055a24.36 24.36 0 016.46 7.656c.97 1.76 4.01.577 3.306-1.407a21.788 21.788 0 00-2.631-4.673c-.83-1.252-1.843-2.814-1.534-4.39l-2.898.773c1.73 2.126 2.28 4.997 3.56 7.39a9.458 9.458 0 005.994 5.136 1.843 1.843 0 002.054-2.674 38.52 38.52 0 00-9.174-11.146 1.238 1.238 0 00-1.745 1.745h.085zm2.797-7.095a9.92 9.92 0 012.392-1.956c.24-.127.479-.268.732-.38l.366-.183.169-.07a14.06 14.06 0 011.548-.48l-1.21-2.898c-.535.295-1.07.59-1.619.872l-.745.366-.296.127-.295.112a17.97 17.97 0 01-3.434.971 1.675 1.675 0 00.45 3.28c2.815.155 5.742.394 8.598.45a1.731 1.731 0 00.872-3.195 4.334 4.334 0 00-2.068-.9 1.547 1.547 0 00-1.491 1.942c.152.43.426.806.788 1.083l.689.563 1.21-2.927c-2.814-.211-5.741-.24-8.598-.352l.45 3.28a18.82 18.82 0 003.56-1.07 15.927 15.927 0 003.519-1.872 1.618 1.618 0 00.647-1.97 1.577 1.577 0 00-1.9-.887 13.199 13.199 0 00-6.05 4.813c-.69 1.014.872 2.196 1.688 1.31l.028-.03z"/><path d="M55.57 21.394a14.236 14.236 0 013.63-.07c1.14 0 2.28 0 3.406.084a26.18 26.18 0 016.909 1.295 28.142 28.142 0 0111.58 7.163l1.773-3.04a23.767 23.767 0 00-5.304-1.407 7.57 7.57 0 00-5.08.492 1.224 1.224 0 000 2.097 14.17 14.17 0 004.615.943c1.643.305 3.251.777 4.799 1.408 1.787.718 2.912-1.816 1.773-3.026a26.537 26.537 0 00-13.27-7.825 29.95 29.95 0 00-7.584-.788 18.143 18.143 0 00-3.7.478c-1.324.352-2.477 1.056-3.758 1.407a.394.394 0 10.211.76v.029z"/><path d="M70.095 31.092c.578-.09 1.16-.137 1.745-.141l1.562-.14c1.1-.102 2.204-.125 3.307-.071 2.162.108 4.303.481 6.374 1.112a1.674 1.674 0 001.618-2.815 18.589 18.589 0 00-7.345-4.912 12.66 12.66 0 00-4.292-.957c-.34.04-.68.1-1.013.183l-1.027.099a7.244 7.244 0 00-2.167.633c-.605.253-.394 1.182.169 1.337a22.17 22.17 0 001.787.408c.294.046.585.107.872.183.338.084.605.296.943.394 1.224.352 2.477.577 3.7 1.027a16.884 16.884 0 016.023 3.955l1.619-2.815a24.675 24.675 0 00-7.261-.605 28.657 28.657 0 00-3.476.465 15.94 15.94 0 00-1.787.478c-.59.183-1.126.577-1.716.746a.727.727 0 10.365 1.408v.028z"/><path d="M74.837 40.802c.957 1.407 1.787 2.73 2.688 4.096a51.054 51.054 0 003.152 4.039c.83 1.013 1.745 2.674 3.25 2.688a2.673 2.673 0 002.49-2.505 14.203 14.203 0 00-1.66-8.726 41.948 41.948 0 00-4.713-7.558c-1.984-2.519-4.968-4.897-8.345-4.616a1.773 1.773 0 00-1.73 1.534 1.745 1.745 0 001.266 1.942 9.44 9.44 0 014.573 2.196 23.754 23.754 0 013.616 4.743 33.475 33.475 0 012.941 5.165c.366.91.644 1.852.83 2.815.094.401.146.812.155 1.224a4.68 4.68 0 000 .76c.085.324-.281 0 .211 0h.816c-.295-.07-1.322-1.407-1.716-1.9a82.333 82.333 0 00-2.153-2.322c-1.407-1.548-3.152-2.815-4.672-4.32-.478-.451-1.407.154-.957.745h-.042z"/><path d="M72.597 31.094c1.618.464 3.236 1.013 4.855 1.492a38.58 38.58 0 014.84 1.703c1.477.647 3.279 1.998 4.925 1.097a2.815 2.815 0 001.168-3.603 10.218 10.218 0 00-2.688-3.518 29.709 29.709 0 00-3.602-3.026 31.07 31.07 0 00-8.443-4.222 28.746 28.746 0 00-4.967-1.098c-1.73-.24-3.968-.478-5.403.648a1.406 1.406 0 000 2.04 6.33 6.33 0 003.124.971c1.097.17 2.209.324 3.292.55a29.12 29.12 0 016.178 2.04 30.396 30.396 0 015.487 3.335c.86.672 1.682 1.391 2.463 2.154.368.316.703.67.999 1.055 0 .085.112.211.183.296.408.38 0 .281 0 .183l.45-.76c.24-.296.225-.099-.098-.324a5.503 5.503 0 00-.943-.38 21.47 21.47 0 00-1.675-.605 32.249 32.249 0 00-3.433-.859 21.681 21.681 0 00-3.279-.38 15.053 15.053 0 00-3.461.352c-.465.07-.408.76 0 .873l.028-.014zm-31.532 5.232a99.466 99.466 0 004.306-.38 10.512 10.512 0 002.575-.45h.24l.534-.141a2.35 2.35 0 001.224-.675 1.155 1.155 0 00-.225-1.788 2.49 2.49 0 00-1.407-.31h-.788c.14 0 .14 0 0 0a9.286 9.286 0 00-2.631.254 88.988 88.988 0 00-4.222.788 1.42 1.42 0 00.38 2.815l.014-.113zM6.73 54.706v3.477a1.407 1.407 0 002.589.703l2.392-4.306-2.814-.746v5.095a1.59 1.59 0 003.11.422c.59-1.858 1.167-3.716 1.787-5.545h-3.096a7.038 7.038 0 010 3.715l3.208.437a6.502 6.502 0 01.591-3.266l-3.025-1.266a270.05 270.05 0 00-2.11 11.09l3.432.464v-4.94H9.418v8.797a1.675 1.675 0 103.35 0c.04-.427.144-.844.309-1.239l-3.279-.45v3.138a6.12 6.12 0 00.55 3.096 1.408 1.408 0 002.574-.337c.268-.957.34-1.957.211-2.942v-2.955a1.675 1.675 0 00-1.407-1.647 1.716 1.716 0 00-1.843 1.196 7.518 7.518 0 00-.436 2.14h3.348V60.04a1.69 1.69 0 00-3.377 0c0 1.647-.126 3.294-.183 4.94-.07 1.943 3.054 2.421 3.434.465.718-3.702 1.407-7.417 1.942-11.147a1.662 1.662 0 00-3.194-.872 11.122 11.122 0 00-.83 4.532 1.647 1.647 0 003.208.436 9.22 9.22 0 000-5.447 1.619 1.619 0 00-3.096 0c-.549 1.858-1.154 3.716-1.745 5.63l3.11.422c0-1.703-.127-3.392-.197-5.095 0-1.407-2.069-2.139-2.814-.746-.746 1.394-1.408 2.928-2.224 4.391l2.603.704c-.14-1.267-.408-2.52-.633-3.772-.225-1.252-2.18-.943-2.18.296l.112-.07zm93.519-1.38c.099-.943-1.083-1.182-1.73-.83a2.28 2.28 0 00-.986 2.21c0 1.59 0 3.18.127 4.77a1.534 1.534 0 001.52 1.52 1.546 1.546 0 001.519-1.52 27.436 27.436 0 00-.323-4.799 22.752 22.752 0 00-.465-2.196 9.854 9.854 0 00-.802-2.448 1.548 1.548 0 00-1.956-.648 1.604 1.604 0 00-.914 1.858c.14.718.492 1.407.675 2.14.185.671.336 1.352.45 2.04l.085.478v.31c0-.112 0-.127 0 0 0 .352 0 .69.099 1.042 0 .745.084 1.491.07 2.237h3.039a111.177 111.177 0 00-.38-3.757l-.098-.93c0-.224 0-.464-.085-.689-.084-.225-.098-.45-.07-.253.028.197 0-.127 0-.155 0-.028 0-.14 0 0a.575.575 0 01-.295.408c.281 0 .436-.492.464-.718l.056-.07z"/><path d="M97.32 51.696a6.868 6.868 0 011.168 3.533 1.802 1.802 0 003.025 1.252 16.548 16.548 0 002.983-4.32l-3.265-.887a25.484 25.484 0 01-.45 4.391 1.888 1.888 0 002.414 2.19c.421-.133.782-.41 1.02-.782.661-1.155 1.322-2.323 2.012-3.463l-3.42-1.407a203.693 203.693 0 00-2.026 8.022 28.949 28.949 0 00-1.196 8.12c.113 2.548 4.01 2.576 3.982 0 0-3.813-.098-7.613-.154-11.413a1.8 1.8 0 00-1.795-1.643 1.8 1.8 0 00-1.794 1.643c-.084 4.461-.281 8.923-.436 13.398h3.518a96.046 96.046 0 01-.296-10.823c0-1.9-3.11-2.42-3.39-.464a74.356 74.356 0 00-.733 14.538h3.42a96.7 96.7 0 01-.732-8.599c0-1.407-.07-2.815-.07-4.222a16.79 16.79 0 00-.225-4.363 1.41 1.41 0 00-2.195-.732c-.244.183-.422.44-.507.732a12.963 12.963 0 00-.464 4.363v4.222c.112 2.871.351 5.737.717 8.6a1.773 1.773 0 001.717 1.702 1.701 1.701 0 001.703-1.703 68.065 68.065 0 01.633-13.652l-3.293-.422a92.56 92.56 0 00.24 10.823 1.76 1.76 0 103.517 0c.155-4.475.268-8.937.507-13.398h-3.588c-.085 3.8-.155 7.6-.24 11.414h3.983a29.538 29.538 0 011.111-7.516c.591-2.533 1.21-5.08 1.745-7.628.408-2.012-2.35-3.392-3.433-1.407-.648 1.168-1.408 2.322-2.027 3.476l3.434 1.407c.438-1.92.533-3.901.281-5.854-.253-1.858-2.899-1.478-3.391 0a8.05 8.05 0 01-2.28 3.152l3.026 1.267a9.462 9.462 0 00-1.773-5.264c-1.267-1.745-4.222-.126-2.941 1.731l-.042-.014zm-38.428-5.672l-.127-.591v.59c.15-.54.203-1.102.155-1.66 0-.225 0-.45-.07-.69a3.953 3.953 0 00-.155-1.083v.394a7.25 7.25 0 00-.084-1.098v-.493a1.929 1.929 0 00-.38-.999 1.196 1.196 0 00-1.858-.24 2.09 2.09 0 00-.563.86c-.05.273-.078.551-.084.83v1.14-.394a2.564 2.564 0 000 1.083c.025.371.087.739.183 1.098.08.343.203.673.366.985 0 .113.436.704.225.31.09.17.209.322.352.45l-.296-.492.211.563a1.085 1.085 0 001.75.66 1.084 1.084 0 00.333-1.223h.042zM34.371 44.15v-1.407a7.664 7.664 0 00-.14-.971 1.407 1.407 0 00-.648-.859 1.21 1.21 0 00-.59-.182c-.21.01-.413.073-.592.182-.32.19-.553.498-.647.859-.069.32-.116.645-.14.971v1.407c-.003.368.139.721.393.986.262.26.616.406.985.408a1.407 1.407 0 001.407-1.408l-.028.014zm-1.061-4.53l.099-.197-.535.408.183-.028a.732.732 0 00.267-.24c.126-.167.199-.368.211-.577 0-.464.127-.928.155-1.407v-.324a1.75 1.75 0 000-.38 3.21 3.21 0 00-.225-.872.929.929 0 00-1.801 0 3.198 3.198 0 00-.225.872 3.083 3.083 0 000 .352 2.992 2.992 0 000 .352c0 .465.098.929.155 1.407.014.209.087.409.21.577.12.167.294.287.493.338l-.52-.408.084.197a.775.775 0 001.407 0l.042-.07zm-.391-7.149l.084-.225a1.28 1.28 0 000-.465 3.995 3.995 0 00-.084-.703l-.127-.408a1.407 1.407 0 00-.338-.704.802.802 0 00-.577-.24.816.816 0 00-.576.24c-.173.2-.29.443-.338.704l-.113.408a3.04 3.04 0 00-.098.703 1.28 1.28 0 000 .465l.084.225.099.24c.061.12.154.221.267.295a.97.97 0 00.62.21 1 1 0 00.52-.14c.224-.137.39-.352.464-.605h.113zm.757-6.544v.282a2.083 2.083 0 010-.591v.295c.027-.218.084-.431.17-.633l-.113.267.127-.267a3.11 3.11 0 00.225-.493l-.113.254.169-.31a1 1 0 00-.155-1.196 1.18 1.18 0 00-.436-.268 1.027 1.027 0 00-.76.099 2.52 2.52 0 00-.774.717 1.56 1.56 0 00-.126.268c-.07.169-.155.338-.212.52a3.547 3.547 0 000 1.675c.07.27.241.503.479.648.254.137.55.172.83.098a1.08 1.08 0 00.633-.478l.113-.268a1.265 1.265 0 000-.563l-.056-.056zm2.196-4.787v-.127l-.084.197v-.07l-.493.38a.24.24 0 00.14 0 .69.69 0 00.296-.197c.055-.063.107-.129.155-.197l-.14.183.154-.155-.197.155.211-.127-.253.113c.104-.023.203-.06.296-.113a.38.38 0 00.112-.098.31.31 0 00.127-.099l.112-.098-.225.169a.993.993 0 01.211-.113l-.267.098.408-.154-.253.098h.07l.24-.098a.986.986 0 00.28-.254.522.522 0 00.127-.225.648.648 0 00.085-.394v-.267l-.099-.24a.858.858 0 00-.267-.281.773.773 0 00-.338-.169 1.252 1.252 0 00-.436-.084h-.62l-.337.14-.24.183-.182.24a2.388 2.388 0 00-.169.394v.169a1.907 1.907 0 000 .408.185.185 0 000 .084.564.564 0 00.07.338.648.648 0 00.183.281l.197.155-.365-.492c.02.132.063.26.126.38l.113.154.155.113.183.07c.095.036.2.036.295 0a.452.452 0 00.197 0l.169-.098a.395.395 0 00.127-.14.564.564 0 00.14-.254l-.014.042zm4.023-3.252l.479-.14c.238-.088.47-.197.69-.324.215-.13.418-.28.604-.45.225-.198.507-.38.563-.704a.929.929 0 00-1.309-1.07l-.225.098a2.533 2.533 0 00-.69.31c-.182.113-.351.24-.52.366a3.41 3.41 0 00-.45.45.915.915 0 00-.14 1.056.93.93 0 00.998.408zm6.677-2.192h1.196c-.14 0-.17 0 0 0h1.041c-.281 0 0 0 0 0h.225l.591-.085h.183a.873.873 0 00.465-.337l-.254.154a.604.604 0 00.408-.478.577.577 0 00-.281-.563l.21.211a1.042 1.042 0 00-.689-.549 2.809 2.809 0 00-.619-.112 4.348 4.348 0 00-.957 0c-.37.026-.734.101-1.083.225-.338.14-.675.267-1 .436a.76.76 0 00-.323.957.79.79 0 00.915.436l-.028-.295zm6.948-.62l.661.225c.31.07.626.113.943.127.239.02.479.02.718 0 .277-.01.547-.087.788-.226l.295-.154a.957.957 0 000-1.647l-.295-.155a1.7 1.7 0 00-.788-.225 3.065 3.065 0 00-.718 0 5.246 5.246 0 00-.943.127l-.661.225a.887.887 0 00-.633.816.93.93 0 00.633.83v.057zm7.101.394a6.152 6.152 0 001.773 1.07c.333.108.678.17 1.028.183.257.028.517.028.774 0a1.14 1.14 0 00.774-.324c.166-.167.27-.385.295-.62a1.07 1.07 0 00-.774-1.196 6.018 6.018 0 01-1.309-.366l.296.113-.929-.352.282.127a5.505 5.505 0 01-.802-.437 1.111 1.111 0 00-1.492.296 1.14 1.14 0 00.084 1.506zm6.599 2.504c0 .112.113.225.183.337l.197.268c.186.282.393.55.62.802l.506.507.253.253c.165.164.368.285.591.352a1.14 1.14 0 00.887-.127l-.76.099.31.084a.76.76 0 00.76-.197.788.788 0 00.196-.76 2.8 2.8 0 000-.338l-.253.957a1.168 1.168 0 00.155-1.407l-.24-.31c-.183-.267-.394-.52-.605-.774-.15-.19-.32-.365-.506-.52a8.444 8.444 0 00-.774-.634l-.253-.098a.857.857 0 00-.423 0 1.11 1.11 0 00-.619.295 1.126 1.126 0 00-.169 1.295l-.056-.084zM13.685 156.885a103.547 103.547 0 0010.666 16.199 1.568 1.568 0 001.13.72 1.584 1.584 0 001.276-.411c5.755-4.602 11.398-9.345 17.069-14.073l-2.52-.324c3.594 4.757 7.173 9.519 10.737 14.285a1.711 1.711 0 001.235.799 1.706 1.706 0 001.397-.461c4.742-4.983 9.639-9.852 14.746-14.37h-2.42a95.602 95.602 0 0014.17 13.652 1.815 1.815 0 002.519 0c4.39-4.738 8.761-9.495 13.114-14.271 1.562-1.717-.985-4.222-2.56-2.562-4.363 4.767-8.72 9.538-13.073 14.314l2.167-.282a89.333 89.333 0 01-13.916-13.272 1.744 1.744 0 00-2.42 0c-5.08 4.603-10.005 9.402-14.691 14.426l2.631.338c-3.616-4.743-7.26-9.472-10.863-14.215a1.655 1.655 0 00-1.183-.755 1.655 1.655 0 00-1.336.432 2789.324 2789.324 0 00-16.942 14.172h2.167c-4.038-5.038-7.57-10.443-11.637-15.481-.69-.845-1.857.239-1.407 1.112l-.056.028z"/><path d="M16.677 152.887c5.756 2.815 12.665 4.011 18.94 5.053a120.468 120.468 0 0019.49 1.548 135.75 135.75 0 0039.033-5.686c2.42-.732 1.407-4.518-1.041-3.8a132.106 132.106 0 01-37.993 5.517 155.468 155.468 0 01-18.982-1.266c-6.36-.789-12.552-2.632-18.898-3.35-1.07-.127-1.407 1.548-.549 1.998v-.014z"/></svg>