<svg width="34" height="34" fill="none" xmlns="http://www.w3.org/2000/svg"><path d="M13.149 4.82V.656H.656v12.492h4.165V4.82h8.328zm0 29.149v-4.164H4.82v-8.328H.656v12.492H13.15zm8.328 0H33.97V21.477h-4.164v8.328h-8.328v4.164zm0-29.149h8.328v8.328h4.164V.656H21.477V4.82z" fill="#FBFAF1"/><path fill-rule="evenodd" clip-rule="evenodd" d="M11.424 11.424a8.328 8.328 0 1111.778 11.778 8.328 8.328 0 01-11.778-11.779zm2.944 2.944a4.164 4.164 0 115.89 5.889 4.164 4.164 0 01-5.89-5.889z" fill="#FBFAF1"/></svg>