<svg width="20" height="26" fill="none" xmlns="http://www.w3.org/2000/svg"><path d="M8.548 8.75a1.417 1.417 0 11-2.834 0 1.417 1.417 0 012.834 0zm4.243 1.417a1.417 1.417 0 100-2.834 1.417 1.417 0 000 2.834z" fill="#FBFAF1"/><path fill-rule="evenodd" clip-rule="evenodd" d="M19.915 25.75V10.167C19.915 4.69 15.475.25 10 .25 4.522.25.082 4.69.082 10.167V25.75h4.007l2.003-2.003 2.004 2.003h3.806l2.003-2.003 2.004 2.003h4.006zm-2.833-15.583a7.083 7.083 0 10-14.167 0v12.75l3.177-3.178L10 23.646l3.906-3.907 3.177 3.177v-12.75z" fill="#FBFAF1"/></svg>