<svg width="349" height="31" fill="none" xmlns="http://www.w3.org/2000/svg"><path d="M42.626 13.221c-10.303-.752-20.425-.579-30.493-1.92-2.96-.403-5.93-.772-8.86-1.294-1.576-.28-2.949-.913-2.7-2.49.25-1.575 1.852-1.258 3.078-1.279 5.139-.177 10.296-.504 15.434-.316 3.425.135 6.3-1.348 9.979-.772-.817-1.264-1.865-1.001-2.8-.927-1.573.13-2.919-.127-3.617-1.371-.353-.625-1.132-1.279-.325-1.97.686-.59 1.42-.163 2.247-.018 3.382.588 6.788.236 10.184.288 15.68.133 31.347.174 47.025.343 14.116.153 28.237.337 42.358.693 10.103.254 20.196.365 30.278.334 15.032-.029 30.056-.236 45.067-.19 11.845.037 23.702.272 35.555.553 18.781.451 37.545 1.675 56.308 2.9 11.731.767 23.475 1.546 35.23 1.56 1.855.024 3.712.168 5.548.433 2.195.293 2.895 1.78 2.719 3.053-.177 1.273-1.923.919-3.307.877-1.924-.054-4.522-.768-4.637 1.882-.043.27-.214.516-.485.697-.27.18-.624.285-1.001.296-1.238.081-1.631.334-1.417 1.475.214 1.141-.89 1.85-2.718 1.814-10.031-.275-20.061-.55-30.079-.536-2.203-.005-4.585-.515-7.454.432 2.983.463 6.017.647 9.024.546.523-.02 1.083-.159 1.385.305.301.465-.592.46-.58.568.101.97 1.279.753 1.941.845 5.822.798 11.677 1.462 17.506 2.261 10.33 1.413 20.646 2.896 30.972 4.359.715.112 1.424.253 2.121.423.788.187 1.468.575 1.907 1.09.44.513.608 1.117.473 1.694-.151 1.042-1.745 1.08-3.039 1.07-8.887-.06-17.731-1.012-26.564-1.853-11.703-1.12-23.39-2.37-35.074-3.65-5.535-.604-11.081-1.34-16.588-1.85-6.332-.585-12.703-1.04-19.06-1.577-10.489-.893-20.968-1.928-31.469-2.67-11.523-.817-23.059-1.382-34.595-2.033-8.761-.49-17.538-.77-26.302-1.23-7.824-.407-15.673-.315-23.505-.262-15.608.116-31.194.577-46.764 1.192-12.712.529-25.44 1.259-38.229 1.24-1.647-.003-3.3-.116-4.916-.146-2.326-.044-3.73-.909-4.062-2.707-.382-2.056 1.932-1.571 3.286-1.972.331-.08.67-.143 1.015-.19zM260.39 7.343a892.096 892.096 0 00-73.203-1.538 843.529 843.529 0 0073.203 1.538zm8.469 13.448c-3.256-.224-6.461-1.187-9.796-.764l9.796.764z" fill="#E9653B"/></svg>