<svg width="112" height="111" viewBox="0 0 112 111" fill="none" xmlns="http://www.w3.org/2000/svg">
<path d="M90.9839 102.306C90.6332 96.6783 89.3069 91.076 88.3698 85.5742C88.2773 84.8582 87.2387 84.5908 86.7489 84.88C83.9403 86.6487 80.8719 88.3505 78.7082 90.839L78.5783 90.8056C62.4384 87.896 50.595 70.4491 42.2298 57.7745C32.5446 43.2369 24.6629 26.5334 24.3641 8.87519C24.6393 6.73107 24.9479 4.45712 25.5162 2.25003C25.7836 1.21139 24.3555 0.843695 23.9582 1.8489C23.858 2.23839 23.7577 2.62788 23.6574 3.01736C23.1381 2.88366 22.6483 3.17286 22.4812 3.82201C22.2433 5.28355 22.2651 6.81196 22.1571 8.30693C14.1369 43.758 40.4663 86.6687 74.1728 97.7006C72.4695 99.477 70.8629 101.417 69.0297 103.16C68.1464 103.901 68.9513 105.077 69.8935 105.182C76.6189 105.944 83.2635 104.332 89.8373 103.533C90.3898 103.537 91.0428 103.152 90.9839 102.306ZM72.2496 103.02C73.4633 101.533 74.417 99.9784 75.7603 98.5246C76.1874 97.9422 75.9313 97.3227 75.5753 97.0926C75.6755 96.7031 75.4828 96.3764 75.1267 96.1465C45.4347 82.9643 25.6965 55.3173 23.7363 24.2181C26.9301 37.0843 33.7373 49.3581 40.8158 60.0404C45.9958 67.8808 51.7325 75.1719 58.3522 81.7216C63.5517 86.798 70.3759 92.0159 77.9549 91.6141C77.298 92.5525 78.7222 93.4729 79.4421 92.8276C81.6981 91.0551 83.9207 89.4124 86.2397 87.9329C87.0209 92.4255 87.9323 96.9515 88.2906 101.474C83.0191 102.055 77.6137 103.155 72.2496 103.02Z" fill="#1f454f"/>
</svg>
