<svg width="37" height="37" viewBox="0 0 37 37" fill="none" xmlns="http://www.w3.org/2000/svg">
<path fill-rule="evenodd" clip-rule="evenodd" d="M18.5756 3.00461C22.9588 3.00461 26.5284 6.57425 26.5284 10.962L26.5283 13.3286C29.1931 14.2561 31.11 16.7929 31.11 19.7702V26.2085C31.11 29.9688 28.0522 33.0265 24.2919 33.0265H12.822C9.06167 33.0265 6.00391 29.9688 6.00391 26.2085V19.7702C6.00391 16.7935 7.92011 14.257 10.5841 13.3292L10.5851 10.962C10.5942 8.8004 11.4303 6.80542 12.9389 5.31031C14.449 3.8137 16.4425 2.94756 18.5756 3.00461ZM24.2919 15.2038H12.822C10.3031 15.2038 8.25557 17.2514 8.25557 19.7702V26.2085C8.25557 28.7273 10.3031 30.7749 12.822 30.7749H24.2919C26.8093 30.7749 28.8583 28.7273 28.8583 26.2085V19.7702C28.8583 17.2514 26.8093 15.2038 24.2919 15.2038ZM18.5566 20.1962C19.1781 20.1962 19.6825 20.7006 19.6825 21.3221V24.656C19.6825 25.2775 19.1781 25.7819 18.5566 25.7819C17.9352 25.7819 17.4308 25.2775 17.4308 24.656V21.3221C17.4308 20.7006 17.9352 20.1962 18.5566 20.1962ZM18.5711 5.25627H18.547C17.0264 5.25627 15.6019 5.84171 14.5256 6.909C13.4418 7.98079 12.8428 9.41135 12.8368 10.9365L12.8355 12.9513H24.2754L24.2768 10.962C24.2768 7.81567 21.7174 5.25627 18.5711 5.25627Z" fill="#FBFAF1"/>
</svg>
