<svg width="44" height="92" viewBox="0 0 44 92" fill="none" xmlns="http://www.w3.org/2000/svg">
<path d="M36.6038 47.4889C31.7878 58.9075 25.2722 71.2367 15.8503 79.8321C23.1921 76.7465 31.5124 73.3449 32.7677 74.6599C33.2818 75.2072 32.5374 76.2205 31.9788 76.618C24.8007 81.5893 -0.0172406 92.9015 0.334724 91.6797C1.10668 86.5686 2.9404 81.5198 4.35827 76.6522C6.49348 69.3272 9.34648 62.2309 12.8758 55.4663C13.0176 55.182 13.607 54.8912 13.7402 55.3466C14.0269 56.3157 13.5643 57.2957 13.4629 58.3483C13.328 59.7712 10.2592 75.5245 9.36441 80.8905C13.3322 76.4845 16.8977 71.7322 20.0182 66.6906C24.1433 60.296 27.9447 53.6984 31.4081 46.9226C35.086 39.5401 37.1844 31.957 39.3558 24.0418C41.438 16.3043 41.4831 8.15969 39.4868 0.399548C39.343 -0.114173 39.9771 -0.0163897 40.129 0.390153C46.0511 15.35 42.6617 33.1421 36.6038 47.4889Z" fill="#1F454F"/>
</svg>
