<svg width="26" height="31" viewBox="0 0 26 31" fill="none" xmlns="http://www.w3.org/2000/svg">
<path fill-rule="evenodd" clip-rule="evenodd" d="M13.0451 0.917969C16.3351 0.917969 19.2722 3.00776 20.3499 6.11984C20.5483 6.69005 20.2449 7.31276 19.6733 7.51109C19.1031 7.71089 18.4803 7.40609 18.282 6.83443C17.5106 4.60464 15.4033 3.10547 13.0408 3.10547H13.0203C9.96951 3.10547 7.48451 5.57589 7.47139 8.6238L7.47036 10.5809L18.6004 10.5819C22.252 10.5819 25.2241 13.554 25.2241 17.2071V23.4604C25.2241 27.1136 22.252 30.0857 18.6004 30.0857H7.45578C3.80266 30.0857 0.832031 27.1136 0.832031 23.4604V17.2071C0.832031 14.3147 2.69433 11.8492 5.28317 10.9478L5.28389 8.64859C5.30284 4.36401 8.76784 0.917969 13.016 0.917969H13.0451ZM18.6004 12.7694H7.45578C5.0087 12.7694 3.01953 14.76 3.01953 17.2071V23.4604C3.01953 25.9075 5.0087 27.8982 7.45578 27.8982H18.6004C21.046 27.8982 23.0366 25.9075 23.0366 23.4604V17.2071C23.0366 14.76 21.046 12.7694 18.6004 12.7694ZM13.0285 17.6195C13.6323 17.6195 14.1223 18.1095 14.1223 18.7133V21.9537C14.1223 22.5574 13.6323 23.0474 13.0285 23.0474C12.4248 23.0474 11.9348 22.5574 11.9348 21.9537V18.7133C11.9348 18.1095 12.4248 17.6195 13.0285 17.6195Z" fill="#fbfaf1"/>
</svg>
