<svg width="34" height="34" viewBox="0 0 34 34" fill="none" xmlns="http://www.w3.org/2000/svg">
<path d="M13.1488 4.82014L13.1488 0.656019L0.656483 0.656017L0.656482 13.1484L4.8206 13.1484L4.8206 4.82014H13.1488Z" fill="#FBFAF1"/>
<path d="M13.1488 33.969L13.1488 29.8049H4.8206L4.8206 21.4766L0.656482 21.4766L0.656483 33.969L13.1488 33.969Z" fill="#FBFAF1"/>
<path d="M21.4771 33.969L33.9694 33.969L33.9694 21.4766L29.8053 21.4766L29.8053 29.8049H21.4771L21.4771 33.969Z" fill="#FBFAF1"/>
<path d="M21.4771 4.82014H29.8053L29.8053 13.1484L33.9694 13.1484L33.9694 0.656017L21.4771 0.656021L21.4771 4.82014Z" fill="#FBFAF1"/>
<path fill-rule="evenodd" clip-rule="evenodd" d="M11.424 11.4235C14.6764 8.17116 19.9496 8.17116 23.202 11.4235C26.4543 14.6759 26.4543 19.9491 23.202 23.2015C19.9496 26.4538 14.6764 26.4538 11.424 23.2015C8.17166 19.9491 8.17166 14.6759 11.424 11.4235ZM14.3685 14.368C15.9947 12.7418 18.6313 12.7418 20.2575 14.368C21.8837 15.9942 21.8837 18.6308 20.2575 20.257C18.6313 21.8832 15.9947 21.8832 14.3685 20.257C12.7423 18.6308 12.7423 15.9942 14.3685 14.368Z" fill="#FBFAF1"/>
</svg>
