<svg width="29" height="29" viewBox="0 0 29 29" fill="none" xmlns="http://www.w3.org/2000/svg">
<path d="M14.5 23.2C12.2718 23.2 10.2392 22.3623 8.7 20.9847C6.92013 19.3917 5.8 17.0767 5.8 14.5C5.8 11.9234 6.92013 9.60832 8.7 8.01529C10.2392 6.63768 12.2718 5.8 14.5 5.8V23.2Z" fill="#FBFAF1"/>
<path fill-rule="evenodd" clip-rule="evenodd" d="M0 14.5C0 6.49187 6.49187 0 14.5 0C22.5081 0 29 6.49187 29 14.5C29 22.5081 22.5081 29 14.5 29C6.49187 29 0 22.5081 0 14.5ZM14.5 26.1C8.0935 26.1 2.9 20.9065 2.9 14.5C2.9 8.0935 8.0935 2.9 14.5 2.9C20.9065 2.9 26.1 8.0935 26.1 14.5C26.1 20.9065 20.9065 26.1 14.5 26.1Z" fill="#FBFAF1"/>
</svg>
