<svg width="40" height="79" viewBox="0 0 40 79" fill="none" xmlns="http://www.w3.org/2000/svg">
<path d="M6.71576 41.4936C11.1727 51.2532 17.1235 61.7577 25.4948 68.9575C19.0631 66.4732 11.7767 63.7402 10.7237 64.91C10.2926 65.3966 10.9624 66.2547 11.456 66.5845C17.7937 70.7048 39.5574 79.8658 39.2219 78.8174C38.4244 74.4138 36.7096 70.0911 35.3593 65.9146C33.326 59.6297 30.6774 53.5609 27.4518 47.7963C27.3219 47.5538 26.8044 47.3171 26.7007 47.7146C26.4772 48.5605 26.9023 49.3969 27.0167 50.3052C27.1695 51.5332 30.2242 65.0882 31.1344 69.7092C27.5892 65.9968 24.3833 61.9745 21.5551 57.6905C17.8233 52.2612 14.3665 46.6479 11.1978 40.8719C7.82792 34.5764 5.81997 28.0671 3.74045 21.2724C1.74257 14.6292 1.49724 7.58205 3.02831 0.815937C3.13972 0.367726 2.59349 0.468402 2.4723 0.824071C-2.27379 13.9202 1.10998 29.2314 6.71576 41.4936Z" fill="#1F454F"/>
</svg>
