<svg width="26" height="31" viewBox="0 0 26 31" fill="none" xmlns="http://www.w3.org/2000/svg">
<path fill-rule="evenodd" clip-rule="evenodd" d="M12.5756 0.00460524C16.9588 0.00460524 20.5285 3.57425 20.5285 7.962L20.5283 10.3286C23.1931 11.2561 25.11 13.7929 25.11 16.7702V23.2085C25.11 26.9688 22.0522 30.0265 18.2919 30.0265H6.82195C3.06167 30.0265 0.00390625 26.9688 0.00390625 23.2085V16.7702C0.00390625 13.7935 1.92011 11.257 4.58411 10.3292L4.58515 7.962C4.59415 5.8004 5.43027 3.80542 6.93889 2.31031C8.44901 0.813704 10.4425 -0.052437 12.5756 0.00460524ZM18.2919 12.2038H6.82195C4.30309 12.2038 2.25557 14.2514 2.25557 16.7702V23.2085C2.25557 25.7273 4.30309 27.7749 6.82195 27.7749H18.2919C20.8093 27.7749 22.8583 25.7273 22.8583 23.2085V16.7702C22.8583 14.2514 20.8093 12.2038 18.2919 12.2038ZM12.5566 17.1962C13.1781 17.1962 13.6825 17.7006 13.6825 18.3221V21.656C13.6825 22.2775 13.1781 22.7819 12.5566 22.7819C11.9352 22.7819 11.4308 22.2775 11.4308 21.656V18.3221C11.4308 17.7006 11.9352 17.1962 12.5566 17.1962ZM12.5711 2.25627H12.547C11.0264 2.25627 9.60186 2.84171 8.52556 3.909C7.44176 4.98079 6.84282 6.41135 6.83681 7.93648L6.83546 9.95132H18.2754L18.2768 7.962C18.2768 4.81567 15.7174 2.25627 12.5711 2.25627Z" fill="#FBFAF1"/>
</svg>
