<svg width="134" height="189" viewBox="0 0 134 189" fill="none" xmlns="http://www.w3.org/2000/svg">
<path d="M106.298 83.9281C105.313 93.6391 105.087 103.421 102.076 112.78C101.364 114.989 100.421 117.116 99.262 119.127C98.9102 119.76 98.5021 120.366 98.094 120.957C98.0237 121.069 97.9392 121.168 97.8548 121.28C97.7704 121.393 98.2207 120.844 97.8548 121.28C97.489 121.717 97.1794 122.083 96.7995 122.463C92.7751 126.685 86.9495 128.824 81.321 130.161C75.1072 131.662 68.6627 131.954 62.3388 131.02C56.2517 130.174 50.4035 128.085 45.1577 124.883C40.1983 121.683 36.2504 117.139 33.774 111.78C29.6229 103.139 28.9334 93.1184 28.6942 83.6326C28.6942 80.8178 24.2195 80.8178 24.2899 83.6326C24.515 92.5554 25.0497 101.858 28.2861 110.275C30.4709 116.313 34.1848 121.681 39.0648 125.854C44.0742 129.866 49.8921 132.747 56.1192 134.299C68.6849 137.564 83.7131 136.494 94.9843 129.626C99.7077 126.695 103.272 122.22 105.073 116.96C106.555 112.954 107.607 108.802 108.211 104.575C109.375 97.8095 109.678 90.9241 109.112 84.0829C109.041 83.772 108.867 83.4943 108.617 83.2955C108.368 83.0966 108.059 82.9883 107.74 82.9883C107.421 82.9883 107.112 83.0966 106.862 83.2955C106.613 83.4943 106.439 83.772 106.368 84.0829L106.298 83.9281Z" fill="#1F454F"/>
<path d="M26.657 87.0939C26.0097 84.2791 22.3512 82.7732 19.7057 82.8717C18.1263 82.9232 16.5984 83.4468 15.3193 84.3749C14.0402 85.3031 13.0684 86.5933 12.5294 88.0791C10.1372 94.0605 12.9656 101.252 17.3136 105.559C19.871 108.11 23.119 109.856 26.657 110.583C28.9084 111.034 29.8652 107.572 27.5998 107.135C24.6155 106.535 21.8745 105.068 19.7196 102.918C17.5647 100.767 16.0915 98.0291 15.4843 95.0457C14.9356 92.3576 15.1466 88.4732 17.7498 86.8547C18.7688 86.2726 19.9698 86.0967 21.1129 86.3621C22.3929 86.7294 23.553 87.4286 24.4759 88.3887C24.6838 88.5779 24.9465 88.6959 25.226 88.7256C25.5055 88.7554 25.7871 88.6954 26.0302 88.5542C26.2732 88.4131 26.465 88.1981 26.5777 87.9406C26.6904 87.6831 26.7182 87.3964 26.657 87.1221V87.0939Z" fill="#1F454F"/>
<path d="M109.758 89.6008C111.672 88.5453 115.049 86.5327 116.977 88.6438C118.905 90.7549 118.272 94.8926 117.441 97.3415C116.43 100.041 114.873 102.504 112.868 104.576C111.011 106.63 108.956 108.727 106.1 109.164C105.665 109.285 105.297 109.574 105.075 109.967C104.853 110.361 104.797 110.826 104.918 111.261C105.046 111.692 105.335 112.057 105.726 112.28C106.117 112.503 106.578 112.566 107.015 112.457C110.729 111.866 113.586 108.924 115.908 106.18C118.55 103.292 120.372 99.7496 121.184 95.9201C121.775 92.472 121.522 87.4757 118.103 85.4913C114.683 83.5069 110.87 85.2239 108.253 87.6305C107.183 88.6157 108.562 90.2905 109.787 89.6008H109.758Z" fill="#1F454F"/>
<path d="M64.805 106.728C65.973 107.896 67.957 107.362 69.4486 107.235C71.1304 107.141 72.804 106.935 74.458 106.616C77.7647 105.87 79.0734 103.168 78.2994 99.9869C77.8379 98.5298 77.4944 97.0378 77.2722 95.5255C77.1175 93.7663 77.2019 91.9929 77.2722 90.2196C77.2722 86.4337 77.3567 82.6619 77.2722 78.876C77.2722 78.4132 77.0884 77.9693 76.7612 77.642C76.434 77.3147 75.9902 77.1309 75.5274 77.1309C75.0646 77.1309 74.6208 77.3147 74.2936 77.642C73.9664 77.9693 73.7826 78.4132 73.7826 78.876C73.7826 82.0426 73.7826 85.2093 73.8811 88.3759C73.7848 91.475 73.8788 94.5771 74.1625 97.6647C74.3454 98.9454 74.8942 100.212 74.9505 101.507C75.0068 102.802 74.0499 103.013 72.9242 103.196C71.4326 103.421 69.9411 103.576 68.4495 103.843C66.958 104.111 65.396 104.082 64.6221 105.391C64.4821 105.609 64.4224 105.868 64.4532 106.125C64.4841 106.382 64.6035 106.62 64.791 106.799L64.805 106.728Z" fill="#1F454F"/>
<path d="M50.0861 95.7213C50.574 95.742 51.0589 95.6353 51.4932 95.4117C51.9428 95.2661 52.3458 95.0038 52.6611 94.6517C53.0091 94.3355 53.2665 93.9323 53.4069 93.4836C53.6446 93.0541 53.7567 92.5664 53.7305 92.0762L53.5898 91.1192C53.4279 90.5115 53.1074 89.9577 52.6611 89.5147L51.9294 88.9518C51.3776 88.6184 50.7448 88.4432 50.1001 88.4451C49.61 88.4189 49.1224 88.5311 48.693 88.7688C48.2443 88.9092 47.8412 89.1667 47.5251 89.5147C47.173 89.8301 46.9108 90.2332 46.7652 90.6829C46.5417 91.1172 46.435 91.6022 46.4556 92.0903L46.5823 93.0614C46.7529 93.6645 47.0778 94.2126 47.5251 94.6517L48.2568 95.2287C48.8117 95.5532 49.4433 95.7233 50.0861 95.7213Z" fill="#1F454F"/>
<path d="M88.0371 95.7088C92.2585 95.7088 92.2585 89.2207 88.0371 89.2207C83.8157 89.2207 83.8157 95.7088 88.0371 95.7088Z" fill="#1F454F"/>
<path d="M66.2814 115.861C66.9875 116.426 67.8859 116.694 68.7861 116.607C69.5319 116.607 70.2917 116.692 71.0516 116.677C71.8038 116.677 72.5555 116.635 73.303 116.551C74.0984 116.424 74.8837 116.241 75.6529 116.002C75.917 115.927 76.145 115.758 76.2949 115.528C76.4449 115.298 76.5067 115.021 76.469 114.749C76.432 114.476 76.298 114.224 76.0915 114.041C75.8849 113.858 75.6195 113.754 75.3433 113.75C74.5412 113.75 73.9362 113.595 73.0919 113.595C72.2476 113.595 71.6848 113.595 70.9108 113.595H68.7438C67.8625 113.474 66.9681 113.69 66.2391 114.2C66.0431 114.405 65.9336 114.677 65.9336 114.96C65.9336 115.244 66.0431 115.516 66.2391 115.72L66.2814 115.861Z" fill="#1F454F"/>
<path d="M68.9497 120.912H69.0342L68.7668 120.644C68.8333 120.769 68.9253 120.879 69.0368 120.966C69.1483 121.053 69.2768 121.116 69.4141 121.151H69.9347C70.1503 121.165 70.3665 121.165 70.582 121.151C70.7882 121.165 70.995 121.165 71.2012 121.151H71.4263C71.5968 121.139 71.7637 121.096 71.9188 121.024L72.3409 120.841L72.0877 120.94L72.5239 120.799C72.7117 120.725 72.891 120.63 73.0586 120.518C73.1825 120.436 73.2811 120.322 73.343 120.187C73.4049 120.053 73.4276 119.903 73.4085 119.756C73.3894 119.61 73.3293 119.471 73.235 119.357C73.1408 119.242 73.0162 119.157 72.8757 119.11C72.6815 119.035 72.4779 118.988 72.2706 118.969H71.8203H72.0877C71.8066 118.904 71.5173 118.88 71.2293 118.899C70.9354 118.924 70.6438 118.971 70.3569 119.04C70.1559 119.081 69.9584 119.138 69.7659 119.209L69.3719 119.364C69.2241 119.427 69.0927 119.523 68.9879 119.645C68.883 119.767 68.8074 119.912 68.7668 120.067L68.9497 119.743V119.814C68.8807 119.886 68.8288 119.972 68.798 120.067C68.7672 120.162 68.7582 120.263 68.7717 120.362C68.7853 120.46 68.821 120.555 68.8762 120.638C68.9314 120.721 69.0046 120.79 69.0905 120.841L68.9497 120.912Z" fill="#1F454F"/>
<path d="M79.8716 131.751C79.3794 133.386 79.1236 135.082 79.1118 136.79C78.9992 138.478 79.0273 140.181 79.0133 141.87C78.9992 143.559 79.0133 145.262 79.0133 146.951C78.9049 148.696 78.9946 150.448 79.2806 152.172C79.4037 152.581 79.6548 152.938 79.997 153.193C80.3391 153.447 80.754 153.584 81.1803 153.584C81.6065 153.584 82.0214 153.447 82.3636 153.193C82.7057 152.938 82.9569 152.581 83.0799 152.172C83.2559 150.436 83.2559 148.687 83.0799 146.951C83.0799 145.262 83.0799 143.559 82.9955 141.87C82.911 140.181 82.9955 138.478 82.911 136.79C82.9268 135.089 82.7139 133.395 82.2778 131.751C82.1969 131.486 82.0329 131.253 81.81 131.088C81.587 130.923 81.317 130.834 81.0396 130.834C80.7621 130.834 80.4921 130.923 80.2691 131.088C80.0462 131.253 79.8822 131.486 79.8013 131.751H79.8716Z" fill="#1F454F"/>
<path d="M82.4714 147.921C86.1464 149.18 89.6566 150.876 92.9264 152.974C95.9093 155.088 98.6302 157.549 101.032 160.306C104.843 164.519 107.853 169.394 109.911 174.69C110.928 177.083 111.574 179.617 111.824 182.205L112.176 181.994C111.835 182.044 111.489 182.044 111.149 181.994H109.812C108.25 181.994 106.674 182.107 105.112 182.191C99.7229 182.487 94.3336 182.853 88.9302 183.092C78.1797 183.584 67.387 183.782 56.5661 183.289C44.4998 182.839 32.5082 181.189 20.7686 178.363L22.3024 181.079C25.1167 163.557 41.7771 154.1 56.9601 148.386C57.4303 148.241 57.8434 147.953 58.1413 147.562C58.4391 147.171 58.6068 146.696 58.6205 146.204C58.6205 141.686 58.5361 137.169 58.5361 132.651C58.4921 132.104 58.244 131.595 57.8411 131.223C57.4383 130.851 56.9102 130.645 56.3621 130.645C55.8139 130.645 55.2859 130.851 54.883 131.223C54.4802 131.595 54.232 132.104 54.188 132.651C54.188 137.169 54.1036 141.686 54.1036 146.204L55.764 144.023C39.2302 150.286 21.1485 160.799 18.0388 179.897C17.8945 180.464 17.975 181.065 18.2635 181.574C18.552 182.083 19.0261 182.46 19.5866 182.627C42.5651 188.37 66.402 188.651 89.9433 187.455C95.7829 187.159 101.637 186.878 107.462 186.343C108.869 186.202 110.276 186.047 111.684 185.864C112.807 185.877 113.897 185.482 114.751 184.753C116.341 183.036 115.412 180.024 114.934 178.053C113.178 171.34 109.97 165.094 105.534 159.757C100.047 152.861 91.9696 145.909 82.9076 144.839C81.008 144.614 80.9517 147.358 82.4855 147.949L82.4714 147.921Z" fill="#1F454F"/>
<path d="M26.586 92.2721C26.1927 91.0906 25.4372 90.063 24.4268 89.3354C23.4165 88.6078 22.2025 88.2171 20.9575 88.2188C20.3639 88.2257 19.778 88.3542 19.2359 88.5962C18.6938 88.8383 18.207 89.1888 17.8055 89.6261C17.1671 90.3896 16.753 91.3153 16.6095 92.3002C16.5107 93.3229 16.5821 94.3548 16.8205 95.3542C16.9331 95.8749 17.3693 96.5927 17.9885 96.5927C18.6076 96.5927 18.9594 95.7624 18.9875 95.1853C19.0157 94.6083 18.9875 94.2705 19.0579 93.7779C19.0579 93.7779 19.0579 93.6654 19.0579 93.6231C19.0579 93.5809 19.0579 93.8342 19.0579 93.6231C19.0658 93.5201 19.0658 93.4166 19.0579 93.3135C19.0579 93.1728 19.0579 93.032 19.0579 92.8913C19.0579 92.4972 19.0579 92.7927 19.0579 92.8913C19.0442 92.8263 19.0442 92.7592 19.0579 92.6943C19.0898 92.4986 19.1369 92.3056 19.1986 92.1172L19.283 91.8357C19.3815 91.5824 19.283 91.8357 19.283 91.8357C19.283 91.8357 19.283 91.695 19.3675 91.6668C19.4089 91.5795 19.4559 91.4949 19.5082 91.4135C19.515 91.3763 19.515 91.3382 19.5082 91.3009V91.3854C19.5082 91.3854 19.6489 91.2165 19.6911 91.1742C19.7333 91.132 19.9866 90.935 19.8459 91.0335C19.7052 91.1321 19.8459 91.0335 19.8459 91.0335L20.0429 90.9209C20.0429 90.9209 20.2258 90.8083 20.0429 90.9209C19.86 91.0335 20.1414 90.9209 20.1695 90.9209L20.5776 90.8224C20.5776 90.8224 20.3665 90.8224 20.5776 90.8224H21.056C21.056 90.8224 21.3374 90.8224 21.1827 90.8224H21.4219L21.844 90.9491L22.0692 91.0617C22.3307 91.1947 22.5802 91.35 22.8149 91.5261L22.9697 91.6387L23.0964 91.7231C22.9838 91.6387 23.0964 91.7231 23.0964 91.7231L23.5889 92.075C24.0691 92.5264 24.5869 92.936 25.1367 93.2994C25.3008 93.3878 25.4868 93.427 25.6726 93.4125C25.8584 93.3979 26.036 93.3303 26.1844 93.2175C26.3328 93.1047 26.4455 92.9516 26.5093 92.7765C26.573 92.6014 26.585 92.4116 26.5438 92.2298L26.586 92.2721Z" fill="#1F454F"/>
<path d="M109.575 94.7492L109.814 94.6084H109.603C109.889 94.5461 110.161 94.4316 110.405 94.2707C110.665 94.1492 110.933 94.0457 111.207 93.961L112.009 93.7358C112.192 93.7358 112.009 93.7358 112.009 93.7358H112.319L112.91 93.6373C112.685 93.6373 113.008 93.6373 113.093 93.6373H113.374C113.501 93.6373 113.487 93.6373 113.374 93.6373C113.458 93.6373 113.641 93.7077 113.726 93.7358H113.81C113.923 93.7358 113.923 93.7358 113.81 93.7358C113.698 93.7358 113.726 93.7358 113.81 93.7358C113.895 93.7358 113.81 93.7358 113.81 93.7358C113.81 93.7358 113.81 93.8203 113.74 93.6373C113.758 93.6779 113.782 93.7158 113.81 93.7499C113.951 93.947 113.726 93.5107 113.81 93.6655C113.965 94.0455 113.979 94.0877 113.81 93.7922C113.802 93.834 113.802 93.877 113.81 93.9188C113.81 93.9188 113.81 94.0033 113.81 94.0455C113.81 94.0877 113.81 94.0455 113.81 94.0455C113.803 94.1767 113.803 94.3083 113.81 94.4395C113.87 94.6211 113.965 94.7888 114.092 94.9321C114.092 94.9321 113.923 94.6788 113.979 94.7914L114.12 94.9744C114.302 95.1268 114.528 95.2182 114.765 95.2359C115.003 95.2535 115.239 95.1966 115.442 95.0729C115.796 94.8386 116.044 94.4747 116.132 94.0596C116.233 93.5803 116.158 93.0808 115.921 92.6522C115.756 92.3319 115.525 92.0499 115.244 91.8245C114.962 91.599 114.637 91.4351 114.289 91.3433C113.538 91.2121 112.765 91.3204 112.079 91.6529C111.427 91.9468 110.824 92.3409 110.292 92.8211C110.039 93.0322 109.8 93.2573 109.575 93.4825C109.456 93.5846 109.348 93.6977 109.251 93.8203C109.15 93.9417 109.056 94.0686 108.97 94.2003C108.73 94.4959 108.97 94.9884 109.406 94.7633L109.575 94.7492Z" fill="#1F454F"/>
<path d="M42.3596 94.4264C43.3728 94.2434 43.7668 93.1456 44.2452 92.3997C44.6057 91.8912 45.0157 91.4198 45.4694 90.9923C46.0029 90.5588 46.5892 90.1946 47.2142 89.9086C47.5097 89.7679 47.2142 89.9086 47.3972 89.8382C47.5801 89.7679 47.7349 89.7116 47.9037 89.6694L48.5369 89.5145C48.9028 89.4301 48.5369 89.5145 48.7058 89.5145C49.0617 89.4866 49.4193 89.4866 49.7752 89.5145C49.9019 89.5145 50.2677 89.5145 49.9581 89.5145L50.5773 89.6412C50.926 89.7278 51.2691 89.8359 51.6045 89.9649C51.2527 89.8242 51.8437 90.1056 51.8578 90.1056L52.3221 90.3731L52.7724 90.6545C52.7724 90.6545 53.293 91.0627 53.0257 90.8375C53.3005 91.0629 53.5591 91.3075 53.7996 91.5693L54.0388 91.8367L54.2499 92.1323C54.4891 92.4982 54.658 92.8923 54.8972 93.2441C55.1364 93.7305 55.5536 94.1063 56.0622 94.2935C56.5708 94.4807 57.132 94.465 57.6294 94.2497C58.1268 94.0344 58.5223 93.636 58.7341 93.137C58.9458 92.638 58.9575 92.0767 58.7668 91.5693C58.3896 90.3963 57.7384 89.3301 56.8672 88.459C56.1681 87.6877 55.3512 87.0322 54.4469 86.5168C52.442 85.3935 50.1113 84.9959 47.8474 85.3909C45.7332 85.7937 43.8127 86.8878 42.3878 88.5012C41.6551 89.329 41.0782 90.2827 40.6851 91.316C40.414 91.9154 40.3353 92.5841 40.46 93.2301C40.5664 93.6342 40.8251 93.9815 41.1818 94.1993C41.5385 94.417 41.9656 94.4883 42.3737 94.3982L42.3596 94.4264Z" fill="#1F454F"/>
<path d="M81.4359 93.9888C82.144 93.4731 82.7381 92.8167 83.1807 92.0607C83.5704 91.612 83.9837 91.1845 84.419 90.7799C84.8271 90.3999 84.1939 90.9066 84.6582 90.5829L85.0804 90.3155L85.5025 90.0622L85.7558 89.9355C86.058 89.8113 86.3683 89.7079 86.6845 89.6259L87.2614 89.5133C86.9659 89.5133 87.2614 89.5133 87.4021 89.5133H88.2042C87.965 89.5133 88.4716 89.5133 88.5138 89.5133C88.7048 89.5452 88.893 89.5923 89.0766 89.654L89.541 89.8089C89.738 89.8792 89.3721 89.7103 89.6958 89.8792C90.0194 90.0481 90.329 90.217 90.6385 90.414C90.723 90.4844 91.0044 90.6955 90.7793 90.5126C90.9481 90.6392 91.0888 90.7799 91.2436 90.9207C91.4923 91.1506 91.7272 91.395 91.9472 91.6526L92.0738 91.8074C91.9894 91.6807 91.9894 91.6807 92.0738 91.8074L92.3553 92.2436C92.5752 92.5992 92.7681 92.9709 92.9322 93.3555C93.2083 93.8257 93.6589 94.1678 94.1859 94.3075C94.7129 94.4472 95.2737 94.3731 95.7464 94.1014C96.2059 93.8155 96.5381 93.364 96.6742 92.8401C96.8104 92.3163 96.7402 91.7602 96.4782 91.2866C95.7107 89.5075 94.4213 88.0033 92.7806 86.973C91.1399 85.9427 89.2251 85.4347 87.2896 85.5163C85.3301 85.6966 83.4756 86.4838 81.9847 87.7681C80.5775 88.9081 78.7623 91.2303 79.4518 93.1444C79.5167 93.3354 79.6218 93.5103 79.7602 93.6571C79.8985 93.804 80.0668 93.9194 80.2537 93.9955C80.4405 94.0715 80.6415 94.1065 80.843 94.0981C81.0446 94.0897 81.242 94.038 81.4218 93.9466L81.4359 93.9888Z" fill="#1F454F"/>
<path d="M20.7739 83.2953C21.1398 78.285 21.1679 73.2325 21.4071 68.194C21.4915 66.4911 21.2523 63.9718 23.0675 63.1133C23.885 62.8244 24.7221 62.5939 25.5722 62.4237C26.668 62.0618 27.7356 61.6196 28.7664 61.1007C32.7205 59.1585 36.1961 56.4423 40.3471 54.8519C44.2148 53.4166 48.2645 52.5308 52.3781 52.2201C61.1164 51.4882 69.8688 52.5438 78.5367 53.4586C87.2047 54.3734 96.3792 54.4297 104.329 57.8637C106.473 58.72 108.442 59.96 110.141 61.523C111.928 63.3244 112.252 65.9422 112.66 68.3347C113.579 73.9899 113.697 79.7463 113.012 85.4346C112.702 88.1649 116.98 88.1368 117.233 85.4346C117.848 80.0426 117.772 74.5942 117.008 69.2214C116.777 66.7002 116.213 64.2205 115.333 61.8466C114.348 59.7513 112.792 57.9759 110.845 56.7238C103.119 51.1786 92.9739 50.7705 83.8698 49.8416C74.2028 48.8423 64.4373 47.4631 54.6999 47.9416C49.9989 48.1118 45.342 48.9117 40.8537 50.3201C36.2383 51.8541 32.4813 54.4438 28.3584 56.9489C27.1521 57.7175 25.8694 58.3589 24.531 58.863C23.5741 59.2007 22.561 59.3978 21.6182 59.82C20.5848 60.3127 19.7087 61.0829 19.0875 62.0446C18.4663 63.0064 18.1245 64.1219 18.1004 65.2666C17.8718 68.0754 17.8201 70.8957 17.9456 73.711C17.9381 76.9209 18.0931 80.1292 18.4099 83.3235C18.4099 83.6295 18.5315 83.9231 18.7479 84.1395C18.9643 84.356 19.2578 84.4775 19.5638 84.4775C19.8698 84.4775 20.1633 84.356 20.3797 84.1395C20.5961 83.9231 20.7176 83.6295 20.7176 83.3235L20.7739 83.2953Z" fill="#1F454F"/>
<path d="M19.3624 84.9564C25.0613 86.3638 31.0416 84.3231 36.5435 82.8454C42.7223 81.2449 49.0731 80.4036 55.4554 80.3402C67.416 80.0728 79.5736 79.6365 91.4639 81.3253C98.1868 82.1919 104.753 84.0067 110.967 86.7157C113.683 87.9401 116.061 83.9009 113.317 82.6765C102.06 77.638 89.8739 75.9914 77.6459 75.6395C71.4967 75.4706 65.3335 75.6395 59.1843 75.6395C52.5544 75.5817 45.9411 76.314 39.4844 77.821C36.1777 78.7076 32.9835 79.8898 29.7189 80.8891C26.326 81.8868 22.8646 82.6347 19.3624 83.1269C18.3915 83.2676 18.5041 84.7453 19.3624 84.9564Z" fill="#1F454F"/>
<path d="M23.2926 61.0287C25.333 53.3302 25.4174 44.9703 31.046 38.7074C36.3368 32.8104 44.47 30.5727 51.9278 28.8557C68.0817 25.2105 87.0076 24.9291 99.7703 37.0749C105.582 42.6059 109.48 50.1214 109.283 58.2561C109.283 61.0709 113.504 61.0709 113.574 58.2561C114.067 41.2267 99.4186 28.152 83.8838 24.4083C74.3012 22.1002 64.2824 22.6772 54.6858 24.535C46.3696 26.1254 37.4484 28.3209 30.7645 33.866C23.2786 40.1289 20.5065 51.2473 20.8161 60.6065C20.8149 60.9038 20.9219 61.1914 21.1171 61.4156C21.3123 61.6398 21.5825 61.7853 21.8771 61.8249C22.1717 61.8646 22.4707 61.7956 22.7182 61.631C22.9657 61.4663 23.1449 61.2172 23.2223 60.9302L23.2926 61.0287Z" fill="#1F454F"/>
<path d="M69.6014 23.9869C63.9729 22.9173 57.4578 24.0995 53.2224 20.2855C52.7748 19.9362 52.4696 19.4359 52.364 18.8781C52.2796 17.8648 53.3631 17.147 54.334 16.8374C59.3575 15.1907 64.9016 17.4848 68.9963 20.8344C66.8024 14.8736 65.9846 8.49383 66.6042 2.17233C66.7168 1.03234 67.6455 -0.501708 68.5883 0.159767C68.7545 0.320103 68.8864 0.512593 68.9759 0.725507C69.0654 0.938422 69.1106 1.16732 69.1089 1.39828C69.9813 8.0271 70.6005 14.6981 70.9663 21.3692C71.3426 17.5401 72.1401 13.7642 73.3444 10.11C74.5561 6.4335 76.9383 3.25498 80.1268 1.06048C81.6887 4.62118 80.5489 8.75893 79.2121 12.4181C77.9429 15.9142 76.4964 19.3434 74.8782 22.6921C79.4107 15.9649 85.0653 10.0666 91.5949 5.25452C90.5536 12.5026 84.2356 17.6677 78.3819 22.0729C83.0244 20.3019 87.9041 19.2299 92.8613 18.8922C94.0855 18.7936 95.6756 18.8922 96.0555 20.1166C96.6043 21.6647 94.5358 22.7766 92.9176 23.058C87.1779 24.0297 81.3101 23.9582 75.5958 22.8469" fill="#1F454F"/>
<path d="M69.42 22.0178C63.8924 18.5855 59.3951 13.7227 56.404 7.94382C56.1648 7.47938 55.9396 6.87421 56.2914 6.53643C56.6432 6.19866 57.5016 6.40976 58.0081 6.78975C61.3965 9.6523 64.3372 13.0063 66.7324 16.74C67.9144 18.3914 69.0917 20.0474 70.2643 21.7081" fill="#1F454F"/>
<path d="M23.7871 81.5363C23.7871 79.4674 24.1107 77.3986 24.2233 75.3297C24.3359 73.2608 24.3781 71.4594 24.4907 69.5172C24.5231 67.7767 24.683 66.041 24.9691 64.3239C25.1098 63.6624 26.3762 61.5091 24.9691 61.3543C23.562 61.1995 22.9991 63.7891 22.8021 64.718C22.4674 66.4243 22.2931 68.1583 22.2815 69.8971C22.1922 71.8397 22.2298 73.7861 22.394 75.7238C22.591 77.7082 23.0835 79.6082 23.4494 81.5644C23.4494 81.7333 23.7308 81.6911 23.7449 81.5644L23.7871 81.5363Z" fill="#1F454F"/>
<path d="M29.5242 82.9679C29.9169 80.994 30.1055 78.9849 30.0871 76.9724C30.2137 75.0724 30.3122 73.1584 30.4529 71.2444C30.5937 69.3303 30.7484 67.4444 30.9173 65.5303C31.058 63.8274 31.4239 62.1666 31.6068 60.4778C31.6068 60.0555 31.1143 59.8304 30.7766 60.0133C29.3694 60.8578 28.9755 62.8281 28.7785 64.2355C28.497 66.2622 28.2578 68.2888 28.0749 70.3155C27.892 72.3421 27.709 74.4251 27.5965 76.4799C27.322 78.615 27.322 80.7765 27.5965 82.9116C27.6536 83.1197 27.7775 83.3033 27.9491 83.4342C28.1207 83.565 28.3305 83.6359 28.5463 83.6359C28.7621 83.6359 28.9719 83.565 29.1435 83.4342C29.3151 83.3033 29.4389 83.1197 29.4961 82.9116L29.5242 82.9679Z" fill="#1F454F"/>
<path d="M38.2776 52.9647C37.4769 54.7571 36.9277 56.6516 36.6453 58.5943C36.4579 59.603 36.3404 60.6235 36.2935 61.6484C36.1799 62.6366 36.2419 63.6372 36.4764 64.6039C36.5289 64.7815 36.6374 64.9375 36.7858 65.0483C36.9341 65.1592 37.1144 65.2191 37.2996 65.2191C37.4848 65.2191 37.665 65.1592 37.8134 65.0483C37.9618 64.9375 38.0703 64.7815 38.1228 64.6039C38.3219 64.1271 38.4545 63.6251 38.5168 63.1121C38.5168 62.6617 38.6434 62.2113 38.7138 61.7047C38.8685 60.7617 38.9811 59.8188 39.1078 58.8899C39.361 57.0321 39.8254 55.2025 39.9802 53.2603C39.9772 53.0608 39.909 52.8678 39.7861 52.7106C39.6632 52.5535 39.4923 52.4408 39.2995 52.3898C39.1066 52.3388 38.9024 52.3522 38.7179 52.4281C38.5334 52.5039 38.3788 52.638 38.2776 52.8099V52.9647Z" fill="#1F454F"/>
<path d="M36.3215 68.7256C35.6886 69.7182 35.388 70.8864 35.4631 72.0611C35.3717 73.2463 35.3717 74.4367 35.4631 75.6218C35.5442 76.8232 35.7325 78.0148 36.026 79.1825C36.1526 79.7315 36.3268 80.2683 36.5466 80.787C36.729 81.3489 36.9947 81.8802 37.3346 82.3633C37.39 82.4209 37.4597 82.4627 37.5366 82.4844C37.6135 82.5062 37.6948 82.5071 37.7721 82.487C37.8495 82.4669 37.9201 82.4267 37.9768 82.3703C38.0334 82.3139 38.074 82.2435 38.0944 82.1662C38.1434 81.6466 38.1434 81.1236 38.0944 80.604C38.0944 80.0411 38.0945 79.4922 37.9678 78.9151C37.8693 77.7892 37.7427 76.6493 37.6723 75.5093C37.602 74.3693 37.5457 73.2011 37.5457 72.0611C37.7002 70.9775 37.5941 69.8726 37.2361 68.8382C37.1942 68.7638 37.1355 68.7001 37.0647 68.6524C36.9938 68.6046 36.9128 68.574 36.8281 68.5631C36.7434 68.5522 36.6573 68.5612 36.5767 68.5894C36.496 68.6176 36.4231 68.6643 36.3637 68.7256H36.3215Z" fill="#1F454F"/>
<path d="M45.4581 51.9645C44.2621 53.4986 44.5294 56.1867 44.5294 58.0585C44.5294 60.4511 44.6139 62.8437 44.7686 65.2222C44.9234 67.6007 45.1767 69.8384 45.4863 72.1325C45.7958 74.4265 45.9788 77.0865 46.5557 79.465C46.6108 79.6824 46.7438 79.872 46.9294 79.9977C47.1151 80.1235 47.3405 80.1766 47.5627 80.1471C47.785 80.1176 47.9887 80.0074 48.1351 79.8376C48.2815 79.6677 48.3604 79.45 48.3568 79.2257C48.2443 76.9317 47.808 74.6517 47.6533 72.3717C47.4985 70.0918 47.3578 67.6148 47.2171 65.2222C47.0763 62.8296 47.006 60.6341 46.9216 58.3259C46.8371 56.4823 47.1748 53.5971 46.021 52.0349C45.9084 51.8801 45.6129 51.7675 45.4581 51.9645Z" fill="#1F454F"/>
<path d="M56.106 77.7367C56.6153 75.1875 56.8792 72.5955 56.894 69.996L57.1051 66.1538C57.1051 65.4783 57.1755 64.8168 57.2177 64.1553C57.2956 63.8157 57.2915 63.4625 57.2059 63.1247C57.1202 62.787 56.9555 62.4745 56.7252 62.2131C56.5428 62.0324 56.3054 61.9177 56.0506 61.8871C55.7957 61.8565 55.538 61.9118 55.318 62.0442C55.0372 62.265 54.8183 62.5548 54.6827 62.8852C54.5471 63.2157 54.4993 63.5757 54.5441 63.9301C54.5441 64.5916 54.4597 65.2531 54.4315 65.9146C54.3612 67.2516 54.319 68.5745 54.3049 69.9116C54.1232 72.5472 54.2745 75.1952 54.7552 77.793C54.7879 77.9555 54.8758 78.1018 55.0041 78.2068C55.1323 78.3119 55.293 78.3693 55.4588 78.3693C55.6245 78.3693 55.7852 78.3119 55.9135 78.2068C56.0417 78.1018 56.1297 77.9555 56.1623 77.793L56.106 77.7367Z" fill="#1F454F"/>
<path d="M55.0806 51.0501C55.0806 52.0352 54.9539 53.0345 54.9399 54.0196V54.7374C54.919 54.9527 54.919 55.1695 54.9399 55.3848C54.9399 55.3848 55.0524 55.7648 54.9399 55.4552C54.9399 55.7085 54.9399 55.9759 55.0243 56.2293C55.0257 56.4426 55.0701 56.6535 55.1547 56.8493C55.2393 57.0452 55.3625 57.222 55.5168 57.3692C55.6075 57.4646 55.7166 57.5406 55.8376 57.5925C55.9585 57.6444 56.0888 57.6711 56.2204 57.6711C56.352 57.6711 56.4822 57.6444 56.6032 57.5925C56.7241 57.5406 56.8332 57.4646 56.9239 57.3692C57.2191 57.0603 57.3938 56.6559 57.4164 56.2293C57.4164 55.9759 57.4164 55.7085 57.5009 55.4552C57.5009 55.6804 57.5009 55.4552 57.5009 55.3848C57.5216 55.1883 57.5216 54.9902 57.5009 54.7937C57.5009 54.5404 57.5009 54.287 57.5009 54.0196C57.5009 53.0345 57.4164 52.0352 57.3601 51.0501C57.3786 50.8773 57.3606 50.7025 57.3071 50.5372C57.2537 50.3719 57.166 50.2196 57.0499 50.0904C56.9338 49.9611 56.7918 49.8578 56.6331 49.787C56.4744 49.7163 56.3026 49.6797 56.1289 49.6797C55.9552 49.6797 55.7834 49.7163 55.6247 49.787C55.466 49.8578 55.324 49.9611 55.2079 50.0904C55.0918 50.2196 55.0041 50.3719 54.9507 50.5372C54.8972 50.7025 54.8792 50.8773 54.8977 51.0501H55.0806Z" fill="#1F454F"/>
<path d="M64.6872 49.8553C64.3213 59.0034 64.1525 68.1514 63.9414 77.2995C63.9414 77.6242 64.0704 77.9357 64.3 78.1653C64.5295 78.3949 64.8409 78.5239 65.1656 78.5239C65.4903 78.5239 65.8017 78.3949 66.0313 78.1653C66.2608 77.9357 66.3898 77.6242 66.3898 77.2995C66.3898 68.1514 66.4742 59.0034 66.3898 49.8553C66.3898 49.6388 66.3038 49.4312 66.1508 49.2781C65.9977 49.125 65.7901 49.0391 65.5737 49.0391C65.3572 49.0391 65.1496 49.125 64.9966 49.2781C64.8435 49.4312 64.7575 49.6388 64.7575 49.8553H64.6872Z" fill="#1F454F"/>
<path d="M72.2398 53.2453C73.2529 57.0594 72.9152 61.1971 73.0137 65.0956C73.07 67.1785 73.1404 69.2614 73.2248 71.3444C73.135 73.3895 73.3387 75.437 73.8298 77.4243C74.2098 78.4799 75.9546 78.7051 76.222 77.4243C76.4658 75.2424 76.4279 73.0381 76.1094 70.8659C75.9687 68.7829 75.8702 66.6437 75.7717 64.617C75.5888 60.62 75.7717 56.4542 74.6741 52.5698C74.5666 52.2682 74.3489 52.0185 74.0648 51.871C73.7806 51.7234 73.4512 51.689 73.1427 51.7746C72.8342 51.8602 72.5696 52.0595 72.4021 52.3324C72.2345 52.6052 72.1766 52.9314 72.2398 53.2453Z" fill="#1F454F"/>
<path d="M83.2206 51.8544C83.4458 53.2617 83.6005 54.6691 83.7272 56.0765C83.8538 57.4839 83.7272 59.3839 84.7403 60.5661C84.8288 60.654 84.9363 60.7204 85.0545 60.7603C85.1726 60.8002 85.2984 60.8124 85.422 60.7961C85.5457 60.7798 85.6639 60.7353 85.7677 60.6662C85.8715 60.597 85.9581 60.505 86.0208 60.3972C86.4485 59.687 86.636 58.8579 86.5555 58.0328C86.5555 57.3009 86.443 56.6254 86.3585 55.8373C86.1756 54.2891 85.9364 52.741 85.655 51.2069C85.5569 50.8884 85.3399 50.6199 85.0489 50.4574C84.758 50.2948 84.4156 50.2508 84.093 50.3343C83.7756 50.4294 83.5074 50.6438 83.3447 50.9325C83.182 51.2212 83.1375 51.5617 83.2206 51.8825V51.8544Z" fill="#1F454F"/>
<path d="M85.0026 63.0134C84.8689 65.4745 84.8689 67.9411 85.0026 70.4022C85.087 71.6125 85.1715 72.8229 85.27 74.0192C85.2824 75.3204 85.4525 76.6152 85.7765 77.8754C86.1705 79.0576 88.2531 79.2828 88.4782 77.8754C88.6329 76.5947 88.6329 75.3 88.4782 74.0192C88.3797 72.7666 88.2531 71.514 88.1405 70.2614C87.8852 67.7373 87.4953 65.2285 86.9726 62.746C86.7334 61.606 85.0448 61.9297 85.0026 63.0134Z" fill="#1F454F"/>
<path d="M94.6845 53.5701C94.9519 55.7516 94.9519 58.0034 95.0504 60.213C95.1489 62.4226 95.2333 64.3648 95.2474 66.4477C95.2615 68.5307 95.2474 70.6699 95.1067 72.7247C95.1067 73.8506 95.0223 74.9765 94.966 76.1024C94.7709 77.1398 94.9037 78.2121 95.3459 79.1705C95.4767 79.348 95.6473 79.4923 95.8441 79.5918C96.0408 79.6912 96.2582 79.743 96.4786 79.743C96.6991 79.743 96.9164 79.6912 97.1132 79.5918C97.31 79.4923 97.4806 79.348 97.6114 79.1705C98.1199 78.2328 98.3355 77.1641 98.2305 76.1024C98.2305 74.9765 98.3431 73.8506 98.3853 72.7247C98.3853 70.5573 98.4838 68.3759 98.3853 66.2085C98.3736 64.0669 98.2279 61.9282 97.9491 59.8048C97.5937 57.609 97.0667 55.4443 96.3731 53.3308C96.0917 52.416 94.5016 52.5286 94.6283 53.5701H94.6845Z" fill="#1F454F"/>
<path d="M102.78 55.2884C103.342 59.8765 104.412 64.3802 104.778 68.9964C104.961 71.3186 105.017 73.6549 105.059 76.0334C105.059 78.0178 104.524 81.0859 105.875 82.6903C106.114 82.9191 106.431 83.0469 106.762 83.0469C107.092 83.0469 107.41 82.9191 107.648 82.6903C108.312 81.7878 108.6 80.6625 108.45 79.5519C108.45 78.2993 108.45 77.0326 108.45 75.7801C108.45 73.4579 108.296 71.1075 108.07 68.7431C107.889 66.4419 107.522 64.1592 106.973 61.9172C106.354 59.581 105.326 57.3714 104.778 55.021C104.524 53.9232 102.653 54.1343 102.78 55.2884Z" fill="#1F454F"/>
<path d="M18.7759 105.121C17.4813 107.13 15.7617 108.831 13.7384 110.103C11.4729 111.384 8.82746 111.764 6.70269 113.312C3.18486 115.873 2.48129 121.461 7.06854 123.276L7.57511 119.561C1.2008 120.124 -1.06468 127.456 0.455022 132.875C0.817793 134.365 1.50196 135.759 2.45963 136.957C3.4173 138.156 4.62533 139.131 5.99913 139.813C7.43109 140.433 9.0003 140.667 10.5506 140.491C12.101 140.316 13.5784 139.738 14.8359 138.814L12.3312 135.577C11.2696 136.906 10.732 138.578 10.8202 140.277C10.9083 141.976 11.6162 143.583 12.8097 144.795C15.4691 147.68 19.8453 147.835 23.3772 146.526L20.563 144.373C20.604 146.359 21.0861 148.312 21.9743 150.089C22.8626 151.865 24.1349 153.423 25.699 154.647C27.2571 155.898 29.1009 156.743 31.0653 157.106C33.0298 157.47 35.0537 157.34 36.9561 156.73C38.9683 155.956 38.9401 152.395 36.3932 152.62C33.7373 153.106 30.9954 152.606 28.6821 151.213C27.6016 150.425 26.7128 149.403 26.0818 148.224C25.4509 147.044 25.0939 145.738 25.0376 144.401C25.0376 143.078 23.6305 141.671 22.2234 142.234C20.4082 142.938 18.002 143.388 16.3556 142.065C15.7771 141.602 15.3836 140.947 15.2468 140.219C15.11 139.491 15.2388 138.738 15.6098 138.096C16.9326 135.732 13.5976 133.874 12.0498 136.027C11.0789 137.35 8.26461 136.717 7.13891 136.027C6.35009 135.486 5.67561 134.795 5.15408 133.994C4.63255 133.192 4.27419 132.295 4.0995 131.355C3.46629 128.709 4.0995 123.713 7.61733 123.375C8.06276 123.35 8.48565 123.171 8.81292 122.868C9.14019 122.565 9.35127 122.157 9.40968 121.714C9.46809 121.272 9.37017 120.823 9.13282 120.445C8.89548 120.068 8.53363 119.784 8.10983 119.645C6.32277 118.956 8.51789 116.605 9.23553 116.127C10.9955 115.229 12.8041 114.43 14.653 113.734C16.1958 112.987 17.5599 111.917 18.6525 110.596C19.7451 109.275 20.5406 107.734 20.9851 106.078C21.0469 105.798 21.0083 105.505 20.876 105.25C20.7438 104.995 20.5263 104.795 20.2615 104.684C19.9967 104.574 19.7015 104.56 19.4274 104.645C19.1533 104.73 18.9177 104.908 18.7618 105.149L18.7759 105.121Z" fill="#1F454F"/>
<path d="M112.051 107.769C111.259 110.164 111.398 112.771 112.441 115.069C113.484 117.367 115.355 119.188 117.68 120.168C120.41 121.265 123.731 121.209 125.532 123.883C126.256 125.015 126.541 126.372 126.334 127.699C126.126 129.027 125.441 130.232 124.406 131.089C124.15 131.354 123.957 131.672 123.841 132.022C123.725 132.371 123.689 132.743 123.736 133.108C123.784 133.473 123.913 133.823 124.114 134.131C124.315 134.44 124.583 134.699 124.898 134.889C127.009 135.973 131.09 139.632 128.008 142.024C125.546 143.953 121.578 142.165 118.834 143.362C118.049 143.73 117.417 144.36 117.045 145.142C116.673 145.925 116.584 146.813 116.793 147.654C116.892 148.245 117.159 148.808 116.864 149.371C116.421 149.956 115.781 150.361 115.063 150.511C113.213 151.002 111.333 151.369 109.434 151.609C107.257 151.754 105.125 152.297 103.144 153.213C102.809 153.424 102.541 153.727 102.372 154.085C102.204 154.444 102.142 154.843 102.194 155.236C102.245 155.629 102.409 155.999 102.665 156.301C102.921 156.604 103.258 156.826 103.637 156.943C106.169 157.435 108.871 156.577 111.376 156.127C113.731 155.907 116.038 155.323 118.215 154.395C119.172 153.915 120 153.211 120.629 152.345C121.258 151.478 121.67 150.472 121.831 149.413C121.901 148.885 121.901 148.351 121.831 147.823C121.831 147.499 121.718 147.176 121.634 146.852L120.621 147.865L123.984 147.738C128.205 147.626 132.722 146.331 133.679 141.602C134.636 136.873 131.428 132.876 127.445 130.709L127.938 134.509C129.073 133.471 129.956 132.188 130.519 130.756C131.082 129.325 131.31 127.784 131.187 126.251C131.063 124.718 130.591 123.233 129.806 121.91C129.021 120.588 127.944 119.462 126.657 118.62C123.913 116.888 120.438 117.353 117.708 115.805C116.46 115.062 115.465 113.958 114.855 112.64C114.245 111.321 114.047 109.849 114.289 108.416C114.367 108.13 114.329 107.825 114.182 107.568C114.036 107.311 113.793 107.122 113.508 107.044C113.222 106.965 112.917 107.004 112.66 107.15C112.403 107.297 112.214 107.539 112.136 107.825L112.051 107.769Z" fill="#1F454F"/>
<path d="M7.05109 128.206L6.88223 128.361L5.40474 128.164C6.84657 129.739 7.87198 131.65 8.38786 133.723C8.48651 134.21 8.543 134.704 8.55672 135.201C8.55672 135.454 8.37379 136.369 8.86629 136.214C8.26122 136.411 7.03701 134.61 6.76966 134.258C5.36253 132.287 5.36252 130.036 7.79687 129.05C8.83426 128.665 9.94586 128.52 11.0473 128.628C11.634 128.637 12.2184 128.703 12.7922 128.825C13.158 128.91 13.6646 129.262 13.8616 129.304C14.5511 129.487 14.9029 128.361 15.4798 127.896C16.0567 127.432 17.1262 126.63 17.9423 125.982C19.5386 124.89 20.7305 123.302 21.3335 121.465C22.1637 118.101 19.9264 114.146 16.113 114.892C11.5398 115.779 8.5145 120.747 8.12051 125.068C8.1214 125.393 8.21003 125.713 8.37708 125.993C8.54412 126.273 8.78342 126.503 9.06986 126.658C9.3563 126.814 9.67931 126.889 10.005 126.877C10.3306 126.864 10.647 126.764 10.9207 126.587C13.9601 124.856 13.4958 121.662 13.932 118.706C14.1853 116.862 15.3391 116.679 16.9854 116.736C18.99 116.861 20.9571 117.337 22.7969 118.143L21.4742 115.807C22.8813 115.736 23.2472 115.413 22.5436 114.878C22.336 114.64 22.1477 114.386 21.9808 114.118C21.8119 113.822 21.4461 113.26 21.5305 112.894C21.7416 111.965 23.2753 112.753 23.9226 113.034C24.8373 113.428 25.5408 113.851 25.4142 114.934C25.2875 116.018 24.8091 117.468 24.6684 118.762C24.5128 121.131 24.6213 123.511 24.992 125.856C25.2313 128.009 24.7106 129.698 22.2763 129.698C20.2641 129.698 18.4348 128.361 16.507 129.557C15.7936 130.114 15.2737 130.881 15.0211 131.75C14.7685 132.619 14.7961 133.546 15.0999 134.399C16.1834 138.621 20.9395 141.337 24.4292 143.35L25.8363 139.901C23.4295 139.33 21.1616 138.282 19.1665 136.819C18.2099 136.151 17.3319 135.377 16.5492 134.511C16.4367 134.384 15.6627 133.639 15.719 133.442C15.7753 133.244 17.1262 132.921 17.3654 132.864C19.7624 132.345 22.2666 132.726 24.401 133.934C25.3419 134.364 26.0752 135.148 26.4414 136.116C26.6102 136.833 26.2022 137.903 25.3438 137.945C23.5708 138.016 23.008 140.76 24.9076 141.168C29.129 142.027 31.3804 137.241 29.5371 133.864C27.4545 130.05 22.1918 128.572 18.1393 128.994C16.2397 129.191 13.8335 129.627 12.6515 131.302C11.2443 133.259 12.3278 135.384 13.7068 136.932C16.6198 140.212 20.4714 142.517 24.7388 143.533C25.1694 143.614 25.615 143.545 26.0002 143.335C26.3853 143.126 26.6862 142.79 26.8518 142.384C27.0175 141.978 27.0377 141.527 26.909 141.108C26.7803 140.689 26.5107 140.327 26.1459 140.084C24.115 139.041 22.2239 137.745 20.5174 136.228C19.7231 135.54 19.0768 134.697 18.6177 133.751C18.5058 133.401 18.4489 133.035 18.4489 132.667C18.4489 132.428 18.4489 132.667 18.2237 132.738C18.5399 132.774 18.8485 132.86 19.1384 132.991C23.2472 134.117 28.0737 132.864 28.6224 128.009C28.9039 125.588 28.1018 123.182 28.1159 120.747C28.1395 119.352 28.3189 117.964 28.6506 116.609C29.0013 115.493 29.0595 114.306 28.8194 113.161C27.8204 109.586 20.841 106.743 18.4629 110.346C17.0558 112.485 17.8438 114.991 19.2791 116.876C19.5915 117.42 20.029 117.881 20.5551 118.221C21.0813 118.561 21.6809 118.771 22.3044 118.833C22.9155 118.841 23.5108 118.638 23.99 118.259C24.4692 117.879 24.8032 117.347 24.9358 116.75C25.0432 116.347 25.0161 115.92 24.8586 115.534C24.7012 115.148 24.4219 114.823 24.0633 114.611C20.7847 113.133 15.3391 111.599 12.159 114.132C11.5021 114.735 10.9777 115.468 10.6192 116.285C10.2607 117.101 10.0758 117.983 10.0764 118.875C9.96386 120.282 10.4001 122.689 8.89443 123.407L11.5539 125.448C11.7209 124.1 12.1866 122.807 12.9169 121.663C13.6472 120.518 14.6238 119.552 15.7753 118.833C16.8307 118.256 17.5202 118.312 17.7031 119.579C17.7218 120.174 17.5927 120.764 17.3275 121.297C17.0623 121.83 16.6692 122.289 16.1834 122.633C14.523 124.448 11.3851 125.856 11.2303 128.67C11.1036 130.979 13.552 133.329 15.7472 131.753C17.9423 130.176 17.0136 127.122 14.8325 126.123C12.1157 125.05 9.08829 125.075 6.38973 126.193C5.16509 126.695 4.13443 127.578 3.45021 128.711C2.76598 129.844 2.46454 131.167 2.59048 132.484C2.87018 133.848 3.44791 135.133 4.28231 136.248C5.11671 137.362 6.18713 138.278 7.41694 138.93C7.97869 139.229 8.62171 139.338 9.25042 139.241C9.87913 139.145 10.46 138.848 10.9066 138.396C11.3051 137.777 11.5709 137.082 11.6871 136.355C11.8034 135.629 11.7676 134.886 11.5821 134.173C11.4217 132.583 10.9246 131.045 10.124 129.662C9.32335 128.279 8.23745 127.082 6.93851 126.151C6.6569 125.994 6.3257 125.952 6.01382 126.034C5.70194 126.115 5.43339 126.313 5.26403 126.587C5.11843 126.805 5.02071 127.05 4.97735 127.308C4.93398 127.566 4.94597 127.83 5.01251 128.083C5.07906 128.336 5.19863 128.572 5.3633 128.775C5.52797 128.978 5.73396 129.144 5.96759 129.262C6.64302 129.585 7.62801 128.867 7.10737 128.122L7.05109 128.206Z" fill="#1F454F"/>
<path d="M30.2289 124.686C30.0882 123.096 31.9878 123.194 32.9024 123.884C33.1135 124.039 34.3096 125.77 34.3096 125.784L34.8161 125.179L34.4503 124.813C34.1816 124.431 33.8803 124.073 33.5497 123.743C31.6413 121.101 30.8248 117.824 31.2702 114.595L29.863 116.397C30.9887 116.003 32.1848 117.804 32.8039 118.508C33.7509 119.677 34.5672 120.947 35.2383 122.294C36.4835 124.703 37.2482 127.332 37.4897 130.034C37.6795 131.042 37.5969 132.081 37.2505 133.046C37.0816 133.37 36.9831 133.567 36.5891 133.581C36.1951 133.595 35.3509 132.314 35.0694 132.357L34.8161 133.173H35.1961C35.391 133.211 35.5886 133.234 35.7871 133.243C36.2933 133.352 36.772 133.563 37.1942 133.862C37.6642 134.195 38.0474 134.636 38.3119 135.148C38.5763 135.66 38.7142 136.228 38.7139 136.804C38.6165 137.934 38.1197 138.993 37.3126 139.79C36.5054 140.587 35.4408 141.07 34.3096 141.153C33.0805 141.22 31.8571 140.942 30.7777 140.35C30.5666 140.238 29.469 139.267 29.258 139.281L28.9625 139.647C28.5544 140.013 28.5403 140.111 28.9625 139.956C29.2523 139.991 29.5451 139.991 29.8349 139.956C31.7767 139.956 34.6613 141.533 34.9428 143.7C35.2242 145.867 30.5947 145.656 29.4127 144.671C29.2439 144.53 28.9484 143.883 28.878 144.333C28.8077 144.784 29.061 144.333 29.3565 144.249C30.0379 144.085 30.739 144.019 31.439 144.052C32.9649 144.11 34.4371 144.63 35.6604 145.544C36.3781 146.107 37.4193 147.092 36.0966 147.331C35.4212 147.458 33.0994 147.472 32.6632 146.825C31.5375 145.15 28.4418 146.149 29.2298 148.232C30.7636 152.693 39.6707 152.89 40.8105 147.95C41.4437 145.206 39.1923 142.799 37.0113 141.547C34.4572 140.077 31.4476 139.61 28.5685 140.238C25.9653 140.857 24.0656 143.264 25.3321 145.867C25.9775 147.011 26.9229 147.956 28.0661 148.6C29.2093 149.245 30.507 149.566 31.8189 149.527C33.1575 149.572 34.4857 149.276 35.6791 148.668C36.8726 148.06 37.8925 147.16 38.6435 146.05C40.0507 143.658 38.4606 140.632 36.758 138.845C35.0133 137.045 32.6482 135.978 30.1445 135.861C27.682 135.748 24.4174 137.001 25.2195 140.083C25.9231 142.743 29.272 144.559 31.7767 145.037C33.0781 145.326 34.4267 145.329 35.7291 145.044C37.0315 144.76 38.2565 144.196 39.319 143.39C43.5404 140.111 43.9203 133.539 39.2064 130.583C37.3068 129.359 34.1829 128.782 32.2974 130.33C29.9756 132.23 32.2974 135.368 34.1407 136.607C34.6844 137.006 35.3105 137.278 35.973 137.403C36.6355 137.529 37.3177 137.504 37.9695 137.331C38.6213 137.158 39.2261 136.842 39.7397 136.405C40.2532 135.968 40.6624 135.421 40.9372 134.805C42.1754 132.117 41.5563 128.711 40.8527 125.953C40.0356 122.755 38.6016 119.748 36.6313 117.1C34.8865 114.792 32.3255 111.696 29.061 112.78C28.6672 112.894 28.3194 113.13 28.0669 113.453C27.8144 113.777 27.6699 114.171 27.6538 114.581C27.216 118.295 28.0923 122.044 30.1304 125.179C31.6079 127.402 35.8293 131.442 38.0244 127.529C39.6145 124.714 35.7871 120.746 33.2683 120C30.2711 119.099 26.5 121.308 26.8518 124.686C27.091 126.896 30.5385 126.938 30.3415 124.686H30.2289Z" fill="#1F454F"/>
<path d="M37.9083 149.526C38.3245 148.784 38.9225 148.159 39.6461 147.711C40.3697 147.263 41.1953 147.006 42.0453 146.965C42.8896 146.838 43.8042 146.965 44.6344 146.81C44.4796 146.81 44.8877 146.81 44.8314 146.81C44.7751 146.81 43.2976 145.937 44.3249 145.839C44.4093 145.839 43.9309 146.191 44.0153 146.149C43.7742 146.245 43.5155 146.29 43.2559 146.281C42.9963 146.271 42.7416 146.208 42.5082 146.093C42.2748 145.979 42.068 145.818 41.901 145.619C41.734 145.42 41.6106 145.188 41.5387 144.938C41.3165 144.204 41.2987 143.422 41.4871 142.678C41.6755 141.935 42.0631 141.256 42.6081 140.716C43.13 140.131 43.7609 139.653 44.4656 139.309C44.8164 139.139 45.1914 139.025 45.5772 138.971C45.8305 138.971 46.1401 139.083 46.3793 139.055C46.2386 139.055 46.534 139.168 46.534 139.154C46.534 138.563 46.1401 139.083 46.3089 138.366C46.3089 138.366 46.4778 137.957 46.534 137.986L46.1119 138.225C45.8331 138.357 45.5329 138.438 45.2254 138.464C44.9896 138.489 44.7515 138.45 44.5359 138.352C44.1854 138.015 43.9201 137.6 43.762 137.141C43.5511 136.46 43.3912 135.763 43.2836 135.058C43.2086 134.394 43.2086 133.724 43.2836 133.06C43.3821 132.511 43.4946 132.173 43.9871 132.032C45.5491 131.582 47.2376 133.693 48.2085 134.847C48.504 135.227 49.4046 136.409 49.1513 136.86C49.2357 136.705 48.898 136.986 48.9121 136.986C48.9262 136.986 48.5885 137.183 48.4055 137.268C48.3163 137.336 48.2083 137.375 48.096 137.38C47.4346 137.507 47.6879 137.662 48.8558 137.831L49.1513 138.9V138.985L48.6166 139.9C48.9218 139.595 49.2839 139.354 49.6823 139.19C50.0806 139.026 50.5075 138.942 50.9384 138.943C51.0383 138.94 51.137 138.965 51.2238 139.015C51.3106 139.064 51.3822 139.137 51.4309 139.224C51.262 139.013 51.5153 139.548 51.4309 139.224C51.4309 139.224 51.5716 139.857 51.5435 139.59C51.6011 139.904 51.584 140.226 51.4936 140.532C51.4031 140.838 51.2418 141.118 51.0228 141.349C50.3326 142.155 49.5208 142.849 48.6166 143.404L51.6982 146.486C53.8063 142.832 54.5867 138.561 53.9074 134.397L49.686 135.551C50.1586 137.361 50.395 139.225 50.3896 141.096C50.4328 141.667 50.3107 142.239 50.0378 142.743C49.7193 143.034 49.3588 143.276 48.9684 143.46C47.4818 143.972 45.9351 144.289 44.3671 144.403C42.2282 144.671 40.1457 144.952 37.9927 145.332C37.5617 145.448 37.1885 145.719 36.9445 146.093C36.7005 146.467 36.6028 146.917 36.6701 147.359C36.7364 147.796 36.955 148.195 37.2871 148.486C37.6193 148.777 38.0437 148.941 38.4852 148.949C39.6669 149.137 40.8636 149.212 42.0594 149.174C43.4665 149.174 44.7189 148.949 46.0416 148.78C48.026 148.639 49.9606 148.093 51.7264 147.176C56.0603 144.586 55.0894 138.605 53.7949 134.509C53.7191 134.232 53.5895 133.973 53.4134 133.745C53.2374 133.518 53.0183 133.328 52.7687 133.186C52.5191 133.043 52.244 132.951 51.9589 132.915C51.6738 132.879 51.3844 132.9 51.1072 132.975C50.8301 133.051 50.5705 133.181 50.3434 133.357C50.1163 133.533 49.9261 133.752 49.7837 134.002C49.6413 134.251 49.5494 134.526 49.5134 134.812C49.4773 135.097 49.4977 135.386 49.5735 135.663C49.9841 138.691 49.3004 141.765 47.6457 144.333C47.37 144.803 47.2764 145.358 47.3828 145.892C47.4891 146.427 47.788 146.904 48.2226 147.232C48.6584 147.553 49.1932 147.711 49.7333 147.677C50.2735 147.644 50.7847 147.421 51.1776 147.049C52.9485 145.862 54.3483 144.198 55.2161 142.25C55.5519 141.339 55.6595 140.36 55.5295 139.399C55.3995 138.437 55.0358 137.522 54.4703 136.733C53.7391 135.873 52.75 135.271 51.6499 135.018C50.5498 134.764 49.3972 134.872 48.3633 135.326C47.3685 135.608 46.4403 136.086 45.6335 136.733C45.3633 136.995 45.1485 137.309 45.0018 137.656C44.8551 138.003 44.7795 138.376 44.7795 138.753C44.7795 139.129 44.8551 139.502 45.0018 139.849C45.1485 140.196 45.3633 140.51 45.6335 140.772C47.4628 142.531 50.671 141.251 52.1063 139.562C52.7895 138.64 53.15 137.519 53.1322 136.372C53.1144 135.224 52.7192 134.115 52.0078 133.215C49.869 129.949 45.3943 125.868 41.3136 128.612C40.481 129.264 39.8346 130.124 39.4394 131.104C39.0442 132.085 38.9141 133.153 39.0622 134.2C39.1012 136.059 39.5277 137.891 40.3145 139.576C40.7515 140.514 41.4502 141.305 42.3266 141.854C43.2029 142.404 44.2194 142.688 45.2536 142.672C47.3361 142.602 49.883 141.49 50.4037 139.28C50.9947 136.705 48.4196 135.058 46.1823 134.889C45.1014 134.884 44.0302 135.093 43.0304 135.503C42.0305 135.914 41.1219 136.518 40.3567 137.282C37.2892 140.097 36.0368 145.191 39.0903 148.541C39.8741 149.37 40.887 149.946 41.9997 150.197C43.1125 150.448 44.2746 150.361 45.338 149.948C47.6738 149.02 49.5594 145.881 47.308 143.798C46.8262 143.419 46.271 143.145 45.6775 142.992C45.084 142.84 44.4652 142.812 43.8605 142.911C42.5922 142.96 41.3327 143.144 40.1034 143.46C38.9527 143.731 37.8745 144.249 36.9439 144.978C36.0133 145.707 35.2524 146.63 34.7141 147.683C34.4825 148.114 34.4234 148.617 34.5488 149.09C34.6742 149.563 34.9748 149.97 35.3896 150.23C35.8204 150.473 36.3289 150.538 36.8072 150.412C37.2854 150.286 37.6956 149.978 37.9505 149.554L37.9083 149.526Z" fill="#1F454F"/>
<path d="M90.719 140.689C90.0837 139.095 89.658 137.425 89.4526 135.721C89.4804 135.45 89.4804 135.176 89.4526 134.905C89.5651 134.68 89.4526 134.68 89.2978 134.905C89.2978 135.018 89.6355 135.285 89.6777 135.468C89.7067 135.631 89.7067 135.798 89.6777 135.961C89.6207 136.21 89.5071 136.443 89.3459 136.642C89.1847 136.841 88.98 137 88.7476 137.108C88.5153 137.215 88.2614 137.268 88.0055 137.262C87.7496 137.255 87.4985 137.191 87.2715 137.072C86.7072 136.767 86.2577 136.285 85.9911 135.701C85.7246 135.117 85.6554 134.462 85.794 133.835H82.5998C82.4028 137.861 82.3606 142.28 85.4141 145.348C86.1041 146.035 86.9262 146.575 87.8307 146.935C88.7352 147.296 89.7034 147.469 90.6768 147.445C91.7305 147.387 92.774 147.207 93.7866 146.91L95.5033 146.403C95.8832 146.291 96.5586 145.995 96.9104 146.122L96.1505 145.672C95.9113 145.46 96.1505 145.334 95.9535 145.475C95.7565 145.615 95.7565 145.784 95.6862 145.883C95.5026 146.119 95.2528 146.296 94.9685 146.389C94.9685 146.389 94.5745 146.319 94.7012 146.389C94.8278 146.46 94.5323 146.6 94.7012 146.389C94.87 146.178 94.9263 146.192 95.053 146.108C95.971 145.644 96.9911 145.419 98.0191 145.453C99.0471 145.487 100.05 145.78 100.935 146.305C101.717 146.757 102.397 147.365 102.933 148.092C103.23 148.489 103.48 148.919 103.679 149.373C103.749 149.542 103.805 149.697 103.862 149.866C103.988 150.26 103.862 150.766 104.256 150.147C104.65 149.528 104.396 149.852 104.045 149.894C103.792 149.928 103.537 149.928 103.285 149.894C102.873 149.821 102.471 149.698 102.089 149.528C101.044 149.039 100.058 148.435 99.1477 147.726L97.628 151.329C98.4346 151.481 99.1966 151.813 99.8569 152.3C100.517 152.787 101.059 153.418 101.441 154.144L102.637 151.189L100.541 151.766C100.162 151.882 99.8248 152.105 99.569 152.407C99.3132 152.71 99.1496 153.079 99.0977 153.472C99.0459 153.865 99.1079 154.265 99.2764 154.623C99.4449 154.982 99.7128 155.284 100.048 155.495C100.747 155.917 101.541 156.153 102.357 156.18C103.172 156.207 103.981 156.025 104.706 155.65C105.464 155.326 106.085 154.749 106.465 154.017C106.845 153.286 106.959 152.445 106.788 151.639C106.711 151.354 106.56 151.094 106.35 150.887C106.14 150.679 105.879 150.531 105.594 150.456C105.308 150.382 105.008 150.384 104.723 150.464C104.439 150.543 104.18 150.696 103.974 150.907C103.65 151.323 103.249 151.672 102.792 151.934C102.483 152.117 102.342 152.131 102.075 151.934L101.582 155.664L103.665 155.017C103.959 154.933 104.231 154.784 104.459 154.58C104.687 154.375 104.866 154.122 104.981 153.838C105.097 153.555 105.146 153.248 105.125 152.943C105.104 152.637 105.014 152.341 104.861 152.075C104.202 150.92 103.308 149.916 102.237 149.128C101.165 148.34 99.9402 147.786 98.6412 147.501C98.1858 147.396 97.7079 147.455 97.2916 147.667C96.8753 147.88 96.5475 148.232 96.3658 148.663C96.1841 149.094 96.1603 149.575 96.2985 150.021C96.4368 150.468 96.7282 150.851 97.1215 151.104C99.0914 152.511 101.343 153.919 103.918 153.623C105.014 153.591 106.063 153.166 106.873 152.427C107.273 151.903 107.52 151.278 107.584 150.621C107.649 149.965 107.529 149.304 107.239 148.712C106.445 146.432 104.864 144.511 102.779 143.295C100.694 142.08 98.2432 141.65 95.8691 142.083C93.7443 142.477 91.2256 143.786 91.1552 146.235C91.1558 146.797 91.2854 147.352 91.5343 147.856C91.7831 148.361 92.1444 148.801 92.5903 149.144C93.0362 149.486 93.5549 149.722 94.1063 149.833C94.6577 149.943 95.2271 149.926 95.7706 149.781C97.8954 149.359 99.992 146.854 99.4854 144.616C98.7678 141.506 95.1655 142.969 93.1393 143.546C91.898 144.052 90.5283 144.15 89.2274 143.828C88.2581 143.435 87.4499 142.725 86.9338 141.815C85.5267 139.465 85.6533 136.481 85.794 133.835C85.7904 133.413 85.6222 133.01 85.3252 132.71C85.0281 132.41 84.6258 132.238 84.204 132.231C83.7819 132.242 83.3801 132.414 83.0815 132.713C82.783 133.011 82.6105 133.413 82.5998 133.835C82.4011 135.276 82.7426 136.739 83.5585 137.942C84.3744 139.145 85.6069 140.004 87.0182 140.352C87.7189 140.514 88.4469 140.516 89.1487 140.36C89.8506 140.204 90.5085 139.892 91.0741 139.448C91.6397 139.004 92.0985 138.438 92.417 137.793C92.7354 137.148 92.9053 136.44 92.9141 135.721C92.9262 135.024 92.7608 134.335 92.4334 133.72C92.106 133.104 91.6274 132.582 91.0426 132.203C90.4328 131.791 89.6929 131.618 88.9637 131.717C88.2345 131.815 87.5671 132.179 87.0886 132.738C86.7072 133.365 86.4691 134.068 86.3912 134.798C86.3134 135.528 86.3978 136.266 86.6383 136.96C86.9712 138.6 87.6685 140.144 88.6787 141.478C89.3682 142.378 91.1693 141.914 90.719 140.619V140.689Z" fill="#1F454F"/>
<path d="M106.469 150.498C105.864 149.429 105.273 148.345 104.71 147.261C104.26 146.389 103.303 145.122 103.388 144.137L103.12 145.136C103.43 144.404 105.02 144.432 105.766 144.489C106.967 144.569 108.111 145.033 109.03 145.812C109.551 146.29 110.437 147.317 110.001 148.092C109.72 148.57 109.382 148.5 109.157 147.937C108.932 147.374 109.537 146.529 110.085 146.276C110.647 146.022 111.256 145.89 111.873 145.89C112.489 145.89 113.098 146.022 113.66 146.276C113.969 146.389 114.673 146.614 114.813 146.966C114.715 146.726 114.701 146.966 114.476 147.219C114.034 147.537 113.529 147.757 112.995 147.864C112.461 147.971 111.91 147.962 111.38 147.838C108.837 147.244 106.553 145.848 104.865 143.855C103.331 142.279 101.446 140.182 101.432 137.846C101.404 137.013 101.667 136.197 102.177 135.538C102.458 135.233 102.812 135.006 103.205 134.876C103.359 134.806 103.739 134.989 103.57 134.735C103.979 135.355 102.163 136.41 101.84 136.621C100.797 137.252 99.6396 137.668 98.4344 137.846C97.3335 138.008 96.2099 137.907 95.1558 137.55C94.4241 137.297 92.8762 136.607 93.0169 135.664C93.1576 134.721 94.9728 134.257 95.8312 134.046C97.3712 133.611 98.994 133.558 100.559 133.891L99.6445 133.356C99.8134 132.469 99.7571 132.216 99.5179 132.596C99.4074 132.727 99.2738 132.837 99.1239 132.92C98.7565 133.189 98.3656 133.425 97.956 133.624C97.1914 134.151 96.2814 134.426 95.3528 134.412C94.0723 134.271 93.9456 133.37 94.7336 132.526C96.8584 130.358 100.236 132.371 101.572 134.398C101.784 134.782 102.132 135.073 102.548 135.214C102.964 135.355 103.417 135.335 103.819 135.159C104.221 134.982 104.542 134.662 104.72 134.261C104.898 133.86 104.92 133.407 104.781 132.99C103.106 127.079 93.6642 125.292 90.7092 131.147C90.3536 131.829 90.1619 132.585 90.1493 133.355C90.1368 134.125 90.3037 134.887 90.637 135.581C90.9702 136.275 91.4605 136.881 92.0691 137.353C92.6776 137.824 93.3875 138.147 94.1426 138.296C95.8007 138.545 97.495 138.349 99.0525 137.728C100.61 137.108 101.975 136.085 103.008 134.764C103.491 134.158 103.742 133.401 103.716 132.626C103.691 131.852 103.389 131.113 102.867 130.541C101.572 129.134 99.3068 129.43 97.6323 129.57C94.3819 129.838 90.5122 130.584 89.1895 134.018C87.8668 137.452 90.7515 140.182 93.7064 141.28C96.6243 142.244 99.8002 142.058 102.585 140.759C105.4 139.563 108.397 137.114 107.651 133.722C106.905 130.33 102.585 129.795 100.081 131.625C98.8411 132.602 97.9272 133.933 97.4598 135.44C96.9925 136.948 96.9938 138.562 97.4635 140.069C98.6111 143.32 100.673 146.169 103.402 148.275C105.848 150.594 109.053 151.944 112.421 152.074C115.475 151.976 119.204 150.048 118.979 146.445C118.753 142.842 114.138 141.364 111.127 141.547C108.115 141.73 104.851 144.165 104.879 147.543C104.879 151.371 109.621 153.96 112.604 151.286C115.587 148.612 114.011 144.249 111.197 142.11C108.383 139.971 103.88 139.295 100.925 141.336C99.0254 142.673 99.0958 144.728 100.067 146.628C101.038 148.528 102.206 150.329 103.331 152.131C103.592 152.498 103.981 152.755 104.422 152.849C104.862 152.944 105.322 152.87 105.711 152.642C106.1 152.414 106.389 152.049 106.521 151.618C106.654 151.187 106.62 150.722 106.427 150.315L106.469 150.498Z" fill="#1F454F"/>
<path d="M101.104 135.704C100.998 134.672 101.161 133.63 101.578 132.681C101.995 131.731 102.651 130.906 103.482 130.285C105.354 128.878 108.07 129.567 109.209 127.161C110.349 124.754 108.928 122.798 107.704 120.842C107.605 120.687 107.324 119.716 107.253 119.673C106.719 119.322 107.07 120.025 106.986 120.166C106.325 121.253 105.305 122.075 104.101 122.488L106.916 123.614C106.578 121.376 108.745 119.139 109.969 117.506C111.71 115.555 112.75 113.079 112.924 110.469L109.111 110.976C110.063 114.979 111.773 118.763 114.148 122.122C115.281 123.735 116.562 125.239 117.976 126.612C119.457 127.909 121.007 129.126 122.619 130.257L122.915 130.482C123.337 131.059 123.464 130.848 123.323 129.835C123.323 129.835 122.071 129.75 121.916 129.722C120.941 129.412 120.027 128.936 119.214 128.315C118.36 127.679 117.564 126.967 116.836 126.19C116.217 125.542 114.655 124.149 114.57 123.22C114.444 121.616 116.54 123.516 116.991 124.093C118.271 125.683 119.805 128.076 119.13 130.187C118.911 130.974 118.438 131.667 117.783 132.156C117.129 132.645 116.33 132.903 115.513 132.889C114.677 132.893 113.869 132.585 113.247 132.026C112.625 131.467 112.234 130.695 112.15 129.863C112.15 128.118 114.078 128.92 114.964 129.638C115.631 130.212 116.166 130.923 116.535 131.721C116.904 132.52 117.098 133.388 117.103 134.268C117.13 134.972 116.992 135.673 116.703 136.315C116.413 136.957 115.978 137.523 115.433 137.969C114.888 138.415 114.246 138.728 113.56 138.885C112.873 139.041 112.159 139.036 111.475 138.87C110.349 138.631 108.449 137.463 108.97 136.056C109.491 134.648 112.418 135.169 113.487 135.464C115.661 135.92 117.594 137.157 118.919 138.941C119.284 139.56 119.636 140.756 118.806 141.207C118.512 141.304 118.194 141.302 117.901 141.2C117.609 141.098 117.358 140.903 117.188 140.644C116.034 139.096 117.568 137.055 119.031 136.421C119.794 136.106 120.638 136.047 121.437 136.253C121.789 136.351 122.056 136.576 122.38 136.675C122.527 136.774 122.655 136.898 122.76 137.041C122.943 136.084 123.647 136.295 124.857 137.632C125.743 135.281 121.803 133.579 120.776 135.901C120.356 136.678 120.255 137.589 120.494 138.44C120.733 139.291 121.293 140.015 122.056 140.461C122.505 140.7 123 140.839 123.508 140.867C124.016 140.895 124.523 140.813 124.996 140.626C125.469 140.438 125.895 140.15 126.245 139.781C126.595 139.413 126.861 138.972 127.024 138.49C128.501 134.592 124.209 131.862 120.832 131.735C119.107 131.653 117.401 132.12 115.957 133.068C114.514 134.016 113.408 135.397 112.797 137.013C111.559 140.644 113.388 144.922 117.399 145.555C118.317 145.7 119.256 145.608 120.128 145.287C121 144.966 121.776 144.427 122.381 143.722C122.986 143.017 123.4 142.168 123.585 141.258C123.77 140.347 123.718 139.404 123.435 138.518C122.394 134.69 118.215 132.256 114.627 131.327C111.559 130.525 107.324 130.553 105.424 133.593C103.384 136.872 105.424 141.024 108.689 142.572C110.21 143.287 111.902 143.558 113.571 143.355C115.239 143.151 116.816 142.481 118.121 141.421C119.426 140.362 120.406 138.955 120.948 137.364C121.489 135.772 121.571 134.06 121.184 132.424C120.88 130.663 120.103 129.017 118.936 127.663C117.768 126.309 116.254 125.299 114.556 124.74C113.698 124.494 112.791 124.469 111.92 124.669C111.05 124.869 110.244 125.287 109.579 125.883C108.914 126.48 108.411 127.235 108.117 128.079C107.824 128.923 107.749 129.827 107.901 130.707C108.188 132.472 109.082 134.081 110.428 135.258C111.773 136.434 113.487 137.105 115.274 137.153C117.047 137.195 118.782 136.643 120.205 135.584C121.627 134.526 122.656 133.022 123.126 131.313C124.139 127.499 121.93 123.206 119.256 120.588C116.906 118.308 112.122 117.605 110.729 121.362C109.871 123.628 111.236 125.711 112.586 127.442C114.003 129.258 115.687 130.848 117.582 132.157C119.297 133.456 121.433 134.073 123.576 133.888C125.546 133.593 127.446 132.199 126.995 129.99C126.545 127.78 124.42 126.992 122.901 125.866C121.192 124.588 119.638 123.114 118.271 121.475C115.521 118.177 113.64 114.244 112.797 110.033C112.361 107.809 109.055 108.428 108.984 110.554C108.9 113.157 106.888 115.212 105.452 117.225C104.592 118.254 103.949 119.447 103.562 120.731C103.175 122.015 103.052 123.365 103.201 124.698C103.398 126.007 105.016 126.302 106.015 125.824C107.811 125.135 109.306 123.834 110.237 122.15C110.651 121.328 110.795 120.395 110.649 119.485C110.502 118.575 110.072 117.735 109.42 117.084C106.339 114.269 102.385 117.633 103.454 121.306C103.706 122.129 104.101 122.901 104.622 123.586C104.861 123.952 106.029 125.134 105.635 125.669C104.899 125.772 104.171 125.922 103.454 126.119C102.623 126.448 101.845 126.898 101.146 127.456C99.7524 128.539 98.6793 129.981 98.0422 131.627C97.4052 133.274 97.2281 135.062 97.5301 136.801C97.91 139.11 101.386 138.11 101.034 135.83L101.104 135.704Z" fill="#1F454F"/>
<path d="M55.8156 139.38C56.7443 141.097 59.5868 141.477 61.3316 141.843C63.5257 142.3 65.7428 142.638 67.9733 142.856C70.1326 143.081 72.3061 143.138 74.4742 143.025C76.6503 143.04 78.8091 142.639 80.8345 141.843C81.1429 141.657 81.3825 141.375 81.5169 141.041C81.6513 140.707 81.6733 140.337 81.5795 139.989C81.4858 139.641 81.2814 139.333 80.9973 139.112C80.7131 138.89 80.3645 138.767 80.0043 138.761C78.0061 138.874 76.0643 139.493 74.038 139.591C72.0159 139.69 69.9895 139.648 67.9733 139.465C65.893 139.292 63.8252 138.991 61.7819 138.564C60.0933 138.226 57.7434 137.311 56.1533 138.17C55.9553 138.292 55.8124 138.487 55.7547 138.713C55.6969 138.938 55.7289 139.178 55.8438 139.38H55.8156Z" fill="#1F454F"/>
<path d="M50.4802 148.484C51.4793 154.86 61.3714 156.197 66.3808 156.929C70.2258 157.464 74.1292 157.421 77.9615 156.802C79.7948 156.487 81.5978 156.016 83.3509 155.395C85.0535 154.789 87.4456 154.212 88.2899 152.495C88.4265 152.258 88.5072 151.993 88.5259 151.719C88.5445 151.446 88.5006 151.172 88.3975 150.918C88.2944 150.665 88.1348 150.438 87.9308 150.255C87.7269 150.072 87.4839 149.938 87.2205 149.864C85.4897 149.582 84.4062 150.426 82.788 151.046C78.0763 152.914 72.9885 153.638 67.9427 153.157C64.8698 152.959 61.8295 152.412 58.8808 151.524C56.4589 150.599 54.234 149.224 52.3236 147.471C52.1493 147.307 51.9266 147.203 51.6887 147.175C51.4507 147.148 51.2102 147.198 51.003 147.318C50.7958 147.438 50.633 147.622 50.5388 147.843C50.4446 148.063 50.424 148.308 50.4802 148.541V148.484Z" fill="#1F454F"/>
<path d="M62.409 141.405C61.949 142.237 61.707 143.171 61.7054 144.122C61.5647 145.107 61.4803 146.106 61.4381 147.105C61.3537 149.076 61.2552 151.102 61.3537 153.087C61.3846 153.362 61.5157 153.616 61.7221 153.8C61.9284 153.985 62.1955 154.087 62.4723 154.087C62.7491 154.087 63.0162 153.985 63.2226 153.8C63.4289 153.616 63.5601 153.362 63.591 153.087C63.7527 151.097 63.8091 149.101 63.7599 147.105C63.7599 146.106 63.7599 145.107 63.6332 144.122C63.662 143.18 63.4539 142.246 63.0282 141.405C62.9952 141.353 62.9495 141.31 62.8954 141.28C62.8412 141.25 62.7804 141.234 62.7186 141.234C62.6567 141.234 62.5959 141.25 62.5418 141.28C62.4877 141.31 62.442 141.353 62.409 141.405Z" fill="#1F454F"/>
<path d="M68.6157 141.025C68.1654 141.377 68.1232 142.109 68.0247 142.643C67.9262 143.178 67.8137 143.783 67.7292 144.36C67.558 145.691 67.464 147.03 67.4478 148.372C67.4478 149.652 67.4478 150.919 67.3352 152.2C67.2538 152.752 67.3173 153.316 67.5196 153.837C67.7219 154.358 68.056 154.817 68.4891 155.169C69.5022 155.915 70.5435 154.522 70.0791 153.593C70.0088 153.316 70.0088 153.026 70.0791 152.748C70.0791 152.186 70.0791 151.623 70.0791 151.046C70.0791 149.906 70.0791 148.752 70.0791 147.597C70.1244 146.448 70.1056 145.297 70.0228 144.149C70.0228 143.558 69.9103 142.953 69.7977 142.376C69.8039 141.864 69.6296 141.365 69.3052 140.969C69.2162 140.883 69.0977 140.836 68.9745 140.836C68.8513 140.836 68.7329 140.883 68.6439 140.969L68.6157 141.025Z" fill="#1F454F"/>
<path d="M74.0188 140.984C73.2382 142.969 72.9814 145.121 73.273 147.233C73.3545 148.322 73.5144 149.404 73.7514 150.47C73.9906 151.54 74.2439 153.158 75.4963 153.468C75.6887 153.523 75.8928 153.525 76.0863 153.473C76.2797 153.421 76.4553 153.317 76.5938 153.172C77.424 152.159 76.8471 150.934 76.5938 149.795C76.3687 148.856 76.1857 147.918 76.045 146.98C75.7636 145.052 75.8058 143.081 75.4118 141.181C75.3758 141.032 75.2952 140.897 75.1808 140.794C75.0664 140.691 74.9236 140.626 74.7711 140.606C74.6187 140.586 74.4638 140.613 74.327 140.683C74.1902 140.753 74.0778 140.863 74.0047 140.998L74.0188 140.984Z" fill="#1F454F"/>
<path d="M45.7349 103.575L45.5379 103.772C45.5379 103.772 45.3972 103.927 45.3269 103.955L45.2143 104.04L45.1299 104.152L45.0032 104.307C44.8453 104.504 44.6996 104.711 44.567 104.926C44.567 105.095 44.4122 105.25 44.3419 105.419C44.2715 105.588 43.9901 106.207 43.8353 106.601C43.673 107.019 43.5872 107.462 43.582 107.91C43.5825 108.139 43.6583 108.361 43.7978 108.543C43.9373 108.724 44.1326 108.855 44.3536 108.914C44.5747 108.973 44.8091 108.958 45.0206 108.871C45.2321 108.783 45.409 108.629 45.5239 108.431C45.6472 108.201 45.7508 107.961 45.8334 107.713C45.8334 107.558 45.9319 107.389 45.9742 107.234C46.056 106.895 46.1594 106.561 46.2837 106.235C46.3963 105.897 46.5229 105.588 46.6214 105.25L46.7059 104.983C46.7059 104.884 46.8044 104.504 46.7059 104.771C46.7059 104.589 46.7903 104.406 46.8466 104.223C46.8818 104.08 46.8697 103.93 46.8122 103.795C46.7547 103.66 46.6548 103.548 46.5276 103.475C46.4005 103.402 46.253 103.372 46.1074 103.39C45.9619 103.408 45.8262 103.473 45.7209 103.575H45.7349Z" fill="#1F454F"/>
<path d="M48.606 104.336L48.2683 104.674C48.1176 104.847 47.9942 105.041 47.9025 105.251C47.7899 105.476 47.6914 105.716 47.5929 105.955C47.4944 106.194 47.4803 106.251 47.4381 106.405C47.3748 106.669 47.3748 106.944 47.4381 107.208C47.4794 107.365 47.5511 107.514 47.6492 107.644C47.7689 107.813 47.9164 107.96 48.0854 108.08C48.192 108.145 48.3107 108.187 48.4341 108.203C48.5575 108.22 48.683 108.212 48.803 108.179C49.0632 108.11 49.3009 107.974 49.4925 107.785C49.7763 107.44 49.9306 107.007 49.9288 106.56V106.884C49.9288 106.645 50.0132 106.405 50.0695 106.166C50.1258 105.927 50.0695 105.941 50.168 105.828C50.2099 105.629 50.2381 105.427 50.2524 105.223V105.491V105.251C50.3152 105.05 50.3152 104.834 50.2524 104.632C50.1839 104.441 50.0491 104.281 49.8725 104.182C49.6902 104.085 49.4822 104.048 49.2776 104.075C49.0731 104.103 48.8825 104.194 48.7327 104.336H48.606Z" fill="#1F454F"/>
<path d="M87.3251 104.519C87.2403 105.017 87.1839 105.52 87.1562 106.025C87.1562 106.236 87.1562 106.461 87.1562 106.672C87.1635 106.97 87.2206 107.265 87.3251 107.545C87.369 107.71 87.4559 107.861 87.577 107.982C87.6981 108.104 87.8491 108.19 88.0146 108.234C88.1456 108.248 88.2776 108.248 88.4086 108.234C88.5358 108.209 88.6589 108.167 88.7744 108.108C88.924 108.02 89.0481 107.894 89.1344 107.744C89.2208 107.593 89.2665 107.423 89.2669 107.249C89.2669 107.123 89.2669 106.996 89.2669 106.869C89.2669 106.743 89.2669 106.461 89.1825 106.264V106.546C89.1102 105.948 89.0867 105.345 89.1121 104.744C89.1191 104.515 89.0411 104.292 88.8933 104.117C88.7455 103.941 88.5382 103.827 88.3112 103.796C88.0843 103.764 87.8538 103.818 87.664 103.946C87.4742 104.075 87.3384 104.268 87.2829 104.491L87.3251 104.519Z" fill="#1F454F"/>
<path d="M90.468 103.475C90.3584 103.979 90.3112 104.494 90.3273 105.009C90.3283 105.322 90.3661 105.634 90.4399 105.938C90.4399 106.037 90.4399 106.135 90.5384 106.22C90.6204 106.516 90.7752 106.787 90.9886 107.008C91.1437 107.167 91.3377 107.284 91.5515 107.346C91.7778 107.403 92.0147 107.403 92.241 107.346C92.4548 107.283 92.6494 107.168 92.8068 107.011C92.9642 106.853 93.0794 106.659 93.1416 106.445C93.2112 106.196 93.2112 105.933 93.1416 105.685C93.1416 105.685 93.1416 105.586 93.1416 105.53V105.896V105.488C93.1416 105.234 93.1416 104.995 93.0431 104.756V105.122C92.9867 104.692 92.9867 104.257 93.0431 103.827C93.0426 103.652 93.0042 103.479 92.9305 103.32C92.8724 103.155 92.776 103.005 92.6491 102.884C92.4424 102.685 92.1748 102.561 91.8892 102.532C91.5983 102.478 91.2975 102.533 91.0449 102.687C90.8962 102.771 90.7659 102.884 90.6619 103.019C90.5579 103.155 90.4824 103.31 90.4399 103.475H90.468Z" fill="#1F454F"/>
<path d="M24.3209 54.738C26.8061 53.731 29.2389 52.599 31.6098 51.3461C34.0433 50.2393 36.5491 49.2989 39.1098 48.5313C44.4401 46.9466 49.9112 45.8814 55.4467 45.3506C66.4333 44.097 77.5373 44.2957 88.4721 45.9417C94.6952 46.8785 100.686 48.9793 106.132 52.1343C106.592 52.3873 107.132 52.4505 107.638 52.3104C108.144 52.1704 108.575 51.8381 108.84 51.3845C109.104 50.9309 109.181 50.3919 109.053 49.8825C108.926 49.3731 108.605 48.9337 108.158 48.658C98.0828 42.5358 86.1503 41.0299 74.5696 40.7907C62.9889 40.5514 51.2112 41.044 40.0245 44.1121C37.0347 44.9501 34.1095 46.0037 31.2721 47.2647C28.1955 48.4025 25.3776 50.1443 22.9841 52.3876C22.0976 53.3446 22.9841 55.2024 24.3912 54.6957L24.3209 54.738Z" fill="#1F454F"/>
<path d="M28.1294 41.0614C31.0703 41.2865 34.2926 40.2732 37.2054 39.8229C40.1181 39.3725 43.1013 38.8799 46.0703 38.4859C52.2054 37.6696 58.3686 37.13 64.56 36.8673C70.7514 36.6046 76.8255 36.6046 82.7824 36.8673C88.4813 37.1206 95.0667 36.8673 100.386 39.274C102.651 40.2592 104.607 36.994 102.37 35.8962C96.9241 33.2785 90.3809 33.3348 84.471 33.0814C78.0544 32.7906 71.6379 32.7906 65.2214 33.0814C58.8048 33.3723 52.4774 33.9353 46.2392 34.7703C43.1294 35.1925 40.0056 35.6429 36.9239 36.2621C33.8423 36.8814 30.2119 37.2896 27.5243 38.8236C27.3034 38.961 27.1326 39.1659 27.0373 39.408C26.942 39.65 26.9272 39.9163 26.9951 40.1674C27.063 40.4186 27.21 40.6411 27.4143 40.8022C27.6186 40.9632 27.8694 41.0541 28.1294 41.0614Z" fill="#1F454F"/>
<path d="M38.1495 32.7395C46.6426 31.0921 55.2533 30.1226 63.9 29.8403C68.037 29.7136 72.1881 29.8403 76.311 30.0092C78.4404 30.1218 80.5652 30.2907 82.6853 30.5159C84.8867 30.9099 87.1187 31.1077 89.3551 31.1069C89.6441 31.1072 89.9237 31.004 90.1433 30.8159C90.3628 30.6279 90.5079 30.3674 90.5521 30.0817C90.5963 29.796 90.5368 29.5039 90.3843 29.2583C90.2319 29.0126 89.9965 28.8297 89.7209 28.7425C87.6671 28.139 85.5429 27.8078 83.4029 27.7573C81.1796 27.5744 78.9423 27.4337 76.7049 27.3351C72.3428 27.1662 67.9807 27.1944 63.6186 27.4196C54.895 27.8896 46.2451 29.2765 37.8118 31.5573C37.0238 31.7684 37.3615 32.9647 38.1495 32.7677V32.7395Z" fill="#1F454F"/>
<path d="M50.1581 107.31C42.3979 107.485 37.392 98.7213 37.1515 91.8397C37.0204 88.1199 37.9385 84.1813 40.9224 81.7306C43.9062 79.2799 47.994 78.3609 51.6336 78.2515C53.3814 78.1596 55.1273 78.4652 56.7401 79.1455C58.353 79.8257 59.7909 80.8629 60.9459 82.1792C63.2107 84.7572 64.3864 88.1151 64.2249 91.5443C63.9784 95.3033 62.5211 98.8811 60.0715 101.741C58.9073 103.215 57.4713 104.452 55.8416 105.384C54.0391 106.228 52.0289 106.525 50.0597 106.238C47.0443 105.891 44.2172 104.593 41.9871 102.532C39.7571 100.471 38.2397 97.753 37.6543 94.7718C37.3629 92.6149 37.2787 90.4351 37.4029 88.2621C37.3921 87.9828 37.2925 87.7142 37.1185 87.4955C36.9446 87.2768 36.7055 87.1193 36.436 87.0461C36.1665 86.9729 35.8806 86.9876 35.6201 87.0883C35.3596 87.1889 35.1379 87.3702 34.9874 87.6057C32.8015 91.7193 33.971 97.2334 36.0804 101.128C38.3646 105.097 42.0863 108.035 46.4748 109.334C48.7736 110.106 51.2307 110.283 53.6162 109.847C56.0017 109.41 58.2378 108.376 60.1152 106.839C63.7204 103.782 66.2207 99.622 67.2306 95.0015C68.9247 86.632 64.1702 76.9058 55.2077 75.3085C50.4194 74.6442 45.5457 75.5745 41.3377 77.9561C39.3983 79.0422 37.7557 80.5893 36.5548 82.4611C35.354 84.3328 34.6317 86.4716 34.4519 88.6888C33.8698 93.669 35.1126 98.6915 37.9494 102.824C40.6163 106.664 45.3927 110.636 50.3658 109.181C50.594 109.12 50.7923 108.978 50.9237 108.781C51.0551 108.585 51.1106 108.347 51.0798 108.113C51.049 107.878 50.9341 107.663 50.7564 107.507C50.5788 107.351 50.3506 107.266 50.1144 107.266L50.1581 107.31Z" fill="#1F454F"/>
<path d="M91.4964 109.235C95.8547 110.517 100.278 107.461 102.915 104.154C105.666 100.699 107.267 96.4619 107.491 92.0422C107.709 87.6618 106.554 82.8214 103.133 79.8208C99.7118 76.8202 94.983 75.4404 90.5376 75.1338C81.3635 74.5095 74.1941 82.5367 74.314 91.5603C74.5001 96.2691 76.271 100.775 79.3369 104.34C82.6056 108.283 86.9638 110.538 92.0848 110.002C94.6039 109.746 97.0409 108.959 99.2359 107.691C101.431 106.422 103.334 104.702 104.822 102.643C107.687 98.6018 109.3 92.2174 106.903 87.6179C106.758 87.3747 106.537 87.1858 106.275 87.08C106.013 86.9741 105.724 86.9571 105.452 87.0314C105.179 87.1058 104.938 87.2674 104.766 87.4919C104.593 87.7163 104.498 87.9913 104.495 88.275C104.495 92.1845 104.604 95.7546 102.556 99.2261C100.77 102.262 97.9409 104.537 94.6017 105.621C90.8318 106.826 86.8985 106.498 83.8695 103.771C81.0479 101.252 79.0501 97.9348 78.1384 94.2543C76.5803 87.6836 80.1214 80.0179 87.0401 78.4629C91.0196 77.7806 95.112 78.4066 98.7094 80.2479C100.345 81.061 101.746 82.2824 102.778 83.7951C103.81 85.3079 104.439 87.0615 104.604 88.8883C105.617 96.554 100.605 107.505 91.7688 107.297C91.5419 107.31 91.3265 107.402 91.1595 107.557C90.9925 107.712 90.8843 107.921 90.8534 108.147C90.8225 108.373 90.8709 108.604 90.9902 108.798C91.1094 108.993 91.2923 109.139 91.5074 109.213L91.4964 109.235Z" fill="#1F454F"/>
<path d="M65.6463 92.2592C67.2639 92.9741 69.1605 92.7698 70.9009 92.7925L76.0106 92.8946C76.3862 92.8617 76.7361 92.6866 76.9909 92.404C77.2458 92.1214 77.3872 91.7519 77.3872 91.3684C77.3872 90.9849 77.2458 90.6154 76.9909 90.3328C76.7361 90.0502 76.3862 89.8752 76.0106 89.8422H71.0014H68.5915C67.6804 89.7791 66.7662 89.9026 65.9028 90.2053C65.7055 90.2676 65.529 90.3844 65.3931 90.5426C65.2572 90.7009 65.1671 90.8945 65.133 91.1018C65.0905 91.3218 65.1171 91.5498 65.2092 91.7535C65.3014 91.9572 65.4543 92.1262 65.6463 92.2365V92.2592Z" fill="#1F454F"/>
</svg>
