<svg width="349" height="31" viewBox="0 0 349 31" fill="none" xmlns="http://www.w3.org/2000/svg">
<path d="M42.6259 13.2213C32.3225 12.4689 22.2005 12.6423 12.1332 11.3005C9.17283 10.8976 6.20276 10.5294 3.27283 10.0073C1.69671 9.72743 0.324141 9.09374 0.573676 7.51785C0.823211 5.94196 2.42458 6.25923 3.65106 6.23834C8.78951 6.06147 13.9467 5.73413 19.0849 5.9219C22.5096 6.05714 25.3846 4.57447 29.0636 5.14989C28.247 3.88594 27.1988 4.14862 26.2638 4.22262C24.6909 4.35325 23.3452 4.09643 22.6468 2.85182C22.2943 2.22672 21.5145 1.57341 22.3217 0.881704C23.0082 0.292015 23.7422 0.718935 24.5686 0.864375C27.951 1.45213 31.3573 1.09975 34.7533 1.15172C50.4337 1.28499 66.1001 1.326 81.7778 1.4945C95.8939 1.64765 110.015 1.83154 124.136 2.18768C134.239 2.44164 144.332 2.55301 154.414 2.52179C169.446 2.49304 184.47 2.28647 199.481 2.33214C211.326 2.36901 223.183 2.60438 235.036 2.88506C253.817 3.33596 272.581 4.56034 291.344 5.78471C303.075 6.55217 314.819 7.33082 326.574 7.34549C328.429 7.36853 330.286 7.51328 332.122 7.77795C334.317 8.07054 335.017 9.55841 334.841 10.831C334.664 12.1037 332.918 11.7498 331.534 11.7078C329.61 11.654 327.012 10.94 326.897 13.5899C326.854 13.8597 326.683 14.1058 326.412 14.2867C326.142 14.4676 325.788 14.5724 325.411 14.5833C324.173 14.664 323.78 14.917 323.994 16.058C324.208 17.199 323.104 17.9081 321.276 17.872C311.245 17.5967 301.215 17.3213 291.197 17.3356C288.994 17.3311 286.612 16.8213 283.743 17.7676C286.726 18.2311 289.76 18.4148 292.767 18.314C293.29 18.2939 293.85 18.1553 294.152 18.6194C294.453 19.0835 293.56 19.0797 293.572 19.187C293.673 20.1571 294.851 19.94 295.513 20.0321C301.335 20.8303 307.19 21.4943 313.019 22.293C323.349 23.7059 333.665 25.1886 343.991 26.6518C344.706 26.764 345.415 26.9055 346.112 27.0754C346.9 27.2623 347.58 27.6501 348.019 28.1642C348.459 28.6783 348.627 29.2821 348.492 29.859C348.341 30.9006 346.747 30.9385 345.453 30.9288C336.566 30.8692 327.722 29.9165 318.889 29.0762C307.186 27.9564 295.499 26.7062 283.815 25.4258C278.28 24.8222 272.734 24.0861 267.227 23.5758C260.895 22.9911 254.524 22.5351 248.167 21.9991C237.678 21.1056 227.199 20.0711 216.698 19.3286C205.175 18.5115 193.639 17.9467 182.103 17.2957C173.342 16.8053 164.565 16.5264 155.801 16.0662C147.977 15.6589 140.128 15.7511 132.296 15.8042C116.688 15.9196 101.102 16.3812 85.5323 16.996C72.8203 17.5246 60.0925 18.2545 47.3034 18.2352C45.6564 18.2334 44.0039 18.1198 42.3872 18.0901C40.0606 18.0455 38.6567 17.1814 38.3253 15.383C37.9435 13.3274 40.2569 13.8116 41.6115 13.4107C41.9423 13.3311 42.2811 13.2679 42.6259 13.2213V13.2213ZM260.39 7.34276C235.977 5.82785 211.537 5.31457 187.187 5.80543C211.6 7.3781 236.045 7.89148 260.39 7.34276V7.34276ZM268.859 20.7909C265.603 20.5675 262.398 19.6036 259.063 20.0274L268.859 20.7909Z" fill="#E9653B"/>
</svg>
