<svg width="395" height="108" viewBox="0 0 395 108" fill="none" xmlns="http://www.w3.org/2000/svg">
<path fill-rule="evenodd" clip-rule="evenodd" d="M130.756 102.301C150.986 105.201 176.834 106.544 200.338 107.566C201.192 107.603 201.394 107.744 200.836 107.829C197.39 108.347 188.785 107.544 182.446 107.302C140.246 105.715 102.297 102.541 71.1137 95.9854C38.4846 89.1301 1.50987 76.3479 0.0413691 53.3502C-1.3597 31.4256 33.105 19.8632 61.1751 13.0833C94.0552 5.14897 128.752 1.30081 173.995 0.190001C226.632 -1.10727 273.812 4.38132 311.176 12.2899C329.266 16.1242 346.045 21.2478 361.873 27.5635C378.318 34.1094 399.439 43.7952 394.18 59.41C389.684 72.7814 365.926 80.325 344.476 86.252C325.861 91.3954 307.197 95.6562 284.836 98.3519C238.264 103.983 182.266 103.95 130.756 102.301ZM169.027 5.45443C113.996 6.8112 54.3496 15.1978 26.3807 31.2411C16.4047 36.9657 8.06562 44.6938 8.98343 54.3995C10.3658 68.9689 25.8112 77.2306 43.2796 84.3993C34.1165 77.2266 23.8595 70.046 23.897 58.6126C23.9344 48.1968 34.0679 39.2806 45.7634 33.0858C82.9666 13.3888 149.079 5.73809 217.735 5.9781C202.975 4.98432 185.211 5.05573 169.027 5.45443ZM362.371 61.7745C364.9 49.0517 354.564 38.7014 341.493 32.0345C331.135 26.7502 317.488 22.9457 302.724 19.9346C273.336 13.9283 234.383 10.5126 193.879 11.5123C154.848 12.4744 122.672 15.7314 92.4856 22.8188C66.5884 28.9104 36.2668 38.8025 33.8356 56.7699C32.2622 68.4036 42.92 77.4468 54.713 83.35C86.7802 99.4012 154.975 99.3099 212.764 98.088C272.957 96.8126 323.276 90.0862 359.887 75.9809C371.298 71.5853 384.855 64.5436 385.23 55.4548C385.784 42.0576 364.51 35.7022 350.938 29.6681C368.121 37.6897 377.352 58.9836 362.371 71.5218C359.303 74.0886 354.598 76.4808 348.949 77.5757C356.733 72.9441 361.064 68.2806 362.371 61.7745Z" fill="#F7BC13"/>
</svg>
