<svg width="106" height="46" fill="none" xmlns="http://www.w3.org/2000/svg"><path d="M41.452 19.06l-1.578-.446c-.827-.235-1.37-.509-1.63-.82a1.772 1.772 0 01-.396-1.195c0-.652.183-1.154.548-1.505.363-.353 1.037-.529 2.015-.529.838.004 1.673.093 2.492.266.165.042.333.072.502.09a.356.356 0 00.354-.303c.076-.237.124-.482.144-.73a.442.442 0 00-.355-.428c-.776-.235-1.78-.353-3.013-.353-1.552 0-2.675.312-3.367.936-.693.624-1.04 1.53-1.04 2.716 0 1.763.887 2.886 2.66 3.37l1.685.462c.92.25 1.518.527 1.792.83.286.334.433.764.411 1.202.004.244-.026.487-.088.723a1.913 1.913 0 01-.355.642 1.705 1.705 0 01-.85.516 4.922 4.922 0 01-1.47.187 8.427 8.427 0 01-2.836-.464 2.534 2.534 0 00-.532-.143.434.434 0 00-.43.353c-.09.235-.15.481-.178.732a.459.459 0 00.378.445 10.74 10.74 0 003.584.53c1.613 0 2.765-.319 3.458-.954.692-.636 1.037-1.554 1.033-2.755 0-.987-.212-1.715-.636-2.184-.424-.469-1.192-.866-2.302-1.192zm8.648-2.421a10.7 10.7 0 00-2.976.426.378.378 0 00-.322.376c.008.24.05.477.126.705a.317.317 0 00.304.25c.048 0 .27-.042.663-.125a9.71 9.71 0 011.95-.213c1.028 0 1.625.225 1.792.676.105.359.148.733.126 1.105v.73a17.96 17.96 0 00-1.863-.07c-1.293 0-2.225.172-2.797.516-.68.416-1.021 1.129-1.021 2.138 0 .879.23 1.574.69 2.085.46.511 1.299.767 2.518.767 1.469 0 2.591-.184 3.368-.552a1.24 1.24 0 00.519-.41 1.29 1.29 0 00.177-.75v-4.662c0-1.163-.197-1.94-.592-2.333-.42-.44-1.308-.66-2.662-.66zm1.666 6.896c.008.204-.016.408-.07.605a.619.619 0 01-.341.303 5.101 5.101 0 01-1.847.268c-.709 0-1.207-.134-1.47-.402-.261-.268-.393-.66-.393-1.184 0-.524.142-.855.43-1.033.334-.228 1.003-.341 2.007-.34.598 0 1.16.024 1.684.072v1.711zm8.737 1.154c-1.016-.049-1.644-.257-1.882-.624-.202-.297-.305-.815-.305-1.551v-4.098h1.9c.275 0 .413-.13.413-.393V17.4c0-.25-.144-.376-.43-.376H58.31v-1.977c0-.298-.113-.446-.34-.446h-.824c-.215 0-.333.148-.355.445a59.617 59.617 0 00-.053 1.978h-1.086a.355.355 0 00-.395.393v.624c0 .249.12.374.354.374h1.092v4.027c0 1.343.197 2.246.592 2.71.294.345.688.59 1.129.704a7.61 7.61 0 001.95.198.379.379 0 00.382-.181.372.372 0 00.048-.14c.023-.263.036-.488.036-.679a.323.323 0 00-.199-.341.328.328 0 00-.138-.025zm8.963-7.699h-.842c-.264 0-.395.136-.395.41v6.22a.849.849 0 01-.108.498c-.097.1-.213.179-.34.233-.523.249-1.222.373-2.098.373-.895 0-1.421-.214-1.577-.641a3.549 3.549 0 01-.124-1.14V17.4c0-.275-.126-.41-.378-.41h-.861c-.25 0-.376.135-.376.41v5.862c0 .785.072 1.367.215 1.747.287.76 1.147 1.14 2.58 1.14 1.3 0 2.31-.208 3.03-.624v.446c.013.473-.06.944-.215 1.39-.177.417-.557.727-1.13.935-.575.208-1.596.337-3.046.384a.383.383 0 00-.296.125.448.448 0 00-.117.321c.002.215.02.43.053.642.037.213.204.32.502.32 1.654 0 2.945-.184 3.873-.553.927-.369 1.518-.975 1.772-1.817.186-.716.27-1.454.25-2.193V17.4c.004-.275-.122-.41-.372-.41zm9.754.09c-.375-.177-.957-.265-1.745-.265-.742.005-1.483.07-2.214.195a7.695 7.695 0 00-1.962.553c-.395.177-.592.53-.592 1.058v6.932c0 .273.126.41.376.41h.844c.262 0 .393-.137.393-.41v-6.227a.853.853 0 01.108-.499.902.902 0 01.34-.248c.562-.235 1.296-.353 2.204-.353.355-.018.71.03 1.049.141a.755.755 0 01.44.481c.085.369.121.747.106 1.125v5.577c0 .273.126.41.377.41h.86c.251 0 .376-.137.376-.41v-5.901c0-.845-.059-1.426-.178-1.747a1.484 1.484 0 00-.781-.821zm7.255-.303c-1.007.002-2.01.146-2.976.427a.378.378 0 00-.322.375c.008.24.05.477.125.705a.317.317 0 00.305.25c.048 0 .27-.042.663-.124a9.695 9.695 0 011.95-.214c1.028 0 1.625.226 1.792.677.104.359.147.732.126 1.105v.73c-.62-.056-1.243-.08-1.865-.07-1.29 0-2.222.171-2.795.516-.68.416-1.021 1.128-1.021 2.138 0 .879.23 1.574.69 2.085.46.51 1.299.767 2.518.767 1.469 0 2.591-.184 3.368-.552a1.24 1.24 0 00.52-.41c.133-.227.195-.488.176-.75V19.77c0-1.163-.197-1.941-.592-2.334-.424-.44-1.311-.66-2.662-.659zm1.666 6.897c.007.204-.017.408-.07.605a.617.617 0 01-.343.303 5.084 5.084 0 01-1.845.268c-.709 0-1.207-.134-1.47-.402-.261-.268-.394-.661-.394-1.184 0-.524.143-.855.43-1.033.336-.228 1.005-.342 2.008-.34.598 0 1.158.024 1.684.072v1.711zm7.259 1.033c-.515-.07-.855-.225-1.021-.463-.132-.19-.197-.543-.197-1.058V13c0-.274-.12-.411-.355-.411h-.86c-.262 0-.393.137-.393.41v10.39c0 .773.101 1.325.303 1.657.383.63 1.151.944 2.305.945.25 0 .4-.088.448-.268.053-.215.077-.437.07-.659a.325.325 0 00-.176-.32.331.331 0 00-.124-.036zM10.537 5.763a.543.543 0 00.39-.166c.23-.243.452-.46.673-.67l.006-.006a.533.533 0 00-.316-.918.54.54 0 00-.446.164c-.23.218-.457.444-.696.693a.534.534 0 00.39.903zm15.389 29.229a20.6 20.6 0 01-.676.672l-.043.047a.533.533 0 00.402.895.54.54 0 00.375-.154l.022-.022c.227-.216.456-.444.699-.696a.534.534 0 00-.406-.89.541.541 0 00-.373.148zm-4.813 6.955l.01-.01-.01.01zm.035-.04c-.009.01-.014.021-.023.03a.516.516 0 01.053-.056l-.03.026zm5.164-22.044a.53.53 0 00-.529.526v.246a15.114 15.114 0 01-4.32 10.337 15.285 15.285 0 01-10.934 4.584.53.53 0 00-.529.526.524.524 0 00.529.525h.694a.494.494 0 00.102-.01c.014 0 .028-.009.042-.012a16.343 16.343 0 0010.9-4.931 16.162 16.162 0 004.571-11.006v-.26a.524.524 0 00-.526-.525zm-.002-4.153a.527.527 0 00.528-.532v-4.655a.533.533 0 00-.527-.53 10.233 10.233 0 00-7.255 3.02 10.339 10.339 0 00-3.006 7.29.533.533 0 00.529.532h3.133a9.206 9.206 0 01-1.719 4.878 9.203 9.203 0 01-3.038 2.7 9.155 9.155 0 01-3.899 1.124v-4.105a.533.533 0 00-.528-.506.527.527 0 00-.528.506v4.652a.532.532 0 00.529.53c2.72 0 5.33-1.086 7.254-3.02a10.336 10.336 0 003.005-7.29.532.532 0 00-.529-.532h-3.134a9.18 9.18 0 011.722-4.88 9.26 9.26 0 014.628-3.39 9.119 9.119 0 012.307-.433v4.105a.532.532 0 00.529.535zm-15.784 5.034a.531.531 0 00.488-.324.52.52 0 00.04-.201v-.247a15.01 15.01 0 012.9-8.652 15.416 15.416 0 014.732-4.243A15.334 15.334 0 0126.11 5.05h.202a.528.528 0 00.36-.146l.01-.007a.312.312 0 00.032-.04.552.552 0 00.082-.127.525.525 0 00-.487-.73H26.1c-.177 0-.339.007-.492.013a16.411 16.411 0 00-7.451 2.15 16.477 16.477 0 00-5.059 4.54A16.04 16.04 0 0010 19.955v.259a.523.523 0 00.526.53z" fill="#1F454F"/></svg>