<svg width="145" height="141" viewBox="0 0 145 141" fill="none" xmlns="http://www.w3.org/2000/svg">
<path d="M93.7838 0.00117851C70.2766 1.49498 46.0289 -2.55305 24.1674 11.0031C16.5261 15.7408 9.61418 21.8821 5.10925 31.1845C1.46248 38.7142 0.193977 47.662 1.50036 56.3073C2.96265 65.9845 7.79498 74.3283 13.629 80.6487C19.1791 86.6615 25.583 90.4537 32.4543 93.3776C46.3228 99.2786 61.1364 102.139 75.7354 102.86C101.897 104.153 140.309 97.074 144.691 56.9047C148.772 19.5044 111.453 1.65495 87.5949 1.55764C86.8233 1.55463 86.8237 3.05947 87.5949 3.06248C102.14 3.12217 117.464 8.66852 129.287 19.4668C135.072 24.7513 139.959 31.8326 142.323 40.4112C144.997 50.1114 143.676 60.5435 140.529 69.7907C135.047 85.898 120.647 94.1496 107.94 97.9754C92.7199 102.558 76.5716 102.271 61.1272 99.8369C53.728 98.6706 46.381 96.8633 39.1883 94.3854C32.8993 92.2179 26.4779 89.6255 20.8703 85.3678C13.3156 79.6329 6.69278 71.282 3.68643 60.6769C1.12951 51.6563 1.92266 41.8282 5.47054 33.4252C12.2915 17.2702 27.7396 8.90632 41.2009 5.078C58.4231 0.179739 76.3009 2.61604 93.783 1.50547C94.5515 1.45681 94.5555 -0.0479797 93.7838 0.00117851Z" fill="#1f454f"/>
<path d="M17.3767 89.641C14.3133 93.3733 12.0671 97.663 11.9339 102.596C11.8197 106.853 13.6528 111.026 16.225 114.379C22.1858 122.149 31.6633 127.191 40.8981 129.91C41.3379 130.039 41.7267 129.679 41.7419 129.256C41.8552 126.12 41.1154 123.228 40.2783 120.213C40.0437 119.368 38.7452 119.709 38.9698 120.556C39.8885 124.025 40.4432 127.935 38.4375 131.092C36.3441 134.388 31.6279 134.385 28.1807 134.01C27.31 133.914 27.3369 135.269 28.2012 135.363C32.0673 135.785 36.8515 135.559 39.3484 132.147C41.8716 128.699 41.3195 124.143 40.2787 120.213C39.8425 120.327 39.4064 120.442 38.9702 120.556C39.7746 123.454 40.4931 126.239 40.3841 129.256C40.6654 129.038 40.947 128.82 41.2279 128.602C32.841 126.133 24.5148 121.738 18.6035 115.167C15.7588 112.004 13.6754 108.105 13.3272 103.855C12.9211 98.8961 15.3012 94.3127 18.3396 90.6105C18.8858 89.9452 17.9264 88.9715 17.3767 89.641Z" fill="#1f454f"/>
<path d="M86.7774 43.8687C86.3792 43.189 85.6368 42.5374 84.842 42.3804C80.3209 41.4875 75.736 41.3898 71.1444 41.4516C66.8077 41.51 62.4569 41.6348 58.1454 41.064C58.236 41.0762 58.3266 41.0883 58.4172 41.1005C57.6237 41.0067 56.9289 41.0257 56.1858 41.461C55.4619 41.8852 54.9202 42.5871 54.6975 43.3965C54.2773 44.924 55.1199 46.7751 56.6571 47.2968C56.5724 47.4173 56.4927 47.5389 56.4194 47.6607C56.0085 48.3442 55.7478 49.1536 55.6111 49.9391C55.4013 51.1447 55.3089 52.3589 55.3078 53.5809C55.3031 58.6425 56.6453 63.5875 57.3714 68.5704C57.5896 70.3293 57.6845 72.0854 57.742 73.8573C57.8013 75.6852 57.9044 77.5289 58.2908 79.3215C58.6758 81.1068 59.5401 82.9451 60.925 84.1725C61.8649 85.0056 62.8701 85.5556 64.0647 85.947C65.104 86.2876 66.2267 86.3334 67.3087 86.4396C69.0343 86.6092 70.7663 86.7501 72.5017 86.7179C74.3614 86.6832 76.3476 86.496 78.078 85.7698C79.2623 85.2729 80.2307 84.7484 81.1923 83.8685C82.1288 83.0116 82.7012 81.9412 83.1733 80.7885C83.5557 79.8552 83.735 78.8229 83.9069 77.8335C84.1448 76.4645 84.3073 75.0786 84.4235 73.694C84.6807 70.6295 84.6702 67.5505 84.8001 64.4798C84.9326 61.3474 85.2962 58.222 85.7067 55.1138C86.1053 52.187 86.5765 49.2708 87.1038 46.3643C87.2648 45.4775 87.2469 44.6702 86.7774 43.8687ZM71.0056 80.2336C71.2315 79.8014 71.3377 79.3554 71.5648 78.9001C71.5648 79.1456 71.5648 79.3912 71.5648 79.6367C71.5648 79.8488 71.5747 80.0578 71.6154 80.2615C71.4088 80.2605 71.2021 80.2576 70.9953 80.2524C70.9986 80.2461 71.0023 80.2399 71.0056 80.2336Z" fill="#E3B87E"/>
<path d="M59.3629 70.9964C59.9357 73.5222 61.2008 75.805 63.4234 77.2222C64.2823 77.7697 65.2197 77.0327 65.2977 76.1466C65.5439 73.3491 63.9471 70.3819 61.4419 69.0914C61.0402 68.8845 60.5846 68.8571 60.1845 69.0914C59.6564 69.4008 59.5325 69.9343 59.6121 70.4981C59.993 73.1965 62.6809 75.113 65.2979 75.1499C66.2165 75.1629 66.8849 74.0727 66.3734 73.2755C65.849 72.4582 65.6079 71.5042 64.9329 70.7811C64.4695 70.2847 63.6389 70.3135 63.1713 70.7811C62.6791 71.2733 62.7084 72.0468 63.1713 72.5426C63.2625 72.6452 63.2642 72.6419 63.1763 72.5323C63.2434 72.6236 63.2985 72.724 63.3543 72.8222C63.4558 73.0009 63.5401 73.1899 63.6261 73.3763C63.8086 73.7716 63.9867 74.1656 64.2223 74.5328C64.5808 73.908 64.9393 73.2832 65.2978 72.6585C64.5323 72.6477 63.6763 72.3142 63.145 71.8646C62.9695 71.7161 62.8107 71.5492 62.6589 71.377C62.415 71.1004 62.7892 71.5688 62.5755 71.2709C62.51 71.1795 62.4515 71.0833 62.3933 70.9873C62.3355 70.8918 62.2855 70.792 62.2355 70.6923C62.0738 70.3694 62.3149 70.9189 62.1911 70.5816C62.1027 70.3409 62.05 70.0891 62.0143 69.8358C61.4043 70.3047 60.7945 70.7736 60.1845 71.2424C60.3925 71.3496 60.5915 71.4678 60.7857 71.598C60.7977 71.6061 61.1016 71.841 60.9125 71.6887C61.0375 71.7894 61.155 71.899 61.2711 72.0096C61.7286 72.4449 61.8704 72.6515 62.198 73.2247C62.7114 74.1232 62.9037 75.0419 62.8065 76.1465C63.4313 75.788 64.0561 75.4295 64.6808 75.071C64.2531 74.7982 64.0216 74.6161 63.5963 74.1774C63.5131 74.0914 63.4343 74.0011 63.3556 73.911C63.3474 73.9016 63.104 73.5964 63.2527 73.7917C63.0849 73.5711 62.9351 73.3372 62.7927 73.0997C62.6698 72.8951 62.5608 72.6826 62.456 72.4682C62.4032 72.3604 62.3549 72.2504 62.3064 72.1405C62.3978 72.3478 62.2235 71.916 62.2086 71.8758C62.023 71.3738 61.8834 70.8555 61.7652 70.334C61.6151 69.6718 60.8645 69.2903 60.2328 69.464C59.5564 69.6502 59.2129 70.3349 59.3629 70.9964Z" fill="#E5C4A8"/>
<path d="M75.7631 59.206C75.4693 59.2181 75.1783 59.2654 74.8884 59.3133C74.993 59.303 74.9674 59.3039 74.8118 59.316C74.5526 59.3332 74.8528 59.3552 74.5993 59.2505C74.4889 60.066 74.3785 60.8816 74.2682 61.6972C74.9658 61.712 75.7256 61.9296 76.5106 61.9463C77.1896 61.9607 77.7563 61.3688 77.7563 60.7007C77.7563 60.0108 77.1893 59.4695 76.5106 59.455C75.813 59.4402 75.0533 59.2227 74.2682 59.206C73.716 59.1943 73.2117 59.5948 73.067 60.1204C72.8701 60.8361 73.31 61.3936 73.937 61.6527C74.5391 61.9014 75.3426 61.7145 75.763 61.6972C76.4412 61.6691 77.0087 61.1518 77.0087 60.4515C77.0088 59.7938 76.442 59.1779 75.7631 59.206Z" fill="#E5C4A8"/>
<path d="M60.4279 54.3385C59.9802 54.7864 59.5314 55.2716 59.2365 55.8362C58.9756 56.336 59.0214 56.9359 59.4313 57.3457C59.9112 57.8256 60.7129 57.8255 61.1928 57.3457C61.359 57.1796 61.525 57.0135 61.6911 56.8474C62.171 56.3675 62.171 55.5659 61.6911 55.0859C61.2113 54.606 60.4095 54.606 59.9296 55.0859C59.7635 55.252 59.5974 55.4181 59.4313 55.5842C60.0834 56.0873 60.7355 56.5905 61.3877 57.0936C61.4486 56.9768 61.5164 56.8659 61.5903 56.7568C61.621 56.7126 61.6526 56.669 61.6851 56.626C61.4784 56.9052 61.6446 56.6845 61.6912 56.6294C61.8477 56.4443 62.0183 56.2713 62.1895 56.1C62.6692 55.6199 62.6695 54.8184 62.1895 54.3385C61.7097 53.8587 60.9076 53.8584 60.4279 54.3385Z" fill="#E5C4A8"/>
<path d="M67.5376 43.5079C67.1083 43.5007 66.7317 43.4733 66.2998 43.5598C65.6032 43.6994 65.0399 44.2687 64.7181 44.8723C64.2746 45.7039 64.8246 46.7356 65.7936 46.7467C65.8677 46.7463 65.9417 46.7482 66.0157 46.752C66.0438 46.754 66.072 46.7561 66.1001 46.7582C65.8407 46.755 65.6155 46.6526 65.4246 46.4513C65.3178 46.2679 65.2215 46.0848 65.1147 45.9015C65.1168 45.9066 65.1315 45.9116 65.1315 45.9166C65.1315 45.6959 65.1315 45.4751 65.1315 45.2544C65.2072 44.5194 65.9312 44.4522 65.533 44.6324C65.959 44.4397 65.8173 44.5148 65.7169 44.5489C65.0747 44.7672 64.6562 45.3972 64.8442 46.0811C65.0163 46.7064 65.7322 47.1698 66.3753 46.9511C66.8444 46.7916 67.4258 46.4822 67.511 45.9323C67.5948 45.3913 67.4735 44.7472 66.9182 44.4804C66.5546 44.3058 66.1932 44.2597 65.7938 44.2552C66.1523 44.8799 66.5108 45.5047 66.8693 46.1294C66.9036 46.0602 66.9419 45.9929 66.9839 45.928C66.8516 46.1457 66.9839 45.9369 67.0381 45.8854C66.7864 46.125 67.1786 45.8572 66.8242 46.0031C66.8904 45.9759 66.9616 45.9621 67.0314 45.9481C66.6218 46.0301 67.0438 45.9713 67.174 45.9785C67.2953 45.9852 67.4161 45.997 67.5376 45.999C68.2167 46.0104 68.7833 45.4237 68.7833 44.7534C68.7832 44.0658 68.2164 43.5193 67.5376 43.5079Z" fill="#E5C4A8"/>
<path d="M62.9384 39.3901C62.6016 39.0651 62.195 38.7984 61.7654 38.6143C61.3312 38.4283 60.9451 38.3205 60.4762 38.259C60.3071 38.2368 60.142 38.2273 59.9715 38.2297C59.8817 38.2332 59.7924 38.2413 59.7036 38.2541C59.3176 38.3065 59.262 38.3137 59.5369 38.2758C59.7465 38.3325 59.9561 38.3892 60.1656 38.4458C60.1621 38.444 60.1585 38.4421 60.1551 38.4402C60.304 39.0082 60.453 39.5762 60.6019 40.1445C60.6039 40.1414 60.606 40.1385 60.6082 40.1355C60.4591 40.2845 60.3102 40.4334 60.1613 40.5823C59.7074 40.837 60.1019 40.621 60.2822 40.5707C60.4026 40.5374 60.5236 40.506 60.6449 40.4754C61.5602 40.2456 61.8458 39.045 61.1945 38.3935C61.1114 38.3104 61.0284 38.2275 60.9454 38.1444C60.6518 38.8532 60.3582 39.562 60.0646 40.2708C60.0485 40.2705 60.5176 40.3011 60.2877 40.2701C60.457 40.2928 60.6249 40.3298 60.7923 40.3633C61.209 40.4465 61.6325 40.5106 62.0578 40.5199C62.7368 40.5346 63.3034 39.9422 63.3034 39.2742C63.3034 38.5841 62.7364 38.0434 62.0578 38.0286C62.0739 38.0289 61.6047 37.9984 61.8346 38.0295C61.6653 38.0065 61.4974 37.9696 61.33 37.9361C60.9133 37.853 60.4898 37.7888 60.0646 37.7796C58.9687 37.7558 58.4277 39.1499 59.1838 39.906C59.2669 39.9891 59.3499 40.072 59.433 40.1551C59.6161 39.4612 59.7994 38.7672 59.9826 38.0733C59.3922 38.2215 58.8216 38.3518 58.4508 38.8871C58.0734 39.4322 58.3337 40.2869 58.8977 40.5914C59.142 40.7232 59.2611 40.7484 59.537 40.767C59.6579 40.7773 59.778 40.7632 59.8974 40.7245C59.7946 40.7328 59.8193 40.7316 59.9716 40.7209C60.0992 40.7126 60.2273 40.7235 60.3544 40.7342C60.1128 40.7138 60.5491 40.7996 60.5999 40.8152C60.9414 40.92 60.3934 40.7081 60.6977 40.8502C60.8106 40.9031 60.9179 40.9672 61.0237 41.0326C61.0903 41.0738 61.1538 41.1199 61.217 41.1663C60.9093 40.9411 61.1093 41.0865 61.177 41.1517C61.6652 41.6229 62.4523 41.6381 62.9385 41.1517C63.412 40.6781 63.4269 39.8615 62.9384 39.3901Z" fill="#E5C4A8"/>
<path d="M69.6993 38.3203C68.9314 38.5601 68.1485 38.6088 67.4085 38.9442C66.3119 39.4413 66.8211 41.4203 68.0372 41.2653C68.3971 41.2195 68.6942 41.1388 69.0055 40.95C69.0867 40.9006 69.1649 40.8456 69.2441 40.7932C69.5113 40.6158 69.679 40.6848 69.0338 40.767C69.5938 40.6957 70.0739 40.4381 70.235 39.8525C70.3962 39.2661 70.1162 38.7868 69.6625 38.4458C69.3851 38.2374 69.0427 38.1556 68.6997 38.1509C68.9093 38.2075 69.1188 38.2643 69.3284 38.321C69.3223 38.3178 69.3162 38.3147 69.3102 38.3115C69.4592 38.8796 69.6081 39.4477 69.7571 40.0158C69.7266 40.0615 69.696 40.1074 69.6655 40.1531C70.1409 39.669 70.1487 38.8746 69.6655 38.3916C69.1889 37.915 68.3794 37.9073 67.904 38.3916C67.7929 38.5047 67.6984 38.6291 67.606 38.7585C67.2246 39.2923 67.4899 40.17 68.0529 40.4628C68.1542 40.516 68.2594 40.561 68.3686 40.5977C68.479 40.6126 68.5894 40.6275 68.6997 40.6422C68.8695 40.6466 68.7713 40.6315 68.4052 40.5971C68.6147 39.8233 68.8243 39.0496 69.0339 38.2758C68.674 38.3217 68.3768 38.4024 68.0656 38.5912C67.9843 38.6404 67.9062 38.6956 67.8269 38.7482C67.5598 38.9254 67.3921 38.8563 68.0372 38.7742C68.2468 39.5479 68.4564 40.3217 68.6659 41.0954C68.4228 41.2055 68.7909 41.0719 68.8154 41.0654C68.9876 41.0196 69.1653 40.9913 69.3405 40.9594C69.6858 40.8965 70.0261 40.8275 70.3616 40.7226C71.0091 40.5204 71.4163 39.8618 71.2316 39.1904C71.0562 38.5528 70.3474 38.1179 69.6993 38.3203Z" fill="#E5C4A8"/>
<path d="M79.0002 37.0305C78.5628 37.0514 78.1775 37.1545 77.7721 37.3063C77.6242 37.3616 77.4761 37.4109 77.3237 37.4518C77.1759 37.4832 77.1742 37.4828 77.3185 37.451C77.3972 37.4473 77.6406 37.5984 77.3866 37.4497C76.9674 38.1667 76.5483 38.8838 76.1292 39.6008C76.278 39.696 76.2985 39.6973 76.1908 39.6051C75.8695 39.1969 75.8833 38.7481 76.2322 38.2583C76.1822 38.3209 76.1127 38.371 76.0513 38.4217C75.8262 38.608 75.61 38.8966 75.5567 39.1907C75.4357 39.8581 75.7289 40.5309 76.4268 40.7229C77.0366 40.8908 77.8378 40.5217 77.959 39.853C77.9508 39.8986 77.6532 40.3244 77.7678 40.2213C77.8129 40.1808 77.8612 40.1434 77.9073 40.104C78.1497 39.8978 78.2859 39.6234 78.3956 39.3311C78.6925 38.5394 78.0217 37.7915 77.3866 37.4497C76.7887 37.1278 76.0342 37.296 75.6823 37.8964C75.3391 38.4825 75.5443 39.2582 76.1292 39.6008C76.7191 39.9463 77.3264 39.9909 77.986 39.8541C78.1779 39.8142 78.3637 39.735 78.5466 39.6665C78.6578 39.6248 78.7696 39.5866 78.8829 39.5511C78.9417 39.5326 79.2712 39.5088 79.0003 39.5218C79.6782 39.4894 80.2459 38.9796 80.2459 38.2761C80.2458 37.6217 79.6789 36.9981 79.0002 37.0305Z" fill="#E5C4A8"/>
<path d="M67.9574 73.7017C67.8266 73.7427 67.6967 73.7783 67.5631 73.8089C67.1839 73.896 67.7549 73.8093 67.3827 73.8208C67.0247 73.8319 67.5724 73.8842 67.2363 73.8049C67.096 73.7599 67.0873 73.7573 67.2098 73.7967C67.0876 73.721 67.0764 73.713 67.1762 73.773C67.283 73.9561 67.3898 74.1394 67.4965 74.3227C67.3685 74.0113 67.4682 74.4507 67.4767 74.2265C67.4514 74.392 67.4532 74.4009 67.4821 74.2535C67.5055 74.1452 67.542 74.0397 67.577 73.9349C67.6019 73.8637 67.6285 73.793 67.6566 73.7229C67.6031 73.8479 67.605 73.8459 67.6623 73.7164C67.7272 73.5721 67.7985 73.4307 67.8692 73.2891C67.4002 73.4799 66.9313 73.6707 66.4624 73.8615C66.6766 73.9474 66.8899 74.035 67.1031 74.1234C67.1473 74.1417 67.4512 74.2704 67.1731 74.1523C67.2651 74.1915 67.3569 74.2314 67.4485 74.2714C67.6033 74.339 67.7572 74.4089 67.9089 74.4835C68.6853 74.8645 69.8621 74.4209 69.7832 73.4079C69.762 73.1356 69.7422 72.9945 69.6078 72.7549C69.359 72.311 68.7043 71.9787 68.2012 72.1825C67.5767 72.4356 67.3963 72.8127 67.1867 73.392C67.135 73.5348 67.0845 73.678 67.0311 73.8203C66.9973 73.9105 66.9004 74.1284 67.0732 73.729C67.005 73.8867 66.9185 73.8672 67.1894 73.6105C67.3725 73.5038 67.5558 73.397 67.739 73.2903C67.7355 73.2913 67.7319 73.2923 67.7283 73.2933C68.0483 73.3352 68.3682 73.3771 68.6881 73.4189C68.6852 73.4168 68.6823 73.4146 68.6795 73.4124C68.8704 73.6606 69.0612 73.9087 69.252 74.1569C69.2152 74.0567 69.2262 74.1392 69.2848 74.4045C68.8697 74.8197 68.4544 75.2349 68.0392 75.6502C68.0255 75.6498 68.4881 75.6894 68.2624 75.6541C68.4337 75.6808 68.6013 75.7308 68.767 75.7805C69.0824 75.875 69.3897 75.998 69.7013 76.1039C70.3443 76.3226 71.0616 75.8591 71.2336 75.2339C71.4217 74.55 71.0057 73.9201 70.3636 73.7017C69.5901 73.4387 68.869 73.1773 68.0392 73.1589C67.3774 73.1442 66.7706 73.7367 66.7936 74.4045C66.8177 75.1092 67.3078 75.7401 68.0594 75.7401C68.5562 75.7401 69.0171 75.4341 69.2243 74.9864C69.3466 74.7222 69.4475 74.4487 69.5457 74.1747C69.5793 74.0811 69.6128 73.9873 69.6476 73.8941C69.719 73.703 69.4661 74.195 69.6015 74.015C69.3533 74.2058 69.1052 74.3966 68.857 74.5874C68.8592 74.5865 68.8613 74.5857 68.8634 74.5849C68.3945 74.394 67.9256 74.2033 67.4567 74.0125C67.4581 74.0148 67.4594 74.0172 67.4606 74.0195C67.404 73.8098 67.3473 73.6003 67.2906 73.3907C67.291 73.3966 67.2915 73.4023 67.2919 73.4081C67.9167 73.0496 68.5415 72.691 69.1662 72.3325C68.5026 72.0069 67.8106 71.7343 67.1246 71.4595C66.6379 71.2645 65.9451 71.5769 65.718 72.0319C65.2786 72.9122 64.8002 73.9044 65.0635 74.9106C65.2509 75.6265 66.012 76.0749 66.689 76.2344C67.3257 76.3844 68.0031 76.2973 68.6197 76.1041C69.267 75.9012 69.6744 75.2438 69.4897 74.5718C69.3144 73.9347 68.6054 73.4987 67.9574 73.7017Z" fill="#EAD3C3"/>
<path d="M78.1216 51.8636C78.2047 51.9467 78.2877 52.0297 78.3708 52.1128C78.8507 52.5927 79.6526 52.5927 80.1324 52.1128C80.6123 51.6329 80.6122 50.8312 80.1324 50.3513C80.0493 50.2682 79.9663 50.1852 79.8832 50.1021C79.4034 49.6222 78.6015 49.6223 78.1216 50.1021C77.6417 50.5819 77.6417 51.3837 78.1216 51.8636Z" fill="#EAD3C3"/>
<path d="M68.6138 47.625C68.8387 47.1292 68.8926 46.6935 68.6389 46.1887C68.4173 45.748 67.8511 45.497 67.3752 45.5326C67.1087 45.5527 66.8551 45.6077 66.5985 45.6748C66.505 45.6991 66.4114 45.7231 66.3173 45.7449C66.2636 45.7574 66.2094 45.7674 66.1551 45.7771C66.5632 45.7052 66.401 45.7478 66.2925 45.7507C65.6139 45.7696 65.0469 46.3031 65.0469 46.9963C65.0469 47.6611 65.6134 48.2608 66.2925 48.242C66.6205 48.2328 66.9446 48.1595 67.2607 48.0769C67.3652 48.0497 67.4697 48.0228 67.5752 48.0002C67.7805 47.9566 67.2235 48.0352 67.4132 48.021C67.5395 48.0211 67.4603 48.0087 67.1754 47.9835C66.3858 47.4777 66.1482 46.9391 66.4627 46.3676C66.1822 46.9859 66.2795 47.7028 66.9096 48.0718C67.4494 48.3882 68.3332 48.2435 68.6138 47.625Z" fill="#EAD3C3"/>
<path d="M65.166 59.5689C64.9168 59.818 64.6677 60.0673 64.4185 60.3164C63.9386 60.7962 63.9386 61.5981 64.4185 62.0779C64.8985 62.5578 65.7002 62.5577 66.1801 62.0779C66.4292 61.8288 66.6784 61.5796 66.9275 61.3305C67.4074 60.8505 67.4074 60.0488 66.9275 59.5689C66.4477 59.089 65.6459 59.089 65.166 59.5689Z" fill="#EAD3C3"/>
<path d="M61.3134 54.4707C61.0835 54.4708 60.874 54.4933 60.6432 54.5284C60.3414 54.5743 60.1032 54.744 59.8721 54.9289C59.43 55.2828 59.3243 55.9366 59.3203 56.4637C59.3153 57.1427 59.8908 57.7093 60.5659 57.7093C61.2488 57.7093 61.8066 57.1427 61.8116 56.4637C61.8123 56.366 61.8165 56.2689 61.829 56.1718C61.8141 56.2822 61.7993 56.3925 61.7845 56.5029C61.7954 56.4328 61.8105 56.3652 61.8365 56.2991C61.7946 56.3983 61.7527 56.4975 61.7109 56.5966C61.7271 56.5606 61.7454 56.5278 61.7692 56.4962C61.7043 56.5802 61.6394 56.6643 61.5744 56.7483C61.5926 56.7268 61.6118 56.7082 61.6338 56.6906C61.5498 56.7555 61.4657 56.8204 61.3817 56.8853C61.4043 56.8694 61.4273 56.8563 61.4523 56.8446C61.3532 56.8864 61.2539 56.9283 61.1548 56.9701C61.2037 56.9503 61.2535 56.9386 61.3056 56.9307C61.1953 56.9455 61.0848 56.9603 60.9745 56.9752C61.0869 56.9611 61.2004 56.9619 61.3136 56.9619C61.9926 56.9618 62.5592 56.3954 62.5592 55.7162C62.559 55.0374 61.9924 54.4706 61.3134 54.4707Z" fill="#EAD3C3"/>
<path d="M73.4017 36.8968C73.2865 36.971 73.1713 37.0252 73.056 37.1009C72.8352 37.1009 72.6145 37.1009 72.3937 37.1009C72.2956 37.1009 72.2029 37.0242 72.1159 36.9624C71.9368 36.7809 72.1809 37.1296 72.1929 37.1524C72.5513 36.5276 72.9099 35.9074 73.2684 35.2827C72.9507 35.2928 72.6336 35.3498 72.3233 35.4171C72.1713 35.4502 72.0197 35.4855 71.8669 35.5151C71.7202 35.5407 71.7015 35.5441 71.8106 35.5238C71.7154 35.5318 71.6199 35.5361 71.5243 35.5361C70.3475 35.5616 69.7421 37.2798 70.8956 37.8576C71.0442 37.9317 71.1937 38.0043 71.3365 38.0896C71.4424 38.1617 71.4062 38.1327 71.2275 38.0027C71.2852 38.0516 71.3376 38.1079 71.391 38.1611C71.6767 38.4461 72.2051 38.6448 72.603 38.4815C72.8285 38.4053 72.7336 38.3874 72.3184 38.4277C72.0778 38.391 72.224 38.3884 72.3462 38.475C72.0653 38.276 72.5132 38.6044 72.5979 38.6694C72.6899 38.7401 72.7874 38.7982 72.8888 38.8541C73.4836 39.1819 74.2437 39.0036 74.5931 38.4072C74.9295 37.8328 74.7401 37.0303 74.1462 36.7029C74.0988 36.6768 73.722 36.412 73.9371 36.5808C73.7764 36.4547 73.6175 36.3247 73.4431 36.2177C73.0088 35.9514 72.4122 35.8855 71.9406 36.0792C72.3446 36.1859 72.7486 36.2927 73.1526 36.3995C72.8531 36.1009 72.5274 35.8939 72.153 35.7064C71.9434 36.4801 71.7339 37.2538 71.5243 38.0276C71.9021 38.0194 72.2779 37.967 72.6487 37.8954C72.797 37.8667 72.9442 37.8306 73.0919 37.7985C73.1604 37.7839 73.2292 37.771 73.2984 37.7599C73.1352 37.7813 73.1251 37.7874 73.2683 37.7785C74.2364 37.7477 74.7878 36.7506 74.3438 35.9041C74.1338 35.5037 73.8446 35.0711 73.4213 34.8728C72.7633 34.5647 72.1812 34.7096 71.64 35.1536C71.1145 35.5849 71.1954 36.4613 71.64 36.9059C72.1552 37.4211 72.8775 37.3272 73.4017 36.8968Z" fill="#F4E9E1"/>
<path d="M83.7331 36.7803C83.4428 36.7927 83.1536 36.8352 82.8703 36.8996C82.7506 36.9268 82.6327 36.9646 82.5149 36.999C82.4236 37.0257 82.1126 37.0588 82.4874 37.0293C81.9287 37.0732 81.4419 37.3778 81.2862 37.9438C81.104 38.6063 81.5051 39.2855 82.1562 39.4761C82.2977 39.5175 82.4384 39.5603 82.5785 39.6059C82.6411 39.6263 83.0982 39.819 82.7743 39.6726C82.8585 39.7107 82.9382 39.7568 83.0155 39.8072C82.8367 39.6604 82.79 39.626 82.8757 39.7043C82.9584 39.7946 82.9164 39.739 82.7495 39.5371C82.8461 39.6792 82.6215 39.1685 82.6774 39.3692C82.6862 39.401 82.6928 39.4335 82.7015 39.4653C82.7765 39.7391 82.9126 39.9453 83.1016 40.1523C83.6361 40.7381 84.683 40.5838 85.0579 39.9002C85.1998 39.6415 85.0424 39.8681 84.9542 39.9297C84.8553 39.999 84.434 40.0206 84.7368 40.019C84.7368 39.1885 84.7368 38.3582 84.7368 37.5277C84.3583 37.5689 84.0244 37.6754 83.6891 37.9431C83.6379 37.9839 83.5906 38.0282 83.5442 38.0744C83.454 38.1555 83.4657 38.1512 83.5813 38.0616C83.5091 38.1121 83.4331 38.1509 83.354 38.19C82.2519 38.7916 82.7654 40.5051 83.9823 40.5051C84.3145 40.5051 84.6611 40.5051 84.9639 40.5051C86.6291 40.5051 86.6291 38.0073 84.9639 38.0073C84.6611 38.0073 84.3145 38.0073 83.9823 38.0073C84.1919 38.7642 84.4015 39.564 84.611 40.3378C84.8127 40.2276 85.0008 40.1 85.1747 39.9489C85.2197 39.9117 85.2628 39.8749 85.3039 39.8337C85.6017 39.5483 85.2623 39.9665 84.7297 40.0177C85.4053 39.9528 85.9753 39.5009 85.9753 38.7728C85.9753 38.0966 85.4088 37.5238 84.7297 37.5274C83.9162 37.532 83.2961 37.9327 82.9067 38.6428C83.5589 38.5588 84.211 38.4747 84.8631 38.3907C84.9798 38.5186 85.0716 38.7042 85.1037 38.8031C85.0936 38.7718 85.0875 38.7389 85.0797 38.7069C85.0047 38.4039 84.8542 38.2087 84.6644 37.9716C84.2514 37.4558 83.4171 37.249 82.8186 37.0739C82.7082 37.8894 82.5978 38.705 82.4874 39.5206C82.7243 39.502 82.95 39.4653 83.1771 39.4012C83.2957 39.3678 83.4136 39.3332 83.5326 39.3019C83.8901 39.2079 83.3561 39.2877 83.7331 39.2715C84.4112 39.2426 84.9787 38.7269 84.9787 38.026C84.9787 37.3688 84.4119 36.7513 83.7331 36.7803Z" fill="#F4E9E1"/>
<path d="M82.4651 49.738C82.4651 49.667 82.4651 49.596 82.4651 49.525C82.4651 48.8459 81.9331 48.2793 81.2541 48.2793C80.575 48.2793 80.043 48.8459 80.043 49.525C80.043 49.679 80.043 49.8331 80.043 49.9872C80.043 50.6663 80.575 51.2328 81.2541 51.2328C81.9331 51.2328 82.4651 50.6663 82.4651 49.9872C82.4651 49.8331 82.4651 49.679 82.4651 49.525C82.4651 48.8459 81.9331 48.2793 81.2541 48.2793C80.575 48.2793 80.043 48.8459 80.043 49.525C80.043 49.596 80.043 49.6671 80.043 49.738C80.043 50.4172 80.575 50.9837 81.2541 50.9837C81.9331 50.9837 82.4651 50.4172 82.4651 49.738Z" fill="#F4E9E1"/>
<path d="M83.6176 70.2839C83.3377 70.0045 83.0355 69.7557 82.6528 69.6337C82.404 69.5544 82.0785 69.5408 81.8244 69.6165C81.5284 69.705 81.3376 69.8307 81.1087 70.0347C80.6015 70.4866 80.6496 71.337 81.1087 71.7962C81.3412 72.0287 81.6604 72.161 81.9895 72.161C82.3345 72.161 82.6182 72.0208 82.8702 71.7962C82.8841 71.7839 82.8979 71.7716 82.9118 71.7592C82.8278 71.8241 82.7438 71.8891 82.6597 71.954C82.6849 71.9337 82.7126 71.9177 82.7427 71.9057C82.6435 71.9475 82.5444 71.9893 82.4451 72.0312C82.459 72.027 82.4728 72.0229 82.4867 72.0187C82.3763 72.0336 82.2659 72.0485 82.1555 72.0632C82.183 72.0576 82.2107 72.0563 82.2387 72.0595C82.1282 72.0446 82.0179 72.0299 81.9075 72.015C81.936 72.0184 81.9637 72.0253 81.9905 72.0358C81.8914 71.9939 81.7922 71.9522 81.693 71.9102C81.7535 71.9371 81.8058 71.9701 81.8591 72.0095C81.775 71.9446 81.691 71.8795 81.6069 71.8147C81.6951 71.8863 81.7757 71.9652 81.8561 72.0454C82.3365 72.5247 83.1374 72.5256 83.6176 72.0454C84.0972 71.5659 84.0981 70.7634 83.6176 70.2839Z" fill="#F4E9E1"/>
<path d="M72.6536 32.4154C72.603 32.3648 72.5487 32.3154 72.5039 32.2592C72.5688 32.3432 72.6338 32.4273 72.6987 32.5113C72.6938 32.5049 72.689 32.4986 72.6859 32.4912C72.7277 32.5905 72.7696 32.6896 72.8114 32.7888C72.8109 32.7875 72.8105 32.7864 72.8103 32.785C72.8251 32.8954 72.84 33.0057 72.8548 33.1162C72.8548 33.1155 72.8547 33.115 72.8547 33.1145C72.8399 33.2249 72.8251 33.3353 72.8102 33.4458C72.8103 33.4452 72.8104 33.4448 72.8105 33.4443C72.7686 33.5436 72.7267 33.6427 72.6849 33.7418C72.685 33.7415 72.6853 33.7411 72.6854 33.7406C72.6205 33.8247 72.5555 33.9088 72.4907 33.9928C72.4909 33.9924 72.4912 33.9921 72.4914 33.9918C72.4074 34.0567 72.3233 34.1217 72.2393 34.1865C72.2397 34.1863 72.2401 34.1861 72.2405 34.1858C72.1413 34.2276 72.042 34.2695 71.9429 34.3113C71.9439 34.3109 71.945 34.3105 71.9461 34.3105C71.8358 34.3253 71.7253 34.3402 71.615 34.355C71.6175 34.3548 71.6197 34.355 71.6221 34.3554C71.5117 34.3405 71.4014 34.3256 71.291 34.3108C71.3089 34.3139 71.3259 34.3214 71.3426 34.3282C71.2434 34.2863 71.1442 34.2446 71.045 34.2027C71.1637 34.2529 71.278 34.3142 71.3932 34.3717C71.4924 34.4135 71.5916 34.4553 71.6907 34.4972C71.9115 34.5565 72.1322 34.5565 72.353 34.4972C72.6644 34.4115 72.9344 34.2032 73.0975 33.9248C73.266 33.637 73.3115 33.2864 73.2231 32.9649C73.1812 32.8657 73.1393 32.7665 73.0975 32.6673C72.9867 32.48 72.8377 32.3312 72.6506 32.2205C72.5501 32.1703 72.4501 32.1191 72.3482 32.0718C72.2262 32.0152 72.1029 31.9602 71.9763 31.9148C71.7411 31.8304 71.5182 31.8656 71.2821 31.9084C71.1768 31.9276 71.0727 31.9756 70.982 32.0352C70.8266 32.1375 70.6132 32.3045 70.5343 32.4831C70.4904 32.5823 70.4245 32.6759 70.408 32.7832C70.3583 33.1055 70.3392 33.1248 70.4081 33.4471C70.461 33.6945 70.5941 33.8343 70.7452 34.0243C70.7889 34.0792 70.8425 34.1274 70.8919 34.1769C71.3718 34.6569 72.1736 34.6567 72.6535 34.1769C73.1336 33.6971 73.1334 32.8955 72.6536 32.4154Z" fill="#F4E9E1"/>
<path d="M60.066 38.0081C60.149 38.0081 60.2321 38.0081 60.3151 38.0081C60.9941 38.0081 61.5608 37.476 61.5608 36.797C61.5608 36.118 60.9942 35.5859 60.3151 35.5859C60.2321 35.5859 60.149 35.5859 60.066 35.5859C59.3869 35.5859 58.8203 36.118 58.8203 36.797C58.8203 37.476 59.3869 38.0081 60.066 38.0081Z" fill="#F4E9E1"/>
<path d="M93.174 17.5483C93.2524 17.1595 93.1616 16.7461 92.8314 16.4679C92.5639 16.2424 92.355 16.117 92.0325 15.9892C91.9334 15.9499 91.8336 15.9152 91.7327 15.8814C91.7251 15.8789 91.7197 15.8772 91.7132 15.8751C91.4201 15.6647 91.089 15.5573 90.7241 15.6263C90.3432 15.5784 89.9633 15.6479 89.644 15.8894C89.4993 15.8706 89.3542 15.8586 89.2101 15.854C88.633 15.8358 88.1861 16.2526 88.009 16.7685C87.9386 16.9735 87.858 17.1744 87.7754 17.3748C87.762 17.4067 87.7521 17.4307 87.7452 17.4474C87.7231 17.4992 87.7011 17.5509 87.679 17.6026C87.589 17.814 87.4994 18.0255 87.4102 18.2374C87.1666 18.8161 86.9225 19.3988 86.7632 20.0074C86.6794 20.3277 86.7257 20.6612 86.8776 20.9394C86.792 21.0182 86.7122 21.107 86.6397 21.2047C86.6324 21.2144 86.6255 21.2244 86.6183 21.2341C86.4176 21.3364 86.2466 21.4925 86.1413 21.703C85.996 21.9937 85.8509 22.2851 85.7033 22.5753C85.3217 23.1812 84.9686 23.8052 84.6464 24.4437C84.5355 24.6636 84.4841 24.901 84.4919 25.1314C83.6368 26.7764 82.776 28.4382 82.2785 30.2225C82.0963 30.8762 82.496 31.5752 83.1485 31.7547C83.8046 31.9352 84.4985 31.5384 84.6808 30.8847C84.8188 30.3898 84.9749 29.935 85.1484 29.4951C85.2071 29.547 85.2715 29.5945 85.3424 29.6361C85.9118 29.9696 86.7261 29.7869 87.0467 29.1892C87.1716 28.9565 87.3305 28.74 87.4951 28.5279C87.9204 28.4245 88.2671 28.0891 88.418 27.6459C88.5796 27.1711 88.7652 26.7149 88.8726 26.2351C89.1833 25.5633 89.597 24.9342 90.0365 24.2064C90.3389 23.7054 90.2177 23.0555 89.8086 22.6679C89.9014 22.4987 89.9553 22.3021 89.9574 22.0827C89.959 21.9067 89.9689 21.7318 89.9841 21.5569C89.9905 21.5188 90.0077 21.3867 90.0133 21.3574C90.0323 21.2557 90.0577 21.1555 90.0833 21.0554C90.1085 20.9564 90.1403 20.8592 90.1721 20.7621C90.1804 20.7369 90.2221 20.6339 90.2392 20.5895C90.2405 20.5867 90.2417 20.584 90.2432 20.5813C90.7245 20.5611 91.2034 20.4874 91.6141 20.2308C92.2576 19.8287 92.6195 19.0896 93.0263 18.4758C93.2321 18.1649 93.2615 17.8392 93.174 17.5483ZM92.14 16.5084C92.0905 16.3924 92.1046 16.3598 92.14 16.5084V16.5084Z" fill="#A59482"/>
<path d="M85.4745 33.044C85.0029 33.0538 84.5381 33.1415 84.073 33.2129C84.3522 33.1701 83.9357 33.1629 83.8949 33.1894C83.8856 33.1804 83.876 33.1711 83.8637 33.1596C83.4359 32.7622 82.8277 32.7044 82.3621 32.9683C82.0803 32.8023 81.7368 32.7428 81.4061 32.8394C79.3781 33.4313 79.0186 35.8181 79.2904 37.6104C79.4353 38.5665 80.7709 38.7668 81.3723 38.1601C82.1406 37.3852 82.8244 36.5367 83.4371 35.6371C83.6097 35.6735 83.7897 35.6941 83.9784 35.6979C84.2678 35.7038 84.561 35.6419 84.8457 35.5982C84.9601 35.5807 85.0742 35.5612 85.1885 35.5435C84.9386 35.5823 85.4251 35.5362 85.4746 35.5352C86.1532 35.521 86.7202 34.9794 86.7202 34.2896C86.7201 33.6213 86.1535 33.0299 85.4745 33.044ZM83.9278 33.2228C83.9245 33.2193 83.9198 33.2146 83.9157 33.2104C83.9304 33.2187 83.9586 33.2318 84.0029 33.2511C83.9672 33.2355 83.9436 33.2271 83.9278 33.2228Z" fill="#A59482"/>
<path d="M66.4055 31.5457C66.1981 31.1916 65.6899 30.9256 65.2802 31.0877C64.2351 31.5013 63.2204 31.7623 62.1103 31.796C61.7195 31.8078 61.3443 31.8081 61.0663 32.1349C60.8749 32.3599 60.7626 32.6312 60.7665 32.9068C60.7572 32.9083 60.7479 32.9102 60.7387 32.9118C60.5924 32.9371 60.4457 32.9602 60.299 32.9828C60.2104 32.9965 60.1217 33.0092 60.0329 33.022C60.0108 33.0251 59.9944 33.0276 59.9805 33.0296C59.9691 33.0311 59.957 33.0326 59.9415 33.0347C59.5854 33.0811 59.2283 33.1195 58.8708 33.1536C57.6699 33.2685 56.4605 33.3218 55.2542 33.3016C54.8356 33.2945 54.4161 33.2774 53.9995 33.2328C53.9604 33.2266 53.9216 33.2186 53.883 33.2107C53.7342 33.1069 53.5515 33.0453 53.3367 33.0453C52.8378 33.0453 52.2817 33.5006 52.3402 34.0417C52.4691 35.2337 53.7644 35.2323 54.6926 35.2769C55.9656 35.3382 57.2476 35.2825 58.5167 35.1781C60.0298 35.0535 61.5547 34.8497 63.0223 34.4529C64.1515 34.1475 65.4803 33.6896 66.2496 32.7532C66.5376 32.4029 66.6487 31.9608 66.4055 31.5457ZM54.1549 33.5025C54.2477 33.6398 54.3089 33.8158 54.3333 34.0417C54.3119 33.8447 54.2513 33.6591 54.1549 33.5025ZM62.0019 31.9159C61.8873 31.9012 61.8933 31.881 62.0019 31.9159V31.9159Z" fill="#D1D3D3"/>
<path d="M89.524 34.3014C89.5098 34.4787 89.4251 34.6744 89.3755 34.8456C89.2609 35.2402 89.1454 35.6346 89.0351 36.0304C88.7862 36.9236 88.6049 37.814 88.4565 38.7281C88.2424 40.0468 87.9801 41.357 87.7777 42.6777C87.5733 44.0122 87.4354 45.3579 87.2538 46.6961C86.5221 52.0901 86.1415 57.5231 85.5868 62.9364C85.2148 66.5658 84.7529 70.1836 84.4448 73.8198C84.2925 75.6179 84.2135 77.4155 84.2089 79.2199C84.2047 80.8914 84.0298 82.4821 83.0638 83.8973C82.973 84.0303 83.1889 84.1548 83.2789 84.023C83.3122 83.9741 83.3439 83.9248 83.3754 83.8757C83.3436 85.2404 83.0801 86.6867 81.7952 87.4115C80.5273 88.1268 78.893 88.1174 77.4914 88.3243C74.8255 88.7177 72.1262 88.7946 69.4353 88.7298C67.6616 88.6872 65.862 88.6456 64.0955 88.4668C62.8872 88.3447 61.613 88.1174 60.5763 87.448C60.4682 87.3782 60.3674 87.3037 60.2734 87.225C60.679 87.1191 61.0802 86.9958 61.475 86.8522C61.4809 86.8586 61.4865 86.8653 61.4924 86.8716C61.5821 86.9681 61.7225 86.8675 61.711 86.7634C61.7339 86.7546 61.757 86.7465 61.7798 86.7375C61.8696 86.7022 61.9169 86.562 61.8094 86.5099C61.6621 86.4385 61.5134 86.3751 61.3638 86.3163C61.0883 85.9571 60.8372 85.5827 60.4766 85.2891C60.6594 85.1393 60.8076 84.9753 60.978 84.8374C61.0308 84.8133 61.0828 84.7874 61.1343 84.7604C61.4397 84.858 61.7355 85.0152 62.0162 85.2301C62.1438 85.3279 62.2672 85.1114 62.1415 85.015C61.9108 84.8383 61.67 84.6997 61.4223 84.5981C61.4328 84.592 61.4433 84.5858 61.4538 84.5796C61.4552 84.5793 61.4563 84.5788 61.4576 84.5783C61.4575 84.578 61.4574 84.5777 61.4573 84.5774C61.464 84.5735 61.4706 84.5696 61.4773 84.5658C61.511 84.5458 61.5286 84.5161 61.5342 84.4847C63.7113 84.8038 65.9293 85.0545 68.0246 85.7409C68.1776 85.7911 68.2427 85.5505 68.0908 85.5007C65.8397 84.763 63.4468 84.5288 61.1153 84.172C60.9582 84.148 60.8907 84.3881 61.0491 84.4123C61.0826 84.4173 61.1162 84.4222 61.1497 84.4273C61.1172 84.4431 61.0858 84.4597 61.0556 84.4771C60.4529 84.3248 59.8188 84.3885 59.1924 84.6828C59.1911 84.6835 59.1903 84.6846 59.189 84.6854C59.1886 84.6446 59.1886 84.6036 59.1892 84.5627C59.306 84.6331 59.4552 84.4718 59.3433 84.3701C59.2957 84.3268 59.2493 84.2828 59.204 84.2382C59.2069 84.2008 59.2101 84.1635 59.2137 84.1262C59.2255 84.006 59.0878 83.977 59.0121 84.0371C57.8304 82.7314 57.5201 80.9499 57.4529 79.2173C57.3791 77.317 57.5999 75.4134 57.4438 73.5152C57.3476 72.3459 57.2444 71.177 57.1375 70.0084C57.4044 69.8035 57.6402 69.5677 57.8508 69.3099C57.8717 69.4901 57.9023 69.6692 57.9412 69.8454C57.9175 70.0252 57.9001 70.2049 57.8904 70.3843C57.8074 70.6358 57.7241 70.8873 57.6403 71.1384C57.6036 71.2485 57.7398 71.3284 57.8237 71.282C57.7445 71.6242 57.7798 71.9901 57.9448 72.3186C57.9449 72.3222 57.9442 72.3258 57.9446 72.3294C57.9514 72.3822 57.9773 72.4375 58.0361 72.4495C58.0439 72.4511 58.0517 72.4528 58.0595 72.4542C58.1298 72.4686 58.1939 72.4255 58.2118 72.3659C58.2218 72.3562 58.2385 72.3416 58.2688 72.3239C58.2769 72.3193 58.2928 72.3122 58.3113 72.304C58.3235 72.4143 58.3435 72.5217 58.3706 72.632C58.4697 73.0379 58.6177 73.404 58.6324 73.8289C58.638 73.989 58.8871 73.9897 58.8816 73.8289C58.8617 73.2551 58.5124 72.6691 58.5746 72.125C58.5774 72.1001 58.5674 72.0734 58.5509 72.0513C58.6708 71.9179 58.7757 71.7743 58.8679 71.6226C58.9317 71.6606 59 71.691 59.0731 71.7124C59.1411 71.8794 59.2469 72.0294 59.395 72.1441C59.808 72.4639 60.3589 72.3551 60.8152 72.1773C60.9312 72.7674 61.4208 73.217 61.4558 73.8288C61.4613 73.9246 61.557 73.9822 61.6432 73.9364C61.8947 73.8028 62.1174 73.6425 62.4108 73.6212C62.5701 73.6097 62.5712 73.3604 62.4108 73.3721C62.1287 73.3927 61.9112 73.5067 61.6774 73.6346C61.5548 73.0539 61.0754 72.6072 61.0406 72.002C61.0349 71.9009 60.9408 71.8557 60.8532 71.8945C60.3742 72.1057 59.7006 72.267 59.3622 71.7435C59.3616 71.7424 59.361 71.7414 59.3604 71.7403C59.7921 71.6904 60.1417 71.2195 60.3593 70.9023C60.3832 70.8673 60.3817 70.8117 60.3593 70.7766C60.1828 70.5004 59.9572 70.2961 59.7058 70.1795C59.828 70.0733 59.9628 70.003 60.1049 69.9628C60.4922 71.2941 61.5406 72.2742 62.5279 73.2957C62.6065 74.4832 62.8018 75.9256 63.8066 76.603C64.2335 76.8908 64.7849 76.8973 65.2771 76.8444C65.9953 76.7674 66.6998 76.5622 67.4006 76.395C68.7605 76.0705 70.2014 76.3224 71.5391 75.8463C72.8047 75.3959 73.2411 74.058 72.4081 72.9786C71.4001 71.6722 69.6469 70.9193 69.3403 69.1453C69.3279 69.0735 69.2487 69.048 69.1871 69.0583C67.5361 69.3337 65.8231 69.0174 64.1885 68.7719C62.8507 68.571 61.3978 68.2685 60.0525 68.5601C59.8955 68.5942 59.9622 68.8343 60.1188 68.8004C61.5734 68.485 63.1777 68.8717 64.6204 69.0867C66.0997 69.3072 67.6286 69.5393 69.1212 69.318C69.4473 70.8753 70.8946 71.7467 71.9371 72.8166C72.4639 73.3574 72.8079 74.0449 72.4742 74.7917C72.1972 75.4116 71.4621 75.648 70.8523 75.7794C70.1438 75.9319 69.4088 75.9479 68.6873 75.9796C67.9506 76.0121 67.2775 76.1693 66.5611 76.3411C65.9234 76.494 65.2595 76.6662 64.5985 76.6107C63.9706 76.5581 63.5612 76.1327 63.296 75.5924C62.9833 74.9557 62.8676 74.2774 62.806 73.5879C63.4055 74.2268 63.9554 74.8961 64.2836 75.6889C64.3431 75.8327 64.5755 75.7788 64.5238 75.6227C64.2018 74.6483 63.897 73.6751 63.482 72.7343C63.2329 72.1695 62.9321 71.543 62.5418 70.998C62.4307 70.5666 62.2413 70.1618 61.9341 69.8295C61.4627 69.3195 60.749 69.1359 60.0855 69.054C60.0216 69.0461 59.9562 69.1167 59.9609 69.1786C59.9763 69.3756 60.0072 69.5643 60.0493 69.7471C59.8315 69.8185 59.6318 69.9377 59.4649 70.0974C59.4347 70.0906 59.4045 70.0838 59.3738 70.0797C59.4775 69.2562 59.3867 68.3872 59.2092 67.6508C59.1844 67.5481 59.0473 67.535 58.9903 67.6083C59.0675 67.3138 59.1418 67.0049 59.209 66.7075C59.2091 66.7074 59.1906 66.6938 59.1907 66.6938H59.1558C59.1558 66.6938 59.1558 66.7204 59.1558 66.7203C59.2315 66.5613 58.9987 66.5059 58.9424 66.6542C58.9126 66.7328 58.8956 66.8119 58.8648 66.8913C58.8663 66.8235 58.8747 66.7556 58.8751 66.6875C58.8759 66.5499 58.6602 66.5138 58.6337 66.6544C58.5363 67.1727 58.3983 67.7043 58.2654 68.2418C58.2533 68.264 58.2414 68.2858 58.2291 68.3079C58.2225 68.1001 58.218 67.8921 58.2171 67.684C58.2164 67.5407 58.0143 67.5179 57.9726 67.6509C57.8469 68.0506 57.8029 68.4958 57.8221 68.9468C57.6145 69.2299 57.3802 69.4898 57.1111 69.7138C57.1082 69.6835 57.1057 69.653 57.1029 69.6226C57.2061 68.9087 57.3908 68.2131 57.6145 67.5275C57.627 67.5439 57.6388 67.561 57.6514 67.5772C57.652 67.5785 57.6526 67.5796 57.6531 67.5808C57.6533 67.5806 57.6534 67.5805 57.6537 67.5803C57.6601 67.5887 57.6662 67.5976 57.6726 67.6059C57.7641 67.7234 57.9278 67.5742 57.8682 67.4551C57.8225 67.3636 57.7767 67.272 57.731 67.1806C57.7549 67.1117 57.7791 67.0427 57.8035 66.974C58.3192 66.4462 58.5993 65.7262 58.686 64.979C58.7835 64.9165 58.8829 64.8566 58.9861 64.8021C59.087 64.7488 59.0529 64.6069 58.9563 64.5744C58.8774 64.5479 58.7962 64.5261 58.7141 64.507C58.6991 64.3922 58.5489 64.3775 58.4876 64.4645C57.8183 64.3718 57.1069 64.5438 56.6837 65.1153C56.679 65.1214 56.675 65.1277 56.6706 65.1338C56.4219 62.6309 56.1642 60.1287 55.9142 57.6263C55.8382 56.865 55.7634 56.1037 55.6893 55.3423C55.7262 55.382 55.7649 55.4208 55.8041 55.4592C55.8227 55.5057 55.8432 55.5518 55.866 55.5968C55.8857 55.6358 55.9078 55.6723 55.9311 55.7073C55.9298 56.5007 56.0069 57.2971 56.1457 58.0832C56.1707 58.2247 56.3901 58.1877 56.3904 58.0507C56.3913 57.5919 56.3985 57.1316 56.4027 56.6712C56.4957 56.8469 56.6187 57.0041 56.774 57.1362C56.8789 57.4706 57.0015 57.7981 57.1548 58.114C57.2062 58.2201 57.3486 58.1757 57.3824 58.0842C57.4162 57.9928 57.4467 57.9003 57.4745 57.807C57.4722 58.0005 57.4702 58.1924 57.4699 58.3823C57.4697 58.519 57.6933 58.5578 57.7145 58.4159C57.8405 57.5762 57.9202 56.7268 57.9551 55.8747C57.9809 55.8546 58.0062 55.834 58.0301 55.8123C58.544 55.3459 58.348 54.7129 57.9648 54.2018C57.9637 54.1644 57.963 54.127 57.9617 54.0897C58.0072 53.9051 58.0007 53.7159 57.958 53.5272C58.0916 53.4184 58.2103 53.3082 58.3025 53.2207C58.6766 52.8657 59.2148 52.298 59.2092 51.7401C59.208 51.6167 59.1731 51.5274 59.1155 51.4636C59.3236 51.2975 59.5021 51.098 59.6326 50.8821C59.7822 50.6345 59.8097 50.4189 59.7558 50.2378C59.9774 50.2191 60.2107 50.2071 60.4301 50.2037C60.5848 50.2013 60.5937 49.9742 60.4424 49.9564C60.4424 49.9558 60.4424 49.9551 60.4424 49.9546C60.4424 49.9547 60.4218 49.9549 60.4176 49.955C60.4162 49.955 60.4087 49.9546 60.4074 49.9546C60.1191 49.9521 59.8289 49.9362 59.5424 49.9125C59.4923 49.8678 59.4346 49.8273 59.3735 49.7912C59.3861 49.7565 59.3795 49.7216 59.3605 49.6908C59.7142 49.6648 60.0656 49.5871 60.4175 49.5871C60.4729 49.5871 60.5284 49.5871 60.5839 49.5871C60.5829 49.5114 60.582 49.5689 60.5809 49.5615C60.5875 49.5605 60.5939 49.5345 60.6004 49.5334C60.7422 49.5109 60.7206 49.2843 60.5839 49.2843C60.5735 49.2843 60.5632 49.2843 60.5529 49.2843C60.5522 49.2843 60.5514 49.2732 60.5507 49.268C60.5116 49.2742 60.4724 49.2843 60.4333 49.2843C60.0139 49.2843 59.5946 49.2843 59.1753 49.2843C59.1571 49.2086 59.1321 49.1335 59.0995 49.0476C59.2733 48.9836 59.4468 48.9282 59.6205 48.8587C59.7458 48.8087 59.7364 48.6222 59.5873 48.6201C59.3511 48.6165 59.116 48.6012 58.8812 48.5784C58.9162 48.5602 58.9512 48.5439 58.9858 48.5243C59.0867 48.4673 59.0472 48.3181 58.9531 48.2946C59.0647 48.2644 59.1762 48.2344 59.2882 48.2058C59.3721 48.1845 59.3991 48.1098 59.3714 48.0487C59.7245 48.0448 60.0637 48.0446 60.4422 48.0446C60.5936 48.0446 60.5936 47.7955 60.4422 47.7955C59.5339 47.7956 58.6533 47.7984 57.7683 47.862C56.9238 47.5663 55.8778 47.6119 55.0264 47.7296C54.9865 47.0252 54.9591 46.3198 54.9613 45.6126C54.9648 44.5451 54.9953 43.4726 54.9738 42.4029C55.311 42.0555 55.7681 41.8409 56.2616 41.7038C55.8773 42.0019 55.5262 42.339 55.1815 42.6834C55.1059 42.7589 55.1597 42.8988 55.2693 42.8961C55.5602 42.889 55.8449 42.8359 56.1161 42.7451C55.9152 42.9459 55.7143 43.1469 55.5134 43.3478C55.4069 43.4543 55.5409 43.5984 55.6642 43.5434C55.8981 43.4391 56.1222 43.3193 56.3389 43.1883C56.2695 43.2672 56.327 43.3919 56.4318 43.3944C56.7777 43.4026 57.1097 43.4439 57.444 43.4492C56.9986 43.6604 56.5454 43.8521 56.0665 43.9803C55.911 44.0218 55.9765 44.2562 56.1324 44.2205C56.1325 44.221 56.1326 44.2213 56.1328 44.2217C56.1378 44.2204 56.1429 44.2187 56.1481 44.2173C56.5348 44.1291 56.9232 44.0889 57.3148 44.0714C57.0127 44.2226 56.7148 44.374 56.3987 44.4883C56.2705 44.5347 56.285 44.7429 56.4318 44.7429C56.6113 44.7429 56.7907 44.7429 56.9701 44.7429C56.9797 44.8186 57.0653 44.8936 57.159 44.8503C57.2863 44.7915 57.4059 44.7429 57.528 44.7429C57.6609 44.7429 57.7931 44.7429 57.9445 44.7429C57.9445 44.7429 57.9445 44.7507 57.9445 44.7439C58.0959 44.7433 58.0959 44.5155 57.9445 44.5155C57.9445 44.5014 57.9445 44.4864 57.9445 44.474C57.7931 44.4746 57.6101 44.5158 57.4632 44.5158C57.3027 44.5158 57.1422 44.5158 56.9817 44.5158C57.3051 44.3644 57.6221 44.187 57.9597 44.0649C58.0879 44.0185 58.0734 43.8148 57.9265 43.8148C57.9155 43.8148 57.9045 43.815 57.8935 43.8151C57.8935 43.8148 57.8934 43.8144 57.8934 43.8141C57.8926 43.8144 57.8918 43.8147 57.891 43.815C57.6623 43.8155 57.4349 43.8196 57.2085 43.8317C57.5282 43.6905 57.8421 43.5346 58.1554 43.378C58.2874 43.3123 58.1917 43.1214 58.0595 43.1501C57.6015 43.2495 57.1685 43.1906 56.7187 43.1597C57.1472 42.7327 57.5796 42.3096 58.0272 41.9032C58.218 41.7383 58.4076 41.5724 58.5982 41.4088C60.05 41.3421 61.5126 41.4427 62.9571 41.5671C64.5232 41.7019 66.0828 41.8982 67.6449 42.0722C69.4576 42.2742 71.2492 42.2993 73.0678 42.1092C74.3094 41.9795 75.5414 41.768 76.7711 41.5571C78.0706 41.3342 79.3854 41.016 80.7105 41.1195C83.0195 41.2998 85.0825 42.6303 87.29 43.2239C87.4081 43.2556 87.4871 43.1029 87.3947 43.0157C86.8714 42.5224 86.1896 42.2955 85.4953 42.1025C86.0445 41.997 86.5976 41.9082 87.1571 41.8998C87.3175 41.8973 87.3178 41.6507 87.1571 41.6507C86.2574 41.6508 85.3538 41.6547 84.4666 41.8212C84.4155 41.8308 84.3887 41.8652 84.3807 41.9051C83.3597 41.4979 82.3325 41.1142 81.2446 40.9358C80.1565 40.7574 79.1217 40.912 78.047 41.0889C77.1339 41.2392 76.2231 41.4025 75.3096 41.5501C74.615 39.6254 73.0115 38.187 70.9444 37.9593C70.6804 37.9302 70.4194 37.9252 70.1632 37.9415C70.2188 37.8539 70.2725 37.7684 70.3242 37.6859C70.3924 37.5771 70.2598 37.4562 70.1538 37.5155C69.8142 37.7057 69.4816 37.9073 69.1593 38.1221C68.9629 38.1807 68.7709 38.252 68.5846 38.3357C68.537 38.3214 68.4824 38.3341 68.4482 38.3906C68.4456 38.395 68.443 38.3993 68.4404 38.4036C67.4579 38.8854 66.6399 39.7052 66.123 40.7158C66.1097 40.742 66.1059 40.774 66.1111 40.8041C64.8039 40.8637 63.5253 40.6779 62.2216 40.5309C60.8372 40.3748 59.3758 40.2835 58.0595 40.8247C57.913 40.8849 57.9771 41.126 58.1257 41.0649C60.7423 39.9891 63.6679 41.2904 66.378 41.04C66.4111 41.0369 66.4442 41.0344 66.4773 41.0313C66.5219 41.0699 66.5944 41.0793 66.6508 41.0329C66.6582 41.0269 66.6652 41.0204 66.6726 41.0142C67.9894 40.8991 69.3105 40.8303 70.6317 40.9033C72.0466 40.9815 73.4369 41.2592 74.8018 41.6289C74.6541 41.6516 74.5066 41.6756 74.3587 41.697C72.3302 41.9921 70.2932 42.0956 68.2521 41.8883C66.7561 41.7363 65.2651 41.5406 63.7686 41.3932C62.1483 41.2335 60.5106 41.1032 58.88 41.1515C58.9191 41.0518 58.7744 40.9374 58.6688 41.0229C58.6104 41.0701 58.5533 41.1185 58.4956 41.1664C58.3847 41.1716 58.274 41.1776 58.1632 41.1847C57.149 41.2494 55.7975 41.3639 54.9635 42.0675C54.9416 41.3751 54.8937 40.684 54.7969 39.9966C54.6705 39.1006 54.4986 38.2419 54.0769 37.4367C53.6835 36.6857 52.9936 35.7399 53.3836 34.8627C53.4482 34.7173 53.2337 34.5904 53.1685 34.7369C52.7695 35.6343 53.3053 36.5309 53.729 37.315C54.3623 38.4866 54.5577 39.7599 54.6605 41.0774C54.6925 41.4856 54.7121 41.894 54.7248 42.3027C54.7107 42.3189 54.6963 42.3349 54.6827 42.3516C54.6199 42.4289 54.6649 42.5271 54.7322 42.5594C54.7733 44.2942 54.6911 46.0317 54.7741 47.7665C54.705 47.7775 54.6371 47.7888 54.5715 47.8003C54.4349 47.8243 54.4724 47.999 54.5715 48.0405C54.6449 48.0712 54.719 48.1009 54.7934 48.1297C54.8027 48.2796 54.8131 48.4294 54.8254 48.5793C54.8718 49.1456 54.9205 49.7119 54.9697 50.2779C54.5755 51.679 54.4878 53.3321 55.1667 54.607C55.184 55.6991 55.3049 56.8097 55.3105 57.8994C55.3113 58.0542 55.5416 58.065 55.5581 57.9136C55.5586 57.9136 55.5592 57.9136 55.5596 57.9136C55.5596 57.9136 55.5595 57.89 55.5594 57.8852C55.5595 57.8843 55.5596 57.8767 55.5596 57.8758C55.5586 57.3887 55.5496 56.8991 55.5432 56.4131C55.8137 59.1531 56.0964 61.8901 56.3681 64.6299C56.2943 64.5246 56.0974 64.5894 56.1454 64.7288C56.237 64.9954 56.3414 65.2619 56.4563 65.5264C56.4567 65.5299 56.457 65.5332 56.4573 65.5366C56.3014 65.9773 56.3718 66.4377 56.5852 66.853C56.675 67.7869 56.7631 68.721 56.848 69.6553C56.8316 69.7729 56.8172 69.8908 56.8052 70.0095C56.7998 70.0634 56.8406 70.1083 56.8899 70.126C56.9229 70.4938 56.9562 70.8617 56.9882 71.2296C57.1364 72.9309 57.274 74.5954 57.2301 76.3043C57.1608 79.0011 56.9141 82.2573 58.9487 84.3357C58.917 84.8648 58.9641 85.3763 59.1061 85.8495C58.8956 85.8387 58.6842 85.8348 58.4721 85.8382C58.4671 85.8367 58.4634 85.8342 58.4578 85.8333C56.2154 85.4841 53.8627 86.1297 51.7482 86.8298C51.6303 86.8688 51.6287 87.0316 51.7482 87.07C52.2342 87.226 52.7295 87.327 53.2292 87.3825C52.5288 87.5347 51.8357 87.6862 51.1326 87.8281C51.1298 87.8275 51.1319 87.8269 51.1319 87.8264C51.1319 87.8275 51.1319 87.8287 51.1319 87.8298C51.1319 87.8321 51.1024 87.8345 51.0912 87.8367C50.9694 87.8612 50.971 88.0437 51.0875 88.0717C52.0392 88.3002 52.9975 88.3648 53.9541 88.2693C53.7731 88.3434 53.5912 88.4178 53.4099 88.4907C53.3105 88.5307 53.2732 88.7093 53.4096 88.7309C54.3731 88.8835 55.3444 88.8999 56.3144 88.8405C57.8118 89.0362 59.3823 88.9272 60.7872 88.7309C60.9458 88.7088 60.8739 88.4687 60.7168 88.4907C59.8 88.6187 58.8091 88.7083 57.8155 88.6963C58.4764 88.6124 59.1344 88.507 59.7865 88.3986C59.9106 88.3781 59.9007 88.1862 59.7865 88.1585C58.9289 87.9504 58.0525 87.8499 57.1841 87.7041C58.1293 87.647 59.0705 87.5165 59.9901 87.2965C60.1108 87.411 60.2426 87.5193 60.3866 87.6205C61.522 88.4189 63.0237 88.6188 64.3703 88.7427C66.2044 88.9118 68.0702 88.9536 69.9103 88.9897C72.5405 89.0411 75.1334 88.8764 77.7406 88.5412C79.1758 88.3566 80.8305 88.309 82.0949 87.5236C83.4125 86.7053 83.6208 85.0465 83.6276 83.6282C83.6279 83.5826 83.6076 83.5504 83.579 83.5307C84.5898 81.6791 84.422 79.5909 84.4765 77.5084C84.5462 74.8513 84.839 72.2066 85.1062 69.5643C85.3797 66.8618 85.7182 64.1671 85.9829 61.4633C86.2499 58.7359 86.4835 56.0053 86.7513 53.2779C86.9391 51.3651 87.146 49.4542 87.3902 47.548C87.5084 46.6243 87.7048 45.6924 87.7797 44.7649C87.86 43.7688 88.0044 42.7813 88.1706 41.7963C88.4366 40.2198 88.6472 38.609 89.0232 37.0547C89.1714 36.4421 89.3462 35.8361 89.5222 35.2312C89.6085 34.9346 89.7479 34.6123 89.7728 34.3016C89.7859 34.1411 89.5368 34.1423 89.524 34.3014ZM62.2097 72.5865C61.4506 71.8051 60.674 70.9631 60.3533 69.9223C60.893 69.8931 61.4874 70.2163 61.8777 70.6109C62.0402 70.7752 62.1901 70.9501 62.3298 71.1331C62.4586 71.6659 62.4688 72.2409 62.4977 72.7718C62.4998 72.8106 62.502 72.8496 62.5041 72.8893C62.4059 72.7882 62.3077 72.6873 62.2097 72.5865ZM63.903 74.5094C63.5692 74.0326 63.1789 73.5953 62.7745 73.1705C62.7401 72.6469 62.7201 72.1205 62.6533 71.604C63.2078 72.4853 63.5766 73.5076 63.903 74.5094ZM60.225 69.3229C60.9866 69.44 61.6661 69.7443 62.0568 70.4226C61.815 70.1824 61.5457 69.9781 61.2411 69.8327C60.9257 69.6821 60.5966 69.6406 60.29 69.6892C60.2619 69.5697 60.2402 69.4478 60.225 69.3229ZM58.5101 68.3079C58.4989 68.3829 58.4868 68.4577 58.474 68.5325C58.4351 68.664 58.3964 68.7958 58.3563 68.9272C58.4005 68.7282 58.4483 68.5295 58.4975 68.3318C58.5017 68.3238 58.5058 68.3158 58.5101 68.3079ZM59.1222 70.0731C58.9648 70.0868 58.8045 70.1354 58.6451 70.2189C58.7725 69.561 58.9206 68.904 59.0788 68.233C59.174 68.8225 59.205 69.4631 59.1222 70.0731ZM58.3712 71.8643C58.3747 71.8562 58.3776 71.8409 58.3799 71.8409C58.3811 71.8409 58.3823 71.8409 58.3835 71.8409C58.3835 71.7652 58.3833 71.8282 58.3833 71.8231C58.3834 71.8226 58.3835 71.8211 58.3835 71.8208C58.4092 71.6211 58.4383 71.4222 58.469 71.2246C58.5262 71.3106 58.5905 71.3924 58.6627 71.4636C58.5779 71.605 58.4815 71.7399 58.3712 71.8643ZM58.5265 70.8722C58.5454 70.7608 58.5655 70.6498 58.5857 70.539C58.7293 70.4313 58.8966 70.3532 59.0828 70.3179C59.02 70.6474 58.9206 70.9639 58.7766 71.2547C58.678 71.1493 58.5955 71.0173 58.5265 70.8722ZM58.3602 70.4093C58.3584 70.4109 58.3563 70.4122 58.3544 70.4139C58.3468 70.3886 58.34 70.364 58.3329 70.3391C58.3294 70.2724 58.3257 70.2059 58.322 70.1392C58.4948 69.6354 58.6238 69.1199 58.7149 68.5963C58.7688 68.4135 58.8212 68.2303 58.8723 68.0467C58.6819 68.8298 58.506 69.6168 58.3602 70.4093ZM58.9832 71.418C58.9862 71.4121 58.989 71.406 58.9919 71.4C58.9931 71.4084 58.9941 71.4167 58.9954 71.425C58.9912 71.423 58.9873 71.4202 58.9832 71.418ZM59.9705 70.6608C60.1518 70.8525 60.0704 70.8949 59.9228 71.073C59.7545 71.2762 59.5217 71.4847 59.2544 71.4877C59.1743 71.16 59.2749 70.7856 59.4387 70.5068C59.4708 70.4523 59.505 70.4029 59.5405 70.3567C59.5994 70.3788 59.6569 70.4059 59.7122 70.4372C59.8128 70.4942 59.8921 70.578 59.9705 70.6608ZM85.5762 42.374C85.9322 42.4754 86.2837 42.5913 86.6056 42.7562C86.2577 42.6403 85.9134 42.512 85.5708 42.379C85.5726 42.3772 85.5744 42.3758 85.5762 42.374ZM67.9488 39.6112C68.1524 39.4472 68.2962 39.2396 68.4781 39.0398C68.5157 38.9984 68.5183 38.9502 68.5019 38.9097C68.7372 38.72 68.982 38.541 69.2342 38.3707C69.3728 38.3301 69.5139 38.2956 69.6574 38.2683C69.0228 39.2288 68.1622 40.3309 67.1081 40.6153C67.4161 40.3055 67.6927 39.9663 67.9488 39.6112ZM68.1688 38.8416C68.1588 38.8572 68.149 38.8729 68.139 38.8884C67.5342 39.404 66.9988 39.9942 66.5733 40.6858C66.5243 40.6854 66.4749 40.6834 66.425 40.6791C66.8542 39.906 67.4542 39.2752 68.1688 38.8416ZM67.5886 40.6932C68.5836 40.2247 69.3831 39.1459 69.9862 38.218C70.2701 38.1853 70.5617 38.1786 70.8594 38.2006C72.7685 38.3414 74.3013 39.7005 74.9961 41.4243C73.6493 41.0546 72.2838 40.7783 70.8889 40.6711C69.7902 40.5865 68.6874 40.6177 67.5886 40.6932ZM55.6032 42.6169C55.9353 42.293 56.2779 41.9814 56.661 41.7165C56.7052 41.6859 56.7199 41.6409 56.7155 41.5984C56.9303 41.5576 57.1461 41.5273 57.3574 41.5038C57.1169 41.7444 56.8762 41.985 56.6356 42.2257C56.3228 42.4236 55.9714 42.5596 55.6032 42.6169ZM58.1828 41.4327C58.0733 41.528 57.9648 41.6243 57.8574 41.7216C57.3563 42.1545 56.8463 42.5778 56.2874 42.9263C56.457 42.7567 56.6267 42.5871 56.7963 42.4174C57.1567 42.1838 57.4685 41.8736 57.7023 41.5057C57.7101 41.4933 57.7149 41.4808 57.7179 41.4684C57.8409 41.4578 57.9613 41.4484 58.0763 41.4398C58.1118 41.4371 58.1473 41.4351 58.1828 41.4327ZM55.3232 49.9767C55.4952 50.1517 55.6528 50.3397 55.7976 50.5383C55.4839 50.9595 55.474 51.4491 55.6382 51.9153C55.5976 52.0866 55.5625 52.2583 55.5306 52.4302C55.5199 52.4427 55.5093 52.4552 55.4988 52.4679C55.4731 52.4536 55.4434 52.4467 55.4147 52.4495C55.3848 52.1254 55.3546 51.8015 55.3254 51.4772C55.2903 51.089 55.2544 50.7008 55.2195 50.3129C55.2521 50.199 55.2868 50.087 55.3232 49.9767ZM58.3198 48.471C58.3241 48.4742 58.3285 48.4773 58.3328 48.4805C58.2988 48.4916 58.2649 48.5026 58.2309 48.5136C58.2151 48.512 58.1992 48.5107 58.1833 48.509C58.2287 48.4963 58.2743 48.4838 58.3198 48.471ZM57.9371 52.4206C57.929 52.4189 57.9217 52.4165 57.9138 52.4147C57.9196 52.4078 57.9252 52.4011 57.9309 52.3942C57.9331 52.4029 57.935 52.4117 57.9371 52.4206ZM56.7648 56.191C56.9916 56.2197 57.2298 56.197 57.4516 56.13C57.4507 56.4878 57.4232 56.8431 57.3625 57.1894C57.2165 57.1346 57.0886 57.0634 56.9789 56.9777C56.8988 56.7189 56.8294 56.4557 56.7648 56.191ZM55.5754 54.161C55.5754 54.1601 55.5753 54.1591 55.5751 54.1582C55.5933 53.8491 55.6206 53.5399 55.6574 53.2305C55.7246 53.3728 55.7857 53.5175 55.842 53.6641C55.78 53.8593 55.7305 54.0624 55.7003 54.2678C55.6561 54.2346 55.6143 54.1992 55.5754 54.161ZM56.2436 52.0843C56.319 52.183 56.3984 52.2785 56.4763 52.3745C56.4716 52.3878 56.4676 52.4013 56.4629 52.4147C56.4144 52.4789 56.368 52.5449 56.3247 52.6131C56.2274 52.4958 56.1397 52.3707 56.0635 52.2392C56.1249 52.1842 56.1855 52.1325 56.2436 52.0843ZM55.7589 52.5397C55.7756 52.5213 55.7925 52.5031 55.8095 52.4851C55.8762 52.7551 55.9311 53.0267 55.9752 53.2993C55.9728 53.305 55.9704 53.3104 55.9681 53.3161C55.8931 53.1402 55.8096 52.9675 55.7163 52.7986C55.7296 52.7123 55.7437 52.6259 55.7589 52.5397ZM57.1509 51.2149C57.2155 51.3562 57.278 51.4982 57.3379 51.6417C57.3282 51.6635 57.3178 51.6848 57.3084 51.707C57.3028 51.7203 57.3015 51.7338 57.3022 51.747C57.2663 51.7637 57.2305 51.7806 57.1953 51.7986C57.1345 51.6195 57.1219 51.4186 57.1509 51.2149ZM56.6452 49.7038C56.7173 49.6639 56.788 49.6218 56.8584 49.5794C57.0104 49.6226 57.1612 49.6694 57.3105 49.7209C57.2953 49.7838 57.3233 49.8603 57.3954 49.8723C57.458 49.8827 57.5206 49.8929 57.5832 49.9032C57.5359 49.9416 57.4906 49.9822 57.4477 50.0256C57.2066 50.0041 56.9666 49.9463 56.7278 49.8463C56.7008 49.7986 56.6727 49.7513 56.6452 49.7038ZM58.0393 50.0093C57.9865 50.0166 57.9337 50.0226 57.8809 50.0268C57.9076 50.009 57.9346 49.9913 57.9625 49.9754C57.9882 49.9866 58.0138 49.9979 58.0393 50.0093ZM57.0048 50.3572C57.0613 50.3645 57.1179 50.3726 57.1747 50.3818C57.1466 50.4293 57.12 50.4777 57.0961 50.5273C57.0938 50.5246 57.0914 50.5219 57.089 50.5192C57.0615 50.4649 57.033 50.4112 57.0048 50.3572ZM57.4139 51.969C57.4106 52.0276 57.4078 52.0861 57.4059 52.1447C57.3678 52.1059 57.3333 52.0647 57.3037 52.0206C57.3367 52.0047 57.3738 51.9874 57.4139 51.969ZM56.7617 53.0366C56.7235 53.0068 56.6862 52.9758 56.6495 52.9442C56.656 52.8839 56.6648 52.823 56.6753 52.7622C56.7059 52.8153 56.7353 52.869 56.7637 52.9231C56.7631 52.9609 56.7626 52.9985 56.7617 53.0366ZM56.7479 53.3314C56.7429 53.4051 56.737 53.4788 56.7294 53.5528C56.6777 53.4734 56.6509 53.3694 56.6416 53.252C56.6769 53.2794 56.7122 53.3061 56.7479 53.3314ZM56.9792 53.478C56.9858 53.4818 56.9924 53.4855 56.9991 53.4891C56.9911 53.4974 56.9835 53.5064 56.9756 53.515C56.9767 53.5027 56.9781 53.4904 56.9792 53.478ZM56.3724 54.5337C56.367 54.5131 56.3614 54.4923 56.3558 54.4716C56.3452 54.3186 56.3317 54.1658 56.3163 54.0134C56.3488 53.8161 56.3864 53.6195 56.4314 53.4239C56.4685 53.6036 56.5478 53.7565 56.6895 53.8564C56.6873 53.8706 56.685 53.885 56.6827 53.8991C56.5593 54.094 56.4543 54.3083 56.3724 54.5337ZM57.4513 53.9947C57.4686 54.0108 57.4856 54.0274 57.5026 54.0441C57.513 54.151 57.5234 54.2579 57.5337 54.3647C57.5319 54.3665 57.5301 54.3682 57.5282 54.37C57.5196 54.328 57.5107 54.2863 57.5014 54.2447C57.4853 54.1608 57.4685 54.0776 57.4513 53.9947ZM57.4585 53.5653C57.4318 53.5807 57.4048 53.5953 57.3774 53.609C57.3727 53.6054 57.3679 53.6015 57.3631 53.598C57.2679 53.1935 57.1514 52.7807 57.0082 52.3733C57.0082 52.3707 57.008 52.3682 57.0079 52.3658C57.148 52.5299 57.291 52.7118 57.4132 52.9032C57.4234 53.1239 57.4395 53.3446 57.4585 53.5653ZM57.3744 52.4265C57.383 52.433 57.3928 52.4386 57.4016 52.445C57.4016 52.4505 57.4016 52.4561 57.4016 52.4616C57.3926 52.4497 57.3835 52.438 57.3744 52.4265ZM56.982 51.9217C56.9803 51.9005 56.9788 51.8793 56.977 51.8581C56.9832 51.8764 56.9896 51.8946 56.9965 51.9127C56.9917 51.9157 56.9868 51.9186 56.982 51.9217ZM56.1541 52.9117C56.1428 52.8549 56.131 52.7982 56.1187 52.7416C56.1441 52.7724 56.1701 52.8029 56.1966 52.8328C56.1824 52.8591 56.1678 52.8852 56.1541 52.9117ZM56.9072 54.0082C56.9185 53.9909 56.9294 53.9733 56.941 53.9563C57.0155 53.9676 57.0921 53.9649 57.1695 53.9511C57.2134 54.1052 57.2515 54.2612 57.2842 54.4187C57.2897 54.4485 57.2956 54.4781 57.3009 54.5081C57.133 54.5759 56.9379 54.6014 56.7568 54.6007C56.8207 54.4079 56.8701 54.2096 56.9072 54.0082ZM57.2864 50.7513C57.3359 50.6403 57.397 50.5338 57.4678 50.4344C57.5308 50.4466 57.5939 50.4589 57.6569 50.4715C57.6843 50.5137 57.7353 50.5428 57.7939 50.5314C57.8231 50.5258 57.8529 50.5204 57.8823 50.5146C57.9436 50.5259 58.0047 50.5365 58.0658 50.5462C57.8926 50.7328 57.7363 50.9343 57.5993 51.1516C57.5008 51.0152 57.3954 50.8822 57.2864 50.7513ZM58.7079 49.2797C58.6998 49.2891 58.6918 49.2844 58.6838 49.2844C58.5546 49.2844 58.4255 49.2844 58.2963 49.2844C58.3865 49.2844 58.4764 49.2451 58.5659 49.2174C58.6135 49.2332 58.6605 49.2629 58.7079 49.2797ZM57.6201 49.2443C57.6096 49.2346 57.5993 49.2246 57.5887 49.215C57.6017 49.211 57.6145 49.2066 57.6277 49.2028C57.7167 49.1778 57.7326 49.0888 57.7006 49.0253C57.8487 49.0551 57.9958 49.0894 58.142 49.1281C57.9699 49.1745 57.7963 49.214 57.6201 49.2443ZM56.8729 50.6372C56.9081 50.7063 56.9419 50.776 56.976 50.8455C56.939 50.9741 56.9146 51.1052 56.9049 51.2357C56.8713 51.0012 56.8308 50.7677 56.7843 50.5357C56.814 50.5696 56.8435 50.6033 56.8729 50.6372ZM55.9704 54.0251C55.9919 54.0903 56.0126 54.1557 56.0326 54.2214C56.0225 54.2949 56.0125 54.3683 56.0039 54.4418C55.9734 54.4285 55.9432 54.4145 55.9136 54.3994C55.9246 54.2758 55.9437 54.1505 55.9704 54.0251ZM55.9778 54.699C55.9657 54.8302 55.9559 54.9616 55.9486 55.0933C55.9192 54.9582 55.9044 54.8152 55.9028 54.6674C55.9276 54.6782 55.9525 54.6892 55.9778 54.699ZM56.4157 55.7464C56.4207 55.7685 56.4257 55.7906 56.4309 55.8126C56.4266 55.8102 56.4228 55.8072 56.4186 55.8047C56.4173 55.7854 56.4165 55.7659 56.4157 55.7464ZM56.5233 55.1488C56.5764 55.05 56.6245 54.9488 56.6671 54.8453C56.8905 54.8556 57.1288 54.8311 57.3412 54.7542C57.3984 55.1267 57.4375 55.5069 57.4487 55.8866C57.2082 55.9749 56.942 55.9863 56.7005 55.9221C56.6405 55.6646 56.5831 55.4063 56.5233 55.1488ZM57.8151 52.1338C57.8095 52.0857 57.8035 52.0375 57.7976 51.9896C57.8131 52.0262 57.8276 52.0633 57.8415 52.1007C57.8328 52.1117 57.8238 52.1229 57.8151 52.1338ZM57.8438 51.5264C57.8138 51.4747 57.783 51.4235 57.7506 51.373C57.922 51.0811 58.1325 50.8194 58.3718 50.5841C58.5061 50.5956 58.6396 50.5993 58.7714 50.5898C58.6641 50.8591 58.5212 51.1235 58.3648 51.3716C58.1686 51.4131 57.9785 51.477 57.8438 51.5264ZM58.5789 48.9963C58.4268 48.9471 58.2731 48.9038 58.1184 48.8646C58.2161 48.8413 58.3128 48.8135 58.4087 48.7815C58.4956 48.7909 58.5825 48.8 58.6694 48.8091C58.7015 48.8504 58.7312 48.8924 58.7577 48.935C58.6982 48.9561 58.6386 48.9764 58.5789 48.9963ZM56.3068 49.5787C56.3068 49.5801 56.3067 49.5811 56.3067 49.5823C56.306 49.5813 56.3053 49.5804 56.3046 49.5794C56.3053 49.5792 56.3061 49.579 56.3068 49.5787ZM56.4848 50.3348C56.5735 50.7476 56.6426 51.1644 56.6903 51.5837C56.5221 51.2168 56.3281 50.8632 56.1033 50.535C56.1971 50.4281 56.3069 50.3483 56.4224 50.3379C56.4431 50.336 56.4641 50.3361 56.4848 50.3348ZM56.603 52.0198C56.5946 52.0497 56.5859 52.0809 56.577 52.1134C56.5082 52.0262 56.4393 51.937 56.3735 51.8432C56.324 51.7726 56.2437 51.7652 56.178 51.818C56.1032 51.8782 56.0252 51.9431 55.9469 52.0123C55.9346 51.9851 55.9223 51.9579 55.9108 51.9304C55.7947 51.6499 55.7651 51.3476 55.8317 51.052C55.8506 50.9681 55.8923 50.862 55.9498 50.7574C56.2091 51.1506 56.4236 51.5777 56.603 52.0198ZM55.6453 54.8891C55.633 54.7617 55.6205 54.6346 55.6083 54.5073C55.6291 54.5213 55.6498 54.5355 55.6713 54.5487C55.6643 54.6788 55.6676 54.8083 55.6806 54.9358C55.6689 54.9202 55.6567 54.9049 55.6453 54.8891ZM56.4627 56.1184C56.4769 56.1235 56.491 56.1289 56.5053 56.1336C56.5343 56.2562 56.5641 56.3785 56.5953 56.5003C56.5365 56.3809 56.4925 56.2528 56.4627 56.1184ZM57.3124 57.4373C57.2919 57.5281 57.2688 57.6182 57.2431 57.7073C57.1935 57.5902 57.1473 57.4719 57.1042 57.3523C57.1696 57.3844 57.2395 57.4123 57.3124 57.4373ZM57.9676 55.492C57.9743 55.2241 57.9764 54.956 57.9741 54.6879C58.0979 54.9604 58.1249 55.2438 57.9676 55.492ZM58.9551 51.8243C58.866 52.3666 58.3445 52.8819 57.9175 53.233C57.9041 53.04 57.8888 52.8473 57.8706 52.655C57.9411 52.6721 58.0141 52.6865 58.0929 52.6949C58.1815 52.7046 58.2239 52.6089 58.213 52.5373C58.1928 52.4044 58.1626 52.2768 58.1241 52.1535C58.1956 52.062 58.2672 51.9672 58.3376 51.869C58.5291 51.8155 58.7147 51.7321 58.8866 51.6256C58.9439 51.6636 58.9712 51.7269 58.9551 51.8243ZM59.3816 50.816C59.2601 51.017 59.0831 51.1978 58.8763 51.3422C58.8184 51.3316 58.7555 51.328 58.6898 51.3297C58.8377 51.0772 58.9664 50.8134 59.0594 50.5456C59.0803 50.5406 59.1016 50.5372 59.1225 50.5314C59.2266 50.5025 59.2451 50.3588 59.1524 50.3038C59.2733 50.288 59.3942 50.2739 59.5151 50.2613C59.5607 50.4403 59.4799 50.6534 59.3816 50.816ZM58.9916 48.841C58.9979 48.8415 59.0041 48.8422 59.0104 48.8426C59.0055 48.8445 59.0005 48.8464 58.9956 48.8482C58.9941 48.8458 58.9929 48.8434 58.9916 48.841ZM58.3958 48.073C58.3427 48.0769 58.2895 48.0802 58.2362 48.0827C58.2346 48.0818 58.233 48.0809 58.2314 48.0799C58.2863 48.0773 58.341 48.0752 58.3958 48.073ZM56.9494 47.9398C56.8767 47.9487 56.8039 47.9563 56.7311 47.9661C56.6064 47.9832 56.6176 48.1802 56.7311 48.2064C57.1048 48.2926 57.4878 48.333 57.8719 48.3374C57.7135 48.381 57.5547 48.4238 57.3955 48.4644C57.2571 48.4996 57.2894 48.707 57.4286 48.7089C57.4464 48.7092 57.4641 48.7105 57.4819 48.7109C57.4488 48.7132 57.4155 48.7148 57.3822 48.7161C57.1705 48.6842 56.9576 48.6612 56.7438 48.6465C56.2121 48.3742 55.6281 48.1876 55.0464 47.9717C55.652 47.8888 56.3225 47.8476 56.9494 47.9398ZM56.1951 48.6496C56.1211 48.7067 56.1212 48.8497 56.2328 48.8706C56.428 48.9073 56.6238 48.9341 56.8192 48.9503C56.836 48.9598 56.8527 48.9694 56.8693 48.9792C56.6875 49.0471 56.5072 49.1193 56.3281 49.194C56.2082 49.1697 56.088 49.1474 55.9669 49.1287C55.8647 49.1128 55.7654 49.2091 55.8262 49.3117C55.8426 49.3392 55.8595 49.3665 55.8766 49.3937C55.8194 49.4204 55.7616 49.4457 55.7049 49.4735C55.5717 49.5386 55.6692 49.7285 55.8009 49.7011C55.8833 49.684 55.9652 49.6653 56.0469 49.6456C56.0799 49.6914 56.1138 49.7367 56.1484 49.7817C56.1559 49.8094 56.1729 49.8356 56.2032 49.8547C56.2044 49.8555 56.2056 49.8561 56.2067 49.8568C56.2692 49.9359 56.3335 50.0143 56.3991 50.0919C56.2164 50.1131 56.0989 50.2087 55.9663 50.3445C55.7825 50.0979 55.581 49.867 55.3576 49.659C55.2945 49.6002 55.2061 49.6186 55.1641 49.6842C55.1223 49.1984 55.0836 48.7124 55.0512 48.2262C55.4343 48.3664 55.8228 48.4951 56.1951 48.6496ZM55.0398 51.0691C55.0943 51.6804 55.1496 52.2916 55.2065 52.9027C55.1012 53.1094 55.0385 53.3289 55.0456 53.5566C54.855 52.7595 54.8844 51.8926 55.0398 51.0691ZM57.1206 67.193C57.0091 67.0675 56.912 66.9335 56.8336 66.7935C56.8142 66.5938 56.7947 66.3939 56.7752 66.1943C56.934 66.4995 57.1088 66.7955 57.2969 67.0792C57.2404 67.1192 57.1816 67.1572 57.1206 67.193ZM57.5946 66.8298C57.5859 66.8384 57.5774 66.8472 57.5686 66.8557C57.4616 66.6418 57.3548 66.428 57.2478 66.2141C57.5341 65.9283 57.8249 65.643 58.1363 65.3843C57.9526 65.8645 57.7673 66.3453 57.5946 66.8298ZM58.2317 65.8252C58.2189 65.8593 58.2065 65.8938 58.1925 65.9274C58.2055 65.8934 58.2186 65.8592 58.2317 65.8252ZM56.8458 65.3125C57.1854 64.7905 57.8083 64.6401 58.393 64.7056C58.3644 64.7822 58.3359 64.8587 58.307 64.9353C57.8363 65.2763 57.4187 65.6909 57.0083 66.1011C57.0072 66.1022 57.0067 66.1036 57.0057 66.1047C56.9071 65.9159 56.8164 65.7234 56.7301 65.5299C56.7617 65.4571 56.799 65.3845 56.8458 65.3125ZM56.883 67.2988C56.923 67.3471 56.9648 67.3941 57.0084 67.4399C57.048 67.4813 57.1106 67.4854 57.1593 67.4593C57.2572 67.4072 57.3482 67.3483 57.4361 67.2864C57.4363 67.2866 57.4364 67.2868 57.4367 67.287C57.2761 67.7662 57.1331 68.2499 57.02 68.741C56.9748 68.2602 56.9294 67.7795 56.883 67.2988ZM60.0606 87.0268C59.8018 86.7611 59.607 86.4574 59.4681 86.1279C60.0594 86.187 60.6409 86.3136 61.2057 86.5297C61.2383 86.5715 61.2713 86.6131 61.3047 86.6541C60.8957 86.7987 60.4805 86.9225 60.0606 87.0268ZM60.7387 84.6683C60.6508 84.7013 60.5607 84.729 60.4666 84.7475C60.2381 84.7927 59.9882 84.7733 59.7442 84.7397C60.08 84.6444 60.4134 84.6217 60.7387 84.6683ZM59.1966 84.9017C59.2047 84.9053 59.2127 84.9093 59.2223 84.9106C59.6097 84.9655 60.0198 85.0492 60.4129 85.0028C60.3432 85.0635 60.2696 85.1236 60.1892 85.1812C60.1095 85.2381 60.1095 85.3393 60.1892 85.3963C60.4828 85.6063 60.7092 85.8795 60.9256 86.1621C60.4168 86.0038 59.8974 85.9101 59.3713 85.8667C59.2719 85.5599 59.2158 85.2352 59.1966 84.9017ZM59.1947 86.1051C59.3327 86.4623 59.5296 86.7938 59.7922 87.0902C59.2627 87.2109 58.7265 87.3022 58.1866 87.3666C58.2482 87.2962 58.2059 87.1558 58.0929 87.1571C57.6763 87.1621 57.2706 87.2096 56.8727 87.2875C56.6111 87.2888 56.3496 87.2766 56.0878 87.2591C56.781 87.1356 57.4648 86.9546 58.126 86.7374C58.2569 86.6944 58.2377 86.4913 58.0928 86.4929C57.6897 86.4969 57.2937 86.5349 56.902 86.5946C57.4139 86.4445 57.9215 86.2815 58.4195 86.0878C58.6792 86.0827 58.9376 86.0882 59.1947 86.1051ZM54.2475 87.4343C54.1315 87.4579 54.0174 87.4725 53.918 87.4807C53.9898 87.4653 54.0618 87.4501 54.1336 87.4347C54.1716 87.4351 54.2096 87.4345 54.2475 87.4343ZM55.1307 86.8159C55.0831 86.7986 55.0298 86.8281 55.0015 86.8281C54.5917 86.8281 54.182 86.8281 53.7722 86.8281C55.0005 86.5253 56.2867 86.2308 57.5636 86.1092C56.7603 86.3702 55.9421 86.5893 55.1307 86.8159ZM52.7451 86.8502C52.6532 86.8707 52.637 86.9794 52.6762 87.0512C52.5086 87.0203 52.3413 86.9842 52.1747 86.9416C53.6336 86.4727 55.2022 86.0479 56.7698 85.9873C55.3993 86.1912 54.0333 86.5623 52.7451 86.8502ZM54.178 87.0552C54.1078 87.2066 54.0376 87.0998 53.9676 87.1226C53.6734 87.1154 53.3794 87.2066 53.0862 87.0552C53.4501 87.0552 53.8141 87.0552 54.178 87.0552ZM53.6784 87.5373C53.627 87.6076 53.6595 87.7311 53.7747 87.7384C54.0352 87.755 54.2794 87.8503 54.5263 87.935C54.3834 87.9599 54.2406 87.9813 54.0977 87.9989C53.8547 87.8936 53.6183 87.7751 53.3905 87.6407C53.4861 87.6052 53.5821 87.5708 53.6784 87.5373ZM55.0788 87.8204C54.8503 87.8014 54.6339 87.724 54.4168 87.6481C54.6052 87.5994 54.7899 87.5273 54.9357 87.4231C55.2997 87.4428 55.6614 87.4751 56.0223 87.4997C55.7047 87.5942 55.3907 87.7033 55.0788 87.8204ZM56.0281 87.0141C56.2286 86.9692 56.4297 86.928 56.6317 86.8915C56.4315 86.937 56.2302 86.9781 56.0281 87.0141ZM51.7125 87.9445C52.1478 87.8554 52.5811 87.7651 53.0123 87.6732C53.0215 87.6911 53.035 87.7079 53.0559 87.7215C53.2369 87.8391 53.424 87.9456 53.6155 88.0436C52.9843 88.0837 52.3508 88.0502 51.7125 87.9445ZM53.8857 88.5497C54.0371 88.4876 54.1887 88.4253 54.3406 88.3635C54.6151 88.4664 54.897 88.5531 55.184 88.6258C54.7492 88.6222 54.3159 88.5991 53.8857 88.5497ZM54.6869 88.2243C54.7972 88.1805 54.9079 88.1374 55.0188 88.0953C55.058 88.0863 55.0973 88.0781 55.1365 88.0687C55.1669 88.0614 55.1874 88.0455 55.2021 88.0264C55.4916 87.9192 55.7834 87.8201 56.0782 87.7335C56.0799 87.734 56.0815 87.7348 56.0833 87.7351C57.0784 87.9766 58.0827 88.0722 59.1034 88.2626C58.1862 88.407 57.2566 88.5342 56.3281 88.5927C55.7656 88.5182 55.214 88.3994 54.6869 88.2243Z" fill="#FBFAF1"/>
<path d="M58.0509 40.4485C58.1441 39.7002 58.6167 39.1004 59.1435 38.5854C59.12 38.6602 59.1555 38.7488 59.2551 38.7461C60.1352 38.7226 60.9633 38.3086 61.6236 37.7386C61.6722 37.7578 61.7206 37.778 61.7688 37.7995C62.0541 38.3613 62.4512 38.8422 62.9601 39.19C62.9541 39.1889 62.948 39.1877 62.9421 39.1865C62.8009 39.1599 62.5532 39.0665 62.4127 39.1351C62.3386 39.1714 62.3353 39.2762 62.3875 39.3308C62.4273 39.3724 62.4912 39.3876 62.5436 39.4059C62.5887 39.4216 62.6258 39.411 62.6523 39.3877C62.6622 39.3885 62.671 39.3893 62.6778 39.3905C62.8178 39.4144 62.9571 39.442 63.0967 39.4686C63.3077 39.5087 63.5242 39.5648 63.7393 39.5764C63.8876 39.5845 63.8981 39.3769 63.7725 39.3319C63.0824 39.0842 62.5417 38.604 62.1637 38.0007C62.5142 38.2022 62.8479 38.4516 63.153 38.7096C63.2497 38.7913 63.3859 38.714 63.3612 38.5883C63.1571 37.5512 62.3376 36.8787 61.477 36.3549C61.429 36.3256 61.3655 36.3356 61.3261 36.3743C60.9841 36.7105 60.5755 37.0308 60.1591 37.3587C59.824 37.4381 59.4911 37.6002 59.167 37.8691C59.061 37.9571 59.1751 38.0944 59.2867 38.0742C58.5463 38.728 57.924 39.4675 57.8019 40.4484C57.782 40.6076 58.0313 40.6057 58.0509 40.4485ZM60.0436 37.7917C60.0778 37.7808 60.1118 37.7702 60.146 37.7595C59.8732 37.9683 59.6082 38.1885 59.3372 38.4011C59.3813 38.3601 59.4257 38.3197 59.4699 38.2797C59.6564 38.1115 59.8491 37.9505 60.0436 37.7917ZM59.6679 38.4537C60.0609 38.138 60.4485 37.8155 60.878 37.5529C61.0358 37.5678 61.193 37.599 61.3488 37.6443C60.8613 38.0401 60.2843 38.3448 59.6679 38.4537ZM61.4299 36.6189C62.0995 37.035 62.7296 37.5429 63.0115 38.2775C62.6768 38.0204 62.3206 37.7894 61.9521 37.6164C61.9221 37.5537 61.8932 37.4905 61.8663 37.4259C61.831 37.3413 61.7317 37.2997 61.6582 37.3708C61.6276 37.4006 61.596 37.4294 61.5645 37.4584C61.4415 37.4162 61.3179 37.3813 61.1935 37.3553C61.2467 37.2652 61.1394 37.1284 61.019 37.1854C60.9296 37.2278 60.8386 37.2652 60.7469 37.3008C60.715 37.2997 60.683 37.2989 60.651 37.2991C60.9183 37.0809 61.1808 36.8578 61.4299 36.6189Z" fill="#1f454f"/>
<path d="M69.5867 46.8355C70.6242 45.2858 67.9105 43.9778 66.7623 43.8167C66.7037 43.8084 66.6553 43.8221 66.6216 43.874C66.5852 43.9298 66.5458 43.9901 66.5055 44.0532C66.4647 43.9728 66.341 43.9376 66.2895 44.0401C65.7384 45.1354 65.133 46.21 64.7822 47.3914C64.7589 47.4699 64.8227 47.5482 64.9023 47.549C65.7839 47.5572 66.6579 47.7035 67.5414 47.6964C68.369 47.6899 69.1032 47.5574 69.5867 46.8355ZM65.0701 47.3044C65.3286 46.492 65.7047 45.7293 66.0923 44.9722C66.0726 45.0924 66.0713 45.2116 66.098 45.3262C66.1698 45.6348 66.3978 45.7781 66.6654 45.8419C66.554 45.8883 66.4431 45.9363 66.3341 45.9884C66.2234 46.0413 66.2756 46.2294 66.397 46.2205C66.6606 46.2012 66.8484 46.1125 67.0323 45.958C67.2307 45.8776 67.4291 45.7976 67.6224 45.7052C67.7673 45.636 67.6408 45.4212 67.4967 45.4901C67.3723 45.5495 67.2456 45.6033 67.1182 45.6558C67.1014 45.6465 67.0826 45.6397 67.0612 45.6391C66.6457 45.6282 66.273 45.5108 66.3473 45.0272C66.3999 44.6847 66.6009 44.3618 66.7896 44.0719C68.0284 44.2926 70.4802 45.5866 69.1323 47.0042C68.6315 47.5309 67.697 47.4623 67.0317 47.4406C66.3768 47.4191 65.7247 47.3245 65.0701 47.3044Z" fill="#1f454f"/>
<path d="M74.0704 61.3281C75.1487 61.1578 76.2462 61.1809 77.3258 61.3281C77.3977 61.3379 77.4532 61.3114 77.479 61.2411C77.7889 60.3966 77.6534 59.5489 77.1343 58.82C77.098 58.7691 77.0223 58.7328 76.9639 58.7753C76.6417 59.0101 76.2793 59.1912 75.9763 59.4511C75.8409 59.5672 75.7402 59.7207 75.6492 59.872C75.5147 60.0956 75.2324 59.9451 75.0337 59.9209C75.0306 59.9205 75.028 59.9209 75.025 59.9207C75.6108 59.0802 76.2633 58.2945 77.0896 57.6617C77.2153 57.5655 77.0914 57.3489 76.9639 57.4466C75.6675 58.4391 74.7848 59.7772 73.9297 61.1451C73.866 61.2468 73.9701 61.3438 74.0704 61.3281ZM75.0337 60.1699C75.1858 60.1885 75.326 60.2659 75.4832 60.2381C75.7647 60.1885 75.7854 60.1287 75.9233 59.8995C76.1565 59.512 76.622 59.3049 76.9939 59.0565C77.3959 59.6781 77.5017 60.3633 77.273 61.0724C76.2782 60.9449 75.2785 60.9203 74.2843 61.0482C74.4916 60.7188 74.702 60.3912 74.9209 60.0708C74.9343 60.1191 74.9718 60.1623 75.0337 60.1699Z" fill="#1f454f"/>
<path d="M83.3682 70.3868C82.8942 70.218 82.4548 69.9603 82.0143 69.7173C82.1313 69.6094 82.2452 69.5169 82.3385 69.4706C82.3683 69.4722 82.3994 69.4613 82.4266 69.4324C82.4377 69.4206 82.4484 69.4086 82.4566 69.3946C82.5093 69.3049 82.4219 69.1743 82.3159 69.2116C82.1357 69.2749 81.9523 69.4308 81.7819 69.597C81.4094 69.451 81.3036 69.8235 81.0878 70.0867C81.039 70.1462 81.055 70.218 81.0957 70.2628C80.7163 70.6203 80.3458 71.0024 80.0719 71.4406C80.0294 71.5084 80.0699 71.6038 80.1463 71.6236C81.3715 71.9402 82.5411 71.4502 83.423 70.595C83.4944 70.5258 83.4535 70.4172 83.3682 70.3868ZM81.5474 69.8343C81.5356 69.8465 81.5239 69.8583 81.5123 69.8701C81.5157 69.8657 81.5188 69.8612 81.5223 69.8569C81.5299 69.8477 81.5383 69.8403 81.5474 69.8343ZM80.3846 71.4209C80.6929 70.9794 81.1012 70.6004 81.4908 70.2356C81.5816 70.1507 81.7056 70.0196 81.837 69.8884C81.9368 69.9422 82.031 70.0101 82.0787 70.0362C82.4134 70.2201 82.7507 70.4057 83.1044 70.5507C82.3488 71.2239 81.3957 71.6162 80.3846 71.4209Z" fill="#1f454f"/>
<path d="M62.0019 53.3081C61.982 53.2873 61.9528 53.2748 61.9137 53.2778C61.3108 53.3247 60.9843 54.3698 60.8009 54.8171C60.4272 55.7287 60.1136 56.7109 59.9667 57.6874C59.9528 57.7797 60.0199 57.8656 60.1199 57.8406C60.8202 57.6651 61.5312 57.4974 62.2011 57.2234C62.5883 57.0652 62.9817 56.8495 63.1956 56.4751C63.3929 56.1297 63.3317 55.7078 63.2246 55.3452C63.0126 54.6279 62.5812 53.9665 62.1873 53.3395C62.1437 53.2699 62.0562 53.2661 62.0019 53.3081ZM62.1872 53.8107C62.3536 54.0813 62.5148 54.3568 62.6583 54.6403C62.6044 54.6014 62.5194 54.5975 62.4705 54.668C62.2653 54.9646 62.0306 55.2354 61.7701 55.4798C62.0113 54.9468 62.1432 54.3993 62.1872 53.8107ZM62.9564 56.3913C62.7512 56.7507 62.2816 56.9314 61.9171 57.0686C61.3736 57.2729 60.8047 57.4134 60.2408 57.5538C60.3676 56.8354 60.5892 56.1282 60.8296 55.4425C60.9812 55.0104 61.1534 54.5844 61.365 54.1781C61.4623 53.9913 61.6634 53.5463 61.9137 53.5268C61.9282 53.5257 61.9409 53.5221 61.9528 53.5174C61.9389 54.0412 61.8591 54.5252 61.6965 54.9934C61.7003 54.9614 61.704 54.9293 61.7061 54.897C61.7138 54.7783 61.5235 54.7199 61.4739 54.8342C61.3119 55.2083 61.3034 55.6237 61.1418 55.9968C61.0978 56.0984 61.1975 56.2467 61.3122 56.1671C61.8519 55.7936 62.3121 55.3335 62.6856 54.7938C62.6989 54.7746 62.7051 54.7558 62.7068 54.7378C62.7919 54.9122 62.8703 55.0894 62.9375 55.2712C63.0701 55.6297 63.156 56.0421 62.9564 56.3913Z" fill="#1f454f"/>
<path d="M82.069 51.1841C82.138 51.133 82.1485 51.0557 82.0942 50.9886C81.4025 50.1337 80.624 49.3551 79.7691 48.6636C79.7116 48.617 79.6505 48.6177 79.5929 48.6636C79.2382 48.9463 78.9723 49.2752 78.8621 49.6257C78.8583 49.625 78.8547 49.624 78.8505 49.6236C78.6366 49.6067 78.4222 49.5287 78.2193 49.462C78.0929 49.4202 78.0213 49.5824 78.0981 49.6701C78.3514 49.9592 78.6269 50.225 78.9195 50.4698C78.9836 50.6069 79.0758 50.7441 79.2008 50.8803C79.8788 51.6186 81.0202 51.9956 81.973 52.1934C82.1323 52.2265 82.1881 52.0099 82.0393 51.9532C81.6391 51.8007 81.244 51.6282 80.8597 51.434C81.2392 51.5444 81.6624 51.4855 82.069 51.1841ZM78.5926 49.8317C78.6652 49.8483 78.7384 49.8608 78.8121 49.8684C78.8064 49.9249 78.8052 49.9818 78.8083 50.0389C78.735 49.9714 78.6632 49.9022 78.5926 49.8317ZM79.0999 50.2954C79.06 50.2004 79.0333 50.0998 79.0248 49.9943C78.9885 49.548 79.3532 49.1575 79.6782 48.9034C80.4612 49.5244 81.1789 50.2642 81.8235 51.048C81.0543 51.5149 80.2669 51.0319 79.9672 50.2126C79.9125 50.063 79.6717 50.128 79.7271 50.2791C79.8547 50.6282 80.0638 50.9287 80.3219 51.1427C79.8918 50.8932 79.4809 50.6125 79.0999 50.2954Z" fill="#1f454f"/>
<path d="M65.7875 60.1495C65.4304 60.7785 65.1004 61.4635 64.9445 62.1724C64.9277 62.2489 64.9802 62.3327 65.0647 62.33C66.1899 62.2938 66.8623 61.361 67.3313 60.4414C67.3386 60.4271 67.3423 60.4133 67.3448 60.3997C67.3582 60.3523 67.3446 60.3001 67.2865 60.271C66.9543 60.1049 66.6222 59.9388 66.2901 59.7727C66.1473 59.7014 66.0254 59.9048 66.1643 59.9878C66.4279 60.1453 66.7312 60.3645 67.0403 60.4612C66.6449 61.2042 66.1013 61.9576 65.2275 62.0676C65.3911 61.4392 65.6836 60.837 66.0026 60.2753C66.0821 60.1353 65.8667 60.0099 65.7875 60.1495Z" fill="#1f454f"/>
<path d="M75.8172 47.6228C75.8703 47.4414 75.878 47.2216 75.6414 47.202C75.4808 47.1889 75.2973 47.331 75.17 47.4466C75.1644 47.4277 75.1588 47.4091 75.1529 47.3905C75.1045 47.2379 74.8639 47.3032 74.9128 47.4567C75.0836 47.9943 75.1451 48.5086 75.6343 48.8597C75.737 48.9336 75.8697 48.7908 75.8046 48.6894C75.5888 48.3527 75.5029 47.9821 75.3491 47.624C75.389 47.5906 75.4301 47.5591 75.4739 47.5299C75.5151 47.5025 75.5595 47.4784 75.6056 47.4607C75.6716 47.4353 75.5907 47.5094 75.577 47.5566C75.5318 47.7112 75.7723 47.7768 75.8172 47.6228Z" fill="#1f454f"/>
<path d="M71.414 85.1691C71.2571 85.1391 71.1901 85.3792 71.3478 85.4093C74.8282 86.0733 78.2273 84.6086 81.6781 84.4173C81.8378 84.4085 81.8386 84.1593 81.6781 84.1682C78.2556 84.3577 74.8626 85.8271 71.414 85.1691Z" fill="#1f454f"/>
<path d="M60.2832 82.5132C59.9331 82.4535 59.6224 82.3746 59.3383 82.2581C59.3222 82.1717 59.3019 82.088 59.2784 82.006C59.2588 81.749 59.266 81.4908 59.2896 81.2324C59.7627 80.5417 59.8244 79.6752 59.7103 78.8134C59.689 78.6532 59.4826 78.6535 59.4611 78.8134C59.3586 79.5772 59.1414 80.3531 59.0566 81.1294C59.034 81.1611 59.0089 81.1918 58.9841 81.2226C58.9471 81.1306 58.9103 81.0369 58.8754 80.9394C58.8379 80.835 58.6584 80.8073 58.6354 80.939C58.3919 80.0795 58.1783 78.7318 58.8882 78.9335C59.0431 78.9776 59.1087 78.7372 58.9545 78.6933C57.7074 78.3388 58.2139 80.6239 58.5433 81.4698C58.5291 81.5573 58.5163 81.644 58.5052 81.73C58.3938 81.6275 58.2855 81.5126 58.179 81.3827C58.1001 81.2863 57.931 81.3894 57.9708 81.5039C58.167 82.0675 58.439 82.6011 58.6352 83.1647C58.6914 83.3125 58.9287 83.2518 58.8754 83.0985C58.8736 83.0936 58.8717 83.0886 58.8699 83.0837C58.8717 83.0832 58.8736 83.0824 58.8754 83.0821C58.7613 82.7822 58.7201 82.4986 58.7192 82.2167C58.835 82.2932 58.9552 82.3596 59.0797 82.4187C59.0945 82.5014 59.1122 82.5839 59.1334 82.6664C59.1685 82.8025 59.3814 82.7745 59.3781 82.6334C59.3774 82.6019 59.3755 82.5711 59.3735 82.5405C59.6317 82.6335 59.9103 82.7011 60.2169 82.7533C60.3741 82.7803 60.4413 82.5402 60.2832 82.5132ZM58.7973 81.4299C58.7971 81.4295 58.7969 81.4289 58.7967 81.4284C58.7981 81.4195 58.7995 81.4108 58.801 81.4018C58.8034 81.4078 58.8059 81.4137 58.8083 81.4197C58.8048 81.4232 58.8007 81.4265 58.7973 81.4299ZM58.4724 82.1011C58.4575 82.0662 58.4429 82.0311 58.4283 81.996C58.4441 82.0095 58.4596 82.0237 58.4754 82.0368C58.4742 82.0582 58.4733 82.0798 58.4724 82.1011ZM58.7318 81.9177C58.7363 81.865 58.7419 81.8121 58.7483 81.7589C58.7815 81.7596 58.8158 81.7481 58.8434 81.7249C58.8661 81.7057 58.8862 81.6855 58.908 81.6658C58.954 81.783 58.9963 81.9 59.0315 82.0202C59.0337 82.0519 59.0362 82.0834 59.0392 82.1151C58.9335 82.0566 58.8311 81.9915 58.7318 81.9177Z" fill="#1f454f"/>
<path d="M55.8247 39.824C55.8247 39.7483 55.8247 39.6775 55.8247 39.6174C55.8247 39.5699 55.8247 39.597 55.8247 39.4456C55.8247 39.2942 55.5977 39.2942 55.5977 39.4456C55.5977 39.5213 55.5977 39.573 55.5977 39.6174C55.5977 39.6776 55.5977 39.7483 55.5977 39.824C55.5977 39.9754 55.8247 39.9754 55.8247 39.824Z" fill="#1f454f"/>
<path d="M69.0854 36.8382C68.966 36.7987 68.8451 36.7634 68.7212 36.7414C68.6281 36.7251 68.5251 36.7098 68.4363 36.7513C68.3424 36.7951 68.3316 36.9087 68.3792 36.9902C68.4397 37.0939 68.5609 37.167 68.6573 37.2319C68.791 37.3219 68.9155 37.106 68.7831 37.0168C68.7779 37.0132 68.7727 37.0097 68.7676 37.0063C68.8525 37.0263 68.9364 37.051 69.0192 37.0783C69.1722 37.1289 69.2372 36.8883 69.0854 36.8382Z" fill="#1f454f"/>
<path d="M66.5745 36.4209C66.7259 36.4209 66.7259 36.1719 66.5745 36.1719C66.4231 36.1719 66.4231 36.4209 66.5745 36.4209Z" fill="#1f454f"/>
<path d="M66.8172 35.3855C66.8652 35.3375 66.8652 35.2574 66.8172 35.2094C66.7618 35.1541 66.7064 35.0987 66.6511 35.0434C66.6037 34.996 66.5564 34.9486 66.509 34.9013C66.461 34.8532 66.3809 34.8532 66.3328 34.9013C66.2849 34.9492 66.2849 35.0294 66.3328 35.0773C66.4356 35.1801 66.5383 35.2828 66.641 35.3855C66.6889 35.4336 66.7691 35.4336 66.8172 35.3855Z" fill="#1f454f"/>
<path d="M66.1729 38.0593C66.0792 37.8731 65.9665 37.6862 65.8212 37.5358C65.7094 37.4201 65.5334 37.5965 65.6451 37.712C65.7756 37.847 65.8737 38.0179 65.9577 38.1849C66.0299 38.3286 66.2448 38.2023 66.1729 38.0593Z" fill="#1f454f"/>
<path d="M62.1057 35.9634C63.0897 35.9634 64.2251 35.9634 65.2091 35.9634C65.4362 35.9634 65.4362 35.7363 65.2091 35.7363C64.2251 35.7363 63.0897 35.7363 62.1057 35.7363C61.9543 35.7363 61.9543 35.9634 62.1057 35.9634Z" fill="#1f454f"/>
<path d="M63.3067 34.8581C62.817 34.6386 62.217 34.6904 61.716 34.8454C61.563 34.8927 61.6283 35.1333 61.7822 35.0857C62.2104 34.9531 62.7574 34.8833 63.181 35.0731C63.3262 35.1382 63.4531 34.9235 63.3067 34.8581Z" fill="#1f454f"/>
<path d="M59.7553 35.0078C58.866 35.019 58.024 35.3121 57.8083 36.2618C57.7728 36.4182 58.0129 36.4847 58.0485 36.328C58.2392 35.4889 58.977 35.2667 59.7553 35.2569C59.9158 35.255 59.916 35.0058 59.7553 35.0078Z" fill="#1f454f"/>
<path d="M58.3677 36.8981C58.292 36.7564 58.0769 36.8822 58.1526 37.0239C58.3417 37.3774 58.6934 37.5748 59.0906 37.5837C59.2514 37.5874 59.251 37.3382 59.0906 37.3346C58.7781 37.3275 58.5158 37.1752 58.3677 36.8981Z" fill="#1f454f"/>
<path d="M70.9878 36.9005C71.1194 36.9933 71.2438 36.7771 71.1135 36.6854C70.6431 36.3538 70.5176 35.848 70.5109 35.2982C70.5089 35.1377 70.2598 35.1375 70.2617 35.2982C70.2697 35.9448 70.441 36.5152 70.9878 36.9005Z" fill="#1f454f"/>
<path d="M74.0985 36.8519C73.5113 36.4057 72.9835 35.897 72.4629 35.3766C72.3492 35.2629 72.173 35.439 72.2868 35.5527C72.823 36.0887 73.3683 36.6076 73.9728 37.0669C74.1007 37.1642 74.2246 36.9477 74.0985 36.8519Z" fill="#1f454f"/>
<path d="M80.4719 37.2923C80.469 37.1318 80.2199 37.1316 80.2227 37.2923C80.2277 37.5723 80.3548 37.9035 80.6794 37.9151C80.8402 37.9209 80.8396 37.6718 80.6794 37.666C80.5077 37.6597 80.4741 37.4207 80.4719 37.2923Z" fill="#1f454f"/>
<path d="M83.711 37.2923C83.7182 37.6743 83.9461 37.8986 84.2709 38.0641C84.4138 38.1369 84.5399 37.922 84.3966 37.8491C84.1532 37.7249 83.9656 37.5845 83.9601 37.2923C83.957 37.1319 83.7079 37.1316 83.711 37.2923Z" fill="#1f454f"/>
<path d="M86.0279 38.0833C86.0279 38.0833 86.0279 38.0076 86.0279 37.9319C86.0279 37.7805 85.8008 37.7805 85.8008 37.9319C85.8008 38.0076 85.8008 38.0833 85.8008 38.0833C85.8008 38.2347 86.0279 38.2347 86.0279 38.0833Z" fill="#1f454f"/>
<path d="M95.4757 17.3702C95.081 16.4818 94.1484 16.0126 93.2875 15.7055C92.1142 15.2867 90.8152 14.9925 89.5644 15.0001C88.896 15.0042 87.9336 15.2379 88.3796 16.096C88.4537 16.2386 88.6687 16.1127 88.5947 15.9703C88.0605 14.9422 90.4385 15.2918 90.8589 15.3558C91.0797 15.3894 91.3076 15.4269 91.5384 15.4701C91.4986 15.5438 91.5333 15.6594 91.6427 15.6594C91.7323 15.6594 91.7719 15.5821 91.7615 15.5135C92.6803 15.6995 93.6281 15.9843 94.375 16.4821C94.7123 16.7069 95.1375 17.135 95.2708 17.5283C95.3674 17.8134 94.9407 17.8039 94.7654 17.803C93.6986 17.7975 92.5937 17.4106 91.5817 17.1121C90.6295 16.8313 89.6658 16.4187 88.6863 16.2452C88.6137 16.2324 88.5596 16.2643 88.5331 16.3322C87.4592 19.075 86.055 21.6684 84.7211 24.2895C84.1338 25.4437 83.4664 26.5287 82.7907 27.6322C82.2101 28.5804 81.682 29.5764 81.446 30.6677C81.2514 30.6658 81.0566 30.6601 80.8616 30.6496C78.1782 30.5046 75.5047 30.2145 72.8202 30.0862C71.4671 30.0215 70.115 30.0157 68.7625 29.9343C67.4316 29.854 66.1009 29.7689 64.7679 29.7326C63.4269 29.6962 62.0848 29.7228 60.7485 29.8438C60.0551 29.9065 59.3661 29.9746 58.6701 30.0122C57.0278 30.1005 55.3666 30.158 53.754 30.5077C52.8221 30.7101 51.7051 31.0497 51.177 31.9143C51.1356 31.9822 51.1744 32.0776 51.2514 32.0973C52.9775 32.5366 54.8909 32.1386 56.6072 31.8353C57.6072 31.6586 58.6032 31.4596 59.606 31.2989C60.6598 31.1302 61.7178 31.0919 62.7791 30.9947C65.3322 30.7609 67.8639 30.3186 70.4361 30.3689C71.7091 30.3938 72.9838 30.5417 74.2539 30.6292C75.5316 30.717 76.8099 30.7971 78.0879 30.881C82.2846 31.1567 86.4898 31.4725 90.635 32.2086C90.6713 32.2684 90.7064 32.3299 90.7387 32.3945C90.9026 32.7233 91.0088 33.1466 90.7226 33.4375C90.4447 33.72 89.9554 33.7762 89.5837 33.8099C88.3814 33.9195 87.1389 33.7065 85.958 33.5029C84.9233 33.3247 83.9004 33.0875 82.8672 32.9031C82.2174 32.7872 81.5488 32.7534 80.8854 32.7241C80.9633 32.5512 81.0415 32.3783 81.1209 32.2061C81.1875 32.0612 80.9728 31.9346 80.9058 32.0803C80.8091 32.2903 80.7138 32.5012 80.6192 32.7123C80.5023 32.7071 80.3857 32.7016 80.2695 32.6957C78.9542 32.6275 77.6376 32.59 76.3225 32.5185C74.952 32.4441 73.5843 32.3233 72.2285 32.1063C71.0428 31.9165 69.8712 31.7635 68.6695 31.7175C66.2099 31.6233 63.7444 31.8476 61.3042 32.1357C60.5411 32.2257 59.7548 32.2712 59.0141 32.487C58.4461 32.6526 57.8912 32.8656 57.3353 33.067C56.0895 33.5184 54.7999 34.018 53.47 34.1375C52.9764 34.1818 52.3962 34.1696 51.9866 33.8522C51.5236 33.4935 51.5174 32.8377 51.5752 32.3092C51.5926 32.1497 51.3433 32.1513 51.3261 32.3092C51.214 33.3343 51.583 34.2373 52.6936 34.3761C53.9279 34.5305 55.2327 34.0602 56.3819 33.6686C57.5209 33.2805 58.6675 32.719 59.8693 32.5634C62.3409 32.2433 64.8238 31.9724 67.3184 31.9484C68.5871 31.9362 69.8588 31.9995 71.116 32.1741C72.3807 32.3498 73.6273 32.5664 74.902 32.6721C76.2137 32.7809 77.5299 32.8268 78.8446 32.8806C79.3981 32.9033 79.9574 32.9177 80.5165 32.9414C79.7542 34.6594 79.0644 36.4123 78.5011 38.2053C78.0886 38.0878 77.6709 37.9914 77.2407 37.9454C76.6915 37.8869 76.1916 37.9712 75.7497 38.1744C75.735 38.1679 75.7181 38.1638 75.6987 38.1636C75.5965 38.162 75.4903 38.1484 75.4131 38.0755C75.3375 38.0039 75.3263 37.8876 75.325 37.7899C75.3227 37.6294 75.0736 37.6292 75.0759 37.7899C75.0783 37.9603 75.1171 38.125 75.237 38.2517C75.285 38.3025 75.3443 38.3378 75.4083 38.3625C75.151 38.5297 74.9178 38.7419 74.7112 38.9943C74.7082 38.9942 74.7052 38.9941 74.7023 38.9941C74.609 38.9933 74.5655 39.0846 74.5858 39.157C74.5317 39.2313 74.479 39.3077 74.4292 39.3879C74.3441 39.5248 74.5591 39.6498 74.6437 39.5135C74.6967 39.4285 74.7523 39.3493 74.8093 39.2727C75.3995 39.4124 75.9999 39.4443 76.5976 39.4003C77.5276 39.5068 78.4752 39.6041 79.3635 39.4584C80.2458 39.5513 81.1281 39.6437 82.01 39.7414C82.1695 39.7591 82.1678 39.5098 82.01 39.4923C81.3618 39.4205 80.7134 39.3518 80.065 39.2834C80.241 39.2226 80.4137 39.1492 80.5822 39.0601C80.678 39.0094 80.6523 38.8586 80.5505 38.8324C79.9394 38.6757 79.3438 38.4591 78.7401 38.2758C79.3096 36.4622 80.009 34.6898 80.7828 32.9534C81.3785 32.9823 81.9728 33.0249 82.5584 33.1042C84.0161 33.3015 85.4421 33.6718 86.8913 33.8955C86.8892 33.8994 86.8867 33.9028 86.8848 33.9071C85.8678 36.2569 84.4403 38.4408 83.7168 40.9124C83.6715 41.0668 83.912 41.1324 83.957 40.9785C84.6744 38.5282 86.0916 36.3628 87.0999 34.0328C87.1167 33.9943 87.1136 33.9574 87.0995 33.9261C87.7341 34.0175 88.3735 34.0786 89.0227 34.081C89.6698 34.0833 90.8027 34.0612 91.0919 33.3266C91.2291 32.9784 91.161 32.6072 90.9862 32.2639C91.1125 32.2484 91.1547 32.0492 91.0114 32.0229C90.9479 32.0113 90.8844 32.001 90.8209 31.9896C90.545 31.5935 90.1499 31.2591 89.813 31.0792C89.461 30.8911 89.0799 30.7587 88.6841 30.6644C89.3595 30.0243 89.8163 29.1516 90.2113 28.3259C90.8043 27.0864 91.2668 25.7864 91.7439 24.4995C92.2035 23.2596 92.6576 22.0081 93.2682 20.8326C93.6731 20.0527 94.2424 19.044 95.1635 18.8105C95.3193 18.771 95.2532 18.5308 95.0974 18.5703C94.2505 18.7849 93.6954 19.5881 93.2781 20.2984C92.6177 21.4221 92.1635 22.6694 91.7076 23.8856C91.2062 25.223 90.7337 26.5737 90.1463 27.8768C89.7112 28.842 89.1992 29.8915 88.3844 30.6008C87.4048 30.4172 86.3529 30.4445 85.4124 30.4738C84.1709 30.5125 82.9399 30.6596 81.7014 30.6678C81.9617 29.5322 82.5393 28.5123 83.1493 27.5245C83.6432 26.7245 84.116 25.927 84.5638 25.1086C84.586 25.1672 84.6264 25.2162 84.6883 25.2466C84.7838 25.2936 84.8955 25.292 84.9995 25.2921C85.1602 25.2922 85.1602 25.0431 84.9995 25.043C84.9471 25.043 84.8914 25.0453 84.8409 25.0362C84.8192 25.0324 84.8067 25.0273 84.7952 25.021C84.7963 25.0206 84.7924 25.0148 84.7919 25.0015C84.7893 24.9314 84.7401 24.8919 84.6862 24.8832C84.8164 24.6415 84.9448 24.3984 85.0704 24.1522C86.3543 21.6351 87.6897 19.139 88.7297 16.5079C89.5298 16.6657 90.3195 16.9904 91.0959 17.2265C92.1683 17.5526 93.2626 17.8907 94.3789 18.0248C94.8124 18.0771 95.7931 18.0846 95.4757 17.3702ZM77.5049 38.2283C77.8185 38.2749 78.1259 38.3486 78.4304 38.4351C78.3918 38.5607 78.3538 38.6864 78.3165 38.8122C77.2362 38.5021 76.1126 38.6921 75.0477 38.9859C75.6799 38.3205 76.514 38.0811 77.5049 38.2283ZM76.2242 38.981C76.6128 38.9188 77.0048 38.888 77.3947 38.9082C77.0056 38.948 76.6152 38.97 76.2242 38.981ZM80.1522 38.9814C79.8708 39.0918 79.5758 39.1601 79.2745 39.1998C79.0118 39.1722 78.7492 39.1445 78.4865 39.1164C78.5456 38.9124 78.6068 38.7089 78.6692 38.5059C79.1653 38.6579 79.6554 38.8357 80.1522 38.9814ZM64.145 30.6011C62.9833 30.7354 61.8164 30.7854 60.6548 30.9066C59.0652 31.0727 57.4994 31.4368 55.9247 31.7013C54.5016 31.9402 52.9286 32.2106 51.4916 31.8962C51.846 31.431 52.4124 31.172 52.9545 30.9849C53.7231 30.7195 54.5416 30.5952 55.3461 30.4996C56.9272 30.3119 58.5216 30.3113 60.1056 30.1643C62.5731 29.9354 65.0055 29.9608 67.4784 30.1057C67.8239 30.1259 68.1694 30.1442 68.515 30.1612C68.3255 30.1699 68.1358 30.1804 67.9461 30.1941C66.6752 30.2865 65.4106 30.4548 64.145 30.6011ZM87.1025 30.7329C87.4588 30.751 87.8297 30.7811 88.1954 30.8386C88.2204 30.9121 88.3261 30.9674 88.409 30.9026C88.4181 30.8955 88.4265 30.8878 88.4355 30.8807C89.2081 31.0314 89.9371 31.3253 90.431 31.9215C87.6827 31.4455 84.9108 31.1482 82.1316 30.9228C82.2377 30.9196 82.3439 30.9154 82.4501 30.9089C84.0007 30.8144 85.547 30.6532 87.1025 30.7329Z" fill="#1f454f"/>
<path d="M88.2767 23.009C88.2813 22.9225 88.333 22.8435 88.3699 22.7674C88.41 22.6849 88.4377 22.6028 88.4427 22.5107C88.4514 22.3501 88.2022 22.351 88.1936 22.5107C88.1889 22.5973 88.1373 22.6763 88.1004 22.7524C88.0604 22.8349 88.0326 22.917 88.0276 23.009C88.019 23.1697 88.2682 23.1687 88.2767 23.009Z" fill="#1f454f"/>
<path d="M86.0839 27.5814C86.2467 27.4185 86.4392 27.2398 86.4526 26.9951C86.4613 26.8345 86.2122 26.8354 86.2035 26.9951C86.1946 27.1572 86.0133 27.2996 85.9078 27.4053C85.7942 27.5191 85.9703 27.6953 86.0839 27.5814Z" fill="#1f454f"/>
<path d="M85.7417 27.9039C85.4789 28.1669 85.2286 28.4258 85.0579 28.7596C84.9849 28.9023 85.1998 29.0283 85.2729 28.8853C85.4344 28.5697 85.6693 28.3287 85.9178 28.0801C86.0315 27.9663 85.8554 27.7902 85.7417 27.9039Z" fill="#1f454f"/>
<path d="M88.2232 21.6575C88.2232 21.6575 88.2232 21.5818 88.2232 21.5061C88.2232 21.3547 87.9961 21.3547 87.9961 21.5061C87.9961 21.5818 87.9961 21.6575 87.9961 21.6575C87.9961 21.8846 88.2232 21.8846 88.2232 21.6575Z" fill="#1f454f"/>
<path d="M90.4961 18.2503C90.4961 18.326 90.4961 18.4773 90.4961 18.553C90.4961 18.7044 90.7232 18.7044 90.7232 18.553C90.7232 18.4773 90.7232 18.326 90.7232 18.2503C90.7232 18.0989 90.4961 18.0989 90.4961 18.2503Z" fill="#1f454f"/>
<path d="M81.1798 36.1719C81.1367 36.1719 81.0954 36.1727 81.0527 36.1794C80.9599 36.1941 80.9269 36.2986 80.9643 36.375C80.9844 36.4161 81.0336 36.4413 81.0718 36.4625C81.1409 36.5005 81.2123 36.5347 81.2829 36.57C81.3436 36.6004 81.4174 36.5867 81.4533 36.5254C81.486 36.4697 81.4694 36.3853 81.4087 36.355C81.3731 36.3371 81.3363 36.3199 81.2998 36.3022C81.3023 36.238 81.2626 36.1719 81.1798 36.1719Z" fill="#1f454f"/>
<path d="M83.8375 36.668C83.7343 36.6704 83.6434 36.7144 83.5893 36.8041C83.5625 36.8484 83.5473 36.9068 83.5469 36.9587C83.5463 37.0265 83.6039 37.0832 83.6715 37.0832C83.7389 37.0832 83.7938 37.0281 83.7958 36.9613C83.7976 36.9517 83.8002 36.9425 83.8033 36.9332C83.8045 36.9309 83.8056 36.9285 83.8067 36.9265C83.8082 36.9251 83.8095 36.9235 83.8111 36.922C83.8119 36.9216 83.8127 36.9211 83.8137 36.9207C83.8145 36.9204 83.8154 36.9202 83.8163 36.92C83.8185 36.9199 83.8331 36.9173 83.8376 36.9171C83.9055 36.9155 83.9622 36.8617 83.9622 36.7926C83.962 36.7259 83.9054 36.6664 83.8375 36.668ZM83.7971 36.9439C83.7975 36.9402 83.7977 36.9391 83.7971 36.9439V36.9439ZM83.8172 36.9191C83.8241 36.9161 83.8299 36.9144 83.8172 36.9191V36.9191Z" fill="#1f454f"/>
<path d="M91.0156 23.7776C91.0156 23.8533 91.023 23.9727 91.0795 24.0407C91.1336 24.106 91.2466 24.1306 91.3223 24.1306C91.4736 24.1306 91.4736 23.8815 91.3223 23.8815C91.3223 23.8815 91.2866 23.8497 91.2728 23.8496C91.2728 23.836 91.2649 23.8533 91.2649 23.7776C91.2647 23.6262 91.0156 23.6262 91.0156 23.7776Z" fill="#1f454f"/>
<path d="M92.0138 22.179C92.0199 22.3391 92.269 22.3397 92.263 22.179C92.2598 22.0919 92.2304 22.024 92.1751 21.9579C92.134 21.9088 92.0988 21.8964 92.0969 21.8469C92.091 21.6868 91.8419 21.6862 91.8478 21.8469C91.851 21.9341 91.8805 22.0019 91.9358 22.068C91.9769 22.1171 92.0121 22.1296 92.0138 22.179Z" fill="#1f454f"/>
<path d="M92.084 18.326V18.2503C92.084 18.0989 91.7812 18.0989 91.7812 18.2503V18.326C91.7812 18.553 92.084 18.553 92.084 18.326Z" fill="#1f454f"/>
</svg>
