<svg width="38" height="38" viewBox="0 0 38 38" fill="none" xmlns="http://www.w3.org/2000/svg">
<path d="M19 11.4C14.8026 11.4 11.4 14.8026 11.4 19C11.4 23.1974 14.8026 26.6 19 26.6L19 11.4Z" fill="#FBFAF1"/>
<path fill-rule="evenodd" clip-rule="evenodd" d="M19 38C29.4934 38 38 29.4934 38 19C38 8.50659 29.4934 -7.4367e-07 19 -1.66103e-06C8.5066 -2.5784e-06 2.5784e-06 8.50659 1.66103e-06 19C7.4367e-07 29.4934 8.50659 38 19 38ZM19 34.2L19 26.6C23.1974 26.6 26.6 23.1974 26.6 19C26.6 14.8026 23.1974 11.4 19 11.4L19 3.8C10.6053 3.8 3.8 10.6053 3.8 19C3.8 27.3947 10.6053 34.2 19 34.2Z" fill="#FBFAF1"/>
</svg>
