<svg width="20" height="26" viewBox="0 0 20 26" fill="none" xmlns="http://www.w3.org/2000/svg">
<path d="M8.54788 8.75C8.54788 9.5324 7.91361 10.1667 7.13121 10.1667C6.34881 10.1667 5.71454 9.5324 5.71454 8.75C5.71454 7.9676 6.34881 7.33333 7.13121 7.33333C7.91361 7.33333 8.54788 7.9676 8.54788 8.75Z" fill="#FBFAF1"/>
<path d="M12.7912 10.1667C13.5736 10.1667 14.2079 9.5324 14.2079 8.75C14.2079 7.9676 13.5736 7.33333 12.7912 7.33333C12.0088 7.33333 11.3746 7.9676 11.3746 8.75C11.3746 9.5324 12.0088 10.1667 12.7912 10.1667Z" fill="#FBFAF1"/>
<path fill-rule="evenodd" clip-rule="evenodd" d="M19.9154 25.7499V10.1667C19.9154 4.68984 15.4755 0.25 9.9987 0.25C4.52187 0.25 0.0820312 4.68984 0.0820312 10.1667V25.75L4.08902 25.75L6.09244 23.7465L8.09591 25.75L11.9017 25.75L13.9051 23.7465L15.9086 25.75L19.9154 25.7499ZM17.082 10.1667C17.082 6.25465 13.9107 3.08333 9.9987 3.08333C6.08668 3.08333 2.91536 6.25465 2.91536 10.1667V22.9166L6.09244 19.7395L9.99876 23.6459L13.9051 19.7395L17.082 22.9165V10.1667Z" fill="#FBFAF1"/>
</svg>
