<svg width="223" height="41" viewBox="0 0 223 41" fill="none" xmlns="http://www.w3.org/2000/svg">
<g clip-path="url(#clip0)">
<path d="M30.8243 36.2094C30.0555 36.7154 29.2541 37.1714 28.4252 37.5744C27.1333 38.2079 25.7788 38.7085 24.3831 39.0681C22.6736 39.5121 20.9084 39.7116 19.1415 39.6604C16.1512 39.5918 13.4739 39.0595 11.1095 38.0637C8.82939 37.1257 6.77634 35.7213 5.08551 33.9431C3.43783 32.1981 2.1531 30.1506 1.30423 27.9167C0.427885 25.6117 -0.0140211 23.1678 0.000339055 20.7057C0.000339055 17.8213 0.443662 15.1886 1.33031 12.8079C2.16275 10.5085 3.46792 8.40407 5.16375 6.62695C6.83416 4.88904 8.84929 3.50972 11.0834 2.57502C13.3609 1.61355 15.8904 1.13281 18.6721 1.13281C21.1408 1.13281 23.3487 1.45903 25.2958 2.11146C27.243 2.76388 28.8424 3.48499 30.0941 4.27477L27.382 10.6617C26.2665 9.89069 25.0789 9.22666 23.8355 8.67867C22.2785 7.98901 20.5869 7.64611 18.8807 7.67427C16.8195 7.66786 14.8002 8.24912 13.0653 9.34826C11.265 10.4743 9.78433 12.0341 8.76249 13.8809C7.6846 15.7867 7.14566 17.9414 7.14566 20.3451C7.14566 22.8518 7.64114 25.0666 8.6321 26.9896C9.57421 28.8604 11.0405 30.4247 12.8567 31.4965C14.6821 32.5782 16.8292 33.119 19.2979 33.119C21.3146 33.119 23.0531 32.8014 24.5135 32.1661C25.9738 31.5308 27.1213 30.8527 27.9558 30.1316L30.8243 36.2094Z" fill="#1F454F"/>
<path d="M70.2547 1.54492V39.2484H63.3702V23.5901H45.4808V39.2484H38.6484V1.54492H45.4808V17.0487H63.3702V1.54492H70.2547Z" fill="#1F454F"/>
<path d="M73.8477 39.2487L90.9547 0H91.3198L108.427 39.2487H99.2492L86.3216 10.6312L94.5969 10.5711L83.5469 39.2436L73.8477 39.2487Z" fill="#E94F3C"/>
<path d="M122.653 1.54492C125.679 1.54492 128.278 2.04283 130.451 3.03864C132.624 4.03445 134.293 5.45949 135.458 7.31377C136.617 9.16804 137.199 11.3829 137.205 13.9582C137.201 15.4954 136.964 17.0232 136.501 18.4909C136.034 19.9963 135.272 21.3963 134.258 22.6115C133.231 23.8477 131.858 24.8435 130.138 25.5989C128.418 26.3544 126.306 26.7321 123.801 26.7321H118.325V39.2484H111.492V1.54492H122.653ZM123.749 20.1907C125.418 20.1907 126.713 19.8559 127.634 19.1863C128.499 18.5858 129.169 17.751 129.564 16.7826C129.906 15.965 130.092 15.0917 130.112 14.2072C130.1 13.5996 130.021 12.9951 129.877 12.4044C129.704 11.6805 129.404 10.9919 128.99 10.3699C128.512 9.66312 127.852 9.09437 127.078 8.72164C126.244 8.29241 125.166 8.07779 123.844 8.07779H118.325V20.1821L123.749 20.1907ZM130.581 24.3628L140.178 39.2484H132.198L122.393 24.5259L130.581 24.3628Z" fill="#1F454F"/>
<path d="M141.219 1.75195H149.251L158.013 26.8361L156.918 26.3725L164.167 8.39642L167.297 17.6678L156.553 41.0093L141.219 1.75195ZM160.203 1.75195H166.984L176.893 26.218L175.641 26.012L183.413 1.75195H190.767L175.954 40.8977L160.203 1.75195Z" fill="#1F454F"/>
<path d="M188.422 39.2487L205.529 0H205.894L223.001 39.2487H215.073L203.651 10.6191L208.606 7.32265L195.202 39.2573L188.422 39.2487ZM199.687 25.4447H211.892L214.291 31.1621H197.601L199.687 25.4447Z" fill="#1F454F"/>
<path d="M83.5443 39.2495L79.1094 31.3689L90.7679 20.4922L83.5443 39.2495Z" fill="#1F454F"/>
<path d="M90.7695 20.4922L103.671 31.3689L99.2361 39.2495L90.7695 20.4922Z" fill="#1F454F"/>
</g>
<defs>
<clipPath id="clip0">
<rect width="223" height="41" fill="white"/>
</clipPath>
</defs>
</svg>
