<svg width="461" height="104" viewBox="0 0 461 104" fill="none" xmlns="http://www.w3.org/2000/svg">
<path fill-rule="evenodd" clip-rule="evenodd" d="M57.735 29.9958C38.6593 34.0757 13.4353 38.504 6.55984 50.5657C1.44 59.55 10.1136 70.1984 14.9821 75.3334C8.09116 69.3188 -5.03325 57.9111 2.02392 45.5285C4.98987 40.3234 14.5103 34.394 22.7546 31.2439C50.0204 20.8536 92.6728 17.3251 127.042 10.6739C189.424 -1.39787 275.467 -3.19976 333.684 11.0949C341.646 13.0472 349.152 15.8089 357.659 17.3902C392.848 23.9361 429.623 30.071 449.638 45.937C454.758 49.9919 459.944 56.7508 460.009 63.1488C460.125 75.3083 447.956 82.4055 435.392 87.0769C414.824 94.7279 384.936 98.8956 349.886 101.362C289.489 105.597 206.171 104.304 145.836 100.522C100.592 97.6851 56.4434 93.8558 35.0669 77.4335C26.6679 70.9778 21.6912 59.5826 27.9441 50.1447C33.9069 41.1329 44.3205 37.0379 57.735 29.9958ZM356.352 25.7956C348.231 23.5602 334.805 22.4199 322.671 21.1794C299.711 18.8387 276.574 17.2969 253.36 16.5607C239.47 16.1372 225.661 15.3703 215.789 16.1422C183.426 18.6658 145.116 16.5006 117.328 21.6004C103.021 24.2243 91.7525 27.9759 80.4069 31.6749C60.3722 38.1907 19.9859 54.3399 45.4265 72.8148C62.1162 84.9342 98.7285 89.6632 132.228 92.1266C200.1 97.1188 283.812 99.3492 353.765 93.8032C384.233 91.3898 425.605 86.7862 441.212 74.9123C450.752 67.6447 448.258 56.836 439.917 50.5657C427.214 41.01 401.456 34.6872 382.914 29.9958C381.951 31.4494 384.766 32.8553 386.151 34.1935" fill="#E94F3C"/>
</svg>
